<svg xmlns="http://www.w3.org/2000/svg" viewBox="0 0 162.27 197.84"><defs><style>.cls-1{fill:#fff;}.cls-2{fill:#e4e4ea;}.cls-3{fill:#3d34b7;}.cls-4{fill:#d0d0dd;opacity:0.4;}.cls-5{fill:#fafafa;}.cls-6{opacity:0.8;}.cls-7{opacity:0.7;}.cls-8{opacity:0.5;}.cls-9{fill:#cdcdd1;}.cls-10{opacity:0.3;}</style></defs><title>자산 3</title><g id="레이어_2" data-name="레이어 2"><g id="레이어_1-2" data-name="레이어 1"><rect class="cls-1" x="43.93" y="10.49" width="110.49" height="146.97" rx="2.97" ry="2.97"/><path class="cls-2" d="M151.46,11a2.43,2.43,0,0,1,2.43,2.43v141a2.43,2.43,0,0,1-2.43,2.43H46.9a2.43,2.43,0,0,1-2.43-2.43v-141A2.43,2.43,0,0,1,46.9,11H151.46m0-1.07H46.9a3.5,3.5,0,0,0-3.5,3.5v141a3.5,3.5,0,0,0,3.5,3.5H151.46a3.5,3.5,0,0,0,3.5-3.5v-141a3.5,3.5,0,0,0-3.5-3.5Z"/><rect class="cls-1" x="51.24" y="3.38" width="110.5" height="146.97" rx="2.97" ry="2.97"/><path class="cls-2" d="M158.77,3.91a2.43,2.43,0,0,1,2.43,2.43v141a2.43,2.43,0,0,1-2.43,2.43H54.2a2.43,2.43,0,0,1-2.43-2.43V6.35A2.43,2.43,0,0,1,54.2,3.91H158.77m0-1.07H54.2a3.5,3.5,0,0,0-3.5,3.5v141a3.5,3.5,0,0,0,3.5,3.5H158.77a3.5,3.5,0,0,0,3.5-3.5V6.35a3.5,3.5,0,0,0-3.5-3.5Z"/><path class="cls-3" d="M136.15,19.19a4.27,4.27,0,0,1-4.27-4.27V4.44h1V14.92a3.24,3.24,0,1,0,6.47,0V9.6h1v5.31A4.27,4.27,0,0,1,136.15,19.19Z"/><path class="cls-3" d="M135.82,12.68h-1V7a2.82,2.82,0,1,1,5.64,0v3.26h-1V7a1.79,1.79,0,1,0-3.57,0Z"/><path class="cls-3" d="M139.5,2.84h1.16a4.55,4.55,0,0,0-8.77,1.71V5h1V4.55a3.51,3.51,0,0,1,6.59-1.71Z"/><rect class="cls-4" x="63.55" y="81.22" width="95.44" height="9.58" transform="translate(25.27 197.28) rotate(-90)"/><rect class="cls-3" x="84.64" y="102.3" width="53.27" height="9.58" transform="translate(4.18 218.37) rotate(-90)"/><rect class="cls-4" x="80.19" y="81.22" width="95.44" height="9.58" transform="translate(41.91 213.92) rotate(-90)"/><rect class="cls-3" x="94.16" y="95.18" width="67.51" height="9.58" transform="translate(27.94 227.89) rotate(-90)"/><rect class="cls-4" x="96.83" y="81.22" width="95.44" height="9.58" transform="translate(58.54 230.56) rotate(-90)"/><rect class="cls-3" x="130.82" y="115.21" width="27.47" height="9.58" transform="translate(24.56 264.55) rotate(-90)"/><rect class="cls-1" x="0.52" y="28.99" width="98.25" height="168.34" rx="9.72" ry="9.72"/><path class="cls-2" d="M89,29.49a9.22,9.22,0,0,1,9.22,9.22V187.62A9.22,9.22,0,0,1,89,196.84H10.24A9.22,9.22,0,0,1,1,187.62V38.71a9.22,9.22,0,0,1,9.22-9.22H89m0-1H10.24A10.23,10.23,0,0,0,0,38.71V187.62a10.23,10.23,0,0,0,10.22,10.22H89a10.23,10.23,0,0,0,10.22-10.22V38.71A10.23,10.23,0,0,0,89,28.49Z"/><path class="cls-5" d="M10.36,197.34A9.87,9.87,0,0,1,.5,187.48V93.13a2,2,0,0,1,0-.27V50.79a9.69,9.69,0,0,1,9.67-9.67h78.9a9.69,9.69,0,0,1,9.67,9.67V98.89a2,2,0,0,1,0,.27v88.33a9.87,9.87,0,0,1-9.86,9.86Z"/><path class="cls-2" d="M89.11,41.62a9.17,9.17,0,0,1,9.17,9.17V98.89c0,.11,0,.22,0,.33v88.27a9.36,9.36,0,0,1-9.36,9.36H10.36A9.36,9.36,0,0,1,1,187.48V93.13c0-.11,0-.22,0-.33v-42a9.17,9.17,0,0,1,9.17-9.17h78.9m0-1H10.21A10.19,10.19,0,0,0,0,50.79v42a2.47,2.47,0,0,0,0,.34v94.35a10.37,10.37,0,0,0,10.36,10.36H88.89a10.37,10.37,0,0,0,10.36-10.36V99.23a2.5,2.5,0,0,0,0-.34V50.79A10.19,10.19,0,0,0,89.11,40.62Z"/><rect class="cls-3" x="14.34" y="81.87" width="70.6" height="45.93" rx="3.1" ry="3.1"/><g class="cls-6"><circle class="cls-2" cx="67.79" cy="91.47" r="4.58"/></g><g class="cls-6"><circle class="cls-5" cx="74.15" cy="91.47" r="4.58"/></g><g class="cls-6"><path class="cls-5" d="M69.56,91.47A4.57,4.57,0,0,0,71,94.78a4.58,4.58,0,0,0,0-6.61A4.57,4.57,0,0,0,69.56,91.47Z"/></g><g class="cls-7"><g class="cls-8"><rect class="cls-5" x="19.67" y="105.93" width="39.32" height="5.32"/></g><g class="cls-8"><rect class="cls-5" x="19.67" y="117.09" width="39.32" height="5.32"/></g><g class="cls-8"><rect class="cls-5" x="63.21" y="116.88" width="7.1" height="5.32"/></g><g class="cls-8"><rect class="cls-5" x="73.31" y="116.88" width="7.1" height="5.32"/></g></g><polygon class="cls-5" points="23.16 109.31 23.06 109.22 24.25 107.86 24.36 107.95 23.16 109.31"/><polygon class="cls-5" points="24.25 109.31 23.06 107.95 23.16 107.86 24.36 109.22 24.25 109.31"/><polygon class="cls-5" points="24.84 109.31 24.74 109.22 25.93 107.86 26.04 107.95 24.84 109.31"/><polygon class="cls-5" points="25.93 109.31 24.74 107.95 24.84 107.86 26.04 109.22 25.93 109.31"/><polygon class="cls-5" points="26.52 109.31 26.42 109.22 27.61 107.86 27.72 107.95 26.52 109.31"/><polygon class="cls-5" points="27.61 109.31 26.42 107.95 26.52 107.86 27.72 109.22 27.61 109.31"/><polygon class="cls-5" points="28.2 109.31 28.1 109.22 29.3 107.86 29.4 107.95 28.2 109.31"/><polygon class="cls-5" points="29.3 109.31 28.1 107.95 28.2 107.86 29.4 109.22 29.3 109.31"/><polygon class="cls-5" points="31.9 109.31 31.79 109.22 32.99 107.86 33.09 107.95 31.9 109.31"/><polygon class="cls-5" points="32.99 109.31 31.79 107.95 31.9 107.86 33.09 109.22 32.99 109.31"/><polygon class="cls-5" points="33.58 109.31 33.47 109.22 34.67 107.86 34.77 107.95 33.58 109.31"/><polygon class="cls-5" points="34.67 109.31 33.47 107.95 33.58 107.86 34.77 109.22 34.67 109.31"/><polygon class="cls-5" points="35.26 109.31 35.15 109.22 36.35 107.86 36.45 107.95 35.26 109.31"/><polygon class="cls-5" points="36.35 109.31 35.15 107.95 35.26 107.86 36.45 109.22 36.35 109.31"/><polygon class="cls-5" points="36.94 109.31 36.83 109.22 38.03 107.86 38.13 107.95 36.94 109.31"/><polygon class="cls-5" points="38.03 109.31 36.83 107.95 36.94 107.86 38.13 109.22 38.03 109.31"/><polygon class="cls-5" points="40.63 109.31 40.52 109.22 41.72 107.86 41.83 107.95 40.63 109.31"/><polygon class="cls-5" points="41.72 109.31 40.52 107.95 40.63 107.86 41.83 109.22 41.72 109.31"/><polygon class="cls-5" points="42.31 109.31 42.2 109.22 43.4 107.86 43.51 107.95 42.31 109.31"/><polygon class="cls-5" points="43.4 109.31 42.2 107.95 42.31 107.86 43.51 109.22 43.4 109.31"/><polygon class="cls-5" points="43.99 109.31 43.88 109.22 45.08 107.86 45.19 107.95 43.99 109.31"/><polygon class="cls-5" points="45.08 109.31 43.88 107.95 43.99 107.86 45.19 109.22 45.08 109.31"/><polygon class="cls-5" points="45.67 109.31 45.56 109.22 46.76 107.86 46.87 107.95 45.67 109.31"/><polygon class="cls-5" points="46.76 109.31 45.56 107.95 45.67 107.86 46.87 109.22 46.76 109.31"/><polygon class="cls-5" points="49.36 109.31 49.26 109.22 50.45 107.86 50.56 107.95 49.36 109.31"/><polygon class="cls-5" points="50.45 109.31 49.26 107.95 49.36 107.86 50.56 109.22 50.45 109.31"/><polygon class="cls-5" points="51.05 109.31 50.94 109.22 52.13 107.86 52.24 107.95 51.05 109.31"/><polygon class="cls-5" points="52.13 109.31 50.94 107.95 51.05 107.86 52.24 109.22 52.13 109.31"/><polygon class="cls-5" points="52.73 109.31 52.62 109.22 53.81 107.86 53.92 107.95 52.73 109.31"/><polygon class="cls-5" points="53.81 109.31 52.62 107.95 52.73 107.86 53.92 109.22 53.81 109.31"/><polygon class="cls-5" points="54.41 109.31 54.3 109.22 55.49 107.86 55.6 107.95 54.41 109.31"/><polygon class="cls-5" points="55.49 109.31 54.3 107.95 54.41 107.86 55.6 109.22 55.49 109.31"/><polygon class="cls-5" points="65.42 120.26 65.32 120.17 66.51 118.81 66.62 118.91 65.42 120.26"/><polygon class="cls-5" points="66.51 120.26 65.32 118.91 65.42 118.81 66.62 120.17 66.51 120.26"/><polygon class="cls-5" points="67.1 120.26 67 120.17 68.19 118.81 68.3 118.91 67.1 120.26"/><polygon class="cls-5" points="68.19 120.26 67 118.91 67.1 118.81 68.3 120.17 68.19 120.26"/><polygon class="cls-5" points="75.47 120.26 75.37 120.17 76.56 118.81 76.67 118.91 75.47 120.26"/><polygon class="cls-5" points="76.56 120.26 75.37 118.91 75.47 118.81 76.67 120.17 76.56 120.26"/><polygon class="cls-5" points="77.15 120.26 77.05 120.17 78.24 118.81 78.35 118.91 77.15 120.26"/><polygon class="cls-5" points="78.24 120.26 77.05 118.91 77.15 118.81 78.35 120.17 78.24 120.26"/><circle class="cls-5" cx="23.85" cy="119.75" r="0.6"/><circle class="cls-5" cx="25.97" cy="119.75" r="0.6"/><circle class="cls-5" cx="28.08" cy="119.75" r="0.6"/><circle class="cls-5" cx="30.19" cy="119.75" r="0.6"/><circle class="cls-5" cx="32.31" cy="119.75" r="0.6"/><circle class="cls-5" cx="34.42" cy="119.75" r="0.6"/><circle class="cls-5" cx="38.29" cy="119.75" r="0.6"/><circle class="cls-5" cx="40.4" cy="119.75" r="0.6"/><circle class="cls-5" cx="42.51" cy="119.75" r="0.6"/><path class="cls-3" d="M37.07,65.43V68h1.21v.46H37.07v1.8H36.6v-1.8h-4V68l3.89-5.5h.56L33.18,68H36.6V65.43Z"/><path class="cls-3" d="M43.25,67.92A1.72,1.72,0,0,0,41.31,66a2.22,2.22,0,0,0-1.66.71h-.54l.25-4.2h3.88v.44H39.79l-.18,3.29a2.57,2.57,0,0,1,1.76-.68,2.17,2.17,0,0,1,2.36,2.35v.2a2.26,2.26,0,0,1-2.55,2.28,3.93,3.93,0,0,1-2.49-.86l.27-.4a3.49,3.49,0,0,0,2.22.82,1.86,1.86,0,0,0,2.08-1.83Z"/><path class="cls-3" d="M44.38,69.52h.86v.93h-.86Z"/><path class="cls-3" d="M51,67c0,2.2-.72,3.4-2.55,3.4S46,69.14,46,67V65.76c0-2.18.73-3.39,2.51-3.39S51,63.59,51,65.76Zm-.46-1.22c0-1.91-.56-3-2.09-3s-2,1.06-2,3V67c0,1.92.56,3,2,3s2.09-1,2.09-3Z"/><path class="cls-3" d="M56.85,67c0,2.2-.72,3.4-2.55,3.4s-2.51-1.23-2.51-3.4V65.76c0-2.18.73-3.39,2.51-3.39s2.55,1.22,2.55,3.39Zm-.46-1.22c0-1.91-.56-3-2.09-3s-2,1.06-2,3V67c0,1.92.56,3,2,3s2.09-1,2.09-3Z"/><path class="cls-3" d="M62.67,67c0,2.2-.72,3.4-2.55,3.4s-2.51-1.23-2.51-3.4V65.76c0-2.18.73-3.39,2.51-3.39s2.55,1.22,2.55,3.39Zm-.46-1.22c0-1.91-.56-3-2.09-3s-2,1.06-2,3V67c0,1.92.56,3,2,3s2.09-1,2.09-3Z"/><path class="cls-3" d="M64.66,68.93v-.56h-1V68c.94,0,1.57,0,2.51-.09l0,.35c-.36,0-.73.06-1.15.08v.58Zm-.72-1.8V67c0-.35.37-.67,1-.67s1,.32,1,.67v.14c0,.35-.37.67-1,.67S63.94,67.48,63.94,67.13Zm.8,2.65H67v.36H64.32V69.09h.42Zm.73-2.68V67c0-.17-.2-.34-.57-.34s-.57.17-.57.34v.08c0,.17.21.34.57.34S65.48,67.27,65.48,67.1Zm1,2.19v-.35h-.83v-.35h.83V66.25h.42v3Z"/><path class="cls-3" d="M42.17,54.19H40.69v-.42h2v.62c0,.8-.41,1.07-2,1.66l-.17-.4c1.43-.55,1.68-.75,1.68-1.28Zm-.82,4.07V57h2.4v-.43H41.32v-.41h2.91v1.25h-2.4v.44h2.53v.41Zm2.4-2.34V55.4h-.9V55h.9v-.46h-.82v-.42h.82v-.54h.49v2.35Z"/><path class="cls-3" d="M45.87,56a1.2,1.2,0,0,1-.22.33c-.2.24-.46.52-.73.79l-.34-.34a7.53,7.53,0,0,0,.78-.84,1.2,1.2,0,0,0,.25-.8v-.67h-.8V54h2v.42H46.1v.67a1.19,1.19,0,0,0,.27.79,7.45,7.45,0,0,0,.73.8l-.34.33c-.27-.27-.48-.49-.68-.73a1.17,1.17,0,0,1-.21-.33Zm1.46-2.29h.49V58h-.49V55.53h-.71V55.1h.71Zm1.42,4.56h-.49V53.57h.49Z"/><path class="cls-3" d="M49.58,53.77h3.08v.72a5.81,5.81,0,0,1-.1,1h.74v.42H49v-.42h3a4.83,4.83,0,0,0,.11-1v-.27H49.58Zm3.11,4.46H49.64V56.46h3.05Zm-.5-1.35H50.13v.93h2.06Z"/><path class="cls-3" d="M55.48,54.77V55a1,1,0,0,1-2.08,0v-.2a1,1,0,0,1,2.08,0Zm-.47.17V54.8a.56.56,0,0,0-.57-.62.55.55,0,0,0-.57.62v.14a.57.57,0,1,0,1.13,0Zm-.74,1.59h3.06v1.74h-.5V57H54.27Zm2.58-3h.48v2.72h-.48v-1.2h-.47v1.19H55.9V53.63h.47v1h.47Z"/><rect class="cls-9" x="47.52" y="134.89" width="4.18" height="0.77"/><rect class="cls-9" x="41.58" y="134.89" width="4.18" height="0.77"/><rect class="cls-9" x="53.45" y="134.89" width="4.18" height="0.77"/><g class="cls-8"><path class="cls-9" d="M43.87,151.53a45.8,45.8,0,0,0,.22,4.72c0,.05.54,4.46,5.83,6.07a8.37,8.37,0,0,0,4.92-3.63,6.63,6.63,0,0,0,.91-2.43,45.77,45.77,0,0,0,.22-4.73l-6-3.09Z"/><path class="cls-9" d="M49.92,147.55l-7,3.49a52,52,0,0,0,.25,5.33s.54,5,6.74,6.83c6.2-1.82,6.74-6.83,6.74-6.83a52,52,0,0,0,.25-5.33Zm6.33,3.9A47.27,47.27,0,0,1,56,156.3s-.55,4.65-6.07,6.31h-.08a8.66,8.66,0,0,1-5.13-3.78,6.78,6.78,0,0,1-.95-2.54,47.4,47.4,0,0,1-.22-4.84v-.09l6.33-3.24,6.33,3.24Z"/></g><polygon class="cls-3" points="48.45 158.25 46.15 155.94 46.82 155.27 48.41 156.86 52.92 151.76 53.63 152.39 48.45 158.25"/><rect class="cls-3" x="30.68" y="179.56" width="6.49" height="0.6"/><rect class="cls-3" x="41.16" y="179.56" width="6.49" height="0.6"/><rect class="cls-3" x="51.63" y="179.56" width="6.49" height="0.6"/><rect class="cls-3" x="62.1" y="179.56" width="6.49" height="0.6"/><path class="cls-3" d="M35.68,174.3a.29.29,0,0,1-.09.24.36.36,0,0,1-.24.07,2.63,2.63,0,0,1-.46-.09,6.15,6.15,0,0,0-.82-.15,4.69,4.69,0,0,0,.37.45l.29.31a2,2,0,0,1,.18.22.36.36,0,0,1,.07.21.26.26,0,0,1-.11.21.34.34,0,0,1-.22.09.27.27,0,0,1-.15,0,.38.38,0,0,1-.12-.13,1.76,1.76,0,0,1-.14-.41,5.8,5.8,0,0,0-.3-.82,8.05,8.05,0,0,0-.29.83,1.84,1.84,0,0,1-.14.41.51.51,0,0,1-.12.13.25.25,0,0,1-.15,0,.35.35,0,0,1-.23-.08.26.26,0,0,1-.1-.21.35.35,0,0,1,.06-.2,2.13,2.13,0,0,1,.19-.23l.29-.31a4.8,4.8,0,0,0,.36-.45,5.1,5.1,0,0,0-.8.14,2.51,2.51,0,0,1-.48.1.37.37,0,0,1-.24-.07.29.29,0,0,1-.09-.24.29.29,0,0,1,.09-.23.35.35,0,0,1,.24-.08,2.07,2.07,0,0,1,.46.09,4.91,4.91,0,0,0,.82.14,5.64,5.64,0,0,0-.36-.44l-.29-.32a1.92,1.92,0,0,1-.19-.23.36.36,0,0,1-.06-.2.26.26,0,0,1,.11-.21.34.34,0,0,1,.22-.09.27.27,0,0,1,.15,0,.4.4,0,0,1,.12.13,2.46,2.46,0,0,1,.16.47,5.44,5.44,0,0,0,.28.76,5.53,5.53,0,0,0,.29-.78,2.43,2.43,0,0,1,.15-.45.39.39,0,0,1,.12-.13.26.26,0,0,1,.15,0,.35.35,0,0,1,.23.08.26.26,0,0,1,.1.21.66.66,0,0,1-.24.42,9.18,9.18,0,0,0-.66.77,5.94,5.94,0,0,0,.82-.14,2.39,2.39,0,0,1,.46-.09.35.35,0,0,1,.24.08A.29.29,0,0,1,35.68,174.3Z"/><path class="cls-3" d="M46.15,174.3a.29.29,0,0,1-.09.24.36.36,0,0,1-.24.07,2.63,2.63,0,0,1-.46-.09,6.15,6.15,0,0,0-.82-.15,4.69,4.69,0,0,0,.37.45l.29.31a2,2,0,0,1,.18.22.36.36,0,0,1,.07.21.26.26,0,0,1-.11.21.34.34,0,0,1-.22.09.27.27,0,0,1-.15,0,.38.38,0,0,1-.12-.13,1.76,1.76,0,0,1-.14-.41,5.8,5.8,0,0,0-.3-.82,8.05,8.05,0,0,0-.29.83,1.84,1.84,0,0,1-.14.41.51.51,0,0,1-.12.13.25.25,0,0,1-.15,0,.35.35,0,0,1-.23-.08.26.26,0,0,1-.1-.21.35.35,0,0,1,.06-.2,2.13,2.13,0,0,1,.19-.23l.29-.31a4.8,4.8,0,0,0,.36-.45,5.1,5.1,0,0,0-.8.14,2.51,2.51,0,0,1-.48.1.37.37,0,0,1-.24-.07.29.29,0,0,1-.09-.24.29.29,0,0,1,.09-.23A.35.35,0,0,1,43,174a2.07,2.07,0,0,1,.46.09,4.91,4.91,0,0,0,.82.14,5.64,5.64,0,0,0-.36-.44l-.29-.32a1.92,1.92,0,0,1-.19-.23.36.36,0,0,1-.06-.2.26.26,0,0,1,.11-.21.34.34,0,0,1,.22-.09.27.27,0,0,1,.15,0,.4.4,0,0,1,.12.13,2.46,2.46,0,0,1,.16.47,5.44,5.44,0,0,0,.28.76,5.53,5.53,0,0,0,.29-.78,2.43,2.43,0,0,1,.15-.45.39.39,0,0,1,.12-.13.26.26,0,0,1,.15,0,.35.35,0,0,1,.23.08.26.26,0,0,1,.1.21.66.66,0,0,1-.24.42,9.18,9.18,0,0,0-.66.77,5.94,5.94,0,0,0,.82-.14,2.39,2.39,0,0,1,.46-.09.35.35,0,0,1,.24.08A.29.29,0,0,1,46.15,174.3Z"/><path class="cls-3" d="M56.62,174.3a.29.29,0,0,1-.09.24.36.36,0,0,1-.24.07,2.63,2.63,0,0,1-.46-.09,6.15,6.15,0,0,0-.82-.15,4.69,4.69,0,0,0,.37.45l.29.31a2,2,0,0,1,.18.22.36.36,0,0,1,.07.21.26.26,0,0,1-.11.21.34.34,0,0,1-.22.09.27.27,0,0,1-.15,0,.38.38,0,0,1-.12-.13,1.76,1.76,0,0,1-.14-.41,5.8,5.8,0,0,0-.3-.82,8.05,8.05,0,0,0-.29.83,1.84,1.84,0,0,1-.14.41.51.51,0,0,1-.12.13.25.25,0,0,1-.15,0,.35.35,0,0,1-.23-.08.26.26,0,0,1-.1-.21.35.35,0,0,1,.06-.2,2.13,2.13,0,0,1,.19-.23l.29-.31a4.8,4.8,0,0,0,.36-.45,5.1,5.1,0,0,0-.8.14,2.51,2.51,0,0,1-.48.1.37.37,0,0,1-.24-.07.29.29,0,0,1-.09-.24.29.29,0,0,1,.09-.23.35.35,0,0,1,.24-.08,2.07,2.07,0,0,1,.46.09,4.91,4.91,0,0,0,.82.14,5.64,5.64,0,0,0-.36-.44l-.29-.32a1.92,1.92,0,0,1-.19-.23.36.36,0,0,1-.06-.2.26.26,0,0,1,.11-.21.34.34,0,0,1,.22-.09.27.27,0,0,1,.15,0,.4.4,0,0,1,.12.13,2.46,2.46,0,0,1,.16.47,5.44,5.44,0,0,0,.28.76,5.53,5.53,0,0,0,.29-.78,2.43,2.43,0,0,1,.15-.45.39.39,0,0,1,.12-.13.26.26,0,0,1,.15,0,.35.35,0,0,1,.23.08.26.26,0,0,1,.1.21.66.66,0,0,1-.24.42,9.18,9.18,0,0,0-.66.77,5.94,5.94,0,0,0,.82-.14,2.39,2.39,0,0,1,.46-.09.35.35,0,0,1,.24.08A.29.29,0,0,1,56.62,174.3Z"/><path class="cls-3" d="M67.1,174.3a.29.29,0,0,1-.09.24.36.36,0,0,1-.24.07,2.63,2.63,0,0,1-.46-.09,6.15,6.15,0,0,0-.82-.15,4.69,4.69,0,0,0,.37.45l.29.31a2,2,0,0,1,.18.22.36.36,0,0,1,.07.21.26.26,0,0,1-.11.21.34.34,0,0,1-.22.09.27.27,0,0,1-.15,0,.38.38,0,0,1-.12-.13,1.76,1.76,0,0,1-.14-.41,5.8,5.8,0,0,0-.3-.82,8.05,8.05,0,0,0-.29.83,1.84,1.84,0,0,1-.14.41.51.51,0,0,1-.12.13.25.25,0,0,1-.15,0,.35.35,0,0,1-.23-.08.26.26,0,0,1-.1-.21.35.35,0,0,1,.06-.2,2.13,2.13,0,0,1,.19-.23l.29-.31a4.8,4.8,0,0,0,.36-.45,5.1,5.1,0,0,0-.8.14,2.51,2.51,0,0,1-.48.1.37.37,0,0,1-.24-.07.29.29,0,0,1-.09-.24.29.29,0,0,1,.09-.23.35.35,0,0,1,.24-.08,2.07,2.07,0,0,1,.46.09,4.91,4.91,0,0,0,.82.14,5.64,5.64,0,0,0-.36-.44l-.29-.32a1.92,1.92,0,0,1-.19-.23.36.36,0,0,1-.06-.2.26.26,0,0,1,.11-.21.34.34,0,0,1,.22-.09.27.27,0,0,1,.15,0,.4.4,0,0,1,.12.13,2.46,2.46,0,0,1,.16.47,5.44,5.44,0,0,0,.28.76,5.53,5.53,0,0,0,.29-.78,2.43,2.43,0,0,1,.15-.45.39.39,0,0,1,.12-.13.26.26,0,0,1,.15,0,.35.35,0,0,1,.23.08.26.26,0,0,1,.1.21.66.66,0,0,1-.24.42,9.18,9.18,0,0,0-.66.77,5.94,5.94,0,0,0,.82-.14,2.39,2.39,0,0,1,.46-.09.35.35,0,0,1,.24.08A.29.29,0,0,1,67.1,174.3Z"/><g class="cls-10"><rect class="cls-5" x="19.67" y="87.92" width="7.1" height="7.1" rx="1.6" ry="1.6"/></g><rect class="cls-2" x="45.29" y="36.19" width="9.63" height="1.12"/><circle class="cls-2" cx="43.14" cy="36.75" r="0.74"/></g></g></svg>