<svg xmlns="http://www.w3.org/2000/svg" xmlns:xlink="http://www.w3.org/1999/xlink" viewBox="0 0 947.51 79.02"><defs><style>.cls-1{fill:#b8f4ee;}.cls-2{fill:#2c1f7c;}.cls-3{fill:#6999f9;}.cls-4{fill:#fff;}.cls-5{fill:none;stroke:#2c1f7c;stroke-miterlimit:10;stroke-width:1.91px;}.cls-6{fill:url(#무제_그라디언트_2);}</style><radialGradient id="무제_그라디언트_2" cx="80.8" cy="35.5" r="1124.24" gradientUnits="userSpaceOnUse"><stop offset="0" stop-color="#4529e5"/><stop offset="0.14" stop-color="#4529e5" stop-opacity="0.85"/><stop offset="0.56" stop-color="#4529e5" stop-opacity="0.4"/><stop offset="0.86" stop-color="#4529e5" stop-opacity="0.11"/><stop offset="1" stop-color="#4529e5" stop-opacity="0"/></radialGradient></defs><title>자산 8</title><g id="레이어_2" data-name="레이어 2"><g id="레이어_5" data-name="레이어 5"><circle class="cls-1" cx="39.51" cy="39.51" r="39.51"/><path class="cls-2" d="M58.28,58.19H28.58a.9.9,0,1,1,0-1.8h29.7a.9.9,0,0,1,0,1.8Z"/><path class="cls-2" d="M19.26,60.75a.9.9,0,0,1-.64-1.54l5.13-5.12A.9.9,0,0,1,25,55.36l-5.12,5.13A.9.9,0,0,1,19.26,60.75Z"/><path class="cls-2" d="M24.38,60.75a.9.9,0,0,1-.64-.26l-5.12-5.12a.9.9,0,1,1,1.27-1.27L25,59.22a.9.9,0,0,1-.64,1.54Z"/><path class="cls-3" d="M59.16,19.38a4.73,4.73,0,0,0-6.45.35L30,42.45l-3.7,10.06a.07.07,0,0,0,.08.08l10.06-3.7L59.33,26A4.56,4.56,0,0,0,59.16,19.38Z"/><path class="cls-2" d="M57.33,28a4.1,4.1,0,0,1,.53,3.6c-.84,2.64-3.33,4.46-8.08,5.91-.25.07-6.06,1.81-7.59,7.62a9.08,9.08,0,0,0,.4,4.9,1.11,1.11,0,1,0,2.05-.83,6.9,6.9,0,0,1-.31-3.54h0c1.2-4.54,6-6,6.07-6,5.53-1.69,8.48-4,9.56-7.37a6.33,6.33,0,0,0-1.06-5.85Z"/><rect class="cls-2" x="50.84" y="22.34" width="2.28" height="9.11" transform="translate(-3.79 44.64) rotate(-45)"/><rect class="cls-2" x="32.9" y="40.31" width="2.22" height="9.11" transform="translate(-21.76 37.19) rotate(-45)"/><circle class="cls-1" cx="329.01" cy="39.51" r="39.51"/><rect class="cls-4" x="339.17" y="35.99" width="4.08" height="16.76"/><rect class="cls-4" x="315.71" y="19.48" width="26" height="36" rx="2" ry="2"/><rect class="cls-3" x="331.51" y="34.29" width="8.22" height="18.71"/><rect class="cls-3" x="312.21" y="23.54" width="26" height="36" rx="2" ry="2"/><path class="cls-4" d="M327.25,28.81h-9.83a1,1,0,1,0,0,2h9.83a1,1,0,1,0,0-2Z"/><rect class="cls-4" x="330.28" y="28.59" width="3.76" height="2" rx="1" ry="1"/><rect class="cls-4" x="316.38" y="52.01" width="7.97" height="2" rx="1" ry="1"/><path class="cls-4" d="M326.17,40.43h7.63a1.1,1.1,0,0,0,0-2.19h-6.67"/><path class="cls-4" d="M327,38.77h-9.58a1,1,0,0,0,0,2h8.7"/><path class="cls-4" d="M325.21,45.27h8.59a1.1,1.1,0,0,0,0-2.19h-8.11"/><path class="cls-4" d="M325.65,43.18h-8.27a1,1,0,0,0,0,2h7.83"/><path class="cls-4" d="M326.17,50.11h7.63a1.1,1.1,0,0,0,0-2.19h-7.63"/><path class="cls-4" d="M326.08,47.6h-8.7a1,1,0,0,0,0,2h8.7"/><path class="cls-2" d="M335.31,55.74a11.6,11.6,0,1,1,11.6-11.6A11.61,11.61,0,0,1,335.31,55.74Zm0-20.37a8.77,8.77,0,1,0,8.77,8.77A8.78,8.78,0,0,0,335.31,35.37Z"/><path class="cls-2" d="M347.63,59.54a2.18,2.18,0,0,1-1.54-.64L341.22,54A2.18,2.18,0,0,1,344.31,51l4.86,4.86a2.18,2.18,0,0,1-1.54,3.73Z"/><circle class="cls-1" cx="618.5" cy="39.51" r="39.51"/><rect class="cls-3" x="617.55" y="20.3" width="1.91" height="38.43"/><rect class="cls-3" x="599.29" y="38.56" width="38.43" height="1.91"/><rect class="cls-3" x="617.55" y="20.3" width="1.91" height="38.43" transform="translate(153.22 448.92) rotate(-45)"/><rect class="cls-3" x="599.29" y="38.56" width="38.43" height="1.91" transform="translate(153.22 448.92) rotate(-45)"/><circle class="cls-3" cx="618.5" cy="21.23" r="4.22"/><circle class="cls-3" cx="618.5" cy="57.79" r="4.22"/><circle class="cls-3" cx="636.79" cy="39.51" r="4.22"/><circle class="cls-3" cx="600.22" cy="39.51" r="4.22"/><circle class="cls-3" cx="605.58" cy="26.59" r="4.22" transform="translate(158.57 436) rotate(-45)"/><circle class="cls-3" cx="631.43" cy="52.44" r="4.22" transform="translate(147.86 461.85) rotate(-45)"/><circle class="cls-3" cx="631.43" cy="26.59" r="4.22" transform="translate(166.14 454.28) rotate(-45)"/><circle class="cls-3" cx="605.58" cy="52.44" r="4.22" transform="translate(140.29 443.57) rotate(-45)"/><circle class="cls-2" cx="618.5" cy="39.51" r="5.63"/><circle class="cls-1" cx="908" cy="39.51" r="39.51"/><rect class="cls-3" x="885.5" y="24.24" width="45" height="31.03" rx="3.09" ry="3.09"/><circle class="cls-2" cx="897.48" cy="32.6" r="3.14"/><path class="cls-2" d="M903.34,42.92a5.85,5.85,0,0,0-11.68,0Z"/><rect class="cls-4" x="907.8" y="29.77" width="8.21" height="2.06" rx="1.03" ry="1.03"/><path class="cls-4" d="M922.88,33.95H908.83a1,1,0,0,0,0,2.06h14.05a1,1,0,1,0,0-2.06Z"/><path class="cls-4" d="M922.88,38.12H908.83a1,1,0,0,0,0,2.06h14.05a1,1,0,1,0,0-2.06Z"/><circle class="cls-5" cx="920.63" cy="45.78" r="5.74"/><circle class="cls-4" cx="920.63" cy="45.78" r="2.87"/><path class="cls-2" d="M925.16,49.3a5.73,5.73,0,0,1-4.42,2.22l3.9,7.26,1-3.83,3.83,1Z"/><path class="cls-2" d="M916.21,49.3a5.73,5.73,0,0,0,4.42,2.22l-3.9,7.26-1-3.83-3.83,1Z"/><rect class="cls-4" x="891.66" y="47.35" width="5.48" height="2.06" rx="1.03" ry="1.03"/><rect class="cls-4" x="899.24" y="47.35" width="8.21" height="2.06" rx="1.03" ry="1.03"/><polygon class="cls-6" points="277.76 39.51 271.24 44.01 271.24 35.01 277.76 39.51"/><polygon class="cls-6" points="263.02 39.51 256.5 44.01 256.5 35.01 263.02 39.51"/><polygon class="cls-6" points="248.27 39.51 241.75 44.01 241.75 35.01 248.27 39.51"/><polygon class="cls-6" points="233.53 39.51 227.01 44.01 227.01 35.01 233.53 39.51"/><polygon class="cls-6" points="204.04 39.51 197.52 44.01 197.52 35.01 204.04 39.51"/><polygon class="cls-6" points="189.3 39.51 182.78 44.01 182.78 35.01 189.3 39.51"/><polygon class="cls-6" points="174.55 39.51 168.03 44.01 168.03 35.01 174.55 39.51"/><polygon class="cls-6" points="159.81 39.51 153.29 44.01 153.29 35.01 159.81 39.51"/><polygon class="cls-6" points="145.06 39.51 138.54 44.01 138.54 35.01 145.06 39.51"/><polygon class="cls-6" points="130.32 39.51 123.8 44.01 123.8 35.01 130.32 39.51"/><polygon class="cls-6" points="115.57 39.51 109.05 44.01 109.05 35.01 115.57 39.51"/><polygon class="cls-6" points="100.83 39.51 94.31 44.01 94.31 35.01 100.83 39.51"/><polygon class="cls-6" points="218.78 39.51 212.27 44.01 212.27 35.01 218.78 39.51"/><polygon class="cls-6" points="567.9 39.51 561.38 44.01 561.38 35.01 567.9 39.51"/><polygon class="cls-6" points="553.16 39.51 546.64 44.01 546.64 35.01 553.16 39.51"/><polygon class="cls-6" points="538.41 39.51 531.89 44.01 531.89 35.01 538.41 39.51"/><polygon class="cls-6" points="523.67 39.51 517.15 44.01 517.15 35.01 523.67 39.51"/><polygon class="cls-6" points="494.18 39.51 487.66 44.01 487.66 35.01 494.18 39.51"/><polygon class="cls-6" points="479.44 39.51 472.92 44.01 472.92 35.01 479.44 39.51"/><polygon class="cls-6" points="464.69 39.51 458.17 44.01 458.17 35.01 464.69 39.51"/><polygon class="cls-6" points="449.95 39.51 443.43 44.01 443.43 35.01 449.95 39.51"/><polygon class="cls-6" points="435.2 39.51 428.68 44.01 428.68 35.01 435.2 39.51"/><polygon class="cls-6" points="420.46 39.51 413.94 44.01 413.94 35.01 420.46 39.51"/><polygon class="cls-6" points="405.71 39.51 399.19 44.01 399.19 35.01 405.71 39.51"/><polygon class="cls-6" points="390.97 39.51 384.45 44.01 384.45 35.01 390.97 39.51"/><polygon class="cls-6" points="508.92 39.51 502.4 44.01 502.4 35.01 508.92 39.51"/><polygon class="cls-6" points="858.04 39.51 851.52 44.01 851.52 35.01 858.04 39.51"/><polygon class="cls-6" points="843.3 39.51 836.78 44.01 836.78 35.01 843.3 39.51"/><polygon class="cls-6" points="828.55 39.51 822.03 44.01 822.03 35.01 828.55 39.51"/><polygon class="cls-6" points="813.81 39.51 807.29 44.01 807.29 35.01 813.81 39.51"/><polygon class="cls-6" points="784.32 39.51 777.8 44.01 777.8 35.01 784.32 39.51"/><polygon class="cls-6" points="769.57 39.51 763.05 44.01 763.05 35.01 769.57 39.51"/><polygon class="cls-6" points="754.83 39.51 748.31 44.01 748.31 35.01 754.83 39.51"/><polygon class="cls-6" points="740.09 39.51 733.57 44.01 733.57 35.01 740.09 39.51"/><polygon class="cls-6" points="725.34 39.51 718.82 44.01 718.82 35.01 725.34 39.51"/><polygon class="cls-6" points="710.6 39.51 704.08 44.01 704.08 35.01 710.6 39.51"/><polygon class="cls-6" points="695.85 39.51 689.33 44.01 689.33 35.01 695.85 39.51"/><polygon class="cls-6" points="681.11 39.51 674.59 44.01 674.59 35.01 681.11 39.51"/><polygon class="cls-6" points="799.06 39.51 792.54 44.01 792.54 35.01 799.06 39.51"/></g></g></svg>