<svg xmlns="http://www.w3.org/2000/svg" xmlns:xlink="http://www.w3.org/1999/xlink" viewBox="0 0 668.2 79.02"><defs><style>.cls-1{fill:url(#무제_그라디언트_2);}.cls-2{fill:#ccf;}.cls-3{fill:#fff;}.cls-4,.cls-6{fill:#4529e5;}.cls-5{fill:#5f61e4;}.cls-6{font-size:7.67px;font-family:SpoqaHanSans-Bold, SpoqaHanSans;font-weight:700;letter-spacing:-0.01em;}</style><radialGradient id="무제_그라디언트_2" cx="86.83" cy="38.15" r="596.53" gradientUnits="userSpaceOnUse"><stop offset="0" stop-color="#4529e5"/><stop offset="0.14" stop-color="#4529e5" stop-opacity="0.85"/><stop offset="0.56" stop-color="#4529e5" stop-opacity="0.4"/><stop offset="0.86" stop-color="#4529e5" stop-opacity="0.11"/><stop offset="1" stop-color="#4529e5" stop-opacity="0"/></radialGradient></defs><title>자산 7</title><g id="레이어_2" data-name="레이어 2"><g id="레이어_5" data-name="레이어 5"><polygon class="cls-1" points="282.8 39.19 276.28 43.69 276.28 34.69 282.8 39.19"/><polygon class="cls-1" points="268.06 39.19 261.54 43.69 261.54 34.69 268.06 39.19"/><polygon class="cls-1" points="253.31 39.19 246.79 43.69 246.79 34.69 253.31 39.19"/><polygon class="cls-1" points="238.57 39.19 232.05 43.69 232.05 34.69 238.57 39.19"/><polygon class="cls-1" points="209.08 39.19 202.56 43.69 202.56 34.69 209.08 39.19"/><polygon class="cls-1" points="194.33 39.19 187.81 43.69 187.81 34.69 194.33 39.19"/><polygon class="cls-1" points="179.59 39.19 173.07 43.69 173.07 34.69 179.59 39.19"/><polygon class="cls-1" points="164.84 39.19 158.32 43.69 158.32 34.69 164.84 39.19"/><polygon class="cls-1" points="150.1 39.19 143.58 43.69 143.58 34.69 150.1 39.19"/><polygon class="cls-1" points="135.35 39.19 128.84 43.69 128.84 34.69 135.35 39.19"/><polygon class="cls-1" points="120.61 39.19 114.09 43.69 114.09 34.69 120.61 39.19"/><polygon class="cls-1" points="105.87 39.19 99.35 43.69 99.35 34.69 105.87 39.19"/><polygon class="cls-1" points="223.82 39.19 217.3 43.69 217.3 34.69 223.82 39.19"/><polygon class="cls-1" points="572.94 39.19 566.42 43.69 566.42 34.69 572.94 39.19"/><polygon class="cls-1" points="558.2 39.19 551.68 43.69 551.68 34.69 558.2 39.19"/><polygon class="cls-1" points="543.45 39.19 536.93 43.69 536.93 34.69 543.45 39.19"/><polygon class="cls-1" points="528.71 39.19 522.19 43.69 522.19 34.69 528.71 39.19"/><polygon class="cls-1" points="499.22 39.19 492.7 43.69 492.7 34.69 499.22 39.19"/><polygon class="cls-1" points="484.47 39.19 477.95 43.69 477.95 34.69 484.47 39.19"/><polygon class="cls-1" points="469.73 39.19 463.21 43.69 463.21 34.69 469.73 39.19"/><polygon class="cls-1" points="454.98 39.19 448.46 43.69 448.46 34.69 454.98 39.19"/><polygon class="cls-1" points="440.24 39.19 433.72 43.69 433.72 34.69 440.24 39.19"/><polygon class="cls-1" points="425.49 39.19 418.98 43.69 418.98 34.69 425.49 39.19"/><polygon class="cls-1" points="410.75 39.19 404.23 43.69 404.23 34.69 410.75 39.19"/><polygon class="cls-1" points="396 39.19 389.49 43.69 389.49 34.69 396 39.19"/><polygon class="cls-1" points="513.96 39.19 507.44 43.69 507.44 34.69 513.96 39.19"/><circle class="cls-2" cx="39.51" cy="39.51" r="39.51"/><path class="cls-3" d="M58.28,58.19H28.58a.9.9,0,1,1,0-1.8h29.7a.9.9,0,0,1,0,1.8Z"/><path class="cls-3" d="M19.26,60.75a.9.9,0,0,1-.64-1.54l5.13-5.12A.9.9,0,0,1,25,55.36l-5.12,5.13A.9.9,0,0,1,19.26,60.75Z"/><path class="cls-3" d="M24.38,60.75a.9.9,0,0,1-.64-.26l-5.12-5.12a.9.9,0,1,1,1.27-1.27L25,59.22a.9.9,0,0,1-.64,1.54Z"/><path class="cls-4" d="M59.16,19.38a4.73,4.73,0,0,0-6.45.35L30,42.45l-3.7,10.06a.07.07,0,0,0,.08.08l10.06-3.7L59.33,26A4.56,4.56,0,0,0,59.16,19.38Z"/><path class="cls-3" d="M57.33,28a4.1,4.1,0,0,1,.53,3.6c-.84,2.64-3.33,4.46-8.08,5.91-.25.07-6.06,1.81-7.59,7.62a9.08,9.08,0,0,0,.4,4.9,1.11,1.11,0,1,0,2.05-.83,6.9,6.9,0,0,1-.31-3.54h0c1.2-4.54,6-6,6.07-6,5.53-1.69,8.48-4,9.56-7.37a6.33,6.33,0,0,0-1.06-5.85Z"/><rect class="cls-3" x="50.84" y="22.34" width="2.28" height="9.11" transform="translate(-3.79 44.64) rotate(-45)"/><rect class="cls-3" x="32.9" y="40.31" width="2.22" height="9.11" transform="translate(-21.76 37.19) rotate(-45)"/><circle class="cls-2" cx="334.1" cy="39.51" r="39.51"/><rect class="cls-4" x="333.14" y="20.3" width="1.91" height="38.43"/><rect class="cls-4" x="314.88" y="38.56" width="38.43" height="1.91"/><rect class="cls-4" x="333.14" y="20.3" width="1.91" height="38.43" transform="translate(69.92 247.82) rotate(-45)"/><rect class="cls-4" x="314.88" y="38.56" width="38.43" height="1.91" transform="translate(69.92 247.82) rotate(-45)"/><circle class="cls-4" cx="334.1" cy="21.23" r="4.22"/><circle class="cls-4" cx="334.1" cy="57.79" r="4.22"/><circle class="cls-4" cx="352.38" cy="39.51" r="4.22"/><circle class="cls-4" cx="315.82" cy="39.51" r="4.22"/><circle class="cls-4" cx="321.17" cy="26.59" r="4.22" transform="translate(75.27 234.89) rotate(-45)"/><circle class="cls-4" cx="347.03" cy="52.44" r="4.22" transform="translate(64.56 260.74) rotate(-45)"/><circle class="cls-4" cx="347.03" cy="26.59" r="4.22" transform="translate(82.84 253.17) rotate(-45)"/><circle class="cls-4" cx="321.17" cy="52.44" r="4.22" transform="translate(56.99 242.46) rotate(-45)"/><circle class="cls-3" cx="334.1" cy="39.51" r="5.63"/><circle class="cls-2" cx="628.69" cy="39.51" r="39.51"/><circle class="cls-3" cx="640.75" cy="39.58" r="16.69"/><circle class="cls-4" cx="616.62" cy="39.44" r="16.69"/><path class="cls-5" d="M624.06,39.58A16.62,16.62,0,0,0,628.63,51a16.65,16.65,0,0,0,.12-23A16.63,16.63,0,0,0,624.06,39.58Z"/><polygon class="cls-3" points="615.85 38.04 615.4 38.04 614.79 38.04 614.79 38.42 615.4 38.42 615.85 38.42 616.84 38.42 616.84 38.04 615.85 38.04"/><path class="cls-3" d="M606.78,38.37a1.22,1.22,0,0,0-.45-.3,1.57,1.57,0,0,0-.58-.1,1.32,1.32,0,0,0-.62.15,1.09,1.09,0,0,0-.44.42V36.6h-.45v5h.44v-.42h0a1.22,1.22,0,0,0,.42.33,1.38,1.38,0,0,0,.65.14,1.54,1.54,0,0,0,.57-.1,1.26,1.26,0,0,0,.45-.3,1.36,1.36,0,0,0,.29-.48,1.85,1.85,0,0,0,.11-.65V39.5a1.91,1.91,0,0,0-.1-.65A1.35,1.35,0,0,0,606.78,38.37Zm-.06,1.69a1.32,1.32,0,0,1-.27.88.9.9,0,0,1-.72.31,1.16,1.16,0,0,1-.42-.07A1.11,1.11,0,0,1,605,41a.88.88,0,0,1-.22-.27.67.67,0,0,1-.08-.31v-1a.91.91,0,0,1,.09-.42,1,1,0,0,1,.24-.31,1,1,0,0,1,.33-.2,1.1,1.1,0,0,1,.37-.07.92.92,0,0,1,.72.3,1.29,1.29,0,0,1,.27.88Z"/><path class="cls-3" d="M609.26,38a1.46,1.46,0,0,0-1.12.42,1.68,1.68,0,0,0-.4,1.2V40a1.68,1.68,0,0,0,.4,1.2,1.69,1.69,0,0,0,2.24,0,1.68,1.68,0,0,0,.4-1.2v-.44a1.68,1.68,0,0,0-.4-1.2A1.46,1.46,0,0,0,609.26,38Zm1.06,2A1.36,1.36,0,0,1,610,41a1.14,1.14,0,0,1-1.55,0,1.36,1.36,0,0,1-.28-.94v-.39a1.36,1.36,0,0,1,.28-.94,1.14,1.14,0,0,1,1.55,0,1.36,1.36,0,0,1,.28.94Z"/><path class="cls-3" d="M612.85,38a1.46,1.46,0,0,0-1.12.42,1.68,1.68,0,0,0-.4,1.2V40a1.68,1.68,0,0,0,.4,1.2,1.69,1.69,0,0,0,2.24,0,1.68,1.68,0,0,0,.4-1.2v-.44a1.68,1.68,0,0,0-.4-1.2A1.46,1.46,0,0,0,612.85,38Zm1.06,2a1.36,1.36,0,0,1-.28.94,1.14,1.14,0,0,1-1.55,0,1.36,1.36,0,0,1-.28-.94v-.39a1.36,1.36,0,0,1,.28-.94,1.14,1.14,0,0,1,1.55,0,1.36,1.36,0,0,1,.28.94Z"/><rect class="cls-3" x="615.4" y="37.12" width="0.45" height="0.92"/><path class="cls-3" d="M616.35,41.25a.47.47,0,0,1-.39-.15.84.84,0,0,1-.12-.51V38.42h-.45v2.19a1.78,1.78,0,0,0,.06.49.75.75,0,0,0,.17.31.64.64,0,0,0,.29.17,1.41,1.41,0,0,0,.41.05l.32,0a1.33,1.33,0,0,0,.28-.06l-.07-.37A1.88,1.88,0,0,1,616.35,41.25Z"/><path class="cls-3" d="M620.42,38.31A1.22,1.22,0,0,0,620,38a1.6,1.6,0,0,0-.62-.11l-.27,0a1.37,1.37,0,0,0-.28.08,1.14,1.14,0,0,0-.26.15.92.92,0,0,0-.22.23V38h-.8V43h.83V41.23a1,1,0,0,0,.38.31,1.29,1.29,0,0,0,.57.12,1.62,1.62,0,0,0,.61-.11,1.27,1.27,0,0,0,.46-.31,1.39,1.39,0,0,0,.29-.5,2,2,0,0,0,.1-.66v-.64a2.15,2.15,0,0,0-.09-.64A1.32,1.32,0,0,0,620.42,38.31ZM620,40a1.18,1.18,0,0,1-.19.71.64.64,0,0,1-.55.25.9.9,0,0,1-.35-.07.92.92,0,0,1-.27-.17.81.81,0,0,1-.18-.23.55.55,0,0,1-.07-.25v-.77a.89.89,0,0,1,.22-.62.8.8,0,0,1,.63-.24.66.66,0,0,1,.58.25,1.24,1.24,0,0,1,.18.72Z"/><path class="cls-3" d="M624.3,39a1.07,1.07,0,0,0-.11-.49,1.05,1.05,0,0,0-.3-.36,1.41,1.41,0,0,0-.47-.23A2.28,2.28,0,0,0,622,38a3.54,3.54,0,0,0-.63.34l.41.61a1.63,1.63,0,0,1,1-.36.69.69,0,0,1,.49.15.65.65,0,0,1,.16.49v.14h-.83a2.28,2.28,0,0,0-.65.08,1.15,1.15,0,0,0-.43.22.78.78,0,0,0-.23.33,1.19,1.19,0,0,0-.07.41v.21a.92.92,0,0,0,.32.75,1.39,1.39,0,0,0,.91.27,1.49,1.49,0,0,0,.3,0,1.58,1.58,0,0,0,.3-.1,1.07,1.07,0,0,0,.26-.16.59.59,0,0,0,.17-.21v.45h.75V40h.52v-.65h-.52Zm-.83,1.09a2.27,2.27,0,0,1,0,.33.43.43,0,0,1-.13.24,1,1,0,0,1-.75.24.59.59,0,0,1-.37-.1.33.33,0,0,1-.13-.28V40.5a.45.45,0,0,1,.13-.34.66.66,0,0,1,.46-.13h.81Z"/><polygon class="cls-3" points="626.49 40.65 626.46 40.65 625.63 37.96 624.71 37.96 626 41.65 625.53 42.85 626.31 43.12 628.21 37.96 627.32 37.96 626.49 40.65"/><path class="cls-3" d="M629.57,41.33a.49.49,0,0,0-.36-.15.5.5,0,0,0-.36.15.48.48,0,0,0-.15.36.51.51,0,0,0,.51.51.48.48,0,0,0,.36-.15.5.5,0,0,0,.15-.36A.49.49,0,0,0,629.57,41.33Z"/><text class="cls-6" transform="translate(634.67 43.02)">free</text></g></g></svg>