<svg xmlns="http://www.w3.org/2000/svg" viewBox="0 0 308.75 166.47"><defs><style>.cls-1{fill:#ebebf2;}.cls-12,.cls-2,.cls-6{fill:#e4e4ea;}.cls-11,.cls-3,.cls-4,.cls-8{fill:#fff;}.cls-13,.cls-3{opacity:0.8;}.cls-5{fill:#cecedb;}.cls-6{opacity:0.2;}.cls-10,.cls-7{fill:none;}.cls-7,.cls-8{stroke:#cecedb;}.cls-10,.cls-11,.cls-7,.cls-8{stroke-miterlimit:10;stroke-width:0.94px;}.cls-9{fill:#3d34b7;}.cls-10,.cls-11{stroke:#3d34b7;}.cls-12,.cls-14{opacity:0.4;}.cls-13,.cls-14,.cls-15{fill:#d0d0dd;}.cls-15{opacity:0.6;}.cls-16{fill:#fafafa;}</style></defs><title>자산 4</title><g id="레이어_2" data-name="레이어 2"><g id="레이어_1-2" data-name="레이어 1"><path class="cls-1" d="M68.55,11.2V2.86A2.62,2.62,0,0,1,71.36.5H305.43a2.62,2.62,0,0,1,2.82,2.35V11.2Z"/><path class="cls-2" d="M305.43,1a2.12,2.12,0,0,1,2.31,1.85v7.84H69V2.86A2.12,2.12,0,0,1,71.36,1H305.43m0-1H71.36A3.12,3.12,0,0,0,68,2.86V11.7H308.75V2.86A3.12,3.12,0,0,0,305.43,0Z"/><circle class="cls-3" cx="76.59" cy="5.96" r="1.32"/><circle class="cls-4" cx="81.14" cy="5.96" r="1.32"/><circle class="cls-4" cx="85.69" cy="5.96" r="1.32"/><path class="cls-4" d="M72.06,166a3.36,3.36,0,0,1-3.51-3.18V10.19h239.7v152.6a3.36,3.36,0,0,1-3.51,3.18Z"/><path class="cls-2" d="M307.75,10.69v152.1a2.86,2.86,0,0,1-3,2.68H72.06a2.86,2.86,0,0,1-3-2.68V10.69h238.7m1-1H68v153.1a3.86,3.86,0,0,0,4,3.68H304.74a3.86,3.86,0,0,0,4-3.68V9.69Z"/><path class="cls-5" d="M174.79,21.38a3.52,3.52,0,0,1-2.56,2l-.34-.68a3.69,3.69,0,0,0,1.56-.75,1.8,1.8,0,0,0,.6-1.09h-1.83v-.7H175a3.71,3.71,0,0,1,0,.55h1.09v-1h.87v3.49h-.87v-.58h-1.34v-.7h1.34v-.56Zm.12,1.92a3.82,3.82,0,0,1,.84.09,2.14,2.14,0,0,1,.64.25,1.23,1.23,0,0,1,.41.39,1,1,0,0,1,0,1,1.24,1.24,0,0,1-.41.39,2.14,2.14,0,0,1-.64.25,4.15,4.15,0,0,1-1.68,0,2.19,2.19,0,0,1-.64-.25A1.23,1.23,0,0,1,173,25a1,1,0,0,1,0-1,1.22,1.22,0,0,1,.42-.39,2.19,2.19,0,0,1,.64-.25A3.8,3.8,0,0,1,174.92,23.3Zm0,1.79a2.17,2.17,0,0,0,.87-.14.44.44,0,0,0,0-.84,2.17,2.17,0,0,0-.87-.14,2.2,2.2,0,0,0-.88.14.44.44,0,0,0,0,.84A2.2,2.2,0,0,0,174.92,25.09Z"/><path class="cls-5" d="M180.42,23.14a1.91,1.91,0,0,1-.62-.39,2,2,0,0,1-.4-.56,2.27,2.27,0,0,1-.44.65,1.93,1.93,0,0,1-.69.45l-.45-.67a1.86,1.86,0,0,0,.52-.31,1.77,1.77,0,0,0,.36-.41,1.67,1.67,0,0,0,.2-.47,2.1,2.1,0,0,0,.06-.51v0H178v-.69h2.68v.69h-.9v0a2,2,0,0,0,.06.48,1.5,1.5,0,0,0,.19.44,1.64,1.64,0,0,0,.33.37,1.58,1.58,0,0,0,.48.27Zm.61.36a4.28,4.28,0,0,1,.86.08,2.41,2.41,0,0,1,.66.23,1.16,1.16,0,0,1,.42.36.88.88,0,0,1,0,1,1.16,1.16,0,0,1-.42.36,2.38,2.38,0,0,1-.66.23,4.74,4.74,0,0,1-1.73,0,2.38,2.38,0,0,1-.66-.23,1.19,1.19,0,0,1-.42-.36.87.87,0,0,1,0-1,1.19,1.19,0,0,1,.42-.36,2.41,2.41,0,0,1,.66-.23A4.32,4.32,0,0,1,181,23.5Zm0,1.64a2.65,2.65,0,0,0,.9-.12q.31-.12.31-.37t-.31-.37a2.64,2.64,0,0,0-.9-.12,2.7,2.7,0,0,0-.91.12q-.31.12-.31.37t.31.37A2.7,2.7,0,0,0,181,25.14Zm.78-1.92H181V19.85h.8v1.34h.45V19.73h.82V23.4h-.82V21.89h-.45Z"/><path class="cls-5" d="M186.2,21.08a4,4,0,0,0,.08.81,3.21,3.21,0,0,0,.25.76,2.64,2.64,0,0,0,.43.64,2.09,2.09,0,0,0,.63.46l-.53.68a2.34,2.34,0,0,1-.8-.67,3.45,3.45,0,0,1-.52-1,3.69,3.69,0,0,1-.55,1,2.37,2.37,0,0,1-.86.71l-.52-.7a2.15,2.15,0,0,0,.66-.47,2.7,2.7,0,0,0,.46-.66,3.37,3.37,0,0,0,.27-.79,4,4,0,0,0,.09-.84V20.2h.88Zm3.39,1.71h-.88v3h-.87V19.73h.87v2.33h.88Z"/><path class="cls-5" d="M197,22.84v.68h-2.24v1h-.87v-1h-2.39v-.68ZM193,25h3.38v.69h-4.25V24H193Zm3.29-2.58h-4.09v-2.5h.86v.62h2.36v-.62h.86Zm-.86-1.22h-2.36v.55h2.36Z"/><path class="cls-5" d="M200.74,23.15A2.25,2.25,0,0,1,199.4,22a2.45,2.45,0,0,1-.55.78,2.36,2.36,0,0,1-.87.51l-.45-.68a2.21,2.21,0,0,0,.65-.33,1.93,1.93,0,0,0,.44-.46,1.83,1.83,0,0,0,.25-.56,2.33,2.33,0,0,0,.08-.61V20h.88v.63a2,2,0,0,0,.08.56,1.77,1.77,0,0,0,.24.51,1.81,1.81,0,0,0,.42.43,2.2,2.2,0,0,0,.61.31Zm-2.23.47h4.14V25.8h-.87V24.3h-3.27Zm4.14-3.88v3.61h-.87V21.57h-1.11v-.7h1.11V19.73Z"/><path class="cls-5" d="M118.73,98.47a1,1,0,0,1,.36.06.84.84,0,0,1,.28.17.76.76,0,0,1,.18.26.81.81,0,0,1,.07.33.89.89,0,0,1-.05.28,1.4,1.4,0,0,1-.13.26,2.16,2.16,0,0,1-.18.24l-.2.23-.58.59.14,0h1v.47h-2V101l.94-.93a2.74,2.74,0,0,0,.34-.4.71.71,0,0,0,.12-.4A.38.38,0,0,0,119,99a.41.41,0,0,0-.29-.1.4.4,0,0,0-.27.09.5.5,0,0,0-.15.22.35.35,0,0,0,0,.09v.1l-.49-.08a1,1,0,0,1,.33-.64A1,1,0,0,1,118.73,98.47Z"/><path class="cls-5" d="M122,99.93a2.33,2.33,0,0,1-.08.65,1.3,1.3,0,0,1-.22.45.89.89,0,0,1-.33.27,1,1,0,0,1-.42.09,1,1,0,0,1-.41-.09.89.89,0,0,1-.33-.27,1.3,1.3,0,0,1-.22-.45,2.69,2.69,0,0,1,0-1.29,1.3,1.3,0,0,1,.22-.45.89.89,0,0,1,.33-.27,1,1,0,0,1,.41-.09,1,1,0,0,1,.42.09.89.89,0,0,1,.33.27,1.3,1.3,0,0,1,.22.45A2.35,2.35,0,0,1,122,99.93Zm-.52,0a2.43,2.43,0,0,0,0-.5,1,1,0,0,0-.12-.31.43.43,0,0,0-.17-.16.45.45,0,0,0-.2,0,.42.42,0,0,0-.19,0,.44.44,0,0,0-.16.16,1,1,0,0,0-.12.31,2.37,2.37,0,0,0,0,.5,2.3,2.3,0,0,0,0,.49,1,1,0,0,0,.12.31.41.41,0,0,0,.16.16.42.42,0,0,0,.19,0,.45.45,0,0,0,.2,0,.41.41,0,0,0,.17-.16,1,1,0,0,0,.12-.31A2.36,2.36,0,0,0,121.43,99.93Z"/><path class="cls-5" d="M123.57,98.51v2.39h.49v.42h-1.55v-.42h.55V99.13l-.46.42-.3-.34.81-.7Z"/><path class="cls-5" d="M125.48,98.47a1.07,1.07,0,0,1,.36.06.84.84,0,0,1,.27.16.68.68,0,0,1,.17.24.69.69,0,0,1,.06.29.59.59,0,0,1-.12.39.87.87,0,0,1-.3.23.65.65,0,0,1,.47.67.88.88,0,0,1-.09.38.85.85,0,0,1-.22.28.93.93,0,0,1-.32.17,1.27,1.27,0,0,1-.38.06,1.24,1.24,0,0,1-.38-.05.81.81,0,0,1-.28-.15.91.91,0,0,1-.2-.24,1.5,1.5,0,0,1-.14-.33l.46-.18a.75.75,0,0,0,.05.14l.08.14.1.11.13.08a.4.4,0,0,0,.17,0,.6.6,0,0,0,.22,0,.47.47,0,0,0,.15-.09.38.38,0,0,0,.09-.13.41.41,0,0,0,0-.15.83.83,0,0,0,0-.18.26.26,0,0,0-.09-.14.47.47,0,0,0-.2-.09,1.55,1.55,0,0,0-.35,0v-.38a1.41,1.41,0,0,0,.31,0,.48.48,0,0,0,.19-.08.28.28,0,0,0,.09-.13.48.48,0,0,0,0-.16.37.37,0,0,0-.1-.29.41.41,0,0,0-.29-.1.44.44,0,0,0-.28.08.48.48,0,0,0-.16.22,1.3,1.3,0,0,0,0,.18l-.24,0-.25,0a.93.93,0,0,1,1-.84Z"/><path class="cls-5" d="M183.52,98.47a1,1,0,0,1,.36.06.84.84,0,0,1,.28.17.76.76,0,0,1,.18.26.81.81,0,0,1,.07.33.89.89,0,0,1-.05.28,1.4,1.4,0,0,1-.13.26,2.16,2.16,0,0,1-.18.24l-.2.23-.58.59.14,0h1v.47h-2V101l.94-.93a2.74,2.74,0,0,0,.34-.4.71.71,0,0,0,.12-.4.38.38,0,0,0-.11-.3.41.41,0,0,0-.29-.1.4.4,0,0,0-.27.09.5.5,0,0,0-.15.22.35.35,0,0,0,0,.09v.1l-.49-.08a1,1,0,0,1,.33-.64A1,1,0,0,1,183.52,98.47Z"/><path class="cls-5" d="M186.74,99.93a2.33,2.33,0,0,1-.08.65,1.3,1.3,0,0,1-.22.45.89.89,0,0,1-.33.27,1,1,0,0,1-.42.09,1,1,0,0,1-.41-.09A.89.89,0,0,1,185,101a1.3,1.3,0,0,1-.22-.45,2.69,2.69,0,0,1,0-1.29,1.3,1.3,0,0,1,.22-.45.89.89,0,0,1,.33-.27,1,1,0,0,1,.41-.09,1,1,0,0,1,.42.09.89.89,0,0,1,.33.27,1.3,1.3,0,0,1,.22.45A2.35,2.35,0,0,1,186.74,99.93Zm-.52,0a2.43,2.43,0,0,0,0-.5,1,1,0,0,0-.12-.31.43.43,0,0,0-.17-.16.45.45,0,0,0-.2,0,.42.42,0,0,0-.19,0,.44.44,0,0,0-.16.16,1,1,0,0,0-.12.31,2.37,2.37,0,0,0,0,.5,2.3,2.3,0,0,0,0,.49,1,1,0,0,0,.12.31.41.41,0,0,0,.16.16.42.42,0,0,0,.19,0,.45.45,0,0,0,.2,0,.41.41,0,0,0,.17-.16,1,1,0,0,0,.12-.31A2.36,2.36,0,0,0,186.22,99.93Z"/><path class="cls-5" d="M188.36,98.51v2.39h.49v.42H187.3v-.42h.55V99.13l-.46.42-.3-.34.81-.7Z"/><path class="cls-5" d="M191.05,99H190l-.09.55.17,0h.16a1.1,1.1,0,0,1,.4.07.82.82,0,0,1,.29.19.77.77,0,0,1,.18.28,1,1,0,0,1,.06.35,1,1,0,0,1-.08.41.94.94,0,0,1-.22.32,1,1,0,0,1-.34.21,1.18,1.18,0,0,1-.42.07l-.25,0-.23-.08-.2-.11-.17-.13.26-.38.15.11.11.07.15.06a.62.62,0,0,0,.21,0,.51.51,0,0,0,.39-.15.56.56,0,0,0,.14-.39.47.47,0,0,0-.13-.35.52.52,0,0,0-.39-.12l-.21,0-.2.06-.32-.09q.18-1.05.23-1.41h1.42Z"/><path class="cls-5" d="M216.61,98.47a1,1,0,0,1,.36.06.84.84,0,0,1,.28.17.76.76,0,0,1,.18.26.81.81,0,0,1,.07.33.89.89,0,0,1-.05.28,1.4,1.4,0,0,1-.13.26,2.16,2.16,0,0,1-.18.24l-.2.23-.58.59.14,0h1v.47h-2V101l.94-.93a2.74,2.74,0,0,0,.34-.4.71.71,0,0,0,.12-.4.38.38,0,0,0-.11-.3.41.41,0,0,0-.29-.1.4.4,0,0,0-.27.09.5.5,0,0,0-.15.22.35.35,0,0,0,0,.09v.1l-.49-.08a1,1,0,0,1,.33-.64A1,1,0,0,1,216.61,98.47Z"/><path class="cls-5" d="M219.83,99.93a2.33,2.33,0,0,1-.08.65,1.3,1.3,0,0,1-.22.45.89.89,0,0,1-.33.27,1,1,0,0,1-.42.09,1,1,0,0,1-.41-.09A.89.89,0,0,1,218,101a1.3,1.3,0,0,1-.22-.45,2.69,2.69,0,0,1,0-1.29,1.3,1.3,0,0,1,.22-.45.89.89,0,0,1,.33-.27,1,1,0,0,1,.41-.09,1,1,0,0,1,.42.09.89.89,0,0,1,.33.27,1.3,1.3,0,0,1,.22.45A2.35,2.35,0,0,1,219.83,99.93Zm-.52,0a2.43,2.43,0,0,0,0-.5,1,1,0,0,0-.12-.31A.43.43,0,0,0,219,99a.45.45,0,0,0-.2,0,.42.42,0,0,0-.19,0,.44.44,0,0,0-.16.16,1,1,0,0,0-.12.31,2.37,2.37,0,0,0,0,.5,2.3,2.3,0,0,0,0,.49,1,1,0,0,0,.12.31.41.41,0,0,0,.16.16.42.42,0,0,0,.19,0,.45.45,0,0,0,.2,0,.41.41,0,0,0,.17-.16,1,1,0,0,0,.12-.31A2.36,2.36,0,0,0,219.3,99.93Z"/><path class="cls-5" d="M221.44,98.51v2.39h.49v.42h-1.55v-.42h.55V99.13l-.46.42-.3-.34.81-.7Z"/><path class="cls-5" d="M223.44,99.58a1,1,0,0,1,.32.05.76.76,0,0,1,.27.16.78.78,0,0,1,.19.27.91.91,0,0,1,.07.38,1,1,0,0,1-.07.37.92.92,0,0,1-.52.51,1.18,1.18,0,0,1-.83,0,.88.88,0,0,1-.31-.2.89.89,0,0,1-.2-.32,1.18,1.18,0,0,1-.07-.41,1.1,1.1,0,0,1,.09-.41,2,2,0,0,1,.25-.44l.29-.39.47-.64H224l-.42.52-.41.52,0,0-.06.06,0,0,.14,0Zm-.66.88a.51.51,0,0,0,.13.38.47.47,0,0,0,.35.14.56.56,0,0,0,.2,0,.51.51,0,0,0,.17-.1.47.47,0,0,0,.11-.16.53.53,0,0,0,0-.21.47.47,0,0,0-.14-.37.54.54,0,0,0-.37-.13.47.47,0,0,0-.36.14A.49.49,0,0,0,222.78,100.46Z"/><path class="cls-5" d="M249.23,98.47a1,1,0,0,1,.36.06.84.84,0,0,1,.28.17.76.76,0,0,1,.18.26.81.81,0,0,1,.07.33.89.89,0,0,1-.05.28,1.4,1.4,0,0,1-.13.26,2.16,2.16,0,0,1-.18.24l-.2.23-.58.59.14,0h1v.47h-2V101l.94-.93a2.74,2.74,0,0,0,.34-.4.71.71,0,0,0,.12-.4.38.38,0,0,0-.11-.3.41.41,0,0,0-.29-.1.4.4,0,0,0-.27.09.5.5,0,0,0-.15.22.35.35,0,0,0,0,.09v.1l-.49-.08a1,1,0,0,1,.33-.64A1,1,0,0,1,249.23,98.47Z"/><path class="cls-5" d="M252.45,99.93a2.33,2.33,0,0,1-.08.65,1.3,1.3,0,0,1-.22.45.89.89,0,0,1-.33.27,1,1,0,0,1-.42.09,1,1,0,0,1-.41-.09.89.89,0,0,1-.33-.27,1.3,1.3,0,0,1-.22-.45,2.69,2.69,0,0,1,0-1.29,1.3,1.3,0,0,1,.22-.45.89.89,0,0,1,.33-.27,1,1,0,0,1,.41-.09,1,1,0,0,1,.42.09.89.89,0,0,1,.33.27,1.3,1.3,0,0,1,.22.45A2.35,2.35,0,0,1,252.45,99.93Zm-.52,0a2.43,2.43,0,0,0,0-.5,1,1,0,0,0-.12-.31.43.43,0,0,0-.17-.16.45.45,0,0,0-.2,0,.42.42,0,0,0-.19,0,.44.44,0,0,0-.16.16,1,1,0,0,0-.12.31,2.37,2.37,0,0,0,0,.5,2.3,2.3,0,0,0,0,.49,1,1,0,0,0,.12.31.41.41,0,0,0,.16.16.42.42,0,0,0,.19,0,.45.45,0,0,0,.2,0,.41.41,0,0,0,.17-.16,1,1,0,0,0,.12-.31A2.36,2.36,0,0,0,251.93,99.93Z"/><path class="cls-5" d="M254.07,98.51v2.39h.49v.42H253v-.42h.55V99.13l-.46.42-.3-.34.81-.7Z"/><path class="cls-5" d="M256.87,98.53v.37l-1.14,2.43h-.58l.5-1,.49-1,0-.06,0-.07v-.05a.64.64,0,0,1,.08-.13H255v-.47Z"/><path class="cls-5" d="M151.36,98.47a1,1,0,0,1,.36.06.84.84,0,0,1,.28.17.76.76,0,0,1,.18.26.81.81,0,0,1,.07.33.89.89,0,0,1-.05.28,1.4,1.4,0,0,1-.13.26,2.16,2.16,0,0,1-.18.24l-.2.23-.58.59.14,0h1v.47h-2V101l.94-.93a2.74,2.74,0,0,0,.34-.4.71.71,0,0,0,.12-.4.38.38,0,0,0-.11-.3.41.41,0,0,0-.29-.1.4.4,0,0,0-.27.09.5.5,0,0,0-.15.22.35.35,0,0,0,0,.09v.1l-.49-.08a1,1,0,0,1,.33-.64A1,1,0,0,1,151.36,98.47Z"/><path class="cls-5" d="M154.58,99.93a2.33,2.33,0,0,1-.08.65,1.3,1.3,0,0,1-.22.45.89.89,0,0,1-.33.27,1,1,0,0,1-.42.09,1,1,0,0,1-.41-.09.89.89,0,0,1-.33-.27,1.3,1.3,0,0,1-.22-.45,2.69,2.69,0,0,1,0-1.29,1.3,1.3,0,0,1,.22-.45.89.89,0,0,1,.33-.27,1,1,0,0,1,.41-.09,1,1,0,0,1,.42.09.89.89,0,0,1,.33.27,1.3,1.3,0,0,1,.22.45A2.35,2.35,0,0,1,154.58,99.93Zm-.52,0a2.43,2.43,0,0,0,0-.5,1,1,0,0,0-.12-.31.43.43,0,0,0-.17-.16.45.45,0,0,0-.2,0,.42.42,0,0,0-.19,0,.44.44,0,0,0-.16.16,1,1,0,0,0-.12.31,2.37,2.37,0,0,0,0,.5,2.3,2.3,0,0,0,0,.49,1,1,0,0,0,.12.31.41.41,0,0,0,.16.16.42.42,0,0,0,.19,0,.45.45,0,0,0,.2,0,.41.41,0,0,0,.17-.16,1,1,0,0,0,.12-.31A2.36,2.36,0,0,0,154.05,99.93Z"/><path class="cls-5" d="M156.2,98.51v2.39h.49v.42h-1.55v-.42h.55V99.13l-.46.42-.3-.34.81-.7Z"/><path class="cls-5" d="M158.77,100.22h.35v.43h-.35v.68h-.46v-.68H157v-.42l.65-.87.65-.87h.49Zm-.46-.87s0,0,0-.09,0-.09,0-.14l-.83,1.11h.82Z"/><rect class="cls-6" x="78.19" y="56.49" width="59.69" height="14.49" transform="translate(171.77 -44.3) rotate(90)"/><rect class="cls-6" x="104.66" y="56.49" width="59.69" height="14.49" transform="translate(198.24 -70.77) rotate(90)"/><rect class="cls-6" x="131.14" y="56.49" width="59.69" height="14.49" transform="translate(224.72 -97.25) rotate(90)"/><rect class="cls-6" x="157.61" y="56.49" width="59.69" height="14.49" transform="translate(251.19 -123.72) rotate(90)"/><rect class="cls-6" x="184.09" y="56.49" width="59.69" height="14.49" transform="translate(277.67 -150.2) rotate(90)"/><rect class="cls-6" x="210.56" y="56.49" width="59.69" height="14.49" transform="translate(304.14 -176.67) rotate(90)"/><rect class="cls-6" x="237.04" y="56.49" width="59.69" height="14.49" transform="translate(330.62 -203.15) rotate(90)"/><path class="cls-7" d="M100.79,58.93c.83,0,9.45-1.17,9.45-1.17l4.45-3.93,10.05-11.57h3.73s9.48,7.39,9.91,7.65S144,52.6,144,52.6l7.75-7.06,6,3.27h2.58l4.31-3.27,4.83-4.35L174,46.81l7.77,12.13,6.6,10.6,11.34-11,7.9-6.89,5,4.51,3.88,1.64,5-3.64,3.93-.89L241.89,66.1h7.75L259,61.95l10.77-4.19L274.13,56"/><path class="cls-7" d="M100.79,77.82l8.82,4.91s20.53-18.4,21.73-18.4,19.81,18.4,19.81,18.4l10.07-11.89,9.56,6,3.79-2.2,9.58-14.28,12.75,12.3,5.29-3.45h2.39l4.78-3.71,14.68,21.25,3.76,1.2,4.78-5.16,5.73-8.13,6.91,1.11,11.78,7,6,2.94,11.14-6.59"/><circle class="cls-8" cx="207.63" cy="51.86" r="1.02"/><path class="cls-5" d="M194.75,51.2h.35v.43h-.35v.68h-.46v-.68H193V51.2l.65-.87.65-.87h.49Zm-.46-.87s0,0,0-.09,0-.09,0-.14l-.83,1.11h.82Z"/><path class="cls-5" d="M196.41,50.56a1,1,0,0,1,.32.05.76.76,0,0,1,.27.16.8.8,0,0,1,.19.27.92.92,0,0,1,.07.38,1,1,0,0,1-.07.37.93.93,0,0,1-.52.51,1.19,1.19,0,0,1-.83,0,.91.91,0,0,1-.31-.2.89.89,0,0,1-.2-.32,1.18,1.18,0,0,1-.07-.41,1.1,1.1,0,0,1,.09-.41,2,2,0,0,1,.25-.44l.29-.39.47-.64H197l-.42.52-.41.52,0,0-.06.06,0,0,.14,0Zm-.66.88a.52.52,0,0,0,.13.38.47.47,0,0,0,.35.14.56.56,0,0,0,.2,0,.49.49,0,0,0,.17-.1.48.48,0,0,0,.11-.16.53.53,0,0,0,0-.21.47.47,0,0,0-.14-.37.53.53,0,0,0-.37-.13.47.47,0,0,0-.36.14A.49.49,0,0,0,195.76,51.44Z"/><path class="cls-5" d="M198,52.36a.32.32,0,0,1-.24-.1.39.39,0,0,1,0-.52.32.32,0,0,1,.24-.1.33.33,0,0,1,.25.1.39.39,0,0,1,0,.52A.32.32,0,0,1,198,52.36Z"/><path class="cls-5" d="M199.72,52.38a1.33,1.33,0,0,1-.4-.06.94.94,0,0,1-.31-.17.74.74,0,0,1-.21-.26.82.82,0,0,1-.07-.35.77.77,0,0,1,.11-.42.74.74,0,0,1,.36-.28.73.73,0,0,1-.28-.26.67.67,0,0,1-.1-.36.73.73,0,0,1,.07-.32.74.74,0,0,1,.19-.24.86.86,0,0,1,.28-.16,1.14,1.14,0,0,1,.36-.06,1.17,1.17,0,0,1,.37.06.88.88,0,0,1,.29.16.72.72,0,0,1,.26.56.67.67,0,0,1-.1.36.69.69,0,0,1-.29.26.73.73,0,0,1,.36.28.78.78,0,0,1,.11.42.81.81,0,0,1-.07.35.73.73,0,0,1-.2.26,1,1,0,0,1-.32.17A1.35,1.35,0,0,1,199.72,52.38Zm0-.41a.51.51,0,0,0,.36-.12.4.4,0,0,0,.13-.31.45.45,0,0,0-.13-.35.5.5,0,0,0-.35-.12.48.48,0,0,0-.35.12.46.46,0,0,0-.13.35.42.42,0,0,0,.12.31A.49.49,0,0,0,199.72,52Zm0-1.31a.42.42,0,0,0,.19,0,.37.37,0,0,0,.13-.1.42.42,0,0,0,.07-.14.53.53,0,0,0,0-.15A.39.39,0,0,0,200,50a.4.4,0,0,0-.31-.11.39.39,0,0,0-.3.11.39.39,0,0,0-.1.27.54.54,0,0,0,0,.15.41.41,0,0,0,.07.14.36.36,0,0,0,.12.1A.4.4,0,0,0,199.72,50.65Z"/><path class="cls-5" d="M202,49.45a1.11,1.11,0,0,1,.36.06.88.88,0,0,1,.28.16.69.69,0,0,1,.17.24.66.66,0,0,1,.06.29.59.59,0,0,1-.12.39.89.89,0,0,1-.3.23.74.74,0,0,1,.36.26.72.72,0,0,1,.11.41.87.87,0,0,1-.09.38.83.83,0,0,1-.22.28.93.93,0,0,1-.32.17,1.34,1.34,0,0,1-.75,0,.82.82,0,0,1-.28-.15.92.92,0,0,1-.2-.24,1.52,1.52,0,0,1-.14-.33l.46-.18a.81.81,0,0,0,.05.14l.08.14.1.11.13.08a.4.4,0,0,0,.17,0,.59.59,0,0,0,.22,0,.47.47,0,0,0,.15-.09.37.37,0,0,0,.09-.13.42.42,0,0,0,0-.15.77.77,0,0,0,0-.18.26.26,0,0,0-.09-.14.49.49,0,0,0-.2-.09,1.55,1.55,0,0,0-.35,0v-.38a1.41,1.41,0,0,0,.31,0,.49.49,0,0,0,.19-.08.29.29,0,0,0,.09-.13.48.48,0,0,0,0-.16.37.37,0,0,0-.1-.29.41.41,0,0,0-.29-.1.43.43,0,0,0-.28.09.47.47,0,0,0-.16.22,1.16,1.16,0,0,0,0,.18l-.24,0-.25,0a.93.93,0,0,1,1-.84Z"/><path class="cls-5" d="M205.24,50.91a2.32,2.32,0,0,1-.08.64,1.31,1.31,0,0,1-.22.45.9.9,0,0,1-.33.27,1,1,0,0,1-.42.09,1,1,0,0,1-.41-.09.91.91,0,0,1-.33-.27,1.33,1.33,0,0,1-.22-.45,2.36,2.36,0,0,1-.08-.64,2.4,2.4,0,0,1,.08-.65,1.33,1.33,0,0,1,.22-.45.9.9,0,0,1,.33-.26,1,1,0,0,1,.41-.09,1,1,0,0,1,.42.09.89.89,0,0,1,.33.26,1.32,1.32,0,0,1,.22.45A2.36,2.36,0,0,1,205.24,50.91Zm-.52,0a2.36,2.36,0,0,0,0-.5,1,1,0,0,0-.12-.31.43.43,0,0,0-.17-.16.45.45,0,0,0-.2,0,.42.42,0,0,0-.19,0,.43.43,0,0,0-.16.16,1,1,0,0,0-.12.31,2.36,2.36,0,0,0,0,.5,2.31,2.31,0,0,0,0,.49,1,1,0,0,0,.12.31.4.4,0,0,0,.16.16.43.43,0,0,0,.19,0,.46.46,0,0,0,.2,0,.4.4,0,0,0,.17-.16,1,1,0,0,0,.12-.31A2.31,2.31,0,0,0,204.71,50.91Z"/><path class="cls-9" d="M251.34,52.22h.35v.43h-.35v.68h-.46v-.68h-1.33v-.42l.65-.87.65-.87h.49Zm-.46-.87s0,0,0-.09,0-.09,0-.14l-.83,1.11h.82Z"/><path class="cls-9" d="M252.7,52.2a.85.85,0,0,1-.29-.05.72.72,0,0,1-.25-.15.79.79,0,0,1-.18-.26.87.87,0,0,1-.07-.36A.92.92,0,0,1,252,51a.91.91,0,0,1,.2-.29.94.94,0,0,1,.31-.2,1,1,0,0,1,.39-.07,1.07,1.07,0,0,1,.39.07.83.83,0,0,1,.49.49,1.06,1.06,0,0,1,.07.38,1,1,0,0,1,0,.26,1.63,1.63,0,0,1-.09.26,2.44,2.44,0,0,1-.13.24l-.14.22-.62.94h-.6l.81-1.12.13-.13-.08,0a.48.48,0,0,1-.17.06Zm.64-.85a.45.45,0,0,0-.13-.35.47.47,0,0,0-.34-.12.44.44,0,0,0-.33.13.47.47,0,0,0-.12.34.45.45,0,0,0,.12.34.56.56,0,0,0,.69,0A.45.45,0,0,0,253.34,51.35Z"/><path class="cls-9" d="M254.57,53.38a.32.32,0,0,1-.24-.1.39.39,0,0,1,0-.52.32.32,0,0,1,.24-.1.33.33,0,0,1,.25.1.39.39,0,0,1,0,.52A.33.33,0,0,1,254.57,53.38Z"/><path class="cls-9" d="M256.72,50.51v2.39h.49v.42h-1.55v-.42h.55V51.13l-.46.42-.3-.34.81-.7Z"/><path class="cls-9" d="M258.61,50.47a1,1,0,0,1,.36.06.84.84,0,0,1,.28.17.76.76,0,0,1,.18.26.81.81,0,0,1,.07.33.89.89,0,0,1-.05.28,1.4,1.4,0,0,1-.13.26,2.07,2.07,0,0,1-.18.24l-.2.23-.58.59.14,0h1v.47h-2V53l.94-.93a2.69,2.69,0,0,0,.34-.4.71.71,0,0,0,.12-.4.38.38,0,0,0-.11-.3.41.41,0,0,0-.29-.1.4.4,0,0,0-.27.09.49.49,0,0,0-.15.22.35.35,0,0,0,0,.09v.1l-.49-.08a1,1,0,0,1,.33-.64A1,1,0,0,1,258.61,50.47Z"/><path class="cls-9" d="M261.83,51.93a2.33,2.33,0,0,1-.08.65,1.3,1.3,0,0,1-.22.45.88.88,0,0,1-.33.27,1,1,0,0,1-.42.09,1,1,0,0,1-.41-.09A.88.88,0,0,1,260,53a1.3,1.3,0,0,1-.22-.45,2.69,2.69,0,0,1,0-1.29,1.3,1.3,0,0,1,.22-.45.89.89,0,0,1,.33-.27,1,1,0,0,1,.41-.09,1,1,0,0,1,.42.09.89.89,0,0,1,.33.27,1.3,1.3,0,0,1,.22.45A2.35,2.35,0,0,1,261.83,51.93Zm-.52,0a2.43,2.43,0,0,0,0-.5,1,1,0,0,0-.12-.31A.43.43,0,0,0,261,51a.44.44,0,0,0-.2,0,.41.41,0,0,0-.19,0,.44.44,0,0,0-.16.16,1,1,0,0,0-.12.31,2.37,2.37,0,0,0,0,.5,2.32,2.32,0,0,0,0,.49,1,1,0,0,0,.12.31.42.42,0,0,0,.16.16.43.43,0,0,0,.19,0,.46.46,0,0,0,.2,0,.41.41,0,0,0,.17-.16,1,1,0,0,0,.12-.31A2.38,2.38,0,0,0,261.31,51.93Z"/><circle class="cls-8" cx="140.29" cy="72.08" r="1.02"/><path class="cls-5" d="M126.68,71A1,1,0,0,1,127,71a.84.84,0,0,1,.28.17.76.76,0,0,1,.18.26.81.81,0,0,1,.07.33.89.89,0,0,1-.05.28,1.4,1.4,0,0,1-.13.26,2.16,2.16,0,0,1-.18.24l-.2.23-.58.59.14,0h1v.47h-2v-.3l.94-.93a2.74,2.74,0,0,0,.34-.4.71.71,0,0,0,.12-.4.38.38,0,0,0-.11-.3.41.41,0,0,0-.29-.1.4.4,0,0,0-.27.09.5.5,0,0,0-.15.22.35.35,0,0,0,0,.09v.1l-.49-.08a1,1,0,0,1,.33-.64A1,1,0,0,1,126.68,71Z"/><path class="cls-5" d="M129,72.08a1,1,0,0,1,.32.05.76.76,0,0,1,.27.16.78.78,0,0,1,.19.27.91.91,0,0,1,.07.38,1,1,0,0,1-.07.37.92.92,0,0,1-.52.51,1.18,1.18,0,0,1-.83,0,.88.88,0,0,1-.31-.2.89.89,0,0,1-.2-.32,1.18,1.18,0,0,1-.07-.41,1.1,1.1,0,0,1,.09-.41,2,2,0,0,1,.25-.44l.29-.39L129,71h.63l-.42.52-.41.52,0,0-.06.06,0,0,.14,0Zm-.66.88a.51.51,0,0,0,.13.38.47.47,0,0,0,.35.14.56.56,0,0,0,.2,0,.51.51,0,0,0,.17-.1.47.47,0,0,0,.11-.16.53.53,0,0,0,0-.21.47.47,0,0,0-.14-.37.54.54,0,0,0-.37-.13.47.47,0,0,0-.36.14A.49.49,0,0,0,128.37,73Z"/><path class="cls-5" d="M130.6,73.88a.32.32,0,0,1-.24-.1.39.39,0,0,1,0-.52.32.32,0,0,1,.24-.1.33.33,0,0,1,.25.1.39.39,0,0,1,0,.52A.33.33,0,0,1,130.6,73.88Z"/><path class="cls-5" d="M133.3,71v.37l-1.14,2.43h-.58l.5-1,.5-1,0-.06,0-.07v-.05a.64.64,0,0,1,.07-.13h-1.34V71Z"/><path class="cls-5" d="M135.61,72.43a2.33,2.33,0,0,1-.08.65,1.3,1.3,0,0,1-.22.45.89.89,0,0,1-.33.27,1,1,0,0,1-.42.09,1,1,0,0,1-.41-.09.9.9,0,0,1-.33-.27,1.32,1.32,0,0,1-.22-.45,2.72,2.72,0,0,1,0-1.29,1.32,1.32,0,0,1,.22-.45.9.9,0,0,1,.33-.27,1,1,0,0,1,.41-.09,1,1,0,0,1,.42.09.89.89,0,0,1,.33.27,1.3,1.3,0,0,1,.22.45A2.35,2.35,0,0,1,135.61,72.43Zm-.52,0a2.37,2.37,0,0,0,0-.5,1,1,0,0,0-.12-.31.42.42,0,0,0-.17-.16.45.45,0,0,0-.2,0,.4.4,0,0,0-.36.21,1,1,0,0,0-.12.31,2.37,2.37,0,0,0,0,.5,2.3,2.3,0,0,0,0,.49,1,1,0,0,0,.12.31.4.4,0,0,0,.16.16.42.42,0,0,0,.19,0,.45.45,0,0,0,.2,0,.4.4,0,0,0,.17-.16,1,1,0,0,0,.12-.31A2.3,2.3,0,0,0,135.09,72.43Z"/><path class="cls-5" d="M137.85,72.43a2.33,2.33,0,0,1-.08.65,1.3,1.3,0,0,1-.22.45.89.89,0,0,1-.33.27,1,1,0,0,1-.42.09,1,1,0,0,1-.41-.09.9.9,0,0,1-.33-.27,1.32,1.32,0,0,1-.22-.45,2.72,2.72,0,0,1,0-1.29,1.32,1.32,0,0,1,.22-.45.9.9,0,0,1,.33-.27,1,1,0,0,1,.41-.09,1,1,0,0,1,.42.09.89.89,0,0,1,.33.27,1.3,1.3,0,0,1,.22.45A2.35,2.35,0,0,1,137.85,72.43Zm-.52,0a2.37,2.37,0,0,0,0-.5,1,1,0,0,0-.12-.31.42.42,0,0,0-.17-.16.45.45,0,0,0-.2,0,.4.4,0,0,0-.36.21,1,1,0,0,0-.12.31,2.37,2.37,0,0,0,0,.5,2.3,2.3,0,0,0,0,.49,1,1,0,0,0,.12.31.4.4,0,0,0,.16.16.42.42,0,0,0,.19,0,.45.45,0,0,0,.2,0,.4.4,0,0,0,.17-.16,1,1,0,0,0,.12-.31A2.3,2.3,0,0,0,137.33,72.43Z"/><polyline class="cls-10" points="100.79 72.16 111.63 62.68 118.55 64.12 129.46 72.56 136.67 65.4 142.23 57.01 150.68 66.47 157.57 61.64 162.91 60.84 173.74 68.61 194.46 78.62 201.34 83.2 209.81 75.17 212.53 76.03 221.37 67.11 228.03 71.07 231.91 71.07 242.81 54.06 245.68 54.86 251.85 62.11 257.73 68.63 260.03 70.56 264.48 67.11 267.2 67.62 274.02 74.16"/><circle class="cls-11" cx="247.13" cy="56.22" r="1.02"/><circle class="cls-12" cx="123.9" cy="133.49" r="22.4"/><path class="cls-9" d="M123.9,133.49l0-22.4a22.4,22.4,0,0,1,22,26.49Z"/><path class="cls-13" d="M123.9,133.49l22,4.06a22.4,22.4,0,0,1-10.18,14.95Z"/><path class="cls-14" d="M123.9,133.49l11.85,19a22.4,22.4,0,0,1-6.3,2.69Z"/><circle class="cls-12" cx="178.69" cy="133.49" r="22.4"/><path class="cls-15" d="M178.69,133.49l-18.24,13a22.4,22.4,0,1,1,40.49-15.54Z"/><path class="cls-9" d="M178.69,133.49l21.57-6A22.4,22.4,0,0,1,175,155.58Z"/><rect class="cls-14" x="211.24" y="116.52" width="62.88" height="4.27"/><rect class="cls-9" x="211.24" y="116.52" width="35.65" height="4.27"/><rect class="cls-14" x="211.24" y="131.36" width="62.88" height="4.27"/><rect class="cls-9" x="211.24" y="131.36" width="9.39" height="4.27"/><rect class="cls-14" x="211.24" y="138.78" width="62.88" height="4.27"/><rect class="cls-9" x="211.24" y="138.78" width="44.48" height="4.27"/><rect class="cls-12" x="211.24" y="123.94" width="62.88" height="4.27"/><rect class="cls-9" x="211.24" y="123.94" width="23.07" height="4.27"/><rect class="cls-14" x="211.24" y="146.19" width="62.88" height="4.27"/><rect class="cls-9" x="211.24" y="146.19" width="18.1" height="4.27"/><path class="cls-16" d="M10,85H72a9.53,9.53,0,0,1,9.53,9.53v61.93A9.53,9.53,0,0,1,72,166H10A9.54,9.54,0,0,1,.5,156.44V94.51A9.54,9.54,0,0,1,10,85Z"/><path class="cls-2" d="M72,85.47a9,9,0,0,1,9,9v61.93a9,9,0,0,1-9,9H10a9,9,0,0,1-9-9V94.51a9,9,0,0,1,9-9H72m0-1H10a10,10,0,0,0-10,10v61.93a10,10,0,0,0,10,10H72a10,10,0,0,0,10-10V94.51a10,10,0,0,0-10-10Z"/><path class="cls-9" d="M20.73,119h8v2.18H23.32v3.37h4.6v2.18h-4.6V132H20.73Z"/><path class="cls-9" d="M37.84,132l-2.66-4.92h-1.8V132H30.79V119H35.3a9,9,0,0,1,1.91.19,4.26,4.26,0,0,1,1.55.65,3.17,3.17,0,0,1,1,1.21,4.2,4.2,0,0,1,.38,1.88,3.93,3.93,0,0,1-.67,2.39,4,4,0,0,1-1.79,1.35l3,5.32Zm-4.46-7h1.68a3,3,0,0,0,1.92-.52,1.88,1.88,0,0,0,.66-1.57,1.6,1.6,0,0,0-.66-1.47,3.63,3.63,0,0,0-1.92-.41H33.38Z"/><path class="cls-9" d="M42.55,119h7.95v2.18H45.14v3h4.55v2.18H45.14v3.48h5.55V132H42.55Z"/><path class="cls-9" d="M53.14,119h7.95v2.18H55.73v3h4.55v2.18H55.73v3.48h5.55V132H53.14Z"/></g></g></svg>