<svg xmlns="http://www.w3.org/2000/svg" viewBox="0 0 1117.18 249.82"><defs><style>.cls-1,.cls-2,.cls-3{fill:none;stroke:#ebeff2;stroke-miterlimit:10;}.cls-1{stroke-width:0.5px;}.cls-2{stroke-width:2px;}.cls-3{stroke-width:1.5px;}</style></defs><title>자산 6</title><g id="레이어_2" data-name="레이어 2"><g id="레이어_5" data-name="레이어 5"><line class="cls-1" x1="31.53" y1="1" x2="31.53" y2="124.91"/><line class="cls-1" x1="94.37" y1="1" x2="94.37" y2="124.91"/><rect class="cls-2" x="1" y="1" width="123.91" height="123.91"/><line class="cls-3" x1="63" y1="1" x2="63" y2="124.91"/><line class="cls-3" x1="124.91" y1="62.95" x2="1" y2="62.95"/><line class="cls-1" x1="124.91" y1="31.53" x2="1" y2="31.53"/><line class="cls-1" x1="124.91" y1="94.37" x2="1" y2="94.37"/><line class="cls-1" x1="155.44" y1="1" x2="155.44" y2="124.91"/><line class="cls-1" x1="218.28" y1="1" x2="218.28" y2="124.91"/><rect class="cls-2" x="124.91" y="1" width="123.91" height="123.91"/><line class="cls-3" x1="186.91" y1="1" x2="186.91" y2="124.91"/><line class="cls-3" x1="248.82" y1="62.95" x2="124.91" y2="62.95"/><line class="cls-1" x1="248.82" y1="31.53" x2="124.91" y2="31.53"/><line class="cls-1" x1="248.82" y1="94.37" x2="124.91" y2="94.37"/><line class="cls-1" x1="279.35" y1="1" x2="279.35" y2="124.91"/><line class="cls-1" x1="342.19" y1="1" x2="342.19" y2="124.91"/><rect class="cls-2" x="248.82" y="1" width="123.91" height="123.91"/><line class="cls-3" x1="310.82" y1="1" x2="310.82" y2="124.91"/><line class="cls-3" x1="372.73" y1="62.95" x2="248.82" y2="62.95"/><line class="cls-1" x1="372.73" y1="31.53" x2="248.82" y2="31.53"/><line class="cls-1" x1="372.73" y1="94.37" x2="248.82" y2="94.37"/><line class="cls-1" x1="403.26" y1="1" x2="403.26" y2="124.91"/><line class="cls-1" x1="466.1" y1="1" x2="466.1" y2="124.91"/><rect class="cls-2" x="372.73" y="1" width="123.91" height="123.91"/><line class="cls-3" x1="434.73" y1="1" x2="434.73" y2="124.91"/><line class="cls-3" x1="496.64" y1="62.95" x2="372.73" y2="62.95"/><line class="cls-1" x1="496.64" y1="31.53" x2="372.73" y2="31.53"/><line class="cls-1" x1="496.64" y1="94.37" x2="372.73" y2="94.37"/><line class="cls-1" x1="527.17" y1="1" x2="527.17" y2="124.91"/><line class="cls-1" x1="590.01" y1="1" x2="590.01" y2="124.91"/><rect class="cls-2" x="496.64" y="1" width="123.91" height="123.91"/><line class="cls-3" x1="558.64" y1="1" x2="558.64" y2="124.91"/><line class="cls-3" x1="620.55" y1="62.95" x2="496.64" y2="62.95"/><line class="cls-1" x1="620.55" y1="31.53" x2="496.64" y2="31.53"/><line class="cls-1" x1="620.55" y1="94.37" x2="496.64" y2="94.37"/><line class="cls-1" x1="651.08" y1="1" x2="651.08" y2="124.91"/><line class="cls-1" x1="713.92" y1="1" x2="713.92" y2="124.91"/><rect class="cls-2" x="620.55" y="1" width="123.91" height="123.91"/><line class="cls-3" x1="682.55" y1="1" x2="682.55" y2="124.91"/><line class="cls-3" x1="744.46" y1="62.95" x2="620.55" y2="62.95"/><line class="cls-1" x1="744.46" y1="31.53" x2="620.55" y2="31.53"/><line class="cls-1" x1="744.46" y1="94.37" x2="620.55" y2="94.37"/><line class="cls-1" x1="774.99" y1="1" x2="774.99" y2="124.91"/><line class="cls-1" x1="837.83" y1="1" x2="837.83" y2="124.91"/><rect class="cls-2" x="744.46" y="1" width="123.91" height="123.91"/><line class="cls-3" x1="806.46" y1="1" x2="806.46" y2="124.91"/><line class="cls-3" x1="868.37" y1="62.95" x2="744.46" y2="62.95"/><line class="cls-1" x1="868.37" y1="31.53" x2="744.46" y2="31.53"/><line class="cls-1" x1="868.37" y1="94.37" x2="744.46" y2="94.37"/><line class="cls-1" x1="898.9" y1="1" x2="898.9" y2="124.91"/><line class="cls-1" x1="961.74" y1="1" x2="961.74" y2="124.91"/><rect class="cls-2" x="868.37" y="1" width="123.91" height="123.91"/><line class="cls-3" x1="930.37" y1="1" x2="930.37" y2="124.91"/><line class="cls-3" x1="992.27" y1="62.95" x2="868.37" y2="62.95"/><line class="cls-1" x1="992.27" y1="31.53" x2="868.37" y2="31.53"/><line class="cls-1" x1="992.27" y1="94.37" x2="868.37" y2="94.37"/><line class="cls-1" x1="1022.81" y1="1" x2="1022.81" y2="124.91"/><line class="cls-1" x1="1085.65" y1="1" x2="1085.65" y2="124.91"/><rect class="cls-2" x="992.27" y="1" width="123.91" height="123.91"/><line class="cls-3" x1="1054.28" y1="1" x2="1054.28" y2="124.91"/><line class="cls-3" x1="1116.18" y1="62.95" x2="992.27" y2="62.95"/><line class="cls-1" x1="1116.18" y1="31.53" x2="992.27" y2="31.53"/><line class="cls-1" x1="1116.18" y1="94.37" x2="992.27" y2="94.37"/><line class="cls-1" x1="31.53" y1="124.91" x2="31.53" y2="248.82"/><line class="cls-1" x1="94.37" y1="124.91" x2="94.37" y2="248.82"/><rect class="cls-2" x="1" y="124.91" width="123.91" height="123.91"/><line class="cls-3" x1="63" y1="124.91" x2="63" y2="248.82"/><line class="cls-3" x1="124.91" y1="186.86" x2="1" y2="186.86"/><line class="cls-1" x1="124.91" y1="155.44" x2="1" y2="155.44"/><line class="cls-1" x1="124.91" y1="218.28" x2="1" y2="218.28"/><line class="cls-1" x1="155.44" y1="124.91" x2="155.44" y2="248.82"/><line class="cls-1" x1="218.28" y1="124.91" x2="218.28" y2="248.82"/><rect class="cls-2" x="124.91" y="124.91" width="123.91" height="123.91"/><line class="cls-3" x1="186.91" y1="124.91" x2="186.91" y2="248.82"/><line class="cls-3" x1="248.82" y1="186.86" x2="124.91" y2="186.86"/><line class="cls-1" x1="248.82" y1="155.44" x2="124.91" y2="155.44"/><line class="cls-1" x1="248.82" y1="218.28" x2="124.91" y2="218.28"/><line class="cls-1" x1="279.35" y1="124.91" x2="279.35" y2="248.82"/><line class="cls-1" x1="342.19" y1="124.91" x2="342.19" y2="248.82"/><rect class="cls-2" x="248.82" y="124.91" width="123.91" height="123.91"/><line class="cls-3" x1="310.82" y1="124.91" x2="310.82" y2="248.82"/><line class="cls-3" x1="372.73" y1="186.86" x2="248.82" y2="186.86"/><line class="cls-1" x1="372.73" y1="155.44" x2="248.82" y2="155.44"/><line class="cls-1" x1="372.73" y1="218.28" x2="248.82" y2="218.28"/><line class="cls-1" x1="403.26" y1="124.91" x2="403.26" y2="248.82"/><line class="cls-1" x1="466.1" y1="124.91" x2="466.1" y2="248.82"/><rect class="cls-2" x="372.73" y="124.91" width="123.91" height="123.91"/><line class="cls-3" x1="434.73" y1="124.91" x2="434.73" y2="248.82"/><line class="cls-3" x1="496.64" y1="186.86" x2="372.73" y2="186.86"/><line class="cls-1" x1="496.64" y1="155.44" x2="372.73" y2="155.44"/><line class="cls-1" x1="496.64" y1="218.28" x2="372.73" y2="218.28"/><line class="cls-1" x1="527.17" y1="124.91" x2="527.17" y2="248.82"/><line class="cls-1" x1="590.01" y1="124.91" x2="590.01" y2="248.82"/><rect class="cls-2" x="496.64" y="124.91" width="123.91" height="123.91"/><line class="cls-3" x1="558.64" y1="124.91" x2="558.64" y2="248.82"/><line class="cls-3" x1="620.55" y1="186.86" x2="496.64" y2="186.86"/><line class="cls-1" x1="620.55" y1="155.44" x2="496.64" y2="155.44"/><line class="cls-1" x1="620.55" y1="218.28" x2="496.64" y2="218.28"/><line class="cls-1" x1="651.08" y1="124.91" x2="651.08" y2="248.82"/><line class="cls-1" x1="713.92" y1="124.91" x2="713.92" y2="248.82"/><rect class="cls-2" x="620.55" y="124.91" width="123.91" height="123.91"/><line class="cls-3" x1="682.55" y1="124.91" x2="682.55" y2="248.82"/><line class="cls-3" x1="744.46" y1="186.86" x2="620.55" y2="186.86"/><line class="cls-1" x1="744.46" y1="155.44" x2="620.55" y2="155.44"/><line class="cls-1" x1="744.46" y1="218.28" x2="620.55" y2="218.28"/><line class="cls-1" x1="774.99" y1="124.91" x2="774.99" y2="248.82"/><line class="cls-1" x1="837.83" y1="124.91" x2="837.83" y2="248.82"/><rect class="cls-2" x="744.46" y="124.91" width="123.91" height="123.91"/><line class="cls-3" x1="806.46" y1="124.91" x2="806.46" y2="248.82"/><line class="cls-3" x1="868.37" y1="186.86" x2="744.46" y2="186.86"/><line class="cls-1" x1="868.37" y1="155.44" x2="744.46" y2="155.44"/><line class="cls-1" x1="868.37" y1="218.28" x2="744.46" y2="218.28"/><line class="cls-1" x1="898.9" y1="124.91" x2="898.9" y2="248.82"/><line class="cls-1" x1="961.74" y1="124.91" x2="961.74" y2="248.82"/><rect class="cls-2" x="868.37" y="124.91" width="123.91" height="123.91"/><line class="cls-3" x1="930.37" y1="124.91" x2="930.37" y2="248.82"/><line class="cls-3" x1="992.27" y1="186.86" x2="868.37" y2="186.86"/><line class="cls-1" x1="992.27" y1="155.44" x2="868.37" y2="155.44"/><line class="cls-1" x1="992.27" y1="218.28" x2="868.37" y2="218.28"/><line class="cls-1" x1="1022.81" y1="124.91" x2="1022.81" y2="248.82"/><line class="cls-1" x1="1085.65" y1="124.91" x2="1085.65" y2="248.82"/><rect class="cls-2" x="992.27" y="124.91" width="123.91" height="123.91"/><line class="cls-3" x1="1054.28" y1="124.91" x2="1054.28" y2="248.82"/><line class="cls-3" x1="1116.18" y1="186.86" x2="992.27" y2="186.86"/><line class="cls-1" x1="1116.18" y1="155.44" x2="992.27" y2="155.44"/><line class="cls-1" x1="1116.18" y1="218.28" x2="992.27" y2="218.28"/><line class="cls-1" x1="31.53" y1="1" x2="31.53" y2="124.91"/><line class="cls-1" x1="94.37" y1="1" x2="94.37" y2="124.91"/><rect class="cls-2" x="1" y="1" width="123.91" height="123.91"/><line class="cls-3" x1="63" y1="1" x2="63" y2="124.91"/><line class="cls-3" x1="124.91" y1="62.95" x2="1" y2="62.95"/><line class="cls-1" x1="124.91" y1="31.53" x2="1" y2="31.53"/><line class="cls-1" x1="124.91" y1="94.37" x2="1" y2="94.37"/><line class="cls-1" x1="31.53" y1="124.91" x2="31.53" y2="248.82"/><line class="cls-1" x1="94.37" y1="124.91" x2="94.37" y2="248.82"/><rect class="cls-2" x="1" y="124.91" width="123.91" height="123.91"/><line class="cls-3" x1="63" y1="124.91" x2="63" y2="248.82"/><line class="cls-3" x1="124.91" y1="186.86" x2="1" y2="186.86"/><line class="cls-1" x1="124.91" y1="155.44" x2="1" y2="155.44"/><line class="cls-1" x1="124.91" y1="218.28" x2="1" y2="218.28"/></g></g></svg>