<svg xmlns="http://www.w3.org/2000/svg" xmlns:xlink="http://www.w3.org/1999/xlink" viewBox="0 0 1920 506.33" width="300" height="79"><defs><style>.cls-1{fill:url(#무제_그라디언트_62);}.cls-2{fill:url(#무제_그라디언트_2);}.cls-3,.cls-6{opacity:0.5;}.cls-3{fill:url(#무제_그라디언트_41);}.cls-4{opacity:0.2;fill:url(#무제_그라디언트_29);}.cls-5{opacity:0.7;}.cls-6{fill:url(#무제_그라디언트_2-2);}.cls-7{opacity:0.3;fill:url(#무제_그라디언트_20);}.cls-8{mask:url(#mask);}.cls-10,.cls-11,.cls-12,.cls-13,.cls-14,.cls-15,.cls-9{opacity:0.15;}.cls-9{fill:url(#무제_그라디언트_41-2);}.cls-10{fill:url(#무제_그라디언트_41-3);}.cls-11{fill:url(#무제_그라디언트_41-4);}.cls-12{fill:url(#무제_그라디언트_41-5);}.cls-13{fill:url(#무제_그라디언트_41-6);}.cls-14{fill:url(#무제_그라디언트_41-7);}.cls-16{fill:url(#무제_그라디언트_42);}.cls-17{fill:url(#무제_그라디언트_42-2);}.cls-18{fill:url(#무제_그라디언트_42-3);}.cls-19{fill:url(#무제_그라디언트_42-4);}.cls-20{fill:url(#무제_그라디언트_42-5);}.cls-21{fill:url(#무제_그라디언트_42-6);}.cls-22{fill:url(#무제_그라디언트_42-7);}.cls-23{fill:#fff;}</style><linearGradient id="무제_그라디언트_62" x1="960" y1="63.9" x2="960" y2="451.94" gradientUnits="userSpaceOnUse"><stop offset="0"/><stop offset="0.02" stop-color="#0c0c0c"/><stop offset="0.1" stop-color="#3c3c3c"/><stop offset="0.18" stop-color="#636363"/><stop offset="0.27" stop-color="#828282"/><stop offset="0.35" stop-color="#979797"/><stop offset="0.42" stop-color="#a5a5a5"/><stop offset="0.49" stop-color="#a9a9a9"/><stop offset="0.56" stop-color="#a4a4a4"/><stop offset="0.64" stop-color="#959595"/><stop offset="0.72" stop-color="#7c7c7c"/><stop offset="0.82" stop-color="#595959"/><stop offset="0.92" stop-color="#2d2d2d"/><stop offset="1"/></linearGradient><linearGradient id="무제_그라디언트_2" x1="143.81" y1="717.42" x2="1013.4" y2="222.79" gradientUnits="userSpaceOnUse"><stop offset="0" stop-color="#67a6e5"/><stop offset="0.12" stop-color="#649de5"/><stop offset="0.32" stop-color="#5e83e5"/><stop offset="0.58" stop-color="#525ae5"/><stop offset="0.84" stop-color="#4529e5"/></linearGradient><linearGradient id="무제_그라디언트_41" x1="1035.16" y1="607.5" x2="963.24" y2="268.42" gradientUnits="userSpaceOnUse"><stop offset="0" stop-color="#2c1f7c"/><stop offset="1" stop-color="#2c1f7c" stop-opacity="0"/></linearGradient><linearGradient id="무제_그라디언트_29" x1="957.34" y1="250.5" x2="1260.78" y2="553.95" gradientUnits="userSpaceOnUse"><stop offset="0" stop-color="#fff" stop-opacity="0.4"/><stop offset="0.17" stop-color="#fff" stop-opacity="0.38"/><stop offset="0.39" stop-color="#fff" stop-opacity="0.32"/><stop offset="0.62" stop-color="#fff" stop-opacity="0.22"/><stop offset="0.86" stop-color="#fff" stop-opacity="0.09"/><stop offset="1" stop-color="#fff" stop-opacity="0"/></linearGradient><linearGradient id="무제_그라디언트_2-2" x1="-72.02" y1="312.48" x2="1335.97" y2="270.37" xlink:href="#무제_그라디언트_2"/><linearGradient id="무제_그라디언트_20" x1="526.02" y1="109.17" x2="1669.81" y2="488.68" gradientUnits="userSpaceOnUse"><stop offset="0" stop-color="#fff"/><stop offset="0.1" stop-color="#fff" stop-opacity="0.98"/><stop offset="0.22" stop-color="#fff" stop-opacity="0.92"/><stop offset="0.36" stop-color="#fff" stop-opacity="0.82"/><stop offset="0.5" stop-color="#fff" stop-opacity="0.69"/><stop offset="0.66" stop-color="#fff" stop-opacity="0.51"/><stop offset="0.81" stop-color="#fff" stop-opacity="0.3"/><stop offset="0.97" stop-color="#fff" stop-opacity="0.05"/><stop offset="1" stop-color="#fff" stop-opacity="0"/></linearGradient><mask id="mask" x="0" y="0" width="1920" height="506.33" maskUnits="userSpaceOnUse"><rect class="cls-1" width="1920" height="506.33"/></mask><linearGradient id="무제_그라디언트_41-2" x1="444.07" y1="253.16" x2="201.29" y2="253.16" xlink:href="#무제_그라디언트_41"/><linearGradient id="무제_그라디언트_41-3" x1="964.07" y1="253.16" x2="721.29" y2="253.16" xlink:href="#무제_그라디언트_41"/><linearGradient id="무제_그라디언트_41-4" x1="1484.07" y1="253.16" x2="1241.29" y2="253.16" xlink:href="#무제_그라디언트_41"/><linearGradient id="무제_그라디언트_41-5" x1="704.07" y1="253.16" x2="461.29" y2="253.16" xlink:href="#무제_그라디언트_41"/><linearGradient id="무제_그라디언트_41-6" x1="1224.07" y1="253.16" x2="981.29" y2="253.16" xlink:href="#무제_그라디언트_41"/><linearGradient id="무제_그라디언트_41-7" x1="1744.06" y1="253.16" x2="1501.29" y2="253.16" xlink:href="#무제_그라디언트_41"/><linearGradient id="무제_그라디언트_42" x1="1320.48" y1="110.07" x2="1342.03" y2="181.28" gradientUnits="userSpaceOnUse"><stop offset="0" stop-color="#fff"/><stop offset="0.01" stop-color="#fff" stop-opacity="0.99"/><stop offset="0.38" stop-color="#fff" stop-opacity="0.57"/><stop offset="0.68" stop-color="#fff" stop-opacity="0.26"/><stop offset="0.9" stop-color="#fff" stop-opacity="0.07"/><stop offset="1" stop-color="#fff" stop-opacity="0"/></linearGradient><linearGradient id="무제_그라디언트_42-2" x1="1356.56" y1="99.15" x2="1378.11" y2="170.36" xlink:href="#무제_그라디언트_42"/><linearGradient id="무제_그라디언트_42-3" x1="1414.52" y1="81.61" x2="1436.07" y2="152.82" xlink:href="#무제_그라디언트_42"/><linearGradient id="무제_그라디언트_42-4" x1="352.09" y1="286.31" x2="359.33" y2="342.53" xlink:href="#무제_그라디언트_42"/><linearGradient id="무제_그라디언트_42-5" x1="405.88" y1="279.38" x2="413.12" y2="335.61" xlink:href="#무제_그라디언트_42"/><linearGradient id="무제_그라디언트_42-6" x1="465.63" y1="271.69" x2="472.86" y2="327.92" xlink:href="#무제_그라디언트_42"/><linearGradient id="무제_그라디언트_42-7" x1="516.2" y1="265.18" x2="523.44" y2="321.41" xlink:href="#무제_그라디언트_42"/></defs><title>자산 2</title><g id="레이어_2" data-name="레이어 2"><g id="레이어_1-2" data-name="레이어 1"><rect class="cls-2" width="1920" height="506.33"/><rect class="cls-3" width="1920" height="506.33"/><path class="cls-4" d="M1752.83,0c-36.07,16.6-49,62.45-86,77.69-10.51,4.32-25.91,5.28-48,1-53.5-10.45-80.72-19.72-107.75-10.45-46.64,16-56.25,56.27-116.7,160.13-6.93,11.91-36.95,61.89-79.27,68.67-40.67,6.52-91.11-52.59-116.15-72.6-20.25-16.2-38.32-25.43-66.63-22.22-27.36,3.1-46.55,20.38-65.12,38.9-22.05,22-82.55,117.25-178.59,96.42C871.78,333.85,759,285.2,680,309.13c-36.44,11-219.4,73-253.18,85.69C229.32,468.73,1.08,390.5,0,390.28v116H1920V0Z"/><g class="cls-5"><path class="cls-6" d="M1902.74,0c-76,51.89-119.71,39.2-164.13,54.73C1661.08,81.84,1618.29,155.3,1560.75,136c-14.21-4.76-27.45-11.84-42.66-13.79a84.19,84.19,0,0,0-36.9,3.85c-24.56,8.11-34.9,33.89-50.23,55.44-7.76,10.9-28.54,60.39-57.8,55.94-46.61-7.08-47.8-10.33-82.86,23.64-16.41,15.9-26,26.58-48,36.34a64,64,0,0,1-22.25,5.5c-13.26.84-18,2.71-46.35-14.36-39.26-23.64-86.53-76.89-138.11-54.36C989.48,254.35,953.25,314.61,912,344.66c-23.34,17-51.37,26.17-81.83,23-48.72-5.07-83.46-43.44-121.56-67.52C689.34,288,668,278.36,644.4,276.45c-28.93-2.36-57.15,6.32-82.63,18.07C533.09,307.78,507,325,479.84,340.65q-43.6,25-89.65,46.31-19.79,9.15-40,17.52S149,477.91,0,464.49v41.84H1920V0Z"/><path class="cls-7" d="M1902.74,0c-76,51.89-119.71,39.2-164.13,54.73C1661.08,81.84,1618.29,155.3,1560.75,136c-14.21-4.76-27.45-11.84-42.66-13.79a84.19,84.19,0,0,0-36.9,3.85c-24.56,8.11-38,33.61-50.23,55.44-6.5,11.64-24.62,60.13-57.8,55.94-46.81-5.92-47.8-10.33-82.86,23.64-16.41,15.9-26,26.58-48,36.34a64,64,0,0,1-22.25,5.5c-13.26.84-18,2.71-46.35-14.36-39.26-23.64-86.53-76.89-138.11-54.36C989.48,254.35,953.25,314.61,912,344.66c-23.34,17-51.37,26.17-81.83,23-48.72-5.07-83.46-43.44-121.56-67.52C689.34,288,668,278.36,644.4,276.45c-28.93-2.36-57.15,6.32-82.63,18.07C533.09,307.78,507,325,479.84,340.65q-43.6,25-89.65,46.31-19.79,9.15-40,17.52S149,477.91,0,464.49v41.84H1920V0Z"/></g><g class="cls-8"><g class="cls-5"><rect class="cls-9" x="180" width="260" height="506.33"/><rect class="cls-10" x="700" width="260" height="506.33"/><rect class="cls-11" x="1220" width="260" height="506.33"/><rect class="cls-12" x="440" width="260" height="506.33"/><rect class="cls-13" x="960" width="260" height="506.33"/><rect class="cls-14" x="1480" width="260" height="506.33"/></g></g><g class="cls-15"><path class="cls-16" d="M1309.69,113.58h25.86q8.45,0,12.65,4t4.21,11.48q0,7.65-4.58,12t-14,4.31h-8.52v18.75h-15.62Zm15.62,21.54h3.81q4.5,0,6.32-1.57a5.06,5.06,0,0,0,1.82-4,5.62,5.62,0,0,0-1.58-4q-1.58-1.65-5.94-1.65h-4.43Z"/><path class="cls-17" d="M1384.81,155.77h-17.66l-2.45,8.34h-15.88l18.92-50.53h17l18.92,50.53h-16.29Zm-3.23-10.93L1376,126.68l-5.5,18.16Z"/><path class="cls-18" d="M1396.81,113.58h17.28l10.14,17,10.16-17h17.19L1432,142.94v21.16h-15.59V142.94Z"/></g><g class="cls-15"><path class="cls-19" d="M376.85,320.33a13.89,13.89,0,0,1-1.66,7.07,13.22,13.22,0,0,1-4.41,4.6,19.16,19.16,0,0,1-6.25,2.5,33.76,33.76,0,0,1-7.19.76H337V283.94h20.37a31.22,31.22,0,0,1,6.07.62,18,18,0,0,1,5.63,2.1,11.31,11.31,0,0,1,5.7,10.48,10.71,10.71,0,0,1-2.31,7.07,12.89,12.89,0,0,1-6.07,4v.15a14,14,0,0,1,4.08,1.34,11.57,11.57,0,0,1,5.56,6.05A12,12,0,0,1,376.85,320.33Zm-14-21.53a4.11,4.11,0,0,0-2-3.81,11.59,11.59,0,0,0-5.89-1.2H348.9v10.58h6.64a8.91,8.91,0,0,0,5.38-1.41A4.86,4.86,0,0,0,362.83,298.8Zm1.66,20.37a4.54,4.54,0,0,0-2.38-4.42,13.91,13.91,0,0,0-6.36-1.23H348.9v11.74h6.93a18.48,18.48,0,0,0,3-.25,9.4,9.4,0,0,0,2.82-.91,5.15,5.15,0,0,0,2.85-4.93Z"/><path class="cls-20" d="M437.58,309.39a28.73,28.73,0,0,1-2.09,11.13,25.35,25.35,0,0,1-5.81,8.63,25.87,25.87,0,0,1-8.85,5.55,32.47,32.47,0,0,1-22.21,0,25.93,25.93,0,0,1-8.81-5.55,25.32,25.32,0,0,1-5.81-8.63,28.71,28.71,0,0,1-2.09-11.13A28.37,28.37,0,0,1,384,298.26a24.37,24.37,0,0,1,5.81-8.45,25.89,25.89,0,0,1,8.81-5.36,33.65,33.65,0,0,1,22.21,0,25.83,25.83,0,0,1,8.85,5.36,24.4,24.4,0,0,1,5.81,8.45A28.39,28.39,0,0,1,437.58,309.39Zm-13.22,0a17.68,17.68,0,0,0-1.08-6.23,14.89,14.89,0,0,0-3-5,13.84,13.84,0,0,0-4.62-3.26,14.59,14.59,0,0,0-6-1.2,14.19,14.19,0,0,0-10.54,4.46,14.11,14.11,0,0,0-3,5,19.31,19.31,0,0,0,0,12.65,15.19,15.19,0,0,0,3,5,13.66,13.66,0,0,0,4.59,3.3,15.26,15.26,0,0,0,11.84,0,14.07,14.07,0,0,0,4.62-3.3,14.89,14.89,0,0,0,3-5A18.41,18.41,0,0,0,424.36,309.39Z"/><path class="cls-21" d="M498.32,309.39a28.73,28.73,0,0,1-2.09,11.13,25.35,25.35,0,0,1-5.81,8.63,25.87,25.87,0,0,1-8.85,5.55,32.47,32.47,0,0,1-22.21,0,25.93,25.93,0,0,1-8.81-5.55,25.32,25.32,0,0,1-5.81-8.63,28.71,28.71,0,0,1-2.09-11.13,28.37,28.37,0,0,1,2.09-11.13,24.37,24.37,0,0,1,5.81-8.45,25.89,25.89,0,0,1,8.81-5.36,33.65,33.65,0,0,1,22.21,0,25.83,25.83,0,0,1,8.85,5.36,24.4,24.4,0,0,1,5.81,8.45A28.39,28.39,0,0,1,498.32,309.39Zm-13.22,0a17.68,17.68,0,0,0-1.08-6.23,14.89,14.89,0,0,0-3-5,13.84,13.84,0,0,0-4.62-3.26,14.59,14.59,0,0,0-6-1.2,14.19,14.19,0,0,0-10.54,4.46,14.11,14.11,0,0,0-3,5,19.31,19.31,0,0,0,0,12.65,15.19,15.19,0,0,0,3,5,13.66,13.66,0,0,0,4.59,3.3,15.26,15.26,0,0,0,11.84,0,14.07,14.07,0,0,0,4.62-3.3,14.89,14.89,0,0,0,3-5A18.41,18.41,0,0,0,485.1,309.39Z"/><path class="cls-22" d="M525.47,294.53v40.74H513.12V294.53H498.68V283.94h41.24v10.58Z"/></g><g class="cls-5"><circle class="cls-23" cx="469.62" cy="345.95" r="3"/></g><g class="cls-5"><circle class="cls-23" cx="960" cy="298.56" r="3"/></g><g class="cls-5"><circle class="cls-23" cx="1433.95" cy="178.62" r="3"/></g></g></g></svg>