<svg xmlns="http://www.w3.org/2000/svg" xmlns:xlink="http://www.w3.org/1999/xlink" viewBox="0 0 1878.62 1147"><defs><style>.cls-1,.cls-5{opacity:0.3;}.cls-1{fill:url(#무제_그라디언트_21);}.cls-2{opacity:0.35;fill:url(#무제_그라디언트_25);}.cls-3,.cls-4{opacity:0.25;}.cls-3{fill:url(#무제_그라디언트_21-2);}.cls-4{fill:url(#무제_그라디언트_21-3);}.cls-5{fill:url(#무제_그라디언트_21-4);}</style><linearGradient id="무제_그라디언트_21" x1="39.15" y1="-156.37" x2="566.47" y2="659.37" gradientUnits="userSpaceOnUse"><stop offset="0" stop-color="#cbc7ff"/><stop offset="0.41" stop-color="#c8c8fe" stop-opacity="0.96"/><stop offset="0.52" stop-color="#bacff9" stop-opacity="0.77"/><stop offset="0.76" stop-color="#9cdcee" stop-opacity="0.36"/><stop offset="0.92" stop-color="#89e5e8" stop-opacity="0.1"/><stop offset="1" stop-color="#82e8e5" stop-opacity="0"/></linearGradient><radialGradient id="무제_그라디언트_25" cx="53.83" cy="1324.4" r="933.44" gradientUnits="userSpaceOnUse"><stop offset="0" stop-color="#cbc7ff"/><stop offset="0.48" stop-color="#c8c8fe" stop-opacity="0.96"/><stop offset="0.57" stop-color="#bacff9" stop-opacity="0.77"/><stop offset="0.79" stop-color="#9cdcee" stop-opacity="0.36"/><stop offset="0.93" stop-color="#89e5e8" stop-opacity="0.1"/><stop offset="1" stop-color="#82e8e5" stop-opacity="0"/></radialGradient><linearGradient id="무제_그라디언트_21-2" x1="1110.62" y1="1220.81" x2="1202.27" y2="949.26" xlink:href="#무제_그라디언트_21"/><linearGradient id="무제_그라디언트_21-3" x1="1624.23" y1="335.41" x2="1793.94" y2="52.27" xlink:href="#무제_그라디언트_21"/><linearGradient id="무제_그라디언트_21-4" x1="698.29" y1="1096.36" x2="1128.44" y2="218.87" xlink:href="#무제_그라디언트_21"/></defs><title>자산 14</title><g id="레이어_2" data-name="레이어 2"><g id="레이어_1-2" data-name="레이어 1"><polygon class="cls-1" points="274.11 0 0 0 593.32 908.01 867.43 908.01 274.11 0"/><polygon class="cls-2" points="553.41 1147 934.95 563.1 776.27 563.1 758.69 563.1 600.02 563.1 218.48 1147 553.41 1147"/><polygon class="cls-3" points="1112.11 1147 1357.98 770.71 1285.95 770.71 1040.08 1147 1112.11 1147"/><polygon class="cls-4" points="1878.62 0 1768.53 0 1591.65 270.71 1721.38 270.71 1878.62 30.06 1878.62 0"/><polygon class="cls-5" points="1242.1 0 940.27 461.92 940.39 461.92 571.74 1026.1 726.24 1026.1 1396.72 0 1242.1 0"/></g></g></svg>