<svg xmlns="http://www.w3.org/2000/svg" viewBox="0 0 120.27 114.37"><defs><style>.cls-1{fill:#e4e4ea;}.cls-2{fill:#fafafa;stroke:#e4e4ea;stroke-miterlimit:10;stroke-width:1.13px;}.cls-3{fill:#62d89f;}</style></defs><title>자산 5</title><g id="레이어_2" data-name="레이어 2"><g id="레이어_1-2" data-name="레이어 1"><path class="cls-1" d="M17.34,114.37c9.58,0,17.34-9.17,17.34-20.48H0C0,105.2,7.76,114.37,17.34,114.37Z"/><path class="cls-1" d="M120.27,0H34.68V93.89c0,11.31-7.76,20.48-17.34,20.48h86.12c9.28,0,16.81-9.17,16.81-20.48V0Zm-2.37,2.37V93.89c0,10-6.47,18.1-14.43,18.1H29.35a24.25,24.25,0,0,0,7.7-18.1V2.37h80.84"/><path class="cls-2" d="M117.89,2.37V93.89c0,10-6.47,18.1-14.43,18.1H29.35a24.25,24.25,0,0,0,7.7-18.1V2.37h80.84"/><path class="cls-3" d="M75.2,65.59a17.11,17.11,0,0,1,.37-5.67,13.24,13.24,0,0,1,1.64-3.81,13.75,13.75,0,0,1,2.26-2.66q1.24-1.11,2.32-2.17a10.62,10.62,0,0,0,1.83-2.35,6.42,6.42,0,0,0,.74-3.22,6.78,6.78,0,0,0-1.18-4.06A4.33,4.33,0,0,0,79.41,40a5.58,5.58,0,0,0-4.27,1.8,8.76,8.76,0,0,0-1.92,5.51H65.47a17.72,17.72,0,0,1,1.64-6.88A13.59,13.59,0,0,1,70.52,36a11.58,11.58,0,0,1,4.43-2.32,14.93,14.93,0,0,1,4.71-.53,17.84,17.84,0,0,1,5.11,1,12.44,12.44,0,0,1,4.12,2.35,10.83,10.83,0,0,1,2.73,3.69,11.81,11.81,0,0,1,1,5,14.05,14.05,0,0,1-.81,5.2,11.09,11.09,0,0,1-2,3.31,16.92,16.92,0,0,1-2.57,2.32,18.14,18.14,0,0,0-2.51,2.2,9.86,9.86,0,0,0-1.89,2.94,10.41,10.41,0,0,0-.62,4.52Zm3.53,16.35a5.31,5.31,0,0,1-4-1.7,6.4,6.4,0,0,1,0-8.49,5.32,5.32,0,0,1,4-1.7,5.39,5.39,0,0,1,4.09,1.7,6.4,6.4,0,0,1,0,8.49A5.39,5.39,0,0,1,78.73,81.94Z"/></g></g></svg>