<svg xmlns="http://www.w3.org/2000/svg" xmlns:xlink="http://www.w3.org/1999/xlink" viewBox="0 0 1920.01 812.79" width="810" height="342"><defs><style>.cls-1{fill:#5f61e4;}.cls-2,.cls-8{opacity:0.8;}.cls-2{fill:url(#무제_그라디언트_11);}.cls-3,.cls-5,.cls-7{opacity:0.9;}.cls-3{fill:url(#무제_그라디언트_6);}.cls-4{fill:url(#무제_그라디언트_6-2);}.cls-5{fill:url(#무제_그라디언트_6-3);}.cls-10,.cls-6{opacity:0.1;}.cls-6{fill:url(#무제_그라디언트_30);}.cls-7{fill:url(#무제_그라디언트_6-4);}.cls-8{fill:url(#무제_그라디언트_6-5);}.cls-9{opacity:0.3;fill:url(#무제_그라디언트_4);}.cls-10{fill:url(#무제_그라디언트_21);}.cls-11{opacity:0.2;fill:url(#무제_그라디언트_4-2);}</style><linearGradient id="무제_그라디언트_11" x1="2411.62" y1="974.81" x2="554.24" y2="247.51" gradientUnits="userSpaceOnUse"><stop offset="0" stop-color="#82e8e5"/><stop offset="0.15" stop-color="#82e8e5" stop-opacity="0.84"/><stop offset="0.57" stop-color="#82e8e5" stop-opacity="0.39"/><stop offset="0.86" stop-color="#82e8e5" stop-opacity="0.11"/><stop offset="1" stop-color="#82e8e5" stop-opacity="0"/></linearGradient><linearGradient id="무제_그라디언트_6" x1="1064.16" y1="-200.48" x2="887.76" y2="827.31" gradientUnits="userSpaceOnUse"><stop offset="0" stop-color="#4529e5"/><stop offset="0.14" stop-color="#4529e5" stop-opacity="0.85"/><stop offset="0.56" stop-color="#4529e5" stop-opacity="0.4"/><stop offset="0.86" stop-color="#4529e5" stop-opacity="0.11"/><stop offset="1" stop-color="#4529e5" stop-opacity="0"/></linearGradient><linearGradient id="무제_그라디언트_6-2" x1="965.99" y1="920.06" x2="699.68" y2="71.09" xlink:href="#무제_그라디언트_6"/><linearGradient id="무제_그라디언트_6-3" x1="463.21" y1="846.83" x2="707.74" y2="381.17" xlink:href="#무제_그라디언트_6"/><radialGradient id="무제_그라디언트_30" cx="67.5" cy="-204.74" r="1255.54" gradientUnits="userSpaceOnUse"><stop offset="0" stop-color="#cbc7ff"/><stop offset="0.38" stop-color="#c8c8fe" stop-opacity="0.96"/><stop offset="0.49" stop-color="#bacff9" stop-opacity="0.77"/><stop offset="0.74" stop-color="#9cdcee" stop-opacity="0.36"/><stop offset="0.92" stop-color="#89e5e8" stop-opacity="0.1"/><stop offset="1" stop-color="#82e8e5" stop-opacity="0"/></radialGradient><linearGradient id="무제_그라디언트_6-4" x1="20.76" y1="99.38" x2="278.84" y2="649.07" xlink:href="#무제_그라디언트_6"/><linearGradient id="무제_그라디언트_6-5" x1="512.08" y1="-40.5" x2="812.74" y2="307.02" xlink:href="#무제_그라디언트_6"/><linearGradient id="무제_그라디언트_4" x1="1496.07" y1="-79.3" x2="1201.09" y2="434.07" gradientUnits="userSpaceOnUse"><stop offset="0" stop-color="#2c1f7c"/><stop offset="0.25" stop-color="#2c1f7c" stop-opacity="0.73"/><stop offset="0.76" stop-color="#2c1f7c" stop-opacity="0.2"/><stop offset="1" stop-color="#2c1f7c" stop-opacity="0"/></linearGradient><linearGradient id="무제_그라디언트_21" x1="1683.42" y1="-87.33" x2="1867.61" y2="221.04" gradientUnits="userSpaceOnUse"><stop offset="0" stop-color="#cbc7ff"/><stop offset="0.41" stop-color="#c8c8fe" stop-opacity="0.96"/><stop offset="0.52" stop-color="#bacff9" stop-opacity="0.77"/><stop offset="0.76" stop-color="#9cdcee" stop-opacity="0.36"/><stop offset="0.92" stop-color="#89e5e8" stop-opacity="0.1"/><stop offset="1" stop-color="#82e8e5" stop-opacity="0"/></linearGradient><linearGradient id="무제_그라디언트_4-2" x1="303.37" y1="868.81" x2="90.08" y2="528.52" xlink:href="#무제_그라디언트_4"/></defs><title>자산 1</title><g id="레이어_2" data-name="레이어 2"><g id="레이어_1-2" data-name="레이어 1"><rect class="cls-1" width="1920.01" height="812.79"/><rect class="cls-2" width="1920.01" height="812.79"/><rect class="cls-3" width="1920.01" height="812.79"/><polygon class="cls-4" points="1181.05 0 966.42 0 643.3 0 214.63 0 0 0 0 812.79 214.63 812.79 460 812.79 643.3 812.79 674.63 812.79 1103.3 812.79 1609.72 0 1181.05 0"/><polygon class="cls-5" points="630.57 812.79 1069.27 141.41 886.83 141.41 866.6 141.41 684.16 141.41 245.47 812.79 630.57 812.79"/><polygon class="cls-6" points="203.82 0 711.42 812.79 934.05 812.79 426.44 0 203.82 0"/><polygon class="cls-7" points="203.83 0 0 0 0 812.79 711.42 812.79 203.83 0"/><polygon class="cls-8" points="926.41 805.45 930.97 812.79 944.22 812.79 1372.89 812.79 866.47 0 426.44 0 927.6 805.45 926.41 805.45"/><polygon class="cls-9" points="1310.99 0 1057.61 406.67 1356.34 406.67 1609.72 0 1310.99 0"/><polygon class="cls-10" points="1920 208.2 1783.96 0 1675.53 0 1910.23 359.19 1920 359.19 1920 208.2"/><polygon class="cls-11" points="83.07 435.49 0 435.49 0 482.68 215.7 812.79 329.6 812.79 83.07 435.49"/></g></g></svg>