<svg xmlns="http://www.w3.org/2000/svg" viewBox="0 0 80 80"><defs><style>.cls-1{fill:#b8f4ee;}.cls-2{fill:#6999f9;}.cls-3{fill:#2c1f7c;}.cls-4{fill:#e1e1ef;}.cls-5{fill:#fff;}</style></defs><title>자산 6</title><g id="레이어_2" data-name="레이어 2"><g id="레이어_1-2" data-name="레이어 1"><rect class="cls-1" width="80" height="80" rx="4.8" ry="4.8"/><path class="cls-2" d="M19.6,20.5V38.8s.51,21.12,20.4,27V14.2S29.8,21.27,19.6,20.5Z"/><path class="cls-3" d="M60.4,20.5V38.8s-.51,21.12-20.4,27V14.2S50.2,21.27,60.4,20.5Z"/><path class="cls-4" d="M40,22.06V57.94c13.83-4.09,14.19-18.78,14.19-18.78V26.44C47.09,27,40,22.06,40,22.06Z"/><path class="cls-5" d="M25.81,26.44V39.17S26.17,53.86,40,57.94V22.06S32.91,27,25.81,26.44Z"/><path class="cls-3" d="M46.17,38.47a.53.53,0,0,0-.46-.27l-5.29,0,.71-7.38a.53.53,0,0,0-.51-.62h-.07a.53.53,0,0,0-.36.21l0,.06L33.83,41.5a.53.53,0,0,0,.46.79h5.33l-1.08,7a.53.53,0,0,0,1,.36L46.16,39A.53.53,0,0,0,46.17,38.47Z"/></g></g></svg>