<svg xmlns="http://www.w3.org/2000/svg" viewBox="0 0 170.48 46.35"><defs><style>.cls-1{fill:#19243b;}</style></defs><title>자산 40</title><g id="레이어_2" data-name="레이어 2"><g id="레이어_5" data-name="레이어 5"><polygon class="cls-1" points="82.58 10.21 79.38 10.21 75.05 10.21 75.05 12.94 79.38 12.94 82.58 12.94 89.59 12.94 89.59 10.21 82.58 10.21"/><path class="cls-1" d="M18.07,12.59a8.68,8.68,0,0,0-3.18-2.12,11.19,11.19,0,0,0-4.12-.73A9.39,9.39,0,0,0,6.35,10.8a7.72,7.72,0,0,0-3.15,3V0H0V35.57H3.15v-3h0a8.71,8.71,0,0,0,3,2.37,9.81,9.81,0,0,0,4.61,1,10.93,10.93,0,0,0,4-.73A8.93,8.93,0,0,0,18,33.1a9.69,9.69,0,0,0,2.09-3.41,13.17,13.17,0,0,0,.75-4.61V20.61A13.57,13.57,0,0,0,20.12,16,9.63,9.63,0,0,0,18.07,12.59Zm-.42,12a9.39,9.39,0,0,1-1.91,6.28,6.42,6.42,0,0,1-5.15,2.23,8.22,8.22,0,0,1-3-.52,7.92,7.92,0,0,1-2.33-1.36,6.26,6.26,0,0,1-1.53-1.91,4.75,4.75,0,0,1-.54-2.19V19.72a6.48,6.48,0,0,1,.66-3,7.23,7.23,0,0,1,1.72-2.21A7.42,7.42,0,0,1,8,13.13a7.84,7.84,0,0,1,2.64-.47,6.51,6.51,0,0,1,5.15,2.16,9.18,9.18,0,0,1,1.91,6.26Z"/><path class="cls-1" d="M35.67,9.74q-5.13,0-8,3t-2.82,8.54v3.15q0,5.5,2.82,8.52t8,3q5.13,0,8-3t2.82-8.52V21.27q0-5.5-2.82-8.52T35.67,9.74ZM43.2,24.23q0,4.52-2,6.7a7.11,7.11,0,0,1-5.53,2.19,7.11,7.11,0,0,1-5.53-2.19q-2-2.19-2-6.7V21.46q0-4.52,2-6.7a7.11,7.11,0,0,1,5.53-2.19,7.11,7.11,0,0,1,5.53,2.19q2,2.19,2,6.7Z"/><path class="cls-1" d="M61.22,9.74q-5.13,0-8,3t-2.82,8.54v3.15q0,5.5,2.82,8.52t8,3q5.13,0,8-3T72,24.42V21.27q0-5.5-2.82-8.52T61.22,9.74Zm7.53,14.49q0,4.52-2,6.7a7.11,7.11,0,0,1-5.53,2.19,7.11,7.11,0,0,1-5.53-2.19q-2-2.19-2-6.7V21.46q0-4.52,2-6.7a7.11,7.11,0,0,1,5.53-2.19,7.11,7.11,0,0,1,5.53,2.19q2,2.19,2,6.7Z"/><rect class="cls-1" x="79.38" y="3.67" width="3.2" height="6.54"/><path class="cls-1" d="M86.16,33a3.31,3.31,0,0,1-2.75-1,6,6,0,0,1-.82-3.62V12.94h-3.2V28.51a12.66,12.66,0,0,0,.4,3.46A5.35,5.35,0,0,0,81,34.21a4.55,4.55,0,0,0,2,1.22,10,10,0,0,0,2.89.38,17.73,17.73,0,0,0,2.28-.16,9.44,9.44,0,0,0,2-.45l-.47-2.63A13.37,13.37,0,0,1,86.16,33Z"/><path class="cls-1" d="M115.09,12.12a8.67,8.67,0,0,0-3.18-2.24,11.4,11.4,0,0,0-4.45-.8,12,12,0,0,0-1.91.16,9.76,9.76,0,0,0-2,.54,8.13,8.13,0,0,0-1.86,1,6.53,6.53,0,0,0-1.55,1.65V9.65H94.48v36h5.93V32.94a7.42,7.42,0,0,0,2.73,2.19,9.18,9.18,0,0,0,4,.82,11.51,11.51,0,0,0,4.33-.78,9.06,9.06,0,0,0,3.29-2.23,9.92,9.92,0,0,0,2.09-3.53,14.11,14.11,0,0,0,.73-4.7V20.14A15.29,15.29,0,0,0,117,15.6,9.37,9.37,0,0,0,115.09,12.12ZM111.75,24a8.37,8.37,0,0,1-1.34,5.06,4.58,4.58,0,0,1-3.93,1.81,6.4,6.4,0,0,1-2.49-.47,6.56,6.56,0,0,1-1.93-1.2,5.79,5.79,0,0,1-1.27-1.65,3.93,3.93,0,0,1-.47-1.81v-5.5a6.36,6.36,0,0,1,1.53-4.4,5.7,5.7,0,0,1,4.49-1.72A4.7,4.7,0,0,1,110.48,16a8.8,8.8,0,0,1,1.27,5.11Z"/><path class="cls-1" d="M142.67,17.36a7.64,7.64,0,0,0-.78-3.5,7.49,7.49,0,0,0-2.16-2.59,10,10,0,0,0-3.32-1.62,16.25,16.25,0,0,0-10,.49,25.2,25.2,0,0,0-4.47,2.42l2.92,4.33a11.59,11.59,0,0,1,7.34-2.59,4.93,4.93,0,0,1,3.51,1.06,4.62,4.62,0,0,1,1.11,3.46v1h-5.93a16.2,16.2,0,0,0-4.61.57,8.2,8.2,0,0,0-3,1.55,5.57,5.57,0,0,0-1.65,2.33,8.45,8.45,0,0,0-.49,2.94v1.5A6.55,6.55,0,0,0,123.38,34,9.92,9.92,0,0,0,129.87,36a10.59,10.59,0,0,0,2.16-.24A11.25,11.25,0,0,0,134.2,35a7.61,7.61,0,0,0,1.86-1.13,4.23,4.23,0,0,0,1.2-1.53l.09,3.2h5.32V24.42h3.67V19.81h-3.67Zm-5.88,7.77a16.17,16.17,0,0,1-.14,2.37,3.09,3.09,0,0,1-.94,1.72Q134,31,130.34,31a4.18,4.18,0,0,1-2.64-.71,2.37,2.37,0,0,1-.89-2v-.56a3.2,3.2,0,0,1,.92-2.4,4.67,4.67,0,0,1,3.27-.89h5.79Z"/><polygon class="cls-1" points="158.24 28.8 158.05 28.8 152.17 9.65 145.58 9.65 154.81 35.9 151.47 44.42 157.02 46.35 170.48 9.65 164.17 9.65 158.24 28.8"/></g></g></svg>