<svg xmlns="http://www.w3.org/2000/svg" viewBox="0 0 80 80"><defs><style>.cls-1{fill:#b8f4ee;}.cls-2{fill:#6999f9;}.cls-3{fill:#fff;}.cls-4{fill:#3d34b7;}.cls-5{fill:#2c1f7c;}</style></defs><title>자산 5</title><g id="레이어_2" data-name="레이어 2"><g id="레이어_1-2" data-name="레이어 1"><rect class="cls-1" width="80" height="80" rx="4.8" ry="4.8"/><rect class="cls-2" x="12.33" y="11.91" width="28.09" height="28.09"/><rect class="cls-3" x="16.7" y="19.89" width="20" height="13.33" rx="1.99" ry="1.99"/><rect class="cls-4" x="16.7" y="22.87" width="20" height="2.66"/><circle class="cls-4" cx="31.27" cy="29.51" r="1.58"/><circle class="cls-2" cx="33.37" cy="29.51" r="1.58"/><rect class="cls-4" x="40.42" y="11.91" width="28.09" height="28.09"/><path class="cls-3" d="M54.3,17.22,45.45,22a.35.35,0,0,0,.17.66H63.31a.35.35,0,0,0,.17-.66l-8.85-4.8A.35.35,0,0,0,54.3,17.22Z"/><rect class="cls-3" x="53.56" y="25.03" width="1.81" height="17.59" rx="0.23" ry="0.23" transform="translate(88.29 -20.64) rotate(90)"/><polygon class="cls-3" points="50.3 24.38 50.3 23.69 47.41 23.69 47.41 24.38 47.95 24.38 47.95 31.25 47.41 31.25 47.41 31.94 50.3 31.94 50.3 31.25 49.76 31.25 49.76 24.38 50.3 24.38"/><polygon class="cls-3" points="55.91 24.38 55.91 23.69 53.02 23.69 53.02 24.38 53.56 24.38 53.56 31.25 53.02 31.25 53.02 31.94 55.91 31.94 55.91 31.25 55.37 31.25 55.37 24.38 55.91 24.38"/><polygon class="cls-3" points="61.52 24.38 61.52 23.69 58.63 23.69 58.63 24.38 59.17 24.38 59.17 31.25 58.63 31.25 58.63 31.94 61.52 31.94 61.52 31.25 60.98 31.25 60.98 24.38 61.52 24.38"/><circle class="cls-2" cx="54.46" cy="20.42" r="1.56"/><rect class="cls-2" x="40.42" y="40" width="28.09" height="28.09"/><rect class="cls-4" x="43.19" y="48.31" width="20.75" height="9.74" rx="0.99" ry="0.99"/><rect class="cls-3" x="44.99" y="50.03" width="20.75" height="9.74" rx="0.99" ry="0.99"/><circle class="cls-4" cx="55.36" cy="54.9" r="3.15"/><rect class="cls-5" x="12.33" y="40" width="28.09" height="28.09"/><circle class="cls-2" cx="26.37" cy="53.45" r="7.3"/><path class="cls-3" d="M35.06,47.31l-.68-.62a.55.55,0,0,0-.78.07l0,0-7.81,8.1-3-3h0l0,0a.45.45,0,0,0-.64,0l-.71.6a.45.45,0,0,0-.06.63l0,0L25.22,58a1,1,0,0,0,1.4.12l8.4-10A.57.57,0,0,0,35.06,47.31Z"/></g></g></svg>