<svg xmlns="http://www.w3.org/2000/svg" viewBox="0 0 173.24 158.67" width="145" height="133"><defs><style>.cls-1{fill:#ebebf2;}.cls-12,.cls-2,.cls-6{fill:#e4e4ea;}.cls-11,.cls-3,.cls-4,.cls-8{fill:#fff;}.cls-13,.cls-3{opacity:0.8;}.cls-5{fill:#cecedb;}.cls-6{opacity:0.2;}.cls-10,.cls-7{fill:none;}.cls-7,.cls-8{stroke:#cecedb;}.cls-10,.cls-11,.cls-7,.cls-8{stroke-miterlimit:10;stroke-width:0.85px;}.cls-9{fill:#3d34b7;}.cls-10,.cls-11{stroke:#3d34b7;}.cls-12,.cls-14{opacity:0.4;}.cls-13,.cls-14,.cls-15{fill:#d0d0dd;}.cls-15{opacity:0.6;}</style></defs><title>자산 27</title><g id="레이어_2" data-name="레이어 2"><g id="레이어_1-2" data-name="레이어 1"><path class="cls-1" d="M.4,9.92V2.47A2.07,2.07,0,0,1,2.47.4h168.3a2.07,2.07,0,0,1,2.07,2.07V9.92Z"/><path class="cls-2" d="M170.77.81a1.66,1.66,0,0,1,1.66,1.66v7H.81v-7A1.66,1.66,0,0,1,2.47.81h168.3m0-.81H2.47A2.47,2.47,0,0,0,0,2.47v7.85H173.24V2.47A2.47,2.47,0,0,0,170.77,0Z"/><circle class="cls-3" cx="6.1" cy="5.26" r="1.18"/><circle class="cls-4" cx="10.19" cy="5.26" r="1.18"/><circle class="cls-4" cx="14.27" cy="5.26" r="1.18"/><path class="cls-4" d="M3,158.26a2.8,2.8,0,0,1-2.57-3V9.11H172.84V155.29a2.8,2.8,0,0,1-2.57,3Z"/><path class="cls-2" d="M172.43,9.51V155.29a2.39,2.39,0,0,1-2.16,2.57H3a2.39,2.39,0,0,1-2.16-2.57V9.51H172.43m.81-.81H0V155.29a3.2,3.2,0,0,0,3,3.38H170.27a3.2,3.2,0,0,0,3-3.38V8.7Z"/><path class="cls-5" d="M75.24,19.12a3.16,3.16,0,0,1-2.3,1.78l-.3-.61a3.32,3.32,0,0,0,1.4-.67,1.61,1.61,0,0,0,.54-1H72.94V18h2.5a3.33,3.33,0,0,1,0,.5h1v-.86h.78v3.14h-.78v-.52h-1.2v-.63h1.2v-.5Zm.11,1.72a3.43,3.43,0,0,1,.75.08,1.93,1.93,0,0,1,.58.22,1.11,1.11,0,0,1,.37.35.87.87,0,0,1,0,.92,1.12,1.12,0,0,1-.37.35,1.93,1.93,0,0,1-.58.22,3.73,3.73,0,0,1-1.51,0,2,2,0,0,1-.58-.22,1.11,1.11,0,0,1-.37-.35.87.87,0,0,1,0-.92,1.1,1.1,0,0,1,.37-.35,2,2,0,0,1,.58-.22A3.41,3.41,0,0,1,75.36,20.84Zm0,1.61a2,2,0,0,0,.78-.13.39.39,0,0,0,0-.75,2,2,0,0,0-.78-.13,2,2,0,0,0-.79.13.39.39,0,0,0,0,.75A2,2,0,0,0,75.36,22.45Z"/><path class="cls-5" d="M80.29,20.7a1.72,1.72,0,0,1-.55-.35,1.75,1.75,0,0,1-.36-.5,2,2,0,0,1-.39.59,1.73,1.73,0,0,1-.62.4l-.4-.6a1.67,1.67,0,0,0,.47-.28,1.59,1.59,0,0,0,.32-.37,1.5,1.5,0,0,0,.18-.43A1.89,1.89,0,0,0,79,18.7v0h-.85V18h2.41v.62h-.8v0a1.79,1.79,0,0,0,.05.43,1.35,1.35,0,0,0,.17.39,1.47,1.47,0,0,0,.29.33,1.42,1.42,0,0,0,.43.25Zm.54.32a3.85,3.85,0,0,1,.77.07,2.16,2.16,0,0,1,.59.2,1,1,0,0,1,.38.33.79.79,0,0,1,0,.87,1,1,0,0,1-.38.32,2.14,2.14,0,0,1-.59.2,4.26,4.26,0,0,1-1.55,0,2.14,2.14,0,0,1-.59-.2,1.07,1.07,0,0,1-.38-.32.78.78,0,0,1,0-.87,1.07,1.07,0,0,1,.38-.33,2.16,2.16,0,0,1,.59-.2A3.88,3.88,0,0,1,80.84,21Zm0,1.47a2.38,2.38,0,0,0,.81-.11q.28-.11.28-.33t-.28-.33a2.38,2.38,0,0,0-.81-.11,2.42,2.42,0,0,0-.82.11q-.28.11-.28.33t.28.33A2.43,2.43,0,0,0,80.84,22.49Zm.7-1.72h-.72v-3h.72v1.2h.41V17.63h.74v3.3h-.74V19.57h-.41Z"/><path class="cls-5" d="M85.49,18.84a3.63,3.63,0,0,0,.07.73,2.88,2.88,0,0,0,.23.68,2.37,2.37,0,0,0,.39.58,1.87,1.87,0,0,0,.57.42l-.47.62a2.11,2.11,0,0,1-.72-.6,3.1,3.1,0,0,1-.46-.87,3.31,3.31,0,0,1-.49.93,2.13,2.13,0,0,1-.77.64l-.47-.63A1.93,1.93,0,0,0,84,20.9a2.43,2.43,0,0,0,.41-.6,3,3,0,0,0,.24-.71,3.64,3.64,0,0,0,.08-.75v-.79h.79Zm3,1.53h-.79v2.7H87V17.63h.78v2.09h.79Z"/><path class="cls-5" d="M95.2,20.42V21h-2v.86h-.78V21H90.26v-.62Zm-3.58,1.94h3V23H90.84v-1.5h.78Zm3-2.32H90.89V17.8h.78v.56h2.12V17.8h.78Zm-.78-1.1H91.67v.49h2.12Z"/><path class="cls-5" d="M98.56,20.7a2,2,0,0,1-1.2-1.06,2.2,2.2,0,0,1-.49.7,2.12,2.12,0,0,1-.78.46l-.41-.62a2,2,0,0,0,.58-.3,1.73,1.73,0,0,0,.4-.42,1.65,1.65,0,0,0,.23-.5,2.1,2.1,0,0,0,.07-.54v-.51h.79v.56a1.79,1.79,0,0,0,.07.5,1.59,1.59,0,0,0,.22.46,1.63,1.63,0,0,0,.38.39,2,2,0,0,0,.55.28Zm-2,.42h3.72v2h-.78V21.74H96.55Zm3.72-3.49v3.24h-.78V19.28h-1v-.63h1v-1Z"/><path class="cls-5" d="M24.87,91.89a.94.94,0,0,1,.32.05.75.75,0,0,1,.25.15.68.68,0,0,1,.16.23.73.73,0,0,1,.06.3.8.8,0,0,1,0,.26,1.26,1.26,0,0,1-.12.24,1.94,1.94,0,0,1-.16.22l-.18.2-.52.53.13,0h.93v.43H23.94v-.27l.85-.83a2.46,2.46,0,0,0,.3-.36.63.63,0,0,0,.11-.36.34.34,0,0,0-.1-.27.37.37,0,0,0-.26-.09.36.36,0,0,0-.24.08.45.45,0,0,0-.14.19.32.32,0,0,0,0,.08v.09L24,92.65a.85.85,0,0,1,.29-.58A.92.92,0,0,1,24.87,91.89Z"/><path class="cls-5" d="M27.77,93.2a2.09,2.09,0,0,1-.07.58,1.17,1.17,0,0,1-.2.41.8.8,0,0,1-.3.24.89.89,0,0,1-.37.08.86.86,0,0,1-.37-.08.8.8,0,0,1-.3-.24,1.17,1.17,0,0,1-.2-.41,2.41,2.41,0,0,1,0-1.16,1.17,1.17,0,0,1,.2-.41.8.8,0,0,1,.3-.24.86.86,0,0,1,.37-.08.89.89,0,0,1,.37.08.8.8,0,0,1,.3.24,1.17,1.17,0,0,1,.2.41A2.11,2.11,0,0,1,27.77,93.2Zm-.47,0a2.19,2.19,0,0,0,0-.45.91.91,0,0,0-.1-.28.38.38,0,0,0-.15-.15.41.41,0,0,0-.18,0,.38.38,0,0,0-.17,0,.39.39,0,0,0-.15.15.91.91,0,0,0-.1.28,2.13,2.13,0,0,0,0,.45,2.07,2.07,0,0,0,0,.44.93.93,0,0,0,.1.28.37.37,0,0,0,.15.14.38.38,0,0,0,.17,0,.41.41,0,0,0,.18,0,.37.37,0,0,0,.15-.14.93.93,0,0,0,.1-.28A2.12,2.12,0,0,0,27.3,93.2Z"/><path class="cls-5" d="M29.22,91.93v2.15h.44v.38H28.27v-.38h.49V92.49l-.41.37-.27-.3.73-.63Z"/><path class="cls-5" d="M30.94,91.89a1,1,0,0,1,.32.06.76.76,0,0,1,.25.14.61.61,0,0,1,.16.21.62.62,0,0,1,.05.26.53.53,0,0,1-.11.35.79.79,0,0,1-.27.21.58.58,0,0,1,.42.6.79.79,0,0,1-.08.34.76.76,0,0,1-.2.25.83.83,0,0,1-.28.15,1.14,1.14,0,0,1-.34.05,1.11,1.11,0,0,1-.34,0,.73.73,0,0,1-.25-.14.82.82,0,0,1-.18-.22,1.35,1.35,0,0,1-.13-.3l.41-.16a.67.67,0,0,0,0,.12l.07.13.09.1.12.08a.36.36,0,0,0,.15,0,.54.54,0,0,0,.19,0,.42.42,0,0,0,.14-.08.34.34,0,0,0,.08-.12.37.37,0,0,0,0-.14.75.75,0,0,0,0-.16.23.23,0,0,0-.08-.13.42.42,0,0,0-.18-.08,1.39,1.39,0,0,0-.31,0V93A1.26,1.26,0,0,0,31,93a.43.43,0,0,0,.17-.08.25.25,0,0,0,.08-.12.43.43,0,0,0,0-.15.33.33,0,0,0-.09-.26.37.37,0,0,0-.26-.09.4.4,0,0,0-.25.08.43.43,0,0,0-.14.2,1.17,1.17,0,0,0,0,.16l-.22,0-.22,0a.84.84,0,0,1,.9-.75Z"/><path class="cls-5" d="M83.09,91.89a.94.94,0,0,1,.32.05.75.75,0,0,1,.25.15.68.68,0,0,1,.16.23.73.73,0,0,1,.06.3.8.8,0,0,1,0,.26,1.26,1.26,0,0,1-.12.24,1.94,1.94,0,0,1-.16.22l-.18.2-.52.53L83,94h.93v.43H82.15v-.27l.85-.83a2.46,2.46,0,0,0,.3-.36.63.63,0,0,0,.11-.36.34.34,0,0,0-.1-.27.37.37,0,0,0-.26-.09.36.36,0,0,0-.24.08.45.45,0,0,0-.14.19.32.32,0,0,0,0,.08v.09l-.44-.07a.85.85,0,0,1,.29-.58A.92.92,0,0,1,83.09,91.89Z"/><path class="cls-5" d="M86,93.2a2.09,2.09,0,0,1-.07.58,1.17,1.17,0,0,1-.2.41.8.8,0,0,1-.3.24.89.89,0,0,1-.37.08.86.86,0,0,1-.37-.08.8.8,0,0,1-.3-.24,1.17,1.17,0,0,1-.2-.41,2.41,2.41,0,0,1,0-1.16,1.17,1.17,0,0,1,.2-.41.8.8,0,0,1,.3-.24A.86.86,0,0,1,85,91.9a.89.89,0,0,1,.37.08.8.8,0,0,1,.3.24,1.17,1.17,0,0,1,.2.41A2.11,2.11,0,0,1,86,93.2Zm-.47,0a2.19,2.19,0,0,0,0-.45.91.91,0,0,0-.1-.28.38.38,0,0,0-.15-.15.41.41,0,0,0-.18,0,.38.38,0,0,0-.17,0,.39.39,0,0,0-.15.15.91.91,0,0,0-.1.28,2.13,2.13,0,0,0,0,.45,2.07,2.07,0,0,0,0,.44.93.93,0,0,0,.1.28.37.37,0,0,0,.15.14.38.38,0,0,0,.17,0,.41.41,0,0,0,.18,0,.37.37,0,0,0,.15-.14.93.93,0,0,0,.1-.28A2.12,2.12,0,0,0,85.51,93.2Z"/><path class="cls-5" d="M87.43,91.93v2.15h.44v.38H86.48v-.38H87V92.49l-.41.37-.27-.3.73-.63Z"/><path class="cls-5" d="M89.85,92.35h-1l-.08.49.15,0h.14a1,1,0,0,1,.36.06.74.74,0,0,1,.26.17.69.69,0,0,1,.16.25.87.87,0,0,1,.05.31.94.94,0,0,1-.07.37.85.85,0,0,1-.2.29.91.91,0,0,1-.3.19,1.06,1.06,0,0,1-.38.07l-.23,0-.2-.07-.18-.1-.15-.12.24-.34.13.1.1.06.14.06a.56.56,0,0,0,.19,0,.45.45,0,0,0,.35-.14.5.5,0,0,0,.12-.35.42.42,0,0,0-.12-.32A.47.47,0,0,0,89,93.2l-.19,0-.18.05-.28-.08q.16-.95.21-1.27h1.28Z"/><path class="cls-5" d="M112.81,91.89a.94.94,0,0,1,.32.05.75.75,0,0,1,.25.15.68.68,0,0,1,.16.23.73.73,0,0,1,.06.3.8.8,0,0,1,0,.26,1.26,1.26,0,0,1-.12.24,1.94,1.94,0,0,1-.16.22l-.18.2-.52.53.13,0h.93v.43h-1.76v-.27l.85-.83A2.46,2.46,0,0,0,113,93a.63.63,0,0,0,.11-.36.34.34,0,0,0-.1-.27.37.37,0,0,0-.26-.09.36.36,0,0,0-.24.08.45.45,0,0,0-.14.19.32.32,0,0,0,0,.08v.09l-.44-.07a.85.85,0,0,1,.29-.58A.92.92,0,0,1,112.81,91.89Z"/><path class="cls-5" d="M115.7,93.2a2.09,2.09,0,0,1-.07.58,1.17,1.17,0,0,1-.2.41.8.8,0,0,1-.3.24.89.89,0,0,1-.37.08.86.86,0,0,1-.37-.08.8.8,0,0,1-.3-.24,1.17,1.17,0,0,1-.2-.41,2.41,2.41,0,0,1,0-1.16,1.17,1.17,0,0,1,.2-.41.8.8,0,0,1,.3-.24.86.86,0,0,1,.37-.08.89.89,0,0,1,.37.08.8.8,0,0,1,.3.24,1.17,1.17,0,0,1,.2.41A2.11,2.11,0,0,1,115.7,93.2Zm-.47,0a2.19,2.19,0,0,0,0-.45.91.91,0,0,0-.1-.28.38.38,0,0,0-.15-.15.41.41,0,0,0-.18,0,.38.38,0,0,0-.17,0,.39.39,0,0,0-.15.15.91.91,0,0,0-.1.28,2.13,2.13,0,0,0,0,.45,2.07,2.07,0,0,0,0,.44.93.93,0,0,0,.1.28.37.37,0,0,0,.15.14.38.38,0,0,0,.17,0,.41.41,0,0,0,.18,0,.37.37,0,0,0,.15-.14.93.93,0,0,0,.1-.28A2.12,2.12,0,0,0,115.23,93.2Z"/><path class="cls-5" d="M117.16,91.93v2.15h.44v.38H116.2v-.38h.49V92.49l-.41.37-.27-.3.73-.63Z"/><path class="cls-5" d="M118.95,92.89a.87.87,0,0,1,.28,0,.68.68,0,0,1,.24.14.7.7,0,0,1,.17.24.82.82,0,0,1,.06.34.85.85,0,0,1-.07.34.83.83,0,0,1-.47.46,1.06,1.06,0,0,1-.74,0,.79.79,0,0,1-.28-.18A.8.8,0,0,1,118,94a1.06,1.06,0,0,1-.06-.37,1,1,0,0,1,.08-.37,1.82,1.82,0,0,1,.22-.39l.26-.35.43-.58h.57l-.37.47-.37.47,0,0-.05.05,0,0,.13,0Zm-.59.79a.46.46,0,0,0,.12.34.42.42,0,0,0,.32.12.5.5,0,0,0,.18,0,.46.46,0,0,0,.15-.09.43.43,0,0,0,.1-.15.47.47,0,0,0,0-.19.42.42,0,0,0-.13-.33.48.48,0,0,0-.33-.11.43.43,0,0,0-.32.12A.44.44,0,0,0,118.36,93.68Z"/><path class="cls-5" d="M142.12,91.89a.94.94,0,0,1,.32.05.75.75,0,0,1,.25.15.68.68,0,0,1,.16.23.73.73,0,0,1,.06.3.8.8,0,0,1,0,.26,1.26,1.26,0,0,1-.12.24,1.94,1.94,0,0,1-.16.22l-.18.2-.52.53.13,0h.93v.43h-1.76v-.27l.85-.83a2.46,2.46,0,0,0,.3-.36.63.63,0,0,0,.11-.36.34.34,0,0,0-.1-.27.37.37,0,0,0-.26-.09.36.36,0,0,0-.24.08.45.45,0,0,0-.14.19.32.32,0,0,0,0,.08v.09l-.44-.07a.85.85,0,0,1,.29-.58A.92.92,0,0,1,142.12,91.89Z"/><path class="cls-5" d="M145,93.2a2.09,2.09,0,0,1-.07.58,1.17,1.17,0,0,1-.2.41.8.8,0,0,1-.3.24.89.89,0,0,1-.37.08.86.86,0,0,1-.37-.08.8.8,0,0,1-.3-.24,1.17,1.17,0,0,1-.2-.41,2.41,2.41,0,0,1,0-1.16,1.17,1.17,0,0,1,.2-.41.8.8,0,0,1,.3-.24.86.86,0,0,1,.37-.08.89.89,0,0,1,.37.08.8.8,0,0,1,.3.24,1.17,1.17,0,0,1,.2.41A2.11,2.11,0,0,1,145,93.2Zm-.47,0a2.19,2.19,0,0,0,0-.45.91.91,0,0,0-.1-.28.38.38,0,0,0-.15-.15.41.41,0,0,0-.18,0,.38.38,0,0,0-.17,0,.39.39,0,0,0-.15.15.91.91,0,0,0-.1.28,2.13,2.13,0,0,0,0,.45,2.07,2.07,0,0,0,0,.44.93.93,0,0,0,.1.28.37.37,0,0,0,.15.14.38.38,0,0,0,.17,0,.41.41,0,0,0,.18,0,.37.37,0,0,0,.15-.14.93.93,0,0,0,.1-.28A2.12,2.12,0,0,0,144.55,93.2Z"/><path class="cls-5" d="M146.47,91.93v2.15h.44v.38h-1.39v-.38H146V92.49l-.41.37-.27-.3.73-.63Z"/><path class="cls-5" d="M149,91.95v.33l-1,2.18h-.52l.44-.91.44-.91,0-.05,0-.06v0l0,0a.58.58,0,0,1,.07-.11h-1.21v-.42Z"/><path class="cls-5" d="M54.19,91.89a.94.94,0,0,1,.32.05.75.75,0,0,1,.25.15.68.68,0,0,1,.16.23.73.73,0,0,1,.06.3.8.8,0,0,1,0,.26,1.26,1.26,0,0,1-.12.24,1.94,1.94,0,0,1-.16.22l-.18.2-.52.53.13,0H55v.43H53.25v-.27l.85-.83a2.46,2.46,0,0,0,.3-.36.63.63,0,0,0,.11-.36.34.34,0,0,0-.1-.27.37.37,0,0,0-.26-.09.36.36,0,0,0-.24.08.45.45,0,0,0-.14.19.32.32,0,0,0,0,.08v.09l-.44-.07a.85.85,0,0,1,.29-.58A.92.92,0,0,1,54.19,91.89Z"/><path class="cls-5" d="M57.08,93.2a2.09,2.09,0,0,1-.07.58,1.17,1.17,0,0,1-.2.41.8.8,0,0,1-.3.24.89.89,0,0,1-.37.08.86.86,0,0,1-.37-.08.8.8,0,0,1-.3-.24,1.17,1.17,0,0,1-.2-.41,2.41,2.41,0,0,1,0-1.16,1.17,1.17,0,0,1,.2-.41.8.8,0,0,1,.3-.24.86.86,0,0,1,.37-.08.89.89,0,0,1,.37.08.8.8,0,0,1,.3.24,1.17,1.17,0,0,1,.2.41A2.11,2.11,0,0,1,57.08,93.2Zm-.47,0a2.19,2.19,0,0,0,0-.45.91.91,0,0,0-.1-.28.38.38,0,0,0-.15-.15.41.41,0,0,0-.18,0,.38.38,0,0,0-.17,0,.39.39,0,0,0-.15.15.91.91,0,0,0-.1.28,2.13,2.13,0,0,0,0,.45,2.07,2.07,0,0,0,0,.44.93.93,0,0,0,.1.28.37.37,0,0,0,.15.14.38.38,0,0,0,.17,0,.41.41,0,0,0,.18,0,.37.37,0,0,0,.15-.14.93.93,0,0,0,.1-.28A2.12,2.12,0,0,0,56.61,93.2Z"/><path class="cls-5" d="M58.53,91.93v2.15H59v.38H57.58v-.38h.49V92.49l-.41.37-.27-.3.73-.63Z"/><path class="cls-5" d="M60.85,93.46h.32v.39h-.32v.61h-.41v-.61h-1.2v-.38l.59-.78.58-.78h.44Zm-.41-.78s0,0,0-.08,0-.08,0-.13l-.74,1h.74Z"/><rect class="cls-6" x="-14.9" y="50.82" width="60.33" height="13.02" transform="translate(72.59 42.07) rotate(90)"/><rect class="cls-6" x="8.88" y="50.82" width="60.33" height="13.02" transform="translate(96.38 18.28) rotate(90)"/><rect class="cls-6" x="32.67" y="50.82" width="60.33" height="13.02" transform="translate(120.17 -5.5) rotate(90)"/><rect class="cls-6" x="56.46" y="50.82" width="60.33" height="13.02" transform="translate(143.95 -29.29) rotate(90)"/><rect class="cls-6" x="80.24" y="50.82" width="60.33" height="13.02" transform="translate(167.74 -53.08) rotate(90)"/><rect class="cls-6" x="104.03" y="50.82" width="60.33" height="13.02" transform="translate(191.53 -76.86) rotate(90)"/><rect class="cls-6" x="127.82" y="50.82" width="60.33" height="13.02" transform="translate(215.31 -100.65) rotate(90)"/><path class="cls-7" d="M8.75,56.37c.75,0,8.49-1.05,8.49-1.05l4-3.53,9-10.4h3.35s8.51,6.64,8.9,6.87,5,2.41,5,2.41l7-6.34,5.42,2.94h2.32l3.87-2.94,4.34-3.91,4,5.05,7,10.89,5.93,9.53L97.6,56l7.09-6.19,4.51,4,3.48,1.48L117.16,52l3.53-.8L135.53,62.8h7l8.38-3.73,9.67-3.76,3.94-1.59"/><path class="cls-7" d="M8.75,73.33l7.93,4.41S35.13,61.21,36.21,61.21,54,77.74,54,77.74l9.05-10.69,8.59,5.36,3.41-2,8.61-12.83,11.45,11,4.76-3.1H102l4.3-3.34,13.19,19.09,3.37,1.07,4.3-4.64,5.15-7.31,6.21,1,10.58,6.31,5.37,2.65,10-5.93"/><circle class="cls-8" cx="104.75" cy="50.01" r="0.92"/><path class="cls-5" d="M93.17,49.42h.32v.39h-.32v.61h-.41V49.8h-1.2v-.38l.59-.78.58-.78h.44Zm-.41-.78s0,0,0-.08,0-.08,0-.13l-.74,1h.74Z"/><path class="cls-5" d="M94.67,48.84a.87.87,0,0,1,.28,0,.68.68,0,0,1,.24.14.72.72,0,0,1,.17.24.82.82,0,0,1,.06.34.86.86,0,0,1-.07.34.84.84,0,0,1-.47.46,1.07,1.07,0,0,1-.74,0,.81.81,0,0,1-.28-.18.8.8,0,0,1-.18-.29,1.06,1.06,0,0,1-.06-.37,1,1,0,0,1,.08-.37,1.81,1.81,0,0,1,.22-.39l.26-.35.43-.58h.57l-.37.47-.37.47,0,0-.05.05,0,0,.13,0Zm-.59.79a.46.46,0,0,0,.12.34.43.43,0,0,0,.32.12.5.5,0,0,0,.18,0,.44.44,0,0,0,.15-.09.43.43,0,0,0,.1-.15.48.48,0,0,0,0-.19.42.42,0,0,0-.13-.33.48.48,0,0,0-.33-.11.43.43,0,0,0-.32.12A.44.44,0,0,0,94.08,49.64Z"/><path class="cls-5" d="M96.07,50.46a.29.29,0,0,1-.22-.09.35.35,0,0,1,0-.46.29.29,0,0,1,.22-.09.29.29,0,0,1,.22.09.35.35,0,0,1,0,.46A.29.29,0,0,1,96.07,50.46Z"/><path class="cls-5" d="M97.64,50.48a1.19,1.19,0,0,1-.36-.05.84.84,0,0,1-.28-.15.67.67,0,0,1-.18-.24.74.74,0,0,1-.07-.32.69.69,0,0,1,.1-.38.66.66,0,0,1,.32-.25.65.65,0,0,1-.25-.23.6.6,0,0,1-.09-.32.66.66,0,0,1,.06-.28.67.67,0,0,1,.17-.22.78.78,0,0,1,.26-.14,1,1,0,0,1,.33-.05,1,1,0,0,1,.33.05.79.79,0,0,1,.26.14.65.65,0,0,1,.23.5.61.61,0,0,1-.09.33.62.62,0,0,1-.26.23.66.66,0,0,1,.32.25.7.7,0,0,1,.1.38.73.73,0,0,1-.07.32.65.65,0,0,1-.18.24.85.85,0,0,1-.28.15A1.21,1.21,0,0,1,97.64,50.48Zm0-.37A.45.45,0,0,0,98,50a.36.36,0,0,0,.12-.28A.4.4,0,0,0,98,49.4a.45.45,0,0,0-.32-.11.43.43,0,0,0-.31.11.41.41,0,0,0-.11.31.37.37,0,0,0,.11.28A.44.44,0,0,0,97.64,50.11Zm0-1.18a.37.37,0,0,0,.17,0,.33.33,0,0,0,.11-.09.38.38,0,0,0,.06-.12.48.48,0,0,0,0-.13.35.35,0,0,0-.09-.24.36.36,0,0,0-.28-.1.35.35,0,0,0-.27.1.35.35,0,0,0-.09.24.48.48,0,0,0,0,.13.37.37,0,0,0,.06.12.32.32,0,0,0,.11.09A.36.36,0,0,0,97.64,48.93Z"/><path class="cls-5" d="M99.72,47.85a1,1,0,0,1,.32.06.79.79,0,0,1,.25.14.62.62,0,0,1,.16.21.59.59,0,0,1,.05.26.53.53,0,0,1-.11.35.8.8,0,0,1-.27.21.66.66,0,0,1,.32.23.65.65,0,0,1,.1.37.78.78,0,0,1-.08.34.74.74,0,0,1-.2.25.83.83,0,0,1-.28.15,1.21,1.21,0,0,1-.68,0,.74.74,0,0,1-.25-.14.83.83,0,0,1-.18-.22,1.36,1.36,0,0,1-.13-.3l.41-.16a.73.73,0,0,0,0,.12l.07.13.09.1.12.08a.36.36,0,0,0,.15,0,.53.53,0,0,0,.19,0A.43.43,0,0,0,100,50a.33.33,0,0,0,.08-.12.38.38,0,0,0,0-.14.69.69,0,0,0,0-.16.23.23,0,0,0-.08-.13.44.44,0,0,0-.18-.08,1.39,1.39,0,0,0-.31,0V49a1.26,1.26,0,0,0,.27,0,.44.44,0,0,0,.17-.08.26.26,0,0,0,.08-.12.43.43,0,0,0,0-.15.33.33,0,0,0-.09-.26.37.37,0,0,0-.26-.09.39.39,0,0,0-.25.08.42.42,0,0,0-.14.2,1,1,0,0,0,0,.16l-.22,0-.22,0a.84.84,0,0,1,.9-.75Z"/><path class="cls-5" d="M102.6,49.16a2.09,2.09,0,0,1-.07.58,1.18,1.18,0,0,1-.2.41.81.81,0,0,1-.3.24.91.91,0,0,1-.37.08.88.88,0,0,1-.37-.08.81.81,0,0,1-.3-.24,1.19,1.19,0,0,1-.2-.41,2.12,2.12,0,0,1-.07-.58,2.15,2.15,0,0,1,.07-.58,1.2,1.2,0,0,1,.2-.41.8.8,0,0,1,.3-.24.86.86,0,0,1,.37-.08.9.9,0,0,1,.37.08.8.8,0,0,1,.3.24,1.18,1.18,0,0,1,.2.41A2.12,2.12,0,0,1,102.6,49.16Zm-.47,0a2.12,2.12,0,0,0,0-.45.91.91,0,0,0-.1-.28.38.38,0,0,0-.15-.15.41.41,0,0,0-.18,0,.38.38,0,0,0-.17,0,.39.39,0,0,0-.15.15.89.89,0,0,0-.1.28,2.12,2.12,0,0,0,0,.45,2.08,2.08,0,0,0,0,.44.9.9,0,0,0,.1.28.36.36,0,0,0,.15.15.39.39,0,0,0,.17,0,.42.42,0,0,0,.18,0,.36.36,0,0,0,.15-.15.92.92,0,0,0,.1-.28A2.08,2.08,0,0,0,102.13,49.16Z"/><path class="cls-9" d="M144,50.33h.32v.39H144v.61h-.41v-.61h-1.2v-.38l.59-.78.58-.78H144Zm-.41-.78s0,0,0-.08,0-.08,0-.13l-.74,1h.74Z"/><path class="cls-9" d="M145.24,50.32a.76.76,0,0,1-.26,0,.65.65,0,0,1-.23-.14.71.71,0,0,1-.16-.23.79.79,0,0,1-.06-.32.83.83,0,0,1,.06-.32.81.81,0,0,1,.18-.26.85.85,0,0,1,.28-.18.91.91,0,0,1,.35-.07,1,1,0,0,1,.35.06.75.75,0,0,1,.44.44,1,1,0,0,1,.06.34.88.88,0,0,1,0,.23,1.46,1.46,0,0,1-.08.23,2.2,2.2,0,0,1-.12.22l-.12.2-.56.85h-.54l.73-1,.12-.12-.07,0a.43.43,0,0,1-.16.06Zm.57-.76a.41.41,0,0,0-.12-.31.42.42,0,0,0-.3-.11.4.4,0,0,0-.3.12.42.42,0,0,0-.11.3.4.4,0,0,0,.11.31.51.51,0,0,0,.62,0A.4.4,0,0,0,145.81,49.56Z"/><path class="cls-9" d="M146.92,51.38a.29.29,0,0,1-.22-.09.35.35,0,0,1,0-.46.29.29,0,0,1,.22-.09.29.29,0,0,1,.22.09.35.35,0,0,1,0,.46A.3.3,0,0,1,146.92,51.38Z"/><path class="cls-9" d="M148.85,48.8V51h.44v.38h-1.39V51h.49V49.36l-.41.37-.27-.3.73-.63Z"/><path class="cls-9" d="M150.55,48.76a.94.94,0,0,1,.32.05.75.75,0,0,1,.25.15.68.68,0,0,1,.16.23.73.73,0,0,1,.06.3.8.8,0,0,1,0,.26,1.26,1.26,0,0,1-.12.24,1.86,1.86,0,0,1-.16.22l-.18.2-.52.53.13,0h.93v.43h-1.76v-.27l.85-.84a2.42,2.42,0,0,0,.3-.36.64.64,0,0,0,.11-.36.34.34,0,0,0-.1-.27.37.37,0,0,0-.26-.09.36.36,0,0,0-.24.08.44.44,0,0,0-.14.19.32.32,0,0,0,0,.08v.09l-.44-.07a.85.85,0,0,1,.29-.57A.92.92,0,0,1,150.55,48.76Z"/><path class="cls-9" d="M153.44,50.08a2.1,2.1,0,0,1-.07.58,1.17,1.17,0,0,1-.2.41.79.79,0,0,1-.3.24.91.91,0,0,1-.37.08.87.87,0,0,1-.37-.08.79.79,0,0,1-.3-.24,1.17,1.17,0,0,1-.2-.41,2.41,2.41,0,0,1,0-1.16,1.17,1.17,0,0,1,.2-.41.8.8,0,0,1,.3-.24.87.87,0,0,1,.37-.08.91.91,0,0,1,.37.08.8.8,0,0,1,.3.24,1.17,1.17,0,0,1,.2.41A2.11,2.11,0,0,1,153.44,50.08Zm-.47,0a2.19,2.19,0,0,0,0-.45.9.9,0,0,0-.1-.28.38.38,0,0,0-.15-.15.4.4,0,0,0-.18,0,.37.37,0,0,0-.17,0,.39.39,0,0,0-.15.15.9.9,0,0,0-.1.28,2.13,2.13,0,0,0,0,.45,2.08,2.08,0,0,0,0,.44.93.93,0,0,0,.1.28.37.37,0,0,0,.15.15.39.39,0,0,0,.17,0,.42.42,0,0,0,.18,0,.37.37,0,0,0,.15-.15.93.93,0,0,0,.1-.28A2.14,2.14,0,0,0,153,50.07Z"/><circle class="cls-8" cx="44.24" cy="68.18" r="0.92"/><path class="cls-5" d="M32,67.18a.94.94,0,0,1,.32.05.75.75,0,0,1,.25.15.68.68,0,0,1,.16.23.73.73,0,0,1,.06.3.8.8,0,0,1,0,.26,1.26,1.26,0,0,1-.12.24,1.94,1.94,0,0,1-.16.22l-.18.2-.52.53.13,0h.93v.43H31.08v-.27l.85-.83a2.46,2.46,0,0,0,.3-.36.63.63,0,0,0,.11-.36.34.34,0,0,0-.1-.27.37.37,0,0,0-.26-.09.36.36,0,0,0-.24.08.45.45,0,0,0-.14.19.32.32,0,0,0,0,.08V68l-.44-.07a.85.85,0,0,1,.29-.58A.92.92,0,0,1,32,67.18Z"/><path class="cls-5" d="M34.13,68.18a.87.87,0,0,1,.28,0,.68.68,0,0,1,.24.14.7.7,0,0,1,.17.24.82.82,0,0,1,.06.34.85.85,0,0,1-.07.34.83.83,0,0,1-.47.46,1.06,1.06,0,0,1-.74,0,.79.79,0,0,1-.28-.18.8.8,0,0,1-.18-.29,1.06,1.06,0,0,1-.06-.37,1,1,0,0,1,.08-.37,1.82,1.82,0,0,1,.22-.39l.26-.35.43-.58h.57l-.37.47-.37.47,0,0-.05.05,0,0,.13,0Zm-.59.79a.46.46,0,0,0,.12.34.42.42,0,0,0,.32.12.5.5,0,0,0,.18,0,.46.46,0,0,0,.15-.09.43.43,0,0,0,.1-.15.47.47,0,0,0,0-.19.42.42,0,0,0-.13-.33.48.48,0,0,0-.33-.11.43.43,0,0,0-.32.12A.44.44,0,0,0,33.53,69Z"/><path class="cls-5" d="M35.53,69.8a.29.29,0,0,1-.22-.09.35.35,0,0,1,0-.46.29.29,0,0,1,.22-.09.29.29,0,0,1,.22.09.35.35,0,0,1,0,.46A.29.29,0,0,1,35.53,69.8Z"/><path class="cls-5" d="M38,67.24v.33l-1,2.18h-.52l.44-.91.44-.91,0-.05,0-.06v0l.07-.12H36.26v-.42Z"/><path class="cls-5" d="M40,68.5a2.09,2.09,0,0,1-.07.58,1.17,1.17,0,0,1-.2.41.8.8,0,0,1-.3.24.9.9,0,0,1-.37.08.86.86,0,0,1-.37-.08.81.81,0,0,1-.3-.24,1.18,1.18,0,0,1-.2-.41,2.44,2.44,0,0,1,0-1.16,1.18,1.18,0,0,1,.2-.41.81.81,0,0,1,.3-.24.86.86,0,0,1,.37-.08.9.9,0,0,1,.37.08.8.8,0,0,1,.3.24,1.17,1.17,0,0,1,.2.41A2.11,2.11,0,0,1,40,68.5Zm-.47,0a2.13,2.13,0,0,0,0-.45.91.91,0,0,0-.1-.28.38.38,0,0,0-.15-.15.41.41,0,0,0-.18,0,.36.36,0,0,0-.32.19.89.89,0,0,0-.1.28,2.13,2.13,0,0,0,0,.45,2.07,2.07,0,0,0,0,.44.91.91,0,0,0,.1.28.36.36,0,0,0,.15.14.38.38,0,0,0,.17,0,.41.41,0,0,0,.18,0,.36.36,0,0,0,.15-.14.93.93,0,0,0,.1-.28A2.07,2.07,0,0,0,39.57,68.5Z"/><path class="cls-5" d="M42.05,68.5a2.09,2.09,0,0,1-.07.58,1.17,1.17,0,0,1-.2.41.8.8,0,0,1-.3.24.9.9,0,0,1-.37.08.86.86,0,0,1-.37-.08.81.81,0,0,1-.3-.24,1.18,1.18,0,0,1-.2-.41,2.44,2.44,0,0,1,0-1.16,1.18,1.18,0,0,1,.2-.41.81.81,0,0,1,.3-.24.86.86,0,0,1,.37-.08.9.9,0,0,1,.37.08.8.8,0,0,1,.3.24,1.17,1.17,0,0,1,.2.41A2.11,2.11,0,0,1,42.05,68.5Zm-.47,0a2.13,2.13,0,0,0,0-.45.91.91,0,0,0-.1-.28.38.38,0,0,0-.15-.15.41.41,0,0,0-.18,0,.36.36,0,0,0-.32.19.89.89,0,0,0-.1.28,2.13,2.13,0,0,0,0,.45,2.07,2.07,0,0,0,0,.44.91.91,0,0,0,.1.28.36.36,0,0,0,.15.14.38.38,0,0,0,.17,0,.41.41,0,0,0,.18,0,.36.36,0,0,0,.15-.14.93.93,0,0,0,.1-.28A2.07,2.07,0,0,0,41.58,68.5Z"/><polyline class="cls-10" points="8.75 64.74 18.5 56.22 24.71 57.51 34.51 65.1 40.99 58.66 45.98 51.13 53.57 59.63 59.77 55.29 64.56 54.56 74.29 61.55 92.91 70.54 99.1 74.66 106.7 67.44 109.15 68.21 117.09 60.2 123.07 63.76 126.56 63.76 136.35 48.47 138.93 49.2 144.47 55.71 149.76 61.56 151.82 63.3 155.82 60.2 158.27 60.66 164.39 66.53"/><circle class="cls-11" cx="140.24" cy="50.41" r="0.92"/><circle class="cls-12" cx="34.97" cy="128.48" r="21.6"/><path class="cls-9" d="M35,128.48l0-21.6a21.6,21.6,0,0,1,21.22,25.55Z"/><path class="cls-13" d="M35,128.48l21.24,3.91a21.6,21.6,0,0,1-9.82,14.42Z"/><path class="cls-14" d="M35,128.48,46.4,146.81a21.6,21.6,0,0,1-6.07,2.6Z"/><circle class="cls-12" cx="84.45" cy="128.48" r="21.6"/><path class="cls-15" d="M84.45,128.48,66.85,141a21.6,21.6,0,1,1,39.06-15Z"/><path class="cls-9" d="M84.45,128.48l20.81-5.81a21.6,21.6,0,0,1-24.39,27.11Z"/><rect class="cls-14" x="116.71" y="112.11" width="42.93" height="4.12"/><rect class="cls-9" x="116.71" y="112.11" width="24.33" height="4.12"/><rect class="cls-14" x="116.71" y="126.42" width="42.93" height="4.12"/><rect class="cls-9" x="116.71" y="126.42" width="6.41" height="4.12"/><rect class="cls-14" x="116.71" y="133.57" width="42.93" height="4.12"/><rect class="cls-9" x="116.71" y="133.57" width="30.36" height="4.12"/><rect class="cls-12" x="116.71" y="119.26" width="42.93" height="4.12"/><rect class="cls-9" x="116.71" y="119.26" width="15.75" height="4.12"/><rect class="cls-14" x="116.71" y="140.73" width="42.93" height="4.12"/><rect class="cls-9" x="116.71" y="140.73" width="12.35" height="4.12"/></g></g></svg>