<svg xmlns="http://www.w3.org/2000/svg" viewBox="0 0 520 328.31" width="464" height="293"><defs><style>.cls-1,.cls-3{fill:#fff;}.cls-2{fill:#e4e4ea;}.cls-3,.cls-4,.cls-7{stroke:#e4e4ea;stroke-width:0.82px;}.cls-3,.cls-4{stroke-linecap:round;stroke-linejoin:round;}.cls-10,.cls-4,.cls-7{fill:#fafafa;}.cls-5{fill:#acb7c3;opacity:0.6;isolation:isolate;}.cls-6{fill:#d7fff9;}.cls-7{stroke-miterlimit:10;}.cls-8{fill:#3d34b7;}.cls-9{fill:#4529e5;}</style></defs><title>자산 34</title><g id="레이어_2" data-name="레이어 2"><g id="레이어_1-2" data-name="레이어 1"><rect class="cls-1" x="0.5" y="0.5" width="519" height="327.31" rx="5.5" ry="5.5"/><path class="cls-2" d="M514,1a5,5,0,0,1,5,5V322.31a5,5,0,0,1-5,5H6a5,5,0,0,1-5-5V6A5,5,0,0,1,6,1H514m0-1H6A6,6,0,0,0,0,6V322.31a6,6,0,0,0,6,6H514a6,6,0,0,0,6-6V6a6,6,0,0,0-6-6Z"/><rect class="cls-1" x="114.25" y="61.04" width="124.43" height="85.12" rx="4.1" ry="4.1"/><path class="cls-2" d="M234.58,61.45a3.69,3.69,0,0,1,3.69,3.69v76.91a3.69,3.69,0,0,1-3.69,3.69H118.36a3.69,3.69,0,0,1-3.69-3.69V65.15a3.69,3.69,0,0,1,3.69-3.69H234.58m0-.82H118.36a4.52,4.52,0,0,0-4.51,4.51v76.91a4.52,4.52,0,0,0,4.51,4.51H234.58a4.52,4.52,0,0,0,4.51-4.51V65.15a4.52,4.52,0,0,0-4.51-4.51Z"/><rect class="cls-3" x="98.26" y="143.56" width="156.41" height="1.54" rx="0.25" ry="0.25"/><path class="cls-4" d="M98.4,145.1l5.47,1.9a20.51,20.51,0,0,0,6.44,1.15h.33l131.64.12h.33a20.51,20.51,0,0,0,6.44-1.14l5.51-2Z"/><circle class="cls-5" cx="176.47" cy="64.91" r="0.36"/><rect class="cls-6" x="119.5" y="67.88" width="113.95" height="71.4" rx="0.6" ry="0.6"/><path class="cls-7" d="M232.84,68a.51.51,0,0,1,.51.51v70.2a.51.51,0,0,1-.51.51H120.1a.51.51,0,0,1-.51-.51V68.48a.51.51,0,0,1,.51-.51H232.84"/><path class="cls-8" d="M176.47,76.07h0a17.5,17.5,0,0,0,0,35h0a17.5,17.5,0,1,0,0-35Zm0,33.6h0a16.1,16.1,0,0,1,0-32.2h0a16.1,16.1,0,1,1,0,32.2Z"/><path class="cls-8" d="M182,86.49a23.84,23.84,0,0,1-4.87.66v5.73h5.69A28.85,28.85,0,0,0,182,86.49Z"/><path class="cls-8" d="M177.17,79v6.89a22.22,22.22,0,0,0,4.53-.61C180.59,81.78,178.88,79.49,177.17,79Z"/><path class="cls-8" d="M171.2,85.25a22.64,22.64,0,0,0,4.56.61V79C174.06,79.46,172.31,81.74,171.2,85.25Z"/><path class="cls-8" d="M187,83.26a14.65,14.65,0,0,0-7.06-4,14.32,14.32,0,0,1,3,5.66A22.24,22.24,0,0,0,187,83.26Z"/><path class="cls-8" d="M184.15,92.88h7a14.63,14.63,0,0,0-3.32-8.63,23.59,23.59,0,0,1-4.55,1.92A30,30,0,0,1,184.15,92.88Z"/><path class="cls-8" d="M170,92.88h5.74V87.15a23.6,23.6,0,0,1-4.91-.66A28.42,28.42,0,0,0,170,92.88Z"/><path class="cls-8" d="M182.86,94.27h-5.7V100a23.35,23.35,0,0,1,4.88.66A28.77,28.77,0,0,0,182.86,94.27Z"/><path class="cls-8" d="M170.86,100.66a23.6,23.6,0,0,1,4.91-.66V94.27H170A28.27,28.27,0,0,0,170.86,100.66Z"/><path class="cls-8" d="M175.77,108.18v-6.91a22.72,22.72,0,0,0-4.57.61C172.31,105.4,174.06,107.69,175.77,108.18Z"/><path class="cls-8" d="M179.89,107.89a14.73,14.73,0,0,0,7.07-4,22.24,22.24,0,0,0-4-1.67A14.36,14.36,0,0,1,179.89,107.89Z"/><path class="cls-8" d="M173,79.28a14.7,14.7,0,0,0-7,4,22,22,0,0,0,4,1.65A14.36,14.36,0,0,1,173,79.28Z"/><path class="cls-8" d="M183.29,101a23.45,23.45,0,0,1,4.56,1.92,14.63,14.63,0,0,0,3.32-8.63h-7A30.58,30.58,0,0,1,183.29,101Z"/><path class="cls-8" d="M177.17,101.27v6.9c1.71-.51,3.42-2.8,4.53-6.29A22.22,22.22,0,0,0,177.17,101.27Z"/><path class="cls-8" d="M169.62,86.15a23,23,0,0,1-4.52-1.91,14.63,14.63,0,0,0-3.32,8.63h7A29.57,29.57,0,0,1,169.62,86.15Z"/><path class="cls-8" d="M168.75,94.27h-7a14.63,14.63,0,0,0,3.32,8.63,23.57,23.57,0,0,1,4.52-1.91A30.54,30.54,0,0,1,168.75,94.27Z"/><path class="cls-8" d="M166,103.88a14.68,14.68,0,0,0,7,4,14.4,14.4,0,0,1-3-5.65A22.76,22.76,0,0,0,166,103.88Z"/><path class="cls-9" d="M162.27,119.56h2.11l.83,5.05q.11.83.24,1.65t.24,1.66h.06q.15-.84.32-1.67l.34-1.64,1.2-5.05h1.76l1.2,5.05q.17.8.33,1.63l.33,1.67h.07q.11-.84.23-1.67t.23-1.64l.81-5.05h2l-1.92,10.36h-2.58l-1.16-5.12q-.13-.62-.24-1.21t-.21-1.18h-.06q-.11.59-.22,1.18t-.23,1.21l-1.13,5.12h-2.53Z"/><path class="cls-9" d="M179,130.12a4.12,4.12,0,0,1-1.53-.28,3.58,3.58,0,0,1-1.23-.81,3.74,3.74,0,0,1-.83-1.29,4.69,4.69,0,0,1-.3-1.73,4.53,4.53,0,0,1,.31-1.72,4.11,4.11,0,0,1,.82-1.3,3.58,3.58,0,0,1,1.17-.83,3.55,3.55,0,0,1,2.78,0,2.84,2.84,0,0,1,1,.78,3.46,3.46,0,0,1,.62,1.19,5.35,5.35,0,0,1,.18,2,2.28,2.28,0,0,1-.07.4h-4.84a2.22,2.22,0,0,0,.71,1.46,2.17,2.17,0,0,0,1.46.5,2.92,2.92,0,0,0,.92-.14A3.75,3.75,0,0,0,181,128l.7,1.26a5,5,0,0,1-1.29.64A4.63,4.63,0,0,1,179,130.12Zm1.27-4.9a2,2,0,0,0-.36-1.27,1.33,1.33,0,0,0-1.12-.47,1.61,1.61,0,0,0-1.11.44,2,2,0,0,0-.6,1.29Z"/><path class="cls-9" d="M187.3,130.12a2.4,2.4,0,0,1-1.07-.27,3.91,3.91,0,0,1-1-.76h0l-.18.83h-1.61V118.75h2v2.81l0,1.26a4,4,0,0,1,1-.68,2.7,2.7,0,0,1,1.15-.26,2.87,2.87,0,0,1,1.3.29,2.8,2.8,0,0,1,1,.81,3.71,3.71,0,0,1,.61,1.25,5.94,5.94,0,0,1,.21,1.63,5.37,5.37,0,0,1-.28,1.8,4.22,4.22,0,0,1-.74,1.34,3.19,3.19,0,0,1-1.06.83A2.87,2.87,0,0,1,187.3,130.12Zm-.46-1.69a1.47,1.47,0,0,0,1.2-.62,3.07,3.07,0,0,0,.48-1.9,3.3,3.3,0,0,0-.37-1.73,1.29,1.29,0,0,0-1.18-.59,1.6,1.6,0,0,0-.78.2,3.53,3.53,0,0,0-.78.61v3.44a2.3,2.3,0,0,0,.74.46A2.06,2.06,0,0,0,186.84,128.42Z"/><rect class="cls-1" x="282.45" y="69.2" width="122.15" height="71.33" rx="7.09" ry="7.09"/><path class="cls-2" d="M397.51,69.6a6.68,6.68,0,0,1,6.68,6.68v57.14a6.68,6.68,0,0,1-6.68,6.68h-108a6.68,6.68,0,0,1-6.68-6.68V76.29a6.68,6.68,0,0,1,6.68-6.68h108m0-.82h-108a7.51,7.51,0,0,0-7.5,7.5v57.14a7.51,7.51,0,0,0,7.5,7.5h108a7.51,7.51,0,0,0,7.5-7.5V76.29a7.51,7.51,0,0,0-7.5-7.5Z"/><path class="cls-10" d="M353.88,140.53l-.21,0h-64a7.2,7.2,0,0,1-7.19-7.19V76.38a7.2,7.2,0,0,1,7.19-7.19h68.41l.2,0h30.49a7.07,7.07,0,0,1,7.06,7.06v57.21a7.07,7.07,0,0,1-7.06,7.06Z"/><path class="cls-2" d="M358.06,69.59l.24,0h30.46a6.65,6.65,0,0,1,6.65,6.65v57.21a6.65,6.65,0,0,1-6.65,6.65H353.88l-.24,0h-64a6.79,6.79,0,0,1-6.78-6.78V76.38a6.78,6.78,0,0,1,6.78-6.78h68.41m0-.82H289.65a7.61,7.61,0,0,0-7.6,7.6v56.94a7.61,7.61,0,0,0,7.6,7.6h64l.28,0h34.87a7.48,7.48,0,0,0,7.47-7.47V76.27a7.48,7.48,0,0,0-7.47-7.47H358.34l-.28,0Z"/><rect class="cls-2" x="398.53" y="101.71" width="0.81" height="6.98"/><circle class="cls-2" cx="398.94" cy="100.14" r="0.53"/><path class="cls-9" d="M323.36,127.84H320l-.73,2.66h-2.1l3.32-10.36h2.44l3.33,10.36h-2.17Zm-.45-1.61-.31-1.13q-.24-.81-.46-1.68t-.46-1.71h-.06q-.2.85-.42,1.71t-.46,1.67l-.31,1.13Z"/><path class="cls-9" d="M327,122.66h1.68l.14,1h.06a6,6,0,0,1,1.14-.87,2.74,2.74,0,0,1,1.42-.36,2.09,2.09,0,0,1,1.85.83,4,4,0,0,1,.58,2.32v4.89h-2.07v-4.63a2.3,2.3,0,0,0-.26-1.27,1,1,0,0,0-.85-.36,1.52,1.52,0,0,0-.84.22,5.3,5.3,0,0,0-.8.66v5.39h-2Z"/><path class="cls-9" d="M338.34,130.69a3.07,3.07,0,0,1-1.32-.28,2.79,2.79,0,0,1-1-.81,3.79,3.79,0,0,1-.64-1.29,6.06,6.06,0,0,1-.22-1.72,5.1,5.1,0,0,1,.27-1.73,4,4,0,0,1,.73-1.3,3.29,3.29,0,0,1,1.06-.82,2.79,2.79,0,0,1,1.22-.29,2.43,2.43,0,0,1,1.12.23,3.91,3.91,0,0,1,.87.62l-.08-1.23v-2.76h2.07V130.5h-1.68l-.17-.81h0a4.26,4.26,0,0,1-1,.71A2.49,2.49,0,0,1,338.34,130.69Zm.53-1.69a1.65,1.65,0,0,0,.76-.18,2.09,2.09,0,0,0,.69-.63v-3.44a2.31,2.31,0,0,0-.73-.46,2.11,2.11,0,0,0-.73-.13,1.34,1.34,0,0,0-.63.15,1.45,1.45,0,0,0-.51.46,2.59,2.59,0,0,0-.35.76,3.64,3.64,0,0,0-.13,1,3.22,3.22,0,0,0,.42,1.83A1.38,1.38,0,0,0,338.87,129Z"/><path class="cls-9" d="M344.25,122.66h1.68l.14,1.39h.06a3.45,3.45,0,0,1,1-1.18,2.1,2.1,0,0,1,1.2-.41,2.39,2.39,0,0,1,.53,0l.39.12-.36,1.78a2.05,2.05,0,0,0-.39-.1,2.94,2.94,0,0,0-.43,0,1.73,1.73,0,0,0-1,.34,2.51,2.51,0,0,0-.84,1.2v4.68h-2Z"/><path class="cls-9" d="M353.28,130.69a3.7,3.7,0,0,1-1.42-.28,3.58,3.58,0,0,1-1.2-.81,4,4,0,0,1-.83-1.29,4.5,4.5,0,0,1-.32-1.73,4.59,4.59,0,0,1,.32-1.75,3.94,3.94,0,0,1,.83-1.3,3.58,3.58,0,0,1,1.2-.8,3.72,3.72,0,0,1,2.83,0,3.56,3.56,0,0,1,1.2.8,3.94,3.94,0,0,1,.83,1.3,4.59,4.59,0,0,1,.32,1.75,4.5,4.5,0,0,1-.32,1.73,4,4,0,0,1-.83,1.29,3.55,3.55,0,0,1-1.2.81A3.71,3.71,0,0,1,353.28,130.69Zm0-1.68a1.39,1.39,0,0,0,1.23-.66,3.16,3.16,0,0,0,.43-1.76,3.23,3.23,0,0,0-.43-1.79,1.47,1.47,0,0,0-2.46,0,3.22,3.22,0,0,0-.43,1.79,3.16,3.16,0,0,0,.43,1.76A1.39,1.39,0,0,0,353.28,129Z"/><path class="cls-9" d="M359.45,121.4a1.27,1.27,0,0,1-.88-.31,1.11,1.11,0,0,1,0-1.62,1.29,1.29,0,0,1,.88-.31,1.26,1.26,0,0,1,.88.31,1.13,1.13,0,0,1,0,1.62A1.25,1.25,0,0,1,359.45,121.4Zm-1,1.26h2v7.84h-2Z"/><path class="cls-9" d="M365.08,130.69a3.07,3.07,0,0,1-1.32-.28,2.79,2.79,0,0,1-1-.81,3.79,3.79,0,0,1-.64-1.29,6.06,6.06,0,0,1-.22-1.72,5.12,5.12,0,0,1,.27-1.73,4,4,0,0,1,.74-1.3,3.28,3.28,0,0,1,1.06-.82,2.79,2.79,0,0,1,1.23-.29,2.43,2.43,0,0,1,1.12.23,3.91,3.91,0,0,1,.87.62l-.08-1.23v-2.76h2.07V130.5h-1.68l-.17-.81h0a4.28,4.28,0,0,1-1,.71A2.5,2.5,0,0,1,365.08,130.69Zm.53-1.69a1.66,1.66,0,0,0,.76-.18,2.09,2.09,0,0,0,.69-.63v-3.44a2.31,2.31,0,0,0-.73-.46,2.12,2.12,0,0,0-.73-.13,1.34,1.34,0,0,0-.63.15,1.45,1.45,0,0,0-.51.46,2.59,2.59,0,0,0-.35.76,3.68,3.68,0,0,0-.13,1,3.23,3.23,0,0,0,.42,1.83A1.38,1.38,0,0,0,365.61,129Z"/><path class="cls-8" d="M333.35,96.61v8.15a1.18,1.18,0,0,0,1,1.27H337v4.73a2.18,2.18,0,0,0,4.36,0V106h4.45v4.73a2.17,2.17,0,0,0,.8,1.69,2,2,0,0,0,1.34.49h0a2.18,2.18,0,0,0,2.18-2.18V106h2.51a1.17,1.17,0,0,0,1-1.26V89.66H333.35Z"/><path class="cls-8" d="M357.35,88.21a2.18,2.18,0,0,0-2.18,2.18v8.73a2.18,2.18,0,0,0,4.36,0V90.39A2.18,2.18,0,0,0,357.35,88.21Z"/><path class="cls-8" d="M329.71,88.21a2.18,2.18,0,0,0-2.18,2.18v8.73a2.18,2.18,0,1,0,4.36,0V90.39A2.18,2.18,0,0,0,329.71,88.21Z"/><path class="cls-8" d="M348.55,80.31l1.68-2s0-.15-.12-.23-.22-.09-.25,0l-1.75,2.07a13.9,13.9,0,0,0-9.22,0l-1.73-2s-.15,0-.25,0-.15.16-.12.23l1.66,2c-4.38,1.9-5,6.56-5.13,7.93h20.33C353.59,86.84,352.95,82.24,348.55,80.31Zm-9.49,4.53a1.21,1.21,0,1,1,1.23-1.21A1.22,1.22,0,0,1,339.06,84.83Zm8.95,0a1.21,1.21,0,1,1,1.23-1.21A1.22,1.22,0,0,1,348,84.83Z"/><rect class="cls-1" x="115.4" y="187.79" width="122.15" height="71.33" rx="7.09" ry="7.09"/><path class="cls-2" d="M230.45,188.2a6.68,6.68,0,0,1,6.68,6.68V252a6.68,6.68,0,0,1-6.68,6.68h-108A6.68,6.68,0,0,1,115.8,252V194.88a6.68,6.68,0,0,1,6.68-6.68h108m0-.82h-108a7.51,7.51,0,0,0-7.5,7.5V252a7.51,7.51,0,0,0,7.5,7.5h108A7.51,7.51,0,0,0,238,252V194.88a7.51,7.51,0,0,0-7.5-7.5Z"/><path class="cls-10" d="M186.82,259.13l-.21,0h-64a7.2,7.2,0,0,1-7.19-7.19V195a7.2,7.2,0,0,1,7.19-7.19H191l.2,0h30.49a7.07,7.07,0,0,1,7.06,7.06v57.21a7.07,7.07,0,0,1-7.06,7.06Z"/><path class="cls-2" d="M191,188.19l.24,0h30.46a6.65,6.65,0,0,1,6.65,6.65v57.21a6.65,6.65,0,0,1-6.65,6.65H186.82l-.24,0h-64a6.79,6.79,0,0,1-6.78-6.78V195a6.79,6.79,0,0,1,6.78-6.79H191m0-.82H122.59A7.61,7.61,0,0,0,115,195v56.94a7.61,7.61,0,0,0,7.6,7.6h64l.28,0h34.87a7.48,7.48,0,0,0,7.47-7.47V194.86a7.48,7.48,0,0,0-7.47-7.47H191.28l-.28,0Z"/><rect class="cls-2" x="231.47" y="220.3" width="0.81" height="6.98"/><circle class="cls-2" cx="231.88" cy="218.74" r="0.53"/><path class="cls-9" d="M167.25,241.69a1.27,1.27,0,0,1-.88-.31,1.11,1.11,0,0,1,0-1.62,1.29,1.29,0,0,1,.88-.31,1.26,1.26,0,0,1,.88.31,1.13,1.13,0,0,1,0,1.62A1.25,1.25,0,0,1,167.25,241.69Zm-1,1.26h2v7.84h-2Z"/><path class="cls-9" d="M174.4,251a4.65,4.65,0,0,1-1.88-.37,4.1,4.1,0,0,1-1.46-1.08,5,5,0,0,1-1-1.71,7.75,7.75,0,0,1,0-4.52,4.74,4.74,0,0,1,1-1.68,4.06,4.06,0,0,1,1.46-1,4.81,4.81,0,0,1,1.88-.36,4.73,4.73,0,0,1,1.88.36,4.16,4.16,0,0,1,1.47,1,4.67,4.67,0,0,1,1,1.67,7.75,7.75,0,0,1,0,4.52,5,5,0,0,1-1,1.71,4.09,4.09,0,0,1-1.47,1.08A4.66,4.66,0,0,1,174.4,251Zm0-1.79a2.17,2.17,0,0,0,1-.25,2.27,2.27,0,0,0,.8-.73,3.57,3.57,0,0,0,.5-1.15,5.92,5.92,0,0,0,.18-1.5,4.4,4.4,0,0,0-.68-2.62,2.28,2.28,0,0,0-3.68,0,4.4,4.4,0,0,0-.68,2.62,5.92,5.92,0,0,0,.17,1.5,3.57,3.57,0,0,0,.5,1.15,2.27,2.27,0,0,0,.8.73A2.17,2.17,0,0,0,174.4,249.19Z"/><path class="cls-9" d="M183.81,251a5.47,5.47,0,0,1-2-.39,5.31,5.31,0,0,1-1.74-1.12l1.19-1.43a4.7,4.7,0,0,0,1.25.83,3.32,3.32,0,0,0,1.38.31,2,2,0,0,0,1.23-.32,1,1,0,0,0,.42-.87,1,1,0,0,0-.11-.49,1.18,1.18,0,0,0-.32-.35,2.48,2.48,0,0,0-.49-.28l-.64-.28-1.39-.59a5.44,5.44,0,0,1-.76-.41,2.91,2.91,0,0,1-1.14-1.36,2.67,2.67,0,0,1-.18-1,2.7,2.7,0,0,1,.26-1.18,2.82,2.82,0,0,1,.74-1,3.56,3.56,0,0,1,1.13-.63,4.32,4.32,0,0,1,1.44-.23,4.69,4.69,0,0,1,1.76.34,4.29,4.29,0,0,1,1.48,1l-1,1.3a4.1,4.1,0,0,0-1-.63A3,3,0,0,0,184,242a1.86,1.86,0,0,0-1.09.29.93.93,0,0,0-.41.81.82.82,0,0,0,.13.48,1.38,1.38,0,0,0,.35.35,2.78,2.78,0,0,0,.51.28l.63.25,1.36.57a5.17,5.17,0,0,1,.86.45,2.86,2.86,0,0,1,.66.59,2.42,2.42,0,0,1,.42.78,3.14,3.14,0,0,1,.15,1,2.9,2.9,0,0,1-1,2.21,3.68,3.68,0,0,1-1.2.68A4.76,4.76,0,0,1,183.81,251Z"/><path class="cls-8" d="M183.77,204.76c-3.16,0-4.5,1.55-6.7,1.55s-4-1.54-6.72-1.54a9.13,9.13,0,0,0-7.36,4.55c-2.55,4-2.12,11.67,2,18.16,1.48,2.32,3.45,4.93,6,5h0c2.25,0,2.92-1.52,6-1.53h0c3,0,3.66,1.52,5.9,1.52h0c2.59,0,4.67-2.92,6.15-5.23a25.74,25.74,0,0,0,2.28-4.39c-6-2.33-6.94-11-1-14.39a8.85,8.85,0,0,0-6.73-3.67Z"/><path class="cls-8" d="M183.08,196.3a8.23,8.23,0,0,0-5.36,3A7.49,7.49,0,0,0,176,205h.15a7,7,0,0,0,5.25-2.83,8,8,0,0,0,1.71-5.86Z"/><rect class="cls-1" x="281.31" y="179.64" width="124.43" height="85.12" rx="4.1" ry="4.1"/><path class="cls-2" d="M401.64,180a3.69,3.69,0,0,1,3.69,3.69v76.91a3.69,3.69,0,0,1-3.69,3.69H285.42a3.69,3.69,0,0,1-3.69-3.69V183.74a3.69,3.69,0,0,1,3.69-3.69H401.64m0-.82H285.42a4.52,4.52,0,0,0-4.51,4.51v76.91a4.52,4.52,0,0,0,4.51,4.51H401.64a4.52,4.52,0,0,0,4.51-4.51V183.74a4.52,4.52,0,0,0-4.51-4.51Z"/><rect class="cls-3" x="265.32" y="262.15" width="156.41" height="1.54" rx="0.25" ry="0.25"/><path class="cls-4" d="M265.46,263.69l5.47,1.9a20.51,20.51,0,0,0,6.44,1.15h.33l131.64.12h.33a20.51,20.51,0,0,0,6.44-1.14l5.51-2Z"/><circle class="cls-5" cx="343.53" cy="183.5" r="0.36"/><rect class="cls-6" x="286.56" y="186.47" width="113.95" height="71.4" rx="0.6" ry="0.6"/><path class="cls-7" d="M399.9,186.56a.51.51,0,0,1,.51.51v70.2a.51.51,0,0,1-.51.51H287.16a.51.51,0,0,1-.51-.51v-70.2a.51.51,0,0,1,.51-.51H399.9"/><path class="cls-9" d="M308.29,237.45h2.11l.83,5.05q.11.83.24,1.65t.24,1.66h.06q.15-.84.32-1.67l.34-1.64,1.2-5.05h1.76l1.2,5.05q.17.8.33,1.63l.33,1.67h.07q.11-.84.23-1.67t.23-1.64l.81-5.05h2l-1.92,10.36h-2.58l-1.16-5.12q-.13-.62-.24-1.21t-.21-1.18h-.06q-.11.59-.22,1.18t-.23,1.21l-1.13,5.12h-2.53Z"/><path class="cls-9" d="M324.88,248a3.7,3.7,0,0,1-1.42-.28,3.58,3.58,0,0,1-1.2-.81,4,4,0,0,1-.83-1.29,4.5,4.5,0,0,1-.32-1.73,4.59,4.59,0,0,1,.32-1.75,3.94,3.94,0,0,1,.83-1.3,3.58,3.58,0,0,1,1.2-.8,3.72,3.72,0,0,1,2.83,0,3.56,3.56,0,0,1,1.2.8,3.94,3.94,0,0,1,.83,1.3,4.59,4.59,0,0,1,.32,1.75,4.5,4.5,0,0,1-.32,1.73,4,4,0,0,1-.83,1.29,3.55,3.55,0,0,1-1.2.81A3.71,3.71,0,0,1,324.88,248Zm0-1.68a1.39,1.39,0,0,0,1.23-.66,3.16,3.16,0,0,0,.43-1.76,3.23,3.23,0,0,0-.43-1.79,1.47,1.47,0,0,0-2.46,0,3.22,3.22,0,0,0-.43,1.79,3.16,3.16,0,0,0,.43,1.76A1.39,1.39,0,0,0,324.88,246.32Z"/><path class="cls-9" d="M330,240h1.68l.14,1.39h.06a3.45,3.45,0,0,1,1-1.18,2.1,2.1,0,0,1,1.2-.41,2.39,2.39,0,0,1,.53,0l.39.12-.36,1.78a2.05,2.05,0,0,0-.39-.1,2.94,2.94,0,0,0-.43,0,1.73,1.73,0,0,0-1,.34,2.51,2.51,0,0,0-.84,1.2v4.68h-2Z"/><path class="cls-9" d="M338.53,248a3.07,3.07,0,0,1-1.32-.28,2.79,2.79,0,0,1-1-.81,3.79,3.79,0,0,1-.64-1.29,6.06,6.06,0,0,1-.22-1.72,5.12,5.12,0,0,1,.27-1.73,4,4,0,0,1,.74-1.3,3.28,3.28,0,0,1,1.06-.82,2.79,2.79,0,0,1,1.23-.29,2.43,2.43,0,0,1,1.12.23,3.91,3.91,0,0,1,.87.62l-.08-1.23v-2.76h2.07v11.17h-1.68l-.17-.81h0a4.28,4.28,0,0,1-1,.71A2.5,2.5,0,0,1,338.53,248Zm.53-1.69a1.66,1.66,0,0,0,.76-.18,2.09,2.09,0,0,0,.69-.63v-3.44a2.31,2.31,0,0,0-.73-.46,2.12,2.12,0,0,0-.73-.13,1.34,1.34,0,0,0-.63.15,1.45,1.45,0,0,0-.51.46,2.59,2.59,0,0,0-.35.76,3.68,3.68,0,0,0-.13,1,3.23,3.23,0,0,0,.42,1.83A1.38,1.38,0,0,0,339.06,246.31Z"/><path class="cls-9" d="M344.61,237.45H348a7.54,7.54,0,0,1,1.6.16,3.57,3.57,0,0,1,1.29.54,2.64,2.64,0,0,1,.86,1,3.41,3.41,0,0,1,.31,1.55,3.48,3.48,0,0,1-.31,1.53,3,3,0,0,1-.85,1.07,3.62,3.62,0,0,1-1.27.62,5.82,5.82,0,0,1-1.57.2h-1.39v3.68h-2.07Zm3.32,5q2.11,0,2.11-1.79a1.37,1.37,0,0,0-.55-1.26,3.08,3.08,0,0,0-1.63-.35h-1.18v3.4Z"/><path class="cls-9" d="M353.43,240h1.68l.14,1.39h.06a3.44,3.44,0,0,1,1-1.18,2.1,2.1,0,0,1,1.2-.41,2.41,2.41,0,0,1,.53,0l.39.12-.36,1.78a2,2,0,0,0-.38-.1,3,3,0,0,0-.43,0,1.73,1.73,0,0,0-1,.34,2.51,2.51,0,0,0-.84,1.2v4.68h-2Z"/><path class="cls-9" d="M362.58,248a4.12,4.12,0,0,1-1.53-.28,3.58,3.58,0,0,1-1.23-.81,3.74,3.74,0,0,1-.83-1.29,4.69,4.69,0,0,1-.3-1.73,4.53,4.53,0,0,1,.31-1.72,4.11,4.11,0,0,1,.82-1.3,3.58,3.58,0,0,1,1.17-.83,3.55,3.55,0,0,1,2.78,0,2.84,2.84,0,0,1,1,.78,3.46,3.46,0,0,1,.62,1.19,5.35,5.35,0,0,1,.18,2,2.28,2.28,0,0,1-.07.4h-4.84a2.22,2.22,0,0,0,.71,1.46,2.17,2.17,0,0,0,1.46.5,2.92,2.92,0,0,0,.92-.14,3.75,3.75,0,0,0,.85-.41l.7,1.26a5,5,0,0,1-1.29.64A4.63,4.63,0,0,1,362.58,248Zm1.27-4.9a2,2,0,0,0-.36-1.27,1.33,1.33,0,0,0-1.12-.47,1.61,1.61,0,0,0-1.11.44,2,2,0,0,0-.6,1.29Z"/><path class="cls-9" d="M369.21,248a4.41,4.41,0,0,1-1.6-.31,4.89,4.89,0,0,1-1.39-.8l.94-1.29a5.14,5.14,0,0,0,1,.63,2.6,2.6,0,0,0,1.06.22,1.32,1.32,0,0,0,.86-.23.74.74,0,0,0,.27-.59.57.57,0,0,0-.14-.39,1.56,1.56,0,0,0-.37-.3,3.25,3.25,0,0,0-.53-.25l-.6-.24a7.44,7.44,0,0,1-.76-.33,3.15,3.15,0,0,1-.69-.46,2.31,2.31,0,0,1-.5-.64,1.77,1.77,0,0,1-.2-.85,2.23,2.23,0,0,1,.21-1,2.28,2.28,0,0,1,.59-.76,2.69,2.69,0,0,1,.92-.5,3.89,3.89,0,0,1,1.2-.18,3.63,3.63,0,0,1,1.53.3,6.38,6.38,0,0,1,1.15.67l-.92,1.25a5.38,5.38,0,0,0-.83-.48,2,2,0,0,0-.86-.19,1.21,1.21,0,0,0-.78.21.68.68,0,0,0-.25.55.54.54,0,0,0,.13.36,1.32,1.32,0,0,0,.36.28,3.47,3.47,0,0,0,.51.23l.59.22q.39.15.78.34a3.21,3.21,0,0,1,.7.45,2.07,2.07,0,0,1,.51.65,2,2,0,0,1,.2.93,2.29,2.29,0,0,1-.21,1,2.24,2.24,0,0,1-.6.78,2.93,2.93,0,0,1-1,.53A4.27,4.27,0,0,1,369.21,248Z"/><path class="cls-9" d="M375.79,248a4.41,4.41,0,0,1-1.6-.31,4.89,4.89,0,0,1-1.39-.8l.94-1.29a5.14,5.14,0,0,0,1,.63,2.6,2.6,0,0,0,1.06.22,1.32,1.32,0,0,0,.86-.23.74.74,0,0,0,.27-.59.57.57,0,0,0-.14-.39,1.56,1.56,0,0,0-.37-.3,3.25,3.25,0,0,0-.53-.25l-.6-.24a7.44,7.44,0,0,1-.76-.33,3.15,3.15,0,0,1-.69-.46,2.31,2.31,0,0,1-.5-.64,1.77,1.77,0,0,1-.2-.85,2.23,2.23,0,0,1,.21-1,2.28,2.28,0,0,1,.59-.76,2.69,2.69,0,0,1,.92-.5,3.89,3.89,0,0,1,1.2-.18,3.63,3.63,0,0,1,1.53.3,6.38,6.38,0,0,1,1.15.67l-.92,1.25a5.38,5.38,0,0,0-.83-.48,2,2,0,0,0-.86-.19,1.21,1.21,0,0,0-.78.21.68.68,0,0,0-.25.55.54.54,0,0,0,.13.36,1.32,1.32,0,0,0,.36.28,3.47,3.47,0,0,0,.51.23l.59.22q.39.15.78.34a3.21,3.21,0,0,1,.7.45,2.07,2.07,0,0,1,.51.65,2,2,0,0,1,.2.93,2.29,2.29,0,0,1-.21,1,2.24,2.24,0,0,1-.6.78,2.93,2.93,0,0,1-1,.53A4.27,4.27,0,0,1,375.79,248Z"/><path class="cls-8" d="M343.8,214.46l-2.9,8.47h0l-2.25,6.47.47.12h0a17,17,0,0,0,4.38.58,13.9,13.9,0,0,0,2.2-.16,16.32,16.32,0,0,0,2.88-.63h0l.69-.23c-.25-.53-.78-1.71-.81-1.76Z"/><path class="cls-8" d="M328,206.43a17.31,17.31,0,0,0-1.49,6.68c0,.56,0,1.12.08,1.66a17,17,0,0,0,10.28,14l.71.28-8.23-22.6C328.65,206.41,328.52,206.45,328,206.43Z"/><path class="cls-8" d="M359,206a16.64,16.64,0,0,0-1.34-2.36c-.14-.21-.3-.43-.45-.64a17.09,17.09,0,0,0-7.52-5.72,16.75,16.75,0,0,0-6.13-1.15,17,17,0,0,0-13.23,6.35,17.36,17.36,0,0,0-1.55,2.27h3c1.6,0,4.07-.19,4.07-.19a.63.63,0,0,1,.1,1.26s-.83.1-1.75.14l5.57,16.56,3.35-10-2.37-6.52c-.83,0-1.6-.14-1.6-.14a.63.63,0,0,1,.09-1.26s2.52.19,4,.19,4.07-.19,4.07-.19a.63.63,0,0,1,.1,1.26s-.82.1-1.74.14l5.52,16.43,1.53-5.1a14.26,14.26,0,0,0,1.16-4.93,8,8,0,0,0-1.27-4.21c-.77-1.27-1.5-2.33-1.5-3.58a2.65,2.65,0,0,1,2.57-2.72h.19c2.32-.06,3.08,2.24,3.18,3.81v.05c0,.64,0,1.11,0,1.66a14.55,14.55,0,0,1-1.16,5.47l-3.45,10-2,5.82.47-.22a17,17,0,0,0,9.45-13,15.24,15.24,0,0,0,.17-2.3A16.92,16.92,0,0,0,359,206Z"/></g></g></svg>