<svg xmlns="http://www.w3.org/2000/svg" viewBox="0 0 240 132.97"><defs><style>.cls-1{fill:#b8f4ee;}.cls-2{fill:#a1e2da;}.cls-3{fill:#72bcc4;}.cls-4{fill:#acb7c3;opacity:0.6;isolation:isolate;}.cls-5{fill:#d7fff9;}.cls-6{fill:#f7f9fc;}.cls-7{opacity:0.65;}.cls-8{fill:#aca6ff;}.cls-9{fill:#5f57d9;}.cls-10,.cls-11{fill:#948cff;}.cls-11{stroke:#948cff;stroke-miterlimit:10;stroke-width:0.31px;}</style></defs><title>자산 8</title><g id="레이어_2" data-name="레이어 2"><g id="레이어_1-2" data-name="레이어 1"><rect class="cls-1" x="25.34" width="189.67" height="129.35" rx="5.67" ry="5.67"/><rect class="cls-2" y="125.98" width="240" height="2.36" rx="0.38" ry="0.38"/><path class="cls-3" d="M.23,128.1,8.62,131a31.47,31.47,0,0,0,9.88,1.77H19L221,133h.5a31.47,31.47,0,0,0,9.88-1.75l8.39-2.9Z"/><circle class="cls-4" cx="120.12" cy="5.31" r="0.55"/><rect class="cls-5" x="32.5" y="9.86" width="174.83" height="109.55" rx="0.92" ry="0.92"/><path class="cls-6" d="M206.41,10a.79.79,0,0,1,.79.79V118.49a.79.79,0,0,1-.79.79h-173a.79.79,0,0,1-.79-.79V10.78a.79.79,0,0,1,.79-.79h173"/><path class="cls-2" d="M120,20.82V96.21c29.05-8.58,29.8-39.45,29.8-39.45V30C134.9,31.15,120,20.82,120,20.82Z"/><path class="cls-1" d="M90.2,30V56.76s.75,30.86,29.8,39.45V20.82S105.1,31.15,90.2,30Z"/><g class="cls-7"><polygon class="cls-8" points="120 74.75 104.03 74.14 104.76 53.52 120 52.08 120 74.75"/><polygon class="cls-9" points="120 74.75 135.96 74.14 135.23 53.52 120 52.08 120 74.75"/><path class="cls-10" d="M114.07,52.64V45.82a5.93,5.93,0,1,1,11.86,0v6.82l3.34.32V45.82a9.27,9.27,0,1,0-18.55,0V53Z"/><path class="cls-10" d="M123.12,61.14a3.12,3.12,0,1,0-4.69,2.7v3.41a1.57,1.57,0,0,0,3.14,0V63.84A3.12,3.12,0,0,0,123.12,61.14Z"/></g><g class="cls-7"><path class="cls-11" d="M95.76,109.83l1.47-2.43-2.55-1.05.42-1.19,2.67.66L98,103h1.26l.23,2.81,2.67-.63.4,1.19L100,107.4l1.5,2.43-1,.75-1.85-2.22-1.85,2.22Z"/><path class="cls-11" d="M110,109.83l1.47-2.43-2.55-1.05.42-1.19,2.67.66.23-2.83h1.26l.23,2.81,2.67-.63.4,1.19-2.55,1.05,1.5,2.43-1,.75-1.85-2.22L111,110.58Z"/><path class="cls-11" d="M124.25,109.83l1.47-2.43-2.55-1.05.42-1.19,2.67.66.23-2.83h1.26l.23,2.81,2.67-.63.4,1.19-2.55,1.05,1.5,2.43-1,.75-1.85-2.22-1.85,2.22Z"/><path class="cls-11" d="M138.5,109.83,140,107.4l-2.55-1.05.42-1.19,2.67.66.23-2.83H142l.23,2.81,2.67-.63.4,1.19-2.55,1.05,1.5,2.43-1,.75-1.85-2.22-1.85,2.22Z"/></g></g></g></svg>