<svg xmlns="http://www.w3.org/2000/svg" xmlns:xlink="http://www.w3.org/1999/xlink" viewBox="0 0 185.93 181.07" width="138" height="134"><defs><style>.cls-1{fill:url(#흰색_검정);}.cls-2{mask:url(#mask);}.cls-3{opacity:0.7;}.cls-4{fill:#ebebf2;}.cls-5{fill:#e4e4ea;}.cls-6{fill:#fff;}.cls-7{opacity:0.8;}.cls-8{opacity:0.6;}.cls-9{opacity:0.75;}.cls-10,.cls-12{fill:#3d34b7;}.cls-11{opacity:0.4;}.cls-12{stroke:#3d34b7;stroke-miterlimit:10;stroke-width:1.4px;}.cls-13{fill:#fafafa;}.cls-14{opacity:0.5;}.cls-15{fill:#cdcdd1;}.cls-16{opacity:0.3;}</style><linearGradient id="흰색_검정" x1="81.63" y1="78.31" x2="141.51" y2="78.31" gradientUnits="userSpaceOnUse"><stop offset="0" stop-color="#fff"/><stop offset="1"/></linearGradient><mask id="mask" x="-6.41" y="-12.49" width="192.35" height="181.58" maskUnits="userSpaceOnUse"><rect class="cls-1" x="-6.41" y="-12.49" width="155.03" height="181.58"/></mask></defs><title>자산 26</title><g id="레이어_2" data-name="레이어 2"><g id="레이어_1-2" data-name="레이어 1"><g class="cls-2"><g class="cls-3"><path class="cls-4" d="M3.19,159.94a2.89,2.89,0,0,1-2.88-2.88V10.66H185.63V159.94Z"/><path class="cls-5" d="M185.32,11V159.63H3.19a2.58,2.58,0,0,1-2.58-2.58V11H185.32m.61-.61H0v146.7a3.19,3.19,0,0,0,3.19,3.19H185.93V10.36Z"/><path class="cls-6" d="M.31,11.27V2.59A2.29,2.29,0,0,1,2.59.31h183v11Z"/><path class="cls-5" d="M185.32.61V11H.61V2.59a2,2,0,0,1,2-2H185.32m.61-.61H2.59A2.59,2.59,0,0,0,0,2.59v9H185.93V0Z"/><g class="cls-7"><circle class="cls-5" cx="6.91" cy="5.91" r="1.41"/></g><circle class="cls-5" cx="11.77" cy="5.91" r="1.41"/><circle class="cls-5" cx="16.63" cy="5.91" r="1.41"/><g class="cls-3"><path class="cls-4" d="M3.19,159.94a2.89,2.89,0,0,1-2.88-2.88V10.66H185.63V159.94Z"/><path class="cls-5" d="M185.32,11V159.63H3.19a2.58,2.58,0,0,1-2.58-2.58V11H185.32m.61-.61H0v146.7a3.19,3.19,0,0,0,3.19,3.19H185.93V10.36Z"/><path class="cls-6" d="M.31,11.27V2.59A2.29,2.29,0,0,1,2.59.31h183v11Z"/><path class="cls-5" d="M185.32.61V11H.61V2.59a2,2,0,0,1,2-2H185.32m.61-.61H2.59A2.59,2.59,0,0,0,0,2.59v9H185.93V0Z"/><g class="cls-7"><circle class="cls-5" cx="6.91" cy="5.91" r="1.41"/></g><circle class="cls-5" cx="11.77" cy="5.91" r="1.41"/><circle class="cls-5" cx="16.63" cy="5.91" r="1.41"/></g></g></g><g class="cls-8"><g class="cls-9"><path class="cls-10" d="M29.35,23.93H30v.62h-.62Z"/><path class="cls-10" d="M33.33,21.89a.92.92,0,0,0-.36-.07.75.75,0,0,0-.73.79v1.73h-.53v-3h.51v.47h0a.91.91,0,0,1,.87-.53,1.27,1.27,0,0,1,.38.06Z"/><path class="cls-10" d="M36.25,24.05a1.92,1.92,0,0,1-1.14.33A1.22,1.22,0,0,1,33.81,23v-.34a1.22,1.22,0,0,1,1.27-1.36,1.18,1.18,0,0,1,1.24,1.33V23h-2v0a.77.77,0,0,0,.8.86,1.55,1.55,0,0,0,.9-.27Zm-1.92-1.52v.08h1.49v-.1a.69.69,0,0,0-.73-.75A.73.73,0,0,0,34.33,22.54Z"/><path class="cls-10" d="M38.86,25.5V24a.93.93,0,0,1-.85.39c-.75,0-1.15-.46-1.15-1.26v-.53A1.15,1.15,0,0,1,38,21.32a1,1,0,0,1,.83.36v-.31h.53V25.5Zm0-3.09a.73.73,0,0,0-.78-.63c-.44,0-.71.33-.71.89V23c0,.56.27.89.71.89a.74.74,0,0,0,.78-.75Z"/><path class="cls-10" d="M40.19,21.37h.53v1.84c0,.5.2.71.63.71a.71.71,0,0,0,.74-.72V21.37h.53v3H42.1V24h0a1.06,1.06,0,0,1-1.91-.63Z"/><path class="cls-10" d="M45.75,24.05a1.92,1.92,0,0,1-1.14.33A1.22,1.22,0,0,1,43.31,23v-.34a1.22,1.22,0,0,1,1.27-1.36,1.18,1.18,0,0,1,1.24,1.33V23h-2v0a.77.77,0,0,0,.8.86,1.55,1.55,0,0,0,.9-.27Zm-1.92-1.52v.08h1.48v-.1a.69.69,0,0,0-.73-.75A.73.73,0,0,0,43.83,22.54Z"/><path class="cls-10" d="M48,23.54v0c0-.25-.12-.33-.68-.44s-1-.35-1-.87v-.07c0-.41.34-.8,1.11-.8a1.79,1.79,0,0,1,1.05.29l-.23.4a1.33,1.33,0,0,0-.78-.24c-.44,0-.62.15-.62.36v0c0,.23.18.32.64.41.72.14,1.06.35,1.06.9v.07c0,.47-.44.83-1.13.83A2,2,0,0,1,46.25,24l.24-.41a1.64,1.64,0,0,0,.93.31C47.81,23.92,48,23.78,48,23.54Z"/><path class="cls-10" d="M49.39,21.82H48.9v-.45h.49v-.75h.53v.75h.78v.45h-.78v1.69c0,.36.16.42.38.42a1.13,1.13,0,0,0,.39-.07l.08.42a1.63,1.63,0,0,1-.55.1c-.56,0-.82-.28-.82-.87Z"/><path class="cls-10" d="M7.36,20.43H8.74c.83,0,1.24.31,1.24,1v.11a.75.75,0,0,1-.63.78.85.85,0,0,1,.81.89v.14c0,.64-.41,1-1.25,1H7.36Zm.54.46v1.19h.69c.54,0,.85-.1.85-.59v-.1c0-.46-.28-.5-.89-.5Zm0,3h.82c.61,0,.9-.11.9-.57v-.12c0-.48-.24-.66-1-.66h-.7Z"/><path class="cls-10" d="M13.27,22.67V23a1.23,1.23,0,0,1-1.32,1.35A1.23,1.23,0,0,1,10.62,23v-.36a1.23,1.23,0,0,1,1.32-1.35A1.23,1.23,0,0,1,13.27,22.67Zm-.53.32v-.28c0-.63-.32-.93-.79-.93s-.79.3-.79.93V23c0,.63.32.93.79.93S12.74,23.62,12.74,23Z"/><path class="cls-10" d="M16.46,22.67V23a1.23,1.23,0,0,1-1.32,1.35A1.23,1.23,0,0,1,13.81,23v-.36a1.23,1.23,0,0,1,1.32-1.35A1.23,1.23,0,0,1,16.46,22.67Zm-.53.32v-.28c0-.63-.32-.93-.79-.93s-.79.3-.79.93V23c0,.63.32.93.79.93S15.92,23.62,15.92,23Z"/><path class="cls-10" d="M17.33,21.82h-.49v-.45h.49v-.75h.53v.75h.78v.45h-.78v1.69c0,.36.16.42.38.42a1.13,1.13,0,0,0,.39-.07l.08.42a1.63,1.63,0,0,1-.55.1c-.56,0-.82-.28-.82-.87Z"/><path class="cls-10" d="M19.28,20.43h1.4c.88,0,1.3.48,1.3,1.12v.11a1.15,1.15,0,0,1-1.3,1.15h-.86v1.52h-.54Zm.54.47v1.45h.77c.56,0,.85-.23.85-.7v-.1c0-.44-.28-.66-.79-.66Z"/><path class="cls-10" d="M22.37,23.54V23.4c0-.5.32-.86,1.08-.86h.75v-.17c0-.4-.18-.59-.61-.59a1.45,1.45,0,0,0-.85.3l-.26-.39a1.88,1.88,0,0,1,1.12-.37c.66,0,1.13.35,1.13.94v2.08h-.5V24h0a.69.69,0,0,1-.28.27,1.15,1.15,0,0,1-.59.14C22.75,24.38,22.37,24.07,22.37,23.54ZM24.2,23h-.74c-.41,0-.57.17-.57.45v.08c0,.29.23.41.51.41a.91.91,0,0,0,.6-.18.51.51,0,0,0,.2-.46Z"/><path class="cls-10" d="M26.54,23.74l.78-2.37h.55l-1.54,4.19-.48-.17.38-1-1.08-3h.57l.79,2.37Z"/><path class="cls-10" d="M38,36.84V33.56l-.92.54-.25-.43,1.26-.74h.45v3.91Z"/><path class="cls-10" d="M42.55,35.19c0,1.11-.44,1.71-1.38,1.71s-1.38-.62-1.38-1.71v-.61c0-1.09.47-1.71,1.38-1.71s1.38.61,1.38,1.71ZM42,34.58c0-1-.36-1.2-.83-1.2s-.83.25-.83,1.2v.62c0,1,.38,1.21.83,1.21s.83-.24.83-1.21Z"/><path class="cls-10" d="M45.85,35.19c0,1.11-.44,1.71-1.38,1.71s-1.38-.62-1.38-1.71v-.61c0-1.09.47-1.71,1.38-1.71s1.38.61,1.38,1.71Zm-.55-.61c0-1-.36-1.2-.83-1.2s-.83.25-.83,1.2v.62c0,1,.38,1.21.83,1.21s.83-.24.83-1.21Z"/><path class="cls-10" d="M49.16,35.19c0,1.11-.44,1.71-1.38,1.71s-1.38-.62-1.38-1.71v-.61c0-1.09.47-1.71,1.38-1.71s1.38.61,1.38,1.71Zm-.55-.61c0-1-.36-1.2-.83-1.2s-.83.25-.83,1.2v.62c0,1,.38,1.21.83,1.21s.83-.24.83-1.21Z"/><path class="cls-10" d="M65.09,34a1.3,1.3,0,0,1-.36.42c-.23.2-.56.47-.86.68l-.31-.38c.35-.26.7-.54.89-.72a1,1,0,0,0,.35-.83v-.55h.54v.53a.81.81,0,0,0,.28.73,8.1,8.1,0,0,0,.88.66l-.31.39c-.28-.2-.54-.39-.8-.61a1.25,1.25,0,0,1-.31-.33Zm-.53,3.53V36.13h2.57v-.48h-2.6V35.2h3.12v1.36H65.08V37h2.71v.44ZM67.12,35V32.46h.53V35Z"/><path class="cls-10" d="M69.72,35a1.27,1.27,0,0,1-.23.36c-.22.26-.49.56-.78.85l-.36-.36a8,8,0,0,0,.84-.9,1.29,1.29,0,0,0,.27-.86v-.72H68.6v-.45h2.18v.45H70v.72a1.28,1.28,0,0,0,.29.85,7.9,7.9,0,0,0,.79.86l-.36.36c-.29-.29-.51-.53-.73-.79a1.24,1.24,0,0,1-.23-.36Zm1.57-2.46h.53v4.65h-.53V34.57h-.76V34.1h.76Zm1.52,4.89h-.53v-5h.53Z"/><path class="cls-10" d="M61.8,48.17a1.23,1.23,0,0,1-1.36,1.24A2,2,0,0,1,59.11,49l.27-.43a1.62,1.62,0,0,0,1.07.37.74.74,0,0,0,.81-.75v-.06a.7.7,0,0,0-.79-.78,1.09,1.09,0,0,0-.76.31H59.3l.12-2.2h2.12v.46H59.92l-.06,1.22a1.33,1.33,0,0,1,.78-.24,1.13,1.13,0,0,1,1.17,1.21Z"/><path class="cls-10" d="M62.74,48.68a1.69,1.69,0,0,0,.84.24c.54,0,.92-.31.94-1.33a1.11,1.11,0,0,1-.93.44,1.19,1.19,0,0,1-1.23-1.25v-.12a1.25,1.25,0,0,1,1.33-1.28c.87,0,1.36.54,1.36,1.59v.2c0,1.71-.53,2.24-1.5,2.24a2,2,0,0,1-1-.28Zm1.76-2a.76.76,0,0,0-.79-.83.75.75,0,0,0-.82.81v.07a.75.75,0,0,0,.8.8.77.77,0,0,0,.81-.77Z"/><path class="cls-10" d="M65.79,46a1.28,1.28,0,0,1,1.14-.59c.72,0,1.18.39,1.18,1v.05a.89.89,0,0,1-.61.88.88.88,0,0,1,.79.9v.08c0,.57-.41,1.13-1.37,1.13A2,2,0,0,1,65.67,49l.27-.43a1.56,1.56,0,0,0,1,.37c.57,0,.83-.29.83-.64v-.07c0-.51-.35-.67-.81-.67h-.48v-.47h.46a.6.6,0,0,0,.66-.66v0c0-.34-.29-.51-.64-.51a.88.88,0,0,0-.76.39Z"/><path class="cls-10" d="M69.32,46.83h-.49v-.45h.49v-.29a.77.77,0,0,1,.86-.87,1.82,1.82,0,0,1,.53.08l-.08.43a1.49,1.49,0,0,0-.4-.05c-.2,0-.38.06-.38.44v.27h.78v.45h-.78v2.51h-.53Z"/><path class="cls-10" d="M71.13,48.24a1,1,0,0,1,.67-.9,1,1,0,0,1-.56-.86V46.4a1.21,1.21,0,0,1,2.38,0v.08a1,1,0,0,1-.56.86,1,1,0,0,1,.67.9v.09c0,.62-.49,1.07-1.31,1.07s-1.31-.45-1.31-1.07Zm.55.07c0,.37.29.62.76.62s.75-.25.75-.62v-.06a.66.66,0,0,0-.75-.66c-.42,0-.76.22-.76.66Zm.1-1.8a.65.65,0,0,0,1.3,0v-.06a.65.65,0,0,0-1.3,0Z"/><path class="cls-10" d="M74.72,46.83h-.49v-.45h.49v-.29a.77.77,0,0,1,.86-.87,1.82,1.82,0,0,1,.53.08l-.08.43a1.49,1.49,0,0,0-.4-.05c-.2,0-.38.06-.38.44v.27H76v.45h-.78v2.51h-.53Z"/><path class="cls-10" d="M31.69,72.58l1.24,1.78h-.66L31.33,73l-.41.42v1h-.53v-4.1h.53v2.47l1.27-1.33h.68Z"/><path class="cls-10" d="M35.51,71.67l-.25.4a1.18,1.18,0,0,0-.77-.25c-.39,0-.75.25-.75.86V73c0,.64.37.89.76.89a1.28,1.28,0,0,0,.83-.27l.25.4a1.65,1.65,0,0,1-1.09.34A1.21,1.21,0,0,1,33.2,73v-.37a1.21,1.21,0,0,1,1.28-1.33A1.57,1.57,0,0,1,35.51,71.67Z"/><path class="cls-10" d="M36.62,71.76a1,1,0,0,1,.87-.42,1.11,1.11,0,0,1,1.15,1.26v.53a1.14,1.14,0,0,1-1.19,1.27,1,1,0,0,1-.82-.37v1.49h-.53V71.39h.51Zm0,1.54a.74.74,0,0,0,.78.64c.44,0,.71-.33.71-.89v-.36c0-.56-.27-.89-.71-.89a.74.74,0,0,0-.78.75Z"/><path class="cls-10" d="M63.09,108h1.39c.83,0,1.24.31,1.24,1V109a.75.75,0,0,1-.63.78.85.85,0,0,1,.81.89v.14c0,.64-.41,1-1.25,1H63.09Zm.54.46v1.19h.69c.54,0,.85-.1.85-.59v-.1c0-.46-.28-.5-.89-.5Zm0,3h.82c.61,0,.9-.11.9-.57v-.12c0-.48-.24-.66-1-.66h-.7Z"/><path class="cls-10" d="M67.74,110a1.55,1.55,0,0,1-.31.42c-.22.24-.51.53-.88.87l-.35-.36a10.6,10.6,0,0,0,.86-.84,1.32,1.32,0,0,0,.42-1v-1.2H68v1.2a1.31,1.31,0,0,0,.43,1,10,10,0,0,0,.8.77l-.35.37c-.37-.35-.62-.59-.82-.81a1.76,1.76,0,0,1-.33-.42Zm3.2-.22h-.77v2.73h-.54v-5h.54v1.8h.77Z"/><path class="cls-10" d="M72.79,111.18v-3.23h2.36v3.23Zm.53-.46h1.3v-2.31h-1.3Zm3.9-.95h-.77v2.73h-.54v-5h.54v1.8h.77Z"/><path class="cls-10" d="M82.06,111.37v.46H77.47v-.46Zm-2.29-2a1.87,1.87,0,0,1-.64.55c-.31.2-.66.41-1.11.66l-.27-.42c.43-.24.77-.43,1.14-.68a1.1,1.1,0,0,0,.61-1.1v-.55H80v.55c0,.53.08.75.67,1.14.34.22.66.4,1.08.63l-.26.42c-.4-.23-.8-.46-1.12-.66a1.9,1.9,0,0,1-.63-.54Z"/><path class="cls-10" d="M82.55,111c1.23-.68,1.62-1,1.73-1.41l-1.73,0,0-.45,1.78,0v-.78H82.64v-.46h2.21V109c0,.94,0,1.32-2,2.45Zm4.54-1.24h-.77v2.7h-.54v-5h.54v1.83h.77Z"/><path class="cls-10" d="M88.14,109.76v1.05h.46a10.71,10.71,0,0,0,1.71-.11l.06.46a11.86,11.86,0,0,1-1.9.11h-.86v-2h1.7v-1H87.6v-.46h2.25v1.86Zm3.89,0h-.77v2.7h-.54v-5h.54v1.83H92Z"/><path class="cls-10" d="M106.81,109.22a1.5,1.5,0,0,1-.36.43c-.22.21-.54.48-.83.7l-.32-.38a9.86,9.86,0,0,0,.87-.74,1,1,0,0,0,.35-.86v-.66h.54v.63a.83.83,0,0,0,.28.75,10.54,10.54,0,0,0,.88.72l-.31.37c-.28-.21-.53-.42-.79-.64a1.13,1.13,0,0,1-.31-.34Zm-.51,2.24c0-.53.56-1,1.51-1s1.51.43,1.51,1v.22c0,.53-.56,1-1.51,1s-1.51-.43-1.51-1Zm2.49,0c0-.27-.38-.55-1-.55s-1,.28-1,.55v.15c0,.27.38.55,1,.55s1-.28,1-.55Zm1.21-2.32h-.71v1.27h-.53V107.5h.53v1.21H110Z"/><path class="cls-10" d="M114.87,109.79v.46h-2v.55h1.37v1.69h-3.27V110.8h1.37v-.55h-2v-.46Zm-4.06-.8h.67v-.86h-.65v-.44h3.49v.44h-.65V109h.67v.44h-3.54Zm2.88,2.25h-2.21V112h2.21ZM112,109h1.15v-.86H112Z"/><path class="cls-10" d="M117.78,110h-2.25v-2.25h2.25Zm-1.73-.46h1.2v-1.34h-1.2Zm.29,1.88c0-.53.57-1,1.53-1s1.53.43,1.53,1v.22c0,.53-.57,1-1.53,1s-1.53-.43-1.53-1Zm2.54,0c0-.27-.39-.55-1-.55s-1,.28-1,.55v.15c0,.27.39.55,1,.55s1-.28,1-.55Zm0-1.05v-.8h-.79v-.46h.79v-.51h-.79v-.46h.79v-.72h.53v2.95Z"/><path class="cls-10" d="M43.1,124.38V121.1l-.92.54-.25-.43,1.26-.74h.45v3.91Z"/><path class="cls-10" d="M58.26,125v-1.72h-2v-.46h4.58v.46h-2V125Zm.27-3.56h0a1.4,1.4,0,0,1-.6.44c-.29.15-.71.34-1.15.51l-.21-.44a10,10,0,0,0,1.19-.53.79.79,0,0,0,.51-.8v-.44h.54v.44a.79.79,0,0,0,.5.8,10,10,0,0,0,1.19.53l-.21.43c-.44-.17-.86-.36-1.15-.51A1.45,1.45,0,0,1,58.54,121.45Z"/><path class="cls-10" d="M61.41,122.78v-1.5H63.1v-.58H61.41v-.46h2.22v1.49H61.94v.6h.46a13.6,13.6,0,0,0,1.77-.1l0,.44a13.49,13.49,0,0,1-1.87.11ZM65.14,124v.22c0,.5-.56.9-1.51.9s-1.51-.4-1.51-.9V124c0-.5.56-.9,1.51-.9S65.14,123.52,65.14,124Zm-.53.18v-.15c0-.24-.38-.49-1-.49s-1,.25-1,.49v.15c0,.24.38.49,1,.49S64.62,124.45,64.62,124.21Zm1.21-3h-.71v.54h.71v.47h-.71v.83h-.53V120h.53v.75h.71Z"/><path class="cls-10" d="M53.07,136.89v-3.28l-.92.54-.25-.43,1.26-.74h.45v3.91Z"/><path class="cls-10" d="M56.42,134.86c.44-.49.49-.7.49-.91v0c0-.31-.27-.5-.67-.5a.94.94,0,0,0-.85.57l-.41-.27a1.36,1.36,0,0,1,1.25-.79c.79,0,1.22.41,1.22,1V134a1.76,1.76,0,0,1-.6,1.17l-1.22,1.3h2v.47H55v-.45Z"/><path class="cls-10" d="M58.32,133.51a1.28,1.28,0,0,1,1.14-.59c.72,0,1.18.39,1.18,1V134a.89.89,0,0,1-.61.88.88.88,0,0,1,.79.9v.08c0,.57-.41,1.13-1.37,1.13a2,2,0,0,1-1.25-.43l.27-.43a1.56,1.56,0,0,0,1,.37c.57,0,.83-.29.83-.64v-.07c0-.51-.35-.67-.81-.67H59v-.47h.46a.6.6,0,0,0,.66-.66v0c0-.34-.29-.51-.64-.51a.88.88,0,0,0-.76.39Z"/><path class="cls-10" d="M76.14,133.8H73.67v-.45h1v-.7h.53v.7h.94ZM76.06,135v.26a1.12,1.12,0,0,1-2.21,0V135a1.12,1.12,0,0,1,2.21,0Zm-.48.23V135a.63.63,0,0,0-1.25,0v.21a.63.63,0,0,0,1.25,0Zm.88-2.64H77v1.75h.54v-1.85H78v5h-.53v-2.68H77v2.43h-.53Z"/><path class="cls-10" d="M81.6,134.95a18.73,18.73,0,0,1-2.78.12v-2.24h2.31v.46H79.34v1.32a16.34,16.34,0,0,0,2.2-.1Zm-2.06,1.53c0-.53.56-1,1.51-1s1.51.43,1.51,1v.22c0,.53-.56,1-1.51,1s-1.51-.43-1.51-1Zm2.49,0c0-.27-.38-.55-1-.55s-1,.28-1,.55v.15c0,.27.38.55,1,.55s1-.28,1-.55Zm1.21-2.38h-.71v1.33H82v-2.95h.53v1.15h.71Z"/><path class="cls-10" d="M86.32,134.23a1.5,1.5,0,0,1-.36.43c-.22.21-.54.48-.83.7l-.32-.38a9.86,9.86,0,0,0,.87-.74,1,1,0,0,0,.35-.86v-.66h.54v.63a.83.83,0,0,0,.28.75,10.54,10.54,0,0,0,.88.72l-.31.37c-.28-.21-.53-.42-.79-.64a1.13,1.13,0,0,1-.31-.34Zm-.51,2.24c0-.53.56-1,1.51-1s1.51.43,1.51,1v.22c0,.53-.56,1-1.51,1s-1.51-.43-1.51-1Zm2.49,0c0-.27-.38-.55-1-.55s-1,.28-1,.55v.15c0,.27.38.55,1,.55s1-.28,1-.55Zm1.21-2.32H88.8v1.27h-.53v-2.95h.53v1.21h.71Z"/><path class="cls-10" d="M94.38,134.8v.46h-2v.55h1.37v1.69H90.46v-1.69h1.37v-.55h-2v-.46Zm-4.06-.8H91v-.86h-.64v-.44h3.49v.44h-.65V134h.67v.44H90.32Zm2.88,2.25H91v.79H93.2ZM91.52,134h1.15v-.86H91.52Z"/><path class="cls-10" d="M99.32,134.69v.44H94.73v-.44Zm-3.93,2.85v-1.25h2.74v-.37H95.36v-.44h3.29v1.24H95.91v.38H98.8v.44Zm3.24-4.14v.13c0,.51-.61.86-1.6.86s-1.6-.35-1.6-.86v-.13c0-.51.61-.86,1.6-.86S98.62,132.89,98.62,133.4Zm-.53.12v-.11c0-.23-.39-.43-1.07-.43s-1.07.19-1.07.43v.11c0,.23.39.43,1.07.43S98.1,133.75,98.1,133.52Z"/><path class="cls-10" d="M105.6,135.07v.46h-2v2H103v-2h-2v-.46h3.2a6.89,6.89,0,0,0,.16-1.49v-.29h-2.78v-.47h3.32v.64a8.69,8.69,0,0,1-.15,1.61Z"/><path class="cls-10" d="M108,136.45v-.93h-2.09v-.46h4.58v.46h-2v.93Zm1.84-1.83H106.6v-2h.53v.59h2.21v-.59h.53ZM107.15,137H110v.47h-3.36V136h.54Zm0-2.81h2.21v-.51h-2.21Z"/><path class="cls-10" d="M112.52,134.31a1.41,1.41,0,0,1-.36.42c-.23.2-.54.45-.84.66L111,135a7.41,7.41,0,0,0,.88-.69,1.05,1.05,0,0,0,.36-.88v-.17h-1.06v-.46h2.61v.46h-1v.15a.86.86,0,0,0,.28.76,7.11,7.11,0,0,0,.87.67l-.3.39c-.28-.19-.53-.39-.79-.61a1.23,1.23,0,0,1-.31-.32Zm.63,1.16h.53v.41c0,.3.15.48.47.67a12.21,12.21,0,0,0,1.11.55l-.23.42A11.54,11.54,0,0,1,114,137a1.74,1.74,0,0,1-.56-.42,1.39,1.39,0,0,1-.57.45c-.25.14-.57.3-1,.51l-.24-.43a10.88,10.88,0,0,0,1.12-.55.78.78,0,0,0,.47-.68Zm1.33-3H115v3.21h-.53Z"/><path class="cls-10" d="M120.4,135v.46h-4.58V135ZM117,137h2.82v.47h-3.36v-1.51H117Zm0-4.28V134h2.7v.46h-3.24V132.7Z"/><path class="cls-10" d="M123.27,134.29a1,1,0,0,1,.87-.42,1.11,1.11,0,0,1,1.15,1.26v.53a1.14,1.14,0,0,1-1.19,1.27,1,1,0,0,1-.82-.37V138h-.53v-4.12h.51Zm0,1.54a.74.74,0,0,0,.78.64c.44,0,.71-.33.71-.89v-.36c0-.56-.27-.89-.71-.89a.74.74,0,0,0-.78.75Z"/><path class="cls-10" d="M127.61,134.44a.92.92,0,0,0-.36-.07.75.75,0,0,0-.73.79v1.73H126v-3h.51v.47h0a.91.91,0,0,1,.87-.53,1.28,1.28,0,0,1,.39.06Z"/><path class="cls-10" d="M128.81,132.86v.57h-.56v-.57Zm0,1.06v3h-.53v-3Z"/><path class="cls-10" d="M133.73,136.89h-.53v-1.78c0-.51-.18-.76-.56-.76a.66.66,0,0,0-.69.69v1.85h-.53v-1.78c0-.51-.18-.76-.56-.76a.65.65,0,0,0-.69.67v1.88h-.53v-3h.52v.4h0a.81.81,0,0,1,.79-.46.89.89,0,0,1,.85.49,1,1,0,0,1,.92-.49.94.94,0,0,1,1,1.07Z"/><path class="cls-10" d="M134.38,136.1V136c0-.5.32-.86,1.08-.86h.75v-.17c0-.4-.18-.59-.61-.59a1.45,1.45,0,0,0-.85.3l-.26-.39a1.88,1.88,0,0,1,1.12-.37c.66,0,1.13.35,1.13.94v2.08h-.5v-.36h0a.69.69,0,0,1-.28.27,1.15,1.15,0,0,1-.59.14C134.76,136.93,134.38,136.62,134.38,136.1Zm1.83-.56h-.74c-.41,0-.57.17-.57.45v.08c0,.29.23.41.51.41a.91.91,0,0,0,.6-.18.51.51,0,0,0,.2-.46Z"/><path class="cls-10" d="M139.13,134.44a.92.92,0,0,0-.36-.07.75.75,0,0,0-.73.79v1.73h-.53v-3H138v.47h0a.91.91,0,0,1,.87-.53,1.28,1.28,0,0,1,.39.06Z"/><path class="cls-10" d="M140.8,136.29l.78-2.37h.55l-1.54,4.19-.48-.17.38-1-1.08-3H140l.79,2.37Z"/><path class="cls-10" d="M146.12,135.11l1.24,1.78h-.66l-.94-1.41-.41.42v1h-.53v-4.1h.53v2.47l1.27-1.33h.68Z"/><path class="cls-10" d="M150.08,136.61a1.92,1.92,0,0,1-1.14.33,1.21,1.21,0,0,1-1.3-1.37v-.34a1.22,1.22,0,0,1,1.27-1.36,1.18,1.18,0,0,1,1.24,1.33v.4h-2v0a.77.77,0,0,0,.8.86,1.55,1.55,0,0,0,.9-.27Zm-1.92-1.52v.08h1.48v-.1a.69.69,0,0,0-.73-.75A.73.73,0,0,0,148.15,135.09Z"/><path class="cls-10" d="M151.85,136.29l.78-2.37h.55l-1.54,4.19-.48-.17.38-1-1.08-3H151l.79,2.37Z"/><path class="cls-10" d="M73.42,146.74a1.5,1.5,0,0,1-.36.43c-.22.21-.54.48-.83.7l-.32-.38a9.86,9.86,0,0,0,.87-.74,1,1,0,0,0,.35-.86v-.66h.54v.63a.83.83,0,0,0,.28.75,10.54,10.54,0,0,0,.88.72l-.31.37c-.28-.21-.53-.42-.79-.64a1.13,1.13,0,0,1-.31-.34ZM72.9,149c0-.53.56-1,1.51-1s1.51.43,1.51,1v.22c0,.53-.56,1-1.51,1s-1.51-.43-1.51-1Zm2.49,0c0-.27-.38-.55-1-.55s-1,.28-1,.55v.15c0,.27.38.55,1,.55s1-.28,1-.55Zm1.21-2.32H75.9V148h-.53V145h.53v1.21h.71Z"/><path class="cls-10" d="M81.48,147.31v.46h-2v.55h1.37V150H77.55v-1.69h1.37v-.55h-2v-.46Zm-4.06-.8h.67v-.86h-.65v-.44h3.49v.44h-.65v.86H81V147H77.42Zm2.88,2.25H78.09v.79H80.3Zm-1.68-2.25h1.15v-.86H78.62Z"/><path class="cls-10" d="M86.2,147.6a18.79,18.79,0,0,1-2.78.12v-2.38h2.31v.46H83.94v1.46a16.27,16.27,0,0,0,2.2-.1Zm-1.58,1.89h2.65V150H84.08V148.3h.54Zm3.22-2.71h-.71v1.8H86.6V145h.53v1.3h.71Z"/><path class="cls-10" d="M88.22,148.48c1.73-1,1.79-1.29,1.79-2.06v-.48h-1.7v-.46h2.23v.95c0,1-.06,1.28-2,2.48Zm4.58-1.15H92V150h-.54v-5H92v1.85h.77Z"/><path class="cls-10" d="M48.68,146.88v1.23h.57v.47h-.57v.86h-.54v-.86h-2v-.41L48,145.43h.61l-1.84,2.68h1.35v-1.23Z"/><path class="cls-10" d="M52.2,148.23a1.26,1.26,0,0,1-1.39,1.27,2.09,2.09,0,0,1-1.36-.44l.27-.44a1.66,1.66,0,0,0,1.1.38.76.76,0,0,0,.83-.77v-.07a.72.72,0,0,0-.8-.79,1.12,1.12,0,0,0-.78.32h-.42l.13-2.25h2.17v.47H50.27l-.06,1.25a1.37,1.37,0,0,1,.8-.24,1.16,1.16,0,0,1,1.19,1.24Z"/><path class="cls-10" d="M55.31,147.74c0,1.13-.46,1.75-1.42,1.75s-1.42-.63-1.42-1.75v-.62c0-1.12.48-1.75,1.42-1.75s1.42.63,1.42,1.75Zm-.56-.63c0-1-.37-1.23-.85-1.23s-.86.26-.86,1.23v.63c0,1,.39,1.24.86,1.24s.85-.25.85-1.24Z"/><path class="cls-10" d="M58.42,147.74c0,1.13-.45,1.75-1.41,1.75s-1.42-.63-1.42-1.75v-.62c0-1.12.48-1.75,1.42-1.75s1.41.63,1.41,1.75Zm-.56-.63c0-1-.37-1.23-.85-1.23s-.86.26-.86,1.23v.63c0,1,.39,1.24.86,1.24s.85-.25.85-1.24Z"/><path class="cls-10" d="M61.53,147.74c0,1.13-.46,1.75-1.42,1.75s-1.42-.63-1.42-1.75v-.62c0-1.12.48-1.75,1.42-1.75s1.42.63,1.42,1.75Zm-.56-.63c0-1-.37-1.23-.85-1.23s-.86.26-.86,1.23v.63c0,1,.39,1.24.86,1.24s.85-.25.85-1.24Z"/><path class="cls-10" d="M42.42,59.68v.44H37.84v-.44ZM38.5,62.5V61.27h2.74v-.36H38.47v-.44h3.29V61.7H39v.36h2.89v.44Zm3.26-3.17H38.49v-1.8H39V58h2.21v-.51h.53ZM39,58.89h2.21v-.41H39Z"/><path class="cls-10" d="M43.1,60.25v-1.5h1.7v-.58H43.1v-.46h2.23V59.2h-1.7v.6h.46a13.6,13.6,0,0,0,1.77-.1l0,.44a13.49,13.49,0,0,1-1.87.11Zm3.84,1.25v.22c0,.51-.56.9-1.53.9s-1.53-.39-1.53-.9V61.5c0-.51.56-.9,1.53-.9S46.93,61,46.93,61.5Zm-.53.18v-.15c0-.25-.38-.49-1-.49s-1,.24-1,.49v.15c0,.25.38.49,1,.49S46.41,61.93,46.41,61.68Zm0-1.15V57.47h.53v3.06Z"/><path class="cls-10" d="M52.29,59.68v.44H47.7v-.44ZM48.36,62.5V61.27H51.1v-.36H48.34v-.44h3.29V61.7H48.89v.36h2.89v.44Zm3.26-3.17H48.36v-1.8h.53V58h2.21v-.51h.53Zm-2.74-.44h2.21v-.41H48.89Z"/><path class="cls-10" d="M53,60.25v-1.5h1.7v-.58H53v-.46h2.23V59.2h-1.7v.6h.46a13.6,13.6,0,0,0,1.77-.1l0,.44a13.49,13.49,0,0,1-1.87.11Zm3.84,1.25v.22c0,.51-.56.9-1.53.9s-1.53-.39-1.53-.9V61.5c0-.51.56-.9,1.53-.9S56.79,61,56.79,61.5Zm-.53.18v-.15c0-.25-.38-.49-1-.49s-1,.24-1,.49v.15c0,.25.38.49,1,.49S56.27,61.93,56.27,61.68Zm0-1.15V57.47h.53v3.06Z"/></g><g class="cls-11"><path class="cls-10" d="M54.35,22.71a3.94,3.94,0,0,0,.74,2.41h-.5a3.68,3.68,0,0,1-.8-2.43v-.22a3.65,3.65,0,0,1,.8-2.42h.5a3.9,3.9,0,0,0-.74,2.4Z"/><path class="cls-10" d="M56.26,22.28c.4,0,.57-.12.57-.43v-1c0-.53.29-.79.85-.79h.58v.47h-.49c-.31,0-.4.1-.4.47v.87a.6.6,0,0,1-.45.67.6.6,0,0,1,.45.67v1c0,.37.1.43.4.43h.49v.47h-.58c-.55,0-.85-.22-.85-.75V23.19c0-.31-.18-.44-.57-.44Z"/><path class="cls-10" d="M32.35,33.59H33v.62h-.62Zm0,2.42H33v.62h-.62Z"/><path class="cls-10" d="M35.35,34.06l-.05-1.33h.59l-.05,1.33Z"/><path class="cls-10" d="M49.81,34.06l-.05-1.33h.59l-.05,1.33Z"/><path class="cls-10" d="M51.21,36.41h.62l-.42,1.24H51Z"/><path class="cls-10" d="M58,32.54l-1.66,4.86H55.8l1.65-4.86Z"/><path class="cls-10" d="M60.75,32.54,59.1,37.39h-.51l1.65-4.86Z"/><path class="cls-10" d="M54.91,46.1h.62v.62h-.62Zm0,2.42h.62v.62h-.62Z"/><path class="cls-10" d="M57.92,46.56l-.05-1.33h.59l-.05,1.33Z"/><path class="cls-10" d="M33.81,58.6h.62v.62h-.62Zm0,2.42h.62v.62h-.62Z"/><path class="cls-10" d="M36.81,59.07l-.05-1.33h.59l-.05,1.33Z"/><path class="cls-10" d="M26.11,71.11h.62v.62h-.62Zm0,2.42h.62v.62h-.62Z"/><path class="cls-10" d="M29.11,71.57l-.05-1.33h.59l-.05,1.33Z"/><path class="cls-10" d="M39.3,71.57l-.05-1.33h.59l-.05,1.33Z"/><path class="cls-10" d="M40.7,73.93h.62l-.42,1.24h-.43Z"/><path class="cls-10" d="M33.78,83.61h.62v.62h-.62Zm0,2.42h.62v.62h-.62Z"/><path class="cls-10" d="M38.29,87.65H36.86V82.57h1.43V83h-.9v4.14h.9Z"/><path class="cls-10" d="M23.39,97.32c.4,0,.57-.12.57-.43v-1c0-.53.29-.79.85-.79h.58v.47h-.49c-.31,0-.4.1-.4.47v.87a.6.6,0,0,1-.45.67.6.6,0,0,1,.45.67v1c0,.37.1.43.4.43h.49v.47h-.58c-.55,0-.85-.22-.85-.75V98.22c0-.31-.18-.44-.57-.44Z"/><path class="cls-10" d="M58.78,108.63h.62v.62h-.62Zm0,2.42h.62v.62h-.62Z"/><path class="cls-10" d="M61.79,109.09l-.05-1.33h.59l-.05,1.33Z"/><path class="cls-10" d="M92.47,109.09l-.05-1.33H93L93,109.09Z"/><path class="cls-10" d="M93.87,111.45h.62l-.42,1.24h-.43Z"/><path class="cls-10" d="M99.38,107.57l-1.66,4.86h-.51l1.65-4.86Z"/><path class="cls-10" d="M102.58,107.57l-1.66,4.86h-.51l1.65-4.86Z"/><path class="cls-10" d="M38.71,121.13h.62v.62h-.62Zm0,2.42h.62v.62h-.62Z"/><path class="cls-10" d="M45.18,124h.62l-.42,1.24h-.43Z"/><path class="cls-10" d="M50.69,120.08,49,124.94h-.51l1.65-4.86Z"/><path class="cls-10" d="M53.47,120.08l-1.66,4.86H51.3L53,120.08Z"/><path class="cls-10" d="M47.45,133.64h.62v.62h-.62Zm0,2.42h.62v.62h-.62Z"/><path class="cls-10" d="M50.45,134.1l-.05-1.33H51l-.05,1.33Z"/><path class="cls-10" d="M61.6,134.1l-.05-1.33h.59l-.05,1.33Z"/><path class="cls-10" d="M63,136.46h.62l-.42,1.24h-.43Z"/><path class="cls-10" d="M68.09,132.59l-1.66,4.86h-.51l1.65-4.86Z"/><path class="cls-10" d="M71.3,132.59l-1.66,4.86h-.51l1.65-4.86Z"/><path class="cls-10" d="M42.77,146.14h.62v.62h-.62Zm0,2.42h.62v.62h-.62Z"/><path class="cls-10" d="M66,145.09l-1.66,4.86h-.51l1.65-4.86Z"/><path class="cls-10" d="M69.19,145.09l-1.66,4.86H67l1.65-4.86Z"/><path class="cls-10" d="M18.68,34.25a1,1,0,0,1,.87-.42,1.11,1.11,0,0,1,1.15,1.26v.53a1.14,1.14,0,0,1-1.19,1.27,1,1,0,0,1-.82-.37V38h-.53V33.88h.51Zm0,1.54a.74.74,0,0,0,.78.64c.44,0,.71-.33.71-.89v-.36c0-.56-.27-.89-.71-.89a.74.74,0,0,0-.78.75Z"/><path class="cls-10" d="M23,34.39a.92.92,0,0,0-.36-.07.75.75,0,0,0-.73.79v1.73H21.4v-3h.51v.47h0a.91.91,0,0,1,.87-.53,1.27,1.27,0,0,1,.38.06Z"/><path class="cls-10" d="M24.22,32.82v.57h-.56v-.57Zm0,1.06v3h-.53v-3Z"/><path class="cls-10" d="M27.22,34.15l-.25.4a1.18,1.18,0,0,0-.77-.25c-.39,0-.75.25-.75.86v.37c0,.64.37.89.76.89a1.28,1.28,0,0,0,.83-.27l.25.4a1.65,1.65,0,0,1-1.09.34,1.21,1.21,0,0,1-1.28-1.35v-.37a1.21,1.21,0,0,1,1.28-1.33A1.57,1.57,0,0,1,27.22,34.15Z"/><path class="cls-10" d="M30.12,36.56a1.92,1.92,0,0,1-1.14.33,1.22,1.22,0,0,1-1.3-1.37v-.34a1.22,1.22,0,0,1,1.27-1.36,1.18,1.18,0,0,1,1.24,1.33v.4h-2v0a.77.77,0,0,0,.8.86,1.55,1.55,0,0,0,.9-.27ZM28.19,35v.08h1.49V35a.69.69,0,0,0-.73-.75A.73.73,0,0,0,28.19,35Z"/><path class="cls-10" d="M18,48.56v-.15c0-.5.32-.86,1.08-.86h.75v-.17c0-.4-.18-.59-.61-.59a1.45,1.45,0,0,0-.85.3l-.26-.39a1.88,1.88,0,0,1,1.12-.37c.66,0,1.13.35,1.13.94v2.08h-.5V49h0a.69.69,0,0,1-.28.27,1.15,1.15,0,0,1-.59.14C18.4,49.39,18,49.08,18,48.56ZM19.85,48h-.74c-.41,0-.57.17-.57.45v.08c0,.29.23.41.51.41a.91.91,0,0,0,.6-.18.51.51,0,0,0,.2-.46Z"/><path class="cls-10" d="M21.67,46.75a1,1,0,0,1,.87-.42,1.11,1.11,0,0,1,1.15,1.26v.53a1.14,1.14,0,0,1-1.19,1.27,1,1,0,0,1-.82-.37v1.49h-.53V46.38h.51Zm0,1.54a.74.74,0,0,0,.78.64c.44,0,.71-.33.71-.89v-.36c0-.56-.27-.89-.71-.89a.74.74,0,0,0-.78.75Z"/><path class="cls-10" d="M24.9,46.75a1,1,0,0,1,.87-.42,1.11,1.11,0,0,1,1.15,1.26v.53a1.14,1.14,0,0,1-1.19,1.27,1,1,0,0,1-.82-.37v1.49h-.53V46.38h.51Zm0,1.54a.74.74,0,0,0,.78.64c.44,0,.71-.33.71-.89v-.36c0-.56-.27-.89-.71-.89a.74.74,0,0,0-.78.75Z"/><path class="cls-10" d="M28.15,45.25v4.1h-.53v-4.1Z"/><path class="cls-10" d="M29.55,45.32v.57H29v-.57Zm0,1.06v3H29v-3Z"/><path class="cls-10" d="M32.55,46.65l-.25.4a1.18,1.18,0,0,0-.77-.25c-.39,0-.75.25-.75.86V48c0,.64.37.89.76.89a1.28,1.28,0,0,0,.83-.27l.25.4a1.65,1.65,0,0,1-1.09.34A1.21,1.21,0,0,1,30.25,48v-.37a1.21,1.21,0,0,1,1.28-1.33A1.57,1.57,0,0,1,32.55,46.65Z"/><path class="cls-10" d="M33,48.56v-.15c0-.5.32-.86,1.08-.86h.75v-.17c0-.4-.18-.59-.61-.59a1.45,1.45,0,0,0-.85.3l-.26-.39a1.88,1.88,0,0,1,1.12-.37c.66,0,1.13.35,1.13.94v2.08h-.5V49h0a.69.69,0,0,1-.28.27,1.15,1.15,0,0,1-.59.14C33.39,49.39,33,49.08,33,48.56ZM34.84,48H34.1c-.41,0-.57.17-.57.45v.08c0,.29.23.41.51.41a.91.91,0,0,0,.6-.18.51.51,0,0,0,.2-.46Z"/><path class="cls-10" d="M36.33,46.83h-.49v-.45h.49v-.75h.53v.75h.78v.45h-.78v1.69c0,.36.16.42.38.42a1.13,1.13,0,0,0,.39-.07l.08.42a1.63,1.63,0,0,1-.55.1c-.56,0-.82-.28-.82-.87Z"/><path class="cls-10" d="M38.81,45.32v.57h-.56v-.57Zm0,1.06v3h-.53v-3Z"/><path class="cls-10" d="M42.15,47.68V48a1.32,1.32,0,1,1-2.64,0v-.36a1.32,1.32,0,1,1,2.64,0Zm-.53.32v-.28c0-.63-.32-.93-.79-.93s-.79.3-.79.93V48c0,.63.32.93.79.93S41.62,48.63,41.62,48Z"/><path class="cls-10" d="M45.29,49.35h-.53V47.51c0-.5-.21-.71-.64-.71a.72.72,0,0,0-.75.72v1.84h-.53v-3h.51v.37h0a1,1,0,0,1,.89-.43,1,1,0,0,1,1,1.06Z"/><path class="cls-10" d="M48.38,50H45.67v-.35h2.71Z"/><path class="cls-10" d="M49.36,45.32v.57H48.8v-.57Zm0,1.06v3h-.53v-3Z"/><path class="cls-10" d="M52.08,49a.92.92,0,0,1-.86.41c-.75,0-1.15-.46-1.15-1.26V47.6a1.15,1.15,0,0,1,1.18-1.27,1,1,0,0,1,.83.36V45.25h.53v4.1h-.5V49Zm0-1.56a.73.73,0,0,0-.78-.63c-.44,0-.71.33-.71.89V48c0,.56.27.89.71.89a.74.74,0,0,0,.78-.75Z"/><path class="cls-10" d="M20.62,61.85h-.53V60c0-.5-.21-.71-.64-.71a.72.72,0,0,0-.75.72v1.84h-.53v-3h.51v.37h0a1,1,0,0,1,.89-.43,1,1,0,0,1,1,1.06Z"/><path class="cls-10" d="M21.27,61.06v-.15c0-.5.32-.86,1.08-.86h.75v-.17c0-.4-.18-.59-.61-.59a1.45,1.45,0,0,0-.85.3l-.26-.39a1.88,1.88,0,0,1,1.12-.37c.66,0,1.13.35,1.13.94v2.08h-.5V61.5h0a.69.69,0,0,1-.28.27,1.15,1.15,0,0,1-.59.14C21.65,61.9,21.27,61.58,21.27,61.06Zm1.83-.56h-.74c-.41,0-.57.17-.57.45V61c0,.29.23.41.51.41a.91.91,0,0,0,.6-.18.51.51,0,0,0,.2-.46Z"/><path class="cls-10" d="M28.48,61.85H28V60.08c0-.51-.18-.76-.56-.76a.66.66,0,0,0-.69.69v1.85h-.53V60.08c0-.51-.18-.76-.56-.76a.65.65,0,0,0-.69.67v1.88h-.53v-3h.52v.4h0a.81.81,0,0,1,.79-.46.89.89,0,0,1,.85.49,1,1,0,0,1,.92-.49.94.94,0,0,1,1,1.07Z"/><path class="cls-10" d="M31.58,61.57a1.92,1.92,0,0,1-1.14.33,1.22,1.22,0,0,1-1.3-1.37V60.2a1.22,1.22,0,0,1,1.27-1.36,1.18,1.18,0,0,1,1.24,1.33v.4h-2v0a.77.77,0,0,0,.8.86,1.55,1.55,0,0,0,.9-.27Zm-1.92-1.52v.08h1.49V60a.69.69,0,0,0-.73-.75A.73.73,0,0,0,29.65,60.05Z"/><path class="cls-10" d="M18.68,71.76a1,1,0,0,1,.87-.42A1.11,1.11,0,0,1,20.7,72.6v.53a1.14,1.14,0,0,1-1.19,1.27A1,1,0,0,1,18.7,74v1.49h-.53V71.39h.51Zm0,1.54a.74.74,0,0,0,.78.64c.44,0,.71-.33.71-.89v-.36c0-.56-.27-.89-.71-.89a.74.74,0,0,0-.78.75Z"/><path class="cls-10" d="M23.79,74.32c0,.83-.45,1.25-1.32,1.25a1.6,1.6,0,0,1-1-.31l.24-.41a1.3,1.3,0,0,0,.76.25.68.68,0,0,0,.78-.77V74a.93.93,0,0,1-.85.39c-.75,0-1.15-.46-1.15-1.26v-.47a1.15,1.15,0,0,1,1.18-1.27,1,1,0,0,1,.83.36v-.31h.53Zm-.52-1.89a.73.73,0,0,0-.78-.63c-.44,0-.71.33-.71.89V73c0,.56.27.89.71.89a.74.74,0,0,0,.78-.75Z"/><path class="cls-10" d="M18.73,82.84v.57h-.56v-.57Zm0,1.06v3h-.53v-3Z"/><path class="cls-10" d="M19.76,84.35h-.49V83.9h.49v-.75h.53v.75h.78v.45h-.78V86c0,.36.16.42.38.42a1.13,1.13,0,0,0,.39-.07l.08.42a1.63,1.63,0,0,1-.55.1c-.56,0-.82-.28-.82-.87Z"/><path class="cls-10" d="M24,86.58a1.92,1.92,0,0,1-1.14.33,1.22,1.22,0,0,1-1.3-1.37v-.34a1.22,1.22,0,0,1,1.27-1.36A1.18,1.18,0,0,1,24,85.17v.4h-2v0a.77.77,0,0,0,.8.86,1.55,1.55,0,0,0,.9-.27Zm-1.92-1.52v.08h1.49V85a.69.69,0,0,0-.73-.75A.73.73,0,0,0,22.05,85.07Z"/><path class="cls-10" d="M28.8,86.87h-.53V85.09c0-.51-.18-.76-.56-.76A.66.66,0,0,0,27,85v1.85H26.5V85.09c0-.51-.18-.76-.56-.76a.65.65,0,0,0-.69.67v1.88h-.53v-3h.52v.4h0a.81.81,0,0,1,.79-.46.89.89,0,0,1,.85.49,1,1,0,0,1,.92-.49.94.94,0,0,1,1,1.07Z"/><path class="cls-10" d="M31.14,86.07v0c0-.25-.12-.33-.68-.44s-1-.35-1-.87v-.07c0-.41.34-.8,1.11-.8a1.79,1.79,0,0,1,1.05.29l-.23.4a1.33,1.33,0,0,0-.78-.24c-.44,0-.62.15-.62.36v0c0,.23.18.32.64.41.72.14,1.06.35,1.06.9v.07c0,.47-.44.83-1.13.83a2,2,0,0,1-1.19-.36l.24-.41a1.64,1.64,0,0,0,.93.31C30.91,86.45,31.14,86.31,31.14,86.07Z"/><path class="cls-10" d="M29.57,107.85v.57H29v-.57Zm0,1.06v3H29v-3Z"/><path class="cls-10" d="M30.6,109.36h-.49v-.45h.49v-.75h.53v.75h.78v.45h-.78V111c0,.36.16.42.38.42a1.13,1.13,0,0,0,.39-.07l.08.42a1.63,1.63,0,0,1-.55.1c-.56,0-.82-.28-.82-.87Z"/><path class="cls-10" d="M34.82,111.6a1.92,1.92,0,0,1-1.14.33,1.22,1.22,0,0,1-1.3-1.37v-.34a1.22,1.22,0,0,1,1.27-1.36,1.18,1.18,0,0,1,1.24,1.33v.4h-2v0a.77.77,0,0,0,.8.86,1.55,1.55,0,0,0,.9-.27Zm-1.92-1.52v.08h1.49v-.1a.69.69,0,0,0-.73-.75A.73.73,0,0,0,32.89,110.08Z"/><path class="cls-10" d="M39.64,111.88h-.53V110.1c0-.51-.18-.76-.56-.76a.66.66,0,0,0-.69.69v1.85h-.53V110.1c0-.51-.18-.76-.56-.76a.65.65,0,0,0-.69.67v1.88h-.53v-3h.52v.4h0a.81.81,0,0,1,.79-.46.89.89,0,0,1,.85.49,1,1,0,0,1,.92-.49.94.94,0,0,1,1,1.07Z"/><path class="cls-10" d="M42.73,112.49H40v-.35h2.71Z"/><path class="cls-10" d="M45.59,111.88h-.53V110c0-.5-.21-.71-.64-.71a.72.72,0,0,0-.75.72v1.84h-.53v-3h.51v.37h0a1,1,0,0,1,.89-.43,1,1,0,0,1,1,1.06Z"/><path class="cls-10" d="M46.24,111.09v-.15c0-.5.32-.86,1.08-.86h.75v-.17c0-.4-.18-.59-.61-.59a1.45,1.45,0,0,0-.85.3l-.26-.39a1.88,1.88,0,0,1,1.12-.37c.66,0,1.13.35,1.13.94v2.08h-.5v-.36h0a.69.69,0,0,1-.28.27,1.15,1.15,0,0,1-.59.14C46.62,111.92,46.24,111.61,46.24,111.09Zm1.83-.56h-.74c-.41,0-.57.17-.57.45v.08c0,.29.23.41.51.41a.91.91,0,0,0,.6-.18.51.51,0,0,0,.2-.46Z"/><path class="cls-10" d="M53.46,111.88h-.53V110.1c0-.51-.18-.76-.56-.76a.66.66,0,0,0-.69.69v1.85h-.53V110.1c0-.51-.18-.76-.56-.76a.65.65,0,0,0-.69.67v1.88h-.53v-3h.52v.4h0a.81.81,0,0,1,.79-.46.89.89,0,0,1,.85.49,1,1,0,0,1,.92-.49.94.94,0,0,1,1,1.07Z"/><path class="cls-10" d="M56.55,111.6a1.92,1.92,0,0,1-1.14.33,1.22,1.22,0,0,1-1.3-1.37v-.34a1.22,1.22,0,0,1,1.27-1.36,1.18,1.18,0,0,1,1.24,1.33v.4h-2v0a.77.77,0,0,0,.8.86,1.55,1.55,0,0,0,.9-.27Zm-1.92-1.52v.08h1.48v-.1a.69.69,0,0,0-.73-.75A.73.73,0,0,0,54.63,110.08Z"/><path class="cls-10" d="M30.87,125.54V124a.93.93,0,0,1-.85.39c-.75,0-1.15-.46-1.15-1.26v-.53A1.15,1.15,0,0,1,30,121.36a1,1,0,0,1,.83.36v-.31h.53v4.12Zm0-3.09a.73.73,0,0,0-.78-.63c-.44,0-.71.33-.71.89v.36c0,.56.27.89.71.89a.74.74,0,0,0,.78-.75Z"/><path class="cls-10" d="M32.43,121.87h-.49v-.45h.49v-.75H33v.75h.78v.45H33v1.69c0,.36.16.42.38.42a1.13,1.13,0,0,0,.39-.07l.08.42a1.63,1.63,0,0,1-.55.1c-.56,0-.82-.28-.82-.87Z"/><path class="cls-10" d="M35.4,123.79l.78-2.37h.55l-1.54,4.19-.48-.17.38-1-1.08-3h.57l.79,2.37Z"/><path class="cls-10" d="M29,133.92h.53v1.84c0,.5.2.71.63.71a.71.71,0,0,0,.74-.72v-1.84h.53v3h-.51v-.37h0a1.06,1.06,0,0,1-1.91-.63Z"/><path class="cls-10" d="M34.68,136.89h-.53V135c0-.5-.21-.71-.64-.71a.72.72,0,0,0-.75.72v1.84h-.53v-3h.51v.37h0a1,1,0,0,1,.89-.43,1,1,0,0,1,1,1.06Z"/><path class="cls-10" d="M36,132.86v.57h-.56v-.57Zm0,1.06v3H35.5v-3Z"/><path class="cls-10" d="M38.74,138v-1.51a.93.93,0,0,1-.85.39c-.75,0-1.15-.46-1.15-1.26v-.53a1.15,1.15,0,0,1,1.18-1.27,1,1,0,0,1,.83.36v-.31h.53V138Zm0-3.09a.73.73,0,0,0-.78-.63c-.44,0-.71.33-.71.89v.36c0,.56.27.89.71.89a.74.74,0,0,0,.78-.75Z"/><path class="cls-10" d="M40.07,133.92h.53v1.84c0,.5.2.71.63.71a.71.71,0,0,0,.74-.72v-1.84h.53v3H42v-.37h0a1.06,1.06,0,0,1-1.91-.63Z"/><path class="cls-10" d="M45.63,136.61a1.92,1.92,0,0,1-1.14.33,1.22,1.22,0,0,1-1.3-1.37v-.34a1.22,1.22,0,0,1,1.27-1.36,1.18,1.18,0,0,1,1.24,1.33v.4h-2v0a.77.77,0,0,0,.8.86,1.55,1.55,0,0,0,.9-.27Zm-1.92-1.52v.08h1.48v-.1a.69.69,0,0,0-.73-.75A.73.73,0,0,0,43.71,135.09Z"/><path class="cls-10" d="M29.52,146.8a1,1,0,0,1,.87-.42,1.11,1.11,0,0,1,1.15,1.26v.53a1.14,1.14,0,0,1-1.19,1.27,1,1,0,0,1-.82-.37v1.49H29v-4.12h.51Zm0,1.54a.74.74,0,0,0,.78.64c.44,0,.71-.33.71-.89v-.36c0-.56-.27-.89-.71-.89a.74.74,0,0,0-.78.75Z"/><path class="cls-10" d="M33.86,146.94a.92.92,0,0,0-.36-.07.75.75,0,0,0-.73.79v1.73h-.53v-3h.51v.47h0a.91.91,0,0,1,.87-.53,1.27,1.27,0,0,1,.38.06Z"/><path class="cls-10" d="M35.06,145.37v.57H34.5v-.57Zm0,1.06v3h-.53v-3Z"/><path class="cls-10" d="M38.06,146.7l-.25.4a1.18,1.18,0,0,0-.77-.25c-.39,0-.75.25-.75.86v.37c0,.64.37.89.76.89a1.28,1.28,0,0,0,.83-.27l.25.4a1.65,1.65,0,0,1-1.09.34,1.21,1.21,0,0,1-1.28-1.35v-.37A1.21,1.21,0,0,1,37,146.38,1.57,1.57,0,0,1,38.06,146.7Z"/><path class="cls-10" d="M41,149.11a1.92,1.92,0,0,1-1.14.33,1.22,1.22,0,0,1-1.3-1.37v-.34a1.22,1.22,0,0,1,1.27-1.36A1.18,1.18,0,0,1,41,147.7v.4H39v0a.77.77,0,0,0,.8.86,1.55,1.55,0,0,0,.9-.27ZM39,147.6v.08h1.49v-.1a.69.69,0,0,0-.73-.75A.73.73,0,0,0,39,147.6Z"/></g></g><polygon class="cls-12" points="104.22 54.09 108.3 54.09 106.26 56.72 104.22 54.09"/><path class="cls-12" d="M81.77,28.41A25,25,0,0,0,57.26,48.46h.83a24.19,24.19,0,0,1,47.87,5c0,.67,0,1.33-.09,2h.82c.05-.66.09-1.32.09-2A25,25,0,0,0,81.77,28.41Z"/><path class="cls-12" d="M97.75,71.87v-.32a24.16,24.16,0,0,1-39.37-12h-.84A25,25,0,0,0,98.62,71.87Z"/><polygon class="cls-12" points="60.3 60.34 56.32 61.21 57.75 58.21 60.3 60.34"/><path class="cls-6" d="M79.19,55.95l-.56,0a4.58,4.58,0,0,1-2.59-1,5.18,5.18,0,0,1-3,1H28.69a5.18,5.18,0,0,1-5.17-5.17V32.54a5.18,5.18,0,0,1,5.17-5.17H73a5.18,5.18,0,0,1,5.17,5.17v16.2c.09,3,1.78,5.39,3.87,5.5a.41.41,0,0,1,.25.71A4.65,4.65,0,0,1,79.19,55.95Z"/><path class="cls-5" d="M73,27.78a4.76,4.76,0,0,1,4.77,4.76v16.2c.09,3.21,1.94,5.78,4.25,5.91a4.3,4.3,0,0,1-2.83.9l-.52,0a4.07,4.07,0,0,1-2.61-1.11A4.74,4.74,0,0,1,73,55.51H28.69a4.76,4.76,0,0,1-4.76-4.76V32.54a4.76,4.76,0,0,1,4.76-4.76H73M73,27H28.69a5.59,5.59,0,0,0-5.58,5.58V50.75a5.59,5.59,0,0,0,5.58,5.58H73a5.58,5.58,0,0,0,3-.89,5.09,5.09,0,0,0,2.57.89l.6,0a5.05,5.05,0,0,0,3.38-1.11.82.82,0,0,0-.51-1.42c-1.87-.1-3.4-2.34-3.48-5.11V32.54A5.59,5.59,0,0,0,73,27Z"/><path class="cls-10" d="M32,42.66V40.9l10.6-7.39V35.9L34,41.82l8.53,5.58v2.42Z"/><path class="cls-10" d="M59.13,49.82V47.39l8.53-5.58L59.13,35.9V33.5l10.6,7.39v1.76Z"/><polygon class="cls-10" points="49.22 49.82 54.23 33.5 52.49 33.5 47.46 49.82 49.22 49.82"/><rect class="cls-6" x="88.22" y="58.51" width="71.33" height="122.15" rx="7.09" ry="7.09"/><path class="cls-5" d="M152.46,58.92a6.68,6.68,0,0,1,6.68,6.68v108a6.68,6.68,0,0,1-6.68,6.68H95.32a6.68,6.68,0,0,1-6.68-6.68V65.6a6.68,6.68,0,0,1,6.68-6.68h57.14m0-.82H95.32a7.51,7.51,0,0,0-7.5,7.5v108a7.51,7.51,0,0,0,7.5,7.5h57.14a7.51,7.51,0,0,0,7.5-7.5V65.6a7.51,7.51,0,0,0-7.5-7.5Z"/><path class="cls-13" d="M95.4,180.66a7.2,7.2,0,0,1-7.19-7.19V105.06a1.57,1.57,0,0,1,0-.2V74.36a7.07,7.07,0,0,1,7.06-7.06H152.5a7.07,7.07,0,0,1,7.06,7.06v34.87a1.39,1.39,0,0,1,0,.2v64a7.2,7.2,0,0,1-7.19,7.19Z"/><path class="cls-5" d="M152.5,67.71a6.65,6.65,0,0,1,6.65,6.65v34.87c0,.08,0,.16,0,.24v64a6.78,6.78,0,0,1-6.78,6.79H95.4a6.78,6.78,0,0,1-6.78-6.79V105.06c0-.08,0-.16,0-.24V74.36a6.65,6.65,0,0,1,6.65-6.65H152.5m0-.82H95.3a7.48,7.48,0,0,0-7.47,7.47v30.41a2.09,2.09,0,0,0,0,.28v68.41a7.61,7.61,0,0,0,7.6,7.6h56.94a7.61,7.61,0,0,0,7.6-7.6v-64a2.14,2.14,0,0,0,0-.28V74.36a7.48,7.48,0,0,0-7.47-7.47Z"/><rect class="cls-10" x="98.29" y="96.89" width="51.19" height="33.3" rx="2.25" ry="2.25"/><g class="cls-7"><circle class="cls-5" cx="137.05" cy="103.86" r="3.32"/></g><g class="cls-7"><circle class="cls-13" cx="141.65" cy="103.86" r="3.32"/></g><g class="cls-7"><path class="cls-13" d="M138.33,103.86a3.31,3.31,0,0,0,1,2.4,3.32,3.32,0,0,0,0-4.79A3.31,3.31,0,0,0,138.33,103.86Z"/></g><g class="cls-3"><g class="cls-14"><rect class="cls-13" x="102.16" y="114.34" width="28.51" height="3.85"/></g><g class="cls-14"><rect class="cls-13" x="102.16" y="122.43" width="28.51" height="3.85"/></g><g class="cls-14"><rect class="cls-13" x="133.72" y="122.28" width="5.15" height="3.85"/></g><g class="cls-14"><rect class="cls-13" x="141.05" y="122.28" width="5.15" height="3.85"/></g></g><polygon class="cls-13" points="104.69 116.79 104.61 116.72 105.48 115.74 105.56 115.81 104.69 116.79"/><polygon class="cls-13" points="105.48 116.79 104.61 115.81 104.69 115.74 105.56 116.72 105.48 116.79"/><polygon class="cls-13" points="105.91 116.79 105.83 116.72 106.7 115.74 106.78 115.81 105.91 116.79"/><polygon class="cls-13" points="106.7 116.79 105.83 115.81 105.91 115.74 106.78 116.72 106.7 116.79"/><polygon class="cls-13" points="107.13 116.79 107.05 116.72 107.92 115.74 107.99 115.81 107.13 116.79"/><polygon class="cls-13" points="107.92 116.79 107.05 115.81 107.13 115.74 107.99 116.72 107.92 116.79"/><polygon class="cls-13" points="108.34 116.79 108.27 116.72 109.14 115.74 109.21 115.81 108.34 116.79"/><polygon class="cls-13" points="109.14 116.79 108.27 115.81 108.34 115.74 109.21 116.72 109.14 116.79"/><polygon class="cls-13" points="111.02 116.79 110.95 116.72 111.81 115.74 111.89 115.81 111.02 116.79"/><polygon class="cls-13" points="111.81 116.79 110.95 115.81 111.02 115.74 111.89 116.72 111.81 116.79"/><polygon class="cls-13" points="112.24 116.79 112.16 116.72 113.03 115.74 113.11 115.81 112.24 116.79"/><polygon class="cls-13" points="113.03 116.79 112.16 115.81 112.24 115.74 113.11 116.72 113.03 116.79"/><polygon class="cls-13" points="113.46 116.79 113.38 116.72 114.25 115.74 114.33 115.81 113.46 116.79"/><polygon class="cls-13" points="114.25 116.79 113.38 115.81 113.46 115.74 114.33 116.72 114.25 116.79"/><polygon class="cls-13" points="114.68 116.79 114.6 116.72 115.47 115.74 115.55 115.81 114.68 116.79"/><polygon class="cls-13" points="115.47 116.79 114.6 115.81 114.68 115.74 115.55 116.72 115.47 116.79"/><polygon class="cls-13" points="117.36 116.79 117.28 116.72 118.14 115.74 118.22 115.81 117.36 116.79"/><polygon class="cls-13" points="118.14 116.79 117.28 115.81 117.36 115.74 118.22 116.72 118.14 116.79"/><polygon class="cls-13" points="118.57 116.79 118.5 116.72 119.36 115.74 119.44 115.81 118.57 116.79"/><polygon class="cls-13" points="119.36 116.79 118.5 115.81 118.57 115.74 119.44 116.72 119.36 116.79"/><polygon class="cls-13" points="119.79 116.79 119.71 116.72 120.58 115.74 120.66 115.81 119.79 116.79"/><polygon class="cls-13" points="120.58 116.79 119.71 115.81 119.79 115.74 120.66 116.72 120.58 116.79"/><polygon class="cls-13" points="121.01 116.79 120.93 116.72 121.8 115.74 121.88 115.81 121.01 116.79"/><polygon class="cls-13" points="121.8 116.79 120.93 115.81 121.01 115.74 121.88 116.72 121.8 116.79"/><polygon class="cls-13" points="123.69 116.79 123.61 116.72 124.48 115.74 124.55 115.81 123.69 116.79"/><polygon class="cls-13" points="124.48 116.79 123.61 115.81 123.69 115.74 124.55 116.72 124.48 116.79"/><polygon class="cls-13" points="124.91 116.79 124.83 116.72 125.69 115.74 125.77 115.81 124.91 116.79"/><polygon class="cls-13" points="125.69 116.79 124.83 115.81 124.91 115.74 125.77 116.72 125.69 116.79"/><polygon class="cls-13" points="126.12 116.79 126.05 116.72 126.91 115.74 126.99 115.81 126.12 116.79"/><polygon class="cls-13" points="126.91 116.79 126.05 115.81 126.12 115.74 126.99 116.72 126.91 116.79"/><polygon class="cls-13" points="127.34 116.79 127.26 116.72 128.13 115.74 128.21 115.81 127.34 116.79"/><polygon class="cls-13" points="128.13 116.79 127.26 115.81 127.34 115.74 128.21 116.72 128.13 116.79"/><polygon class="cls-13" points="135.33 124.73 135.25 124.67 136.12 123.68 136.2 123.75 135.33 124.73"/><polygon class="cls-13" points="136.12 124.73 135.25 123.75 135.33 123.68 136.2 124.67 136.12 124.73"/><polygon class="cls-13" points="136.55 124.73 136.47 124.67 137.34 123.68 137.41 123.75 136.55 124.73"/><polygon class="cls-13" points="137.34 124.73 136.47 123.75 136.55 123.68 137.41 124.67 137.34 124.73"/><polygon class="cls-13" points="142.62 124.73 142.54 124.67 143.41 123.68 143.48 123.75 142.62 124.73"/><polygon class="cls-13" points="143.41 124.73 142.54 123.75 142.62 123.68 143.48 124.67 143.41 124.73"/><polygon class="cls-13" points="143.84 124.73 143.76 124.67 144.63 123.68 144.7 123.75 143.84 124.73"/><polygon class="cls-13" points="144.63 124.73 143.76 123.75 143.84 123.68 144.7 124.67 144.63 124.73"/><circle class="cls-13" cx="105.19" cy="124.36" r="0.44"/><circle class="cls-13" cx="106.72" cy="124.36" r="0.44"/><circle class="cls-13" cx="108.25" cy="124.36" r="0.44"/><circle class="cls-13" cx="109.79" cy="124.36" r="0.44"/><circle class="cls-13" cx="111.32" cy="124.36" r="0.44"/><circle class="cls-13" cx="112.85" cy="124.36" r="0.44"/><circle class="cls-13" cx="115.66" cy="124.36" r="0.44"/><circle class="cls-13" cx="117.19" cy="124.36" r="0.44"/><circle class="cls-13" cx="118.72" cy="124.36" r="0.44"/><path class="cls-10" d="M114.77,85v1.86h.87v.34h-.87v1.3h-.34v-1.3h-2.87v-.34l2.82-4h.41l-2.83,4h2.48V85Z"/><path class="cls-10" d="M119.26,86.78a1.25,1.25,0,0,0-1.41-1.41,1.61,1.61,0,0,0-1.2.52h-.39l.18-3h2.81v.32h-2.5l-.13,2.38a1.86,1.86,0,0,1,1.27-.49,1.57,1.57,0,0,1,1.71,1.7v.15a1.64,1.64,0,0,1-1.85,1.66,2.85,2.85,0,0,1-1.8-.62l.2-.29a2.53,2.53,0,0,0,1.61.59,1.35,1.35,0,0,0,1.51-1.33Z"/><path class="cls-10" d="M120.07,87.94h.62v.67h-.62Z"/><path class="cls-10" d="M124.9,86.09c0,1.59-.52,2.47-1.85,2.47s-1.82-.89-1.82-2.47v-.88c0-1.58.53-2.46,1.82-2.46s1.85.88,1.85,2.46Zm-.34-.88c0-1.38-.41-2.14-1.52-2.14s-1.48.77-1.48,2.14v.89c0,1.39.41,2.15,1.48,2.15s1.52-.75,1.52-2.15Z"/><path class="cls-10" d="M129.12,86.09c0,1.59-.52,2.47-1.85,2.47s-1.82-.89-1.82-2.47v-.88c0-1.58.53-2.46,1.82-2.46s1.85.88,1.85,2.46Zm-.34-.88c0-1.38-.41-2.14-1.52-2.14s-1.48.77-1.48,2.14v.89c0,1.39.41,2.15,1.48,2.15s1.52-.75,1.52-2.15Z"/><path class="cls-10" d="M133.33,86.09c0,1.59-.52,2.47-1.85,2.47s-1.82-.89-1.82-2.47v-.88c0-1.58.53-2.46,1.82-2.46s1.85.88,1.85,2.46Zm-.34-.88c0-1.38-.41-2.14-1.52-2.14s-1.48.77-1.48,2.14v.89c0,1.39.41,2.15,1.48,2.15S133,87.5,133,86.1Z"/><path class="cls-10" d="M134.78,87.52v-.41h-.7v-.27c.68,0,1.14,0,1.82-.07l0,.26-.83.06v.42Zm-.52-1.31v-.1c0-.25.27-.49.7-.49s.7.23.7.49v.1c0,.25-.27.49-.7.49S134.26,86.46,134.26,86.21Zm.58,1.92h1.62v.26h-1.93v-.76h.31Zm.53-1.94v-.06c0-.12-.15-.24-.41-.24s-.41.12-.41.24v.06c0,.12.15.25.41.25S135.37,86.31,135.37,86.19Zm.73,1.59v-.25h-.6v-.26h.6v-1.7h.3v2.21Z"/><path class="cls-10" d="M118.47,76.83h-1.08v-.3h1.43V77c0,.58-.3.78-1.45,1.21l-.12-.29c1-.4,1.22-.55,1.22-.93Zm-.6,2.95v-.91h1.74v-.32h-1.75v-.3H120v.91h-1.74v.32h1.83v.3Zm1.74-1.7v-.37H119v-.3h.65v-.33H119v-.3h.6v-.39H120v1.7Z"/><path class="cls-10" d="M121.15,78.11a.87.87,0,0,1-.16.24c-.15.18-.33.38-.53.57l-.25-.25a5.46,5.46,0,0,0,.57-.61.87.87,0,0,0,.18-.58V77h-.58v-.3h1.47V77h-.54v.48a.86.86,0,0,0,.19.57,5.4,5.4,0,0,0,.53.58l-.25.24c-.19-.19-.35-.35-.49-.53a.85.85,0,0,1-.15-.24Zm1.06-1.66h.36v3.14h-.36V77.8h-.51v-.32h.51Zm1,3.31h-.36V76.38h.36Z"/><path class="cls-10" d="M123.84,76.52h2.23V77a4.22,4.22,0,0,1-.07.73h.54v.31h-3.1v-.31h2.19a3.5,3.5,0,0,0,.08-.74v-.2h-1.86Zm2.25,3.23h-2.21V78.47h2.21Zm-.36-1h-1.49v.67h1.49Z"/><path class="cls-10" d="M128.12,77.25v.15a.76.76,0,0,1-1.51,0v-.15a.76.76,0,0,1,1.51,0Zm-.34.12v-.1a.4.4,0,0,0-.41-.45.4.4,0,0,0-.41.45v.1a.41.41,0,1,0,.82,0Zm-.54,1.15h2.22v1.26h-.36v-1h-1.85Zm1.87-2.15h.35v2h-.35v-.87h-.34v.86h-.34V76.42h.34v.75h.34Z"/><rect class="cls-15" x="122.35" y="135.34" width="3.03" height="0.56"/><rect class="cls-15" x="118.05" y="135.34" width="3.03" height="0.56"/><rect class="cls-15" x="126.65" y="135.34" width="3.03" height="0.56"/><g class="cls-14"><path class="cls-15" d="M119.71,147.41a33.21,33.21,0,0,0,.16,3.42,5.65,5.65,0,0,0,4.23,4.4,6.07,6.07,0,0,0,3.56-2.63,4.8,4.8,0,0,0,.66-1.76,33.18,33.18,0,0,0,.16-3.43l-4.38-2.24Z"/><path class="cls-15" d="M124.09,144.52,119,147a37.72,37.72,0,0,0,.18,3.86s.39,3.63,4.89,5c4.49-1.32,4.89-5,4.89-5a37.72,37.72,0,0,0,.18-3.86Zm4.59,2.83a34.28,34.28,0,0,1-.16,3.52,5.86,5.86,0,0,1-4.4,4.57h-.06a6.28,6.28,0,0,1-3.72-2.74,4.92,4.92,0,0,1-.69-1.84,34.37,34.37,0,0,1-.16-3.51v-.06l4.59-2.35,4.59,2.35Z"/></g><polygon class="cls-10" points="123.03 152.27 121.36 150.6 121.84 150.12 123 151.27 126.27 147.57 126.78 148.03 123.03 152.27"/><rect class="cls-10" x="110.14" y="167.72" width="4.71" height="0.43"/><rect class="cls-10" x="117.74" y="167.72" width="4.71" height="0.43"/><rect class="cls-10" x="125.33" y="167.72" width="4.71" height="0.43"/><rect class="cls-10" x="132.92" y="167.72" width="4.71" height="0.43"/><path class="cls-10" d="M113.76,163.91a.21.21,0,0,1-.07.17.26.26,0,0,1-.17.05l-.34-.07a4.46,4.46,0,0,0-.6-.11,3.4,3.4,0,0,0,.27.33l.21.22.13.16a.26.26,0,0,1,0,.15.19.19,0,0,1-.08.15.25.25,0,0,1-.16.06.19.19,0,0,1-.11,0,.27.27,0,0,1-.09-.09,1.28,1.28,0,0,1-.1-.3,4.21,4.21,0,0,0-.22-.6,5.84,5.84,0,0,0-.21.6,1.33,1.33,0,0,1-.1.29.37.37,0,0,1-.08.1.18.18,0,0,1-.11,0,.25.25,0,0,1-.16-.06.19.19,0,0,1-.07-.15.25.25,0,0,1,0-.14l.14-.17.21-.23a3.48,3.48,0,0,0,.26-.32,3.7,3.7,0,0,0-.58.1,1.82,1.82,0,0,1-.35.07.27.27,0,0,1-.17-.05.21.21,0,0,1-.07-.17.21.21,0,0,1,.07-.17.25.25,0,0,1,.17-.06,1.5,1.5,0,0,1,.34.07,3.56,3.56,0,0,0,.6.1,4.09,4.09,0,0,0-.26-.32l-.21-.23-.14-.16a.26.26,0,0,1,0-.15.19.19,0,0,1,.08-.15.25.25,0,0,1,.16-.06.19.19,0,0,1,.11,0,.29.29,0,0,1,.09.1,1.78,1.78,0,0,1,.12.34,3.94,3.94,0,0,0,.2.55,4,4,0,0,0,.21-.57,1.76,1.76,0,0,1,.11-.33.28.28,0,0,1,.08-.09.19.19,0,0,1,.11,0,.25.25,0,0,1,.16.06.19.19,0,0,1,.07.15.48.48,0,0,1-.18.31,6.65,6.65,0,0,0-.48.56,4.3,4.3,0,0,0,.6-.1,1.73,1.73,0,0,1,.34-.07.25.25,0,0,1,.17.06A.21.21,0,0,1,113.76,163.91Z"/><path class="cls-10" d="M121.36,163.91a.21.21,0,0,1-.07.17.26.26,0,0,1-.17.05l-.34-.07a4.46,4.46,0,0,0-.6-.11,3.4,3.4,0,0,0,.27.33l.21.22.13.16a.26.26,0,0,1,0,.15.19.19,0,0,1-.08.15.25.25,0,0,1-.16.06.19.19,0,0,1-.11,0,.27.27,0,0,1-.09-.09,1.28,1.28,0,0,1-.1-.3,4.21,4.21,0,0,0-.22-.6,5.84,5.84,0,0,0-.21.6,1.33,1.33,0,0,1-.1.29.37.37,0,0,1-.08.1.18.18,0,0,1-.11,0,.25.25,0,0,1-.16-.06.19.19,0,0,1-.07-.15.25.25,0,0,1,0-.14l.14-.17.21-.23A3.48,3.48,0,0,0,120,164a3.7,3.7,0,0,0-.58.1,1.82,1.82,0,0,1-.35.07.27.27,0,0,1-.17-.05.21.21,0,0,1-.07-.17.21.21,0,0,1,.07-.17.25.25,0,0,1,.17-.06,1.5,1.5,0,0,1,.34.07,3.56,3.56,0,0,0,.6.1,4.09,4.09,0,0,0-.26-.32l-.21-.23-.14-.16a.26.26,0,0,1,0-.15.19.19,0,0,1,.08-.15.25.25,0,0,1,.16-.06.19.19,0,0,1,.11,0,.29.29,0,0,1,.09.1,1.78,1.78,0,0,1,.12.34,3.94,3.94,0,0,0,.2.55,4,4,0,0,0,.21-.57,1.76,1.76,0,0,1,.11-.33.28.28,0,0,1,.08-.09.19.19,0,0,1,.11,0,.25.25,0,0,1,.16.06.19.19,0,0,1,.07.15.48.48,0,0,1-.18.31,6.65,6.65,0,0,0-.48.56,4.3,4.3,0,0,0,.6-.1,1.73,1.73,0,0,1,.34-.07.25.25,0,0,1,.17.06A.21.21,0,0,1,121.36,163.91Z"/><path class="cls-10" d="M128.95,163.91a.21.21,0,0,1-.07.17.26.26,0,0,1-.17.05l-.34-.07a4.46,4.46,0,0,0-.6-.11,3.4,3.4,0,0,0,.27.33l.21.22.13.16a.26.26,0,0,1,0,.15.19.19,0,0,1-.08.15.25.25,0,0,1-.16.06.19.19,0,0,1-.11,0,.27.27,0,0,1-.09-.09,1.28,1.28,0,0,1-.1-.3,4.21,4.21,0,0,0-.22-.6,5.84,5.84,0,0,0-.21.6,1.33,1.33,0,0,1-.1.29.37.37,0,0,1-.08.1.18.18,0,0,1-.11,0A.25.25,0,0,1,127,165a.19.19,0,0,1-.07-.15.25.25,0,0,1,0-.14l.14-.17.21-.23a3.48,3.48,0,0,0,.26-.32,3.7,3.7,0,0,0-.58.1,1.82,1.82,0,0,1-.35.07.27.27,0,0,1-.17-.05.21.21,0,0,1-.07-.17.21.21,0,0,1,.07-.17.25.25,0,0,1,.17-.06,1.5,1.5,0,0,1,.34.07,3.56,3.56,0,0,0,.6.1,4.09,4.09,0,0,0-.26-.32l-.21-.23-.14-.16a.26.26,0,0,1,0-.15.19.19,0,0,1,.08-.15.25.25,0,0,1,.16-.06.19.19,0,0,1,.11,0,.29.29,0,0,1,.09.1,1.78,1.78,0,0,1,.12.34,3.94,3.94,0,0,0,.2.55,4,4,0,0,0,.21-.57,1.76,1.76,0,0,1,.11-.33.28.28,0,0,1,.08-.09.19.19,0,0,1,.11,0,.25.25,0,0,1,.16.06.19.19,0,0,1,.07.15.48.48,0,0,1-.18.31,6.65,6.65,0,0,0-.48.56,4.3,4.3,0,0,0,.6-.1,1.73,1.73,0,0,1,.34-.07.25.25,0,0,1,.17.06A.21.21,0,0,1,128.95,163.91Z"/><path class="cls-10" d="M136.54,163.91a.21.21,0,0,1-.07.17.26.26,0,0,1-.17.05l-.34-.07a4.46,4.46,0,0,0-.6-.11,3.4,3.4,0,0,0,.27.33l.21.22.13.16a.26.26,0,0,1,0,.15.19.19,0,0,1-.08.15.25.25,0,0,1-.16.06.19.19,0,0,1-.11,0,.27.27,0,0,1-.09-.09,1.28,1.28,0,0,1-.1-.3,4.21,4.21,0,0,0-.22-.6,5.84,5.84,0,0,0-.21.6,1.33,1.33,0,0,1-.1.29.37.37,0,0,1-.08.1.18.18,0,0,1-.11,0,.25.25,0,0,1-.16-.06.19.19,0,0,1-.07-.15.25.25,0,0,1,0-.14l.14-.17.21-.23a3.48,3.48,0,0,0,.26-.32,3.7,3.7,0,0,0-.58.1,1.82,1.82,0,0,1-.35.07.27.27,0,0,1-.17-.05.21.21,0,0,1-.07-.17.21.21,0,0,1,.07-.17.25.25,0,0,1,.17-.06,1.5,1.5,0,0,1,.34.07,3.56,3.56,0,0,0,.6.1,4.09,4.09,0,0,0-.26-.32l-.21-.23-.14-.16a.26.26,0,0,1,0-.15.19.19,0,0,1,.08-.15.25.25,0,0,1,.16-.06.19.19,0,0,1,.11,0,.29.29,0,0,1,.09.1,1.78,1.78,0,0,1,.12.34,3.94,3.94,0,0,0,.2.55,4,4,0,0,0,.21-.57,1.76,1.76,0,0,1,.11-.33.28.28,0,0,1,.08-.09.19.19,0,0,1,.11,0,.25.25,0,0,1,.16.06.19.19,0,0,1,.07.15.48.48,0,0,1-.18.31,6.65,6.65,0,0,0-.48.56,4.3,4.3,0,0,0,.6-.1,1.73,1.73,0,0,1,.34-.07.25.25,0,0,1,.17.06A.21.21,0,0,1,136.54,163.91Z"/><g class="cls-16"><rect class="cls-13" x="102.16" y="101.28" width="5.15" height="5.15" rx="1.16" ry="1.16"/></g><rect class="cls-5" x="120.73" y="63.77" width="6.98" height="0.81"/><circle class="cls-5" cx="119.17" cy="64.18" r="0.53"/></g></g></svg>