<?xml version="1.0" encoding="UTF-8"?>
<svg width="397px" height="655px" viewBox="0 0 397 655" version="1.1" xmlns="http://www.w3.org/2000/svg" xmlns:xlink="http://www.w3.org/1999/xlink">
    <!-- Generator: Sketch 43.2 (39069) - http://www.bohemiancoding.com/sketch -->
    <title>Group</title>
    <desc>Created with Sketch.</desc>
    <defs>
        <path d="M394.33,10 L394.33,642.000821 C394.33,647.528738 389.850582,652.01 384.335651,652.01 L9.99434878,652.01 C4.47462236,652.01 0,647.529141 0,642.000821 L0,10 C7.10542736e-15,4.4771525 4.4771525,0 10,0 L384.33,0 C389.852847,0 394.33,4.4771525 394.33,10 Z" id="path-1"></path>
        <rect id="path-3" x="21.9444444" y="277.597222" width="351.111111" height="295.152778" rx="24"></rect>
    </defs>
    <g id="Page-1" stroke="none" stroke-width="1" fill="none" fill-rule="evenodd">
        <g id="Group" transform="translate(1.000000, 1.000000)">
            <mask id="mask-2" fill="white">
                <use xlink:href="#path-1"></use>
            </mask>
            <use id="Mask" stroke="#E6EAEE" stroke-width="2" fill="#F7F9FC" fill-rule="nonzero" xlink:href="#path-1"></use>
            <g mask="url(#mask-2)">
                <rect id="Rectangle-2" fill="#F2F2F2" x="0" y="0" width="395" height="702.222222"></rect>
                <g id="Rectangle">
                    <use fill="#FFFFFF" fill-rule="evenodd" xlink:href="#path-3"></use>
                    <rect stroke="#D8D9E2" stroke-width="2" x="22.9444444" y="278.597222" width="349.111111" height="293.152778" rx="24"></rect>
                </g>
                <path d="M152.243634,549.021128 L151.111304,549.021128 L151.111304,537 L152.243634,537 L152.243634,549.021128 Z M148.978311,537.131666 L150.110641,537.131666 L150.110641,548.718296 L148.978311,548.718296 L148.978311,542.18765 L147.516816,542.18765 L147.516816,541.25282 L148.978311,541.25282 L148.978311,537.131666 Z M142.157999,538.98816 L142.157999,538.040163 L147.701148,538.040163 L147.701148,538.98816 L142.157999,538.98816 Z M143.09283,544.755142 L143.000663,539.475325 L144.06716,539.475325 L144.159326,544.755142 L145.660322,544.755142 L145.726155,539.475325 L146.792651,539.475325 L146.726818,544.702475 C147.26665,544.649809 147.793315,544.570809 148.24098,544.452309 L148.24098,545.38714 C147.385149,545.663639 146.318653,545.716305 145.252156,545.716305 L142,545.716305 L142,544.755142 L143.09283,544.755142 Z M162.658434,537 L163.790763,537 L163.790763,549.021128 L162.658434,549.021128 L162.658434,537 Z M160.380608,541.990151 C160.380608,544.807808 159.024445,546.295637 157.299618,546.295637 C155.587956,546.295637 154.205461,544.807808 154.205461,541.990151 C154.205461,539.172493 155.587956,537.697831 157.299618,537.697831 C159.024445,537.697831 160.380608,539.172493 160.380608,541.990151 Z M159.235111,541.990151 C159.235111,540.028324 158.524114,538.698495 157.299618,538.698495 C156.075122,538.698495 155.364124,540.028324 155.364124,541.990151 C155.364124,543.951978 156.075122,545.294973 157.299618,545.294973 C158.524114,545.294973 159.235111,543.951978 159.235111,541.990151 Z M174.271397,544.820975 L173.178567,544.820975 C173.415566,543.912478 173.573565,542.872315 173.692065,541.818985 C172.665068,541.990151 171.466906,542.042817 170.150243,542.042817 L167.016586,542.042817 L167.016586,541.081654 L170.387242,541.081654 C171.651238,541.081654 172.796735,541.028987 173.771065,540.910487 C173.810565,540.265323 173.850065,539.633325 173.863231,539.014494 L167.187753,539.014494 L167.187753,538.040163 L174.982394,538.040163 C174.956061,540.146823 174.692729,542.924981 174.271397,544.820975 Z M170.729575,543.109314 L170.729575,546.269304 L176.720389,546.269304 L176.720389,547.230467 L165.528758,547.230467 L165.528758,546.269304 L169.570912,546.269304 L169.570912,543.109314 L170.729575,543.109314 Z" id="페이코" fill="#19243B"></path>
                <g id="페이코" transform="translate(134.000000, 486.000000)">
                    <g id="자산-7">
                        <rect id="Rectangle-path" x="0" y="0" width="48" height="48"></rect>
                        <path d="M33.75,40.5 L14.25,40.5 C10.5220779,40.5 7.5,37.4779221 7.5,33.75 L7.5,14.25 C7.5,10.5220779 10.5220779,7.5 14.25,7.5 L33.75,7.5 C37.4779221,7.5 40.5,10.5220779 40.5,14.25 L40.5,33.75 C40.5,37.4779221 37.4779221,40.5 33.75,40.5 Z M14.25,10.5 C12.1789322,10.5 10.5,12.1789322 10.5,14.25 L10.5,33.75 C10.5,35.8210678 12.1789322,37.5 14.25,37.5 L33.75,37.5 C35.8210678,37.5 37.5,35.8210678 37.5,33.75 L37.5,14.25 C37.5,12.1789322 35.8210678,10.5 33.75,10.5 L14.25,10.5 Z" id="Shape" fill="#2F374D" fill-rule="nonzero"></path>
                        <path d="M14.25,10.5 C12.1789322,10.5 10.5,12.1789322 10.5,14.25 L10.5,33.75 C10.5,35.8210678 12.1789322,37.5 14.25,37.5 L33.75,37.5 C35.8210678,37.5 37.5,35.8210678 37.5,33.75 L37.5,14.25 C37.5,12.1789322 35.8210678,10.5 33.75,10.5 L14.25,10.5 Z" id="Path" fill="#E7322D"></path>
                        <path d="M18.7500355,18.0628096 C18.7473181,17.6475085 18.9110945,17.2484294 19.204763,16.9547608 C19.4984316,16.6610923 19.8975107,16.4973159 20.3128119,16.5000333 L24.5589731,16.5000333 C27.9343,16.5000333 30,18.5252294 30,21.4145092 L30,21.4550131 C30,24.7425815 27.4415022,26.4504969 24.2619443,26.4504969 L21.8992155,26.4504969 L21.8992155,29.393782 C21.9019329,29.8090831 21.7381565,30.2081622 21.444488,30.5018308 C21.1508194,30.7954993 20.7517403,30.9592757 20.3364391,30.9565583 C19.9170716,30.9656867 19.5118534,30.8047454 19.2130286,30.5103712 C18.9142038,30.215997 18.7472005,29.8132392 18.7500355,29.393782 L18.7500355,18.0628096 Z M24.3530781,23.6658522 C25.9158545,23.6658522 26.8305681,22.7308867 26.8305681,21.515769 L26.8305681,21.4752651 C26.8305681,20.0745044 25.8550986,19.3218066 24.2923222,19.3218066 L21.8789635,19.3218066 L21.8789635,23.6692276 L24.3530781,23.6658522 Z" id="Shape" fill="#FFFFFF" fill-rule="nonzero"></path>
                    </g>
                </g>
                <path d="M60.6632222,303.457653 L60.6632222,300.790306 L62.9761667,300.790306 L62.9761667,309.389236 L60.6632222,309.389236 L60.6632222,308.046236 L57.7906944,308.046236 L57.7906944,306.274222 L60.681875,306.274222 L60.681875,305.248319 L58.2570139,305.248319 L58.2570139,303.457653 L60.6632222,303.457653 Z M55.4217917,303.364389 C54.6197222,303.401694 53.1834583,303.401694 51.6912361,303.401694 L49.9938333,303.401694 L49.9938333,301.517764 L52.7357917,301.517764 C54.4145417,301.517764 56.0746389,301.517764 58.1450972,301.480458 C57.828,305.360236 55.0114306,308.400639 50.273625,309.81825 L49.0611944,308.102194 C52.79175,307.020333 54.9181667,305.434847 55.4217917,303.364389 Z M63.3119167,317.894903 L51.9337222,317.894903 L51.9337222,313.026528 L60.681875,313.026528 L60.681875,311.963319 L51.9337222,311.963319 L51.9337222,310.079389 L62.9761667,310.079389 L62.9761667,314.798542 L54.1907083,314.798542 L54.1907083,316.010972 L63.3119167,316.010972 L63.3119167,317.894903 Z M80.155375,318.081431 L77.973,318.081431 L77.973,300.790306 L80.155375,300.790306 L80.155375,318.081431 Z M72.6196528,306.815153 L74.5968472,306.815153 L74.5968472,300.976833 L76.7419167,300.976833 L76.7419167,317.652417 L74.5968472,317.652417 L74.5968472,312.373681 L73.1232778,313.809944 C71.9854583,312.802694 70.9968611,311.608917 70.2320972,310.247264 C69.3927222,311.646222 68.2735556,312.989222 66.89325,314.294917 L65.1958472,313.026528 C68.404125,310.265917 70.0455694,307.057639 70.2880556,304.203764 C69.4673333,304.241069 68.6652639,304.241069 67.8631944,304.241069 L66.2777083,304.241069 L66.2777083,302.282528 L68.6466111,302.282528 C69.9336528,302.282528 71.2206944,302.282528 72.5263889,302.245222 C72.5263889,304.315681 72.1160278,306.348833 71.2393472,308.344681 C72.0414167,309.911514 73.2725,311.16125 74.5968472,312.261764 L74.5968472,308.736389 L72.6196528,308.736389 L72.6196528,306.815153 Z M91.403,301.08875 C91.4589583,301.965431 91.2910833,302.786153 90.9553333,303.569569 C92.2237222,305.285625 94.6299306,306.367486 97.1480556,306.889764 L95.9729306,308.717736 C93.4548056,308.1395 91.2910833,306.983028 89.7429028,305.434847 C88.3439444,307.001681 86.198875,308.214111 83.8672778,308.848306 L82.6548472,307.057639 C86.6838472,305.994431 89.0340972,303.886667 88.9967917,301.08875 L91.403,301.08875 Z M81.8527778,311.926014 L81.8527778,310.004778 L97.8568611,310.004778 L97.8568611,311.926014 L91.1978194,311.926014 L91.1978194,317.988167 L88.8475694,317.988167 L88.8475694,311.926014 L81.8527778,311.926014 Z M99.3117778,301.666986 L107.649569,301.666986 L107.649569,303.606875 L101.643375,303.606875 L101.643375,308.531208 L103.340778,308.531208 C105.523153,308.531208 107.574958,308.176806 109.328319,307.897014 L109.328319,309.743639 C107.668222,310.154 105.112792,310.452444 102.8185,310.452444 L99.3117778,310.452444 L99.3117778,301.666986 Z M114.700319,307.281472 L112.107583,307.281472 L112.107583,313.623417 L109.813292,313.623417 L109.813292,300.808958 L112.107583,300.808958 L112.107583,305.304278 L114.700319,305.304278 L114.700319,307.281472 Z M112.461986,317.745681 L101.400889,317.745681 L101.400889,312.616167 L103.732486,312.616167 L103.732486,315.787139 L112.461986,315.787139 L112.461986,317.745681 Z M128.260889,306.367486 L128.260889,304.44625 L131.394556,304.44625 L131.394556,300.790306 L133.7075,300.790306 L133.7075,313.455542 L131.394556,313.455542 L131.394556,306.367486 L128.260889,306.367486 Z M120.706514,311.235861 L119.121028,309.799597 C122.590444,307.785097 124.008056,305.099097 123.784222,301.200667 L126.190431,301.200667 C126.209083,302.450403 126.078514,303.606875 125.798722,304.670083 C126.973847,306.852458 128.316847,308.064889 130.480569,309.258667 L129.062958,310.862806 C127.253639,309.892861 125.854681,308.624472 124.847431,307.113597 C123.896139,308.848306 122.497181,310.247264 120.706514,311.235861 Z M134.04325,317.745681 L122.888889,317.745681 L122.888889,312.261764 L125.220486,312.261764 L125.220486,315.787139 L134.04325,315.787139 L134.04325,317.745681 Z M150.737486,311.441042 L148.555111,311.441042 L148.555111,306.815153 L147.156153,306.815153 L147.156153,311.441042 L145.011083,311.441042 L145.011083,300.976833 L147.156153,300.976833 L147.156153,304.968528 L148.555111,304.968528 L148.555111,300.790306 L150.737486,300.790306 L150.737486,311.441042 Z M148.443194,318.118736 L148.443194,314.089736 L139.0795,314.089736 L139.0795,312.187153 L150.737486,312.187153 L150.737486,318.118736 L148.443194,318.118736 Z M137.046347,310.527056 L137.046347,301.666986 L143.350986,301.666986 L143.350986,303.457653 L139.359292,303.457653 L139.359292,305.192361 L143.220417,305.192361 L143.220417,306.908417 L139.359292,306.908417 L139.359292,308.736389 L139.862917,308.736389 C141.448403,308.736389 142.959278,308.587167 144.619375,308.176806 L144.619375,309.911514 C142.921972,310.377833 140.907472,310.527056 138.631833,310.527056 L137.046347,310.527056 Z" id="결제수단-선택" fill="#19243B"></path>
                <path d="M62.4846111,393.415611 C61.7077778,393.560444 60.7861111,393.613111 59.8776111,393.626278 L58.5082778,393.626278 L58.5082778,392.665111 L60.3252778,392.665111 C61.2469444,392.665111 62.0764444,392.625611 62.9059444,392.520278 C63.1561111,391.888278 63.3141111,391.229944 63.3667778,390.545278 C62.3002778,390.584778 61.2469444,390.584778 60.1936111,390.584778 L58.6531111,390.584778 L58.6531111,389.610444 L60.8651111,389.610444 C62.0896111,389.610444 63.3272778,389.610444 64.5649444,389.584111 C64.4464444,393.218111 62.8006111,395.890944 58.9296111,397.852778 L58.1527778,397.036444 C60.2462778,396.127944 61.6551111,394.863944 62.4846111,393.415611 Z M69.4234444,394.179278 L67.3562778,394.179278 L67.3562778,400.591444 L66.2239444,400.591444 L66.2239444,388.570278 L67.3562778,388.570278 L67.3562778,393.178611 L69.4234444,393.178611 L69.4234444,394.179278 Z M71.6091111,395.337944 L71.6091111,389.610444 L79.1141111,389.610444 L79.1141111,390.597944 L72.7546111,390.597944 L72.7546111,394.297778 L79.2326111,394.297778 L79.2326111,395.337944 L71.6091111,395.337944 Z M80.9179444,397.839611 L80.9179444,398.800778 L69.7262778,398.800778 L69.7262778,397.839611 L80.9179444,397.839611 Z M86.7902778,390.018611 C85.7501111,390.058111 84.7626111,390.058111 83.7092778,390.058111 L82.4979444,390.058111 L82.4979444,389.096944 L84.4861111,389.096944 C85.7106111,389.096944 86.8956111,389.096944 88.1332778,389.070611 C87.9357778,391.624944 85.8817778,393.771111 82.5769444,394.758611 L81.9449444,393.850111 C84.5256111,393.125944 86.2636111,391.888278 86.7902778,390.018611 Z M90.3452778,390.334611 L90.3452778,388.570278 L91.4776111,388.570278 L91.4776111,394.719111 L90.3452778,394.719111 L90.3452778,393.428778 L88.0674444,393.428778 L88.0674444,392.467611 L90.3584444,392.467611 L90.3584444,391.282611 L88.3966111,391.282611 L88.3966111,390.334611 L90.3452778,390.334611 Z M91.7409444,400.459778 L83.9199444,400.459778 L83.9199444,397.444611 L90.3584444,397.444611 L90.3584444,396.351778 L83.9199444,396.351778 L83.9199444,395.403778 L91.4776111,395.403778 L91.4776111,398.366278 L85.0391111,398.366278 L85.0391111,399.485444 L91.7409444,399.485444 L91.7409444,400.459778 Z M103.419778,400.591444 L102.287444,400.591444 L102.287444,388.570278 L103.419778,388.570278 L103.419778,400.591444 Z M99.9042778,388.701944 L100.997111,388.701944 L100.997111,400.288611 L99.9042778,400.288611 L99.9042778,393.771111 L98.2979444,393.771111 L98.2979444,392.809944 L99.9042778,392.809944 L99.9042778,388.701944 Z M96.8759444,390.545278 C96.1781111,390.597944 95.3354444,390.597944 94.5586111,390.597944 L93.7686111,390.597944 L93.7686111,389.636778 L95.2432778,389.636778 C96.1649444,389.636778 97.0734444,389.636778 98.1136111,389.610444 C98.0082778,390.992944 97.6922778,392.322778 97.1787778,393.560444 C97.7317778,394.732278 98.5744444,395.825111 99.5224444,396.615111 L98.6271111,397.378778 C97.8502778,396.641444 97.1524444,395.706611 96.6389444,394.679611 C95.9674444,395.877778 95.1116111,396.957444 94.0451111,397.839611 L93.1366111,397.168111 C95.3881111,395.364278 96.5731111,393.231278 96.8759444,390.545278 Z" id="카드결제" fill="#19243B"></path>
                <path d="M56.6122778,541.540611 C55.8354444,541.685444 54.9137778,541.738111 54.0052778,541.751278 L52.6359444,541.751278 L52.6359444,540.790111 L54.4529444,540.790111 C55.3746111,540.790111 56.2041111,540.750611 57.0336111,540.645278 C57.2837778,540.013278 57.4417778,539.354944 57.4944444,538.670278 C56.4279444,538.709778 55.3746111,538.709778 54.3212778,538.709778 L52.7807778,538.709778 L52.7807778,537.735444 L54.9927778,537.735444 C56.2172778,537.735444 57.4549444,537.735444 58.6926111,537.709111 C58.5741111,541.343111 56.9282778,544.015944 53.0572778,545.977778 L52.2804444,545.161444 C54.3739444,544.252944 55.7827778,542.988944 56.6122778,541.540611 Z M63.5511111,542.304278 L61.4839444,542.304278 L61.4839444,548.716444 L60.3516111,548.716444 L60.3516111,536.695278 L61.4839444,536.695278 L61.4839444,541.303611 L63.5511111,541.303611 L63.5511111,542.304278 Z M68.3569444,541.540611 C67.5801111,541.685444 66.6584444,541.738111 65.7499444,541.751278 L64.3806111,541.751278 L64.3806111,540.790111 L66.1976111,540.790111 C67.1192778,540.790111 67.9487778,540.750611 68.7782778,540.645278 C69.0284444,540.013278 69.1864444,539.354944 69.2391111,538.670278 C68.1726111,538.709778 67.1192778,538.709778 66.0659444,538.709778 L64.5254444,538.709778 L64.5254444,537.735444 L66.7374444,537.735444 C67.9619444,537.735444 69.1996111,537.735444 70.4372778,537.709111 C70.3187778,541.343111 68.6729444,544.015944 64.8019444,545.977778 L64.0251111,545.161444 C66.1186111,544.252944 67.5274444,542.988944 68.3569444,541.540611 Z M75.2957778,542.304278 L73.2286111,542.304278 L73.2286111,548.716444 L72.0962778,548.716444 L72.0962778,536.695278 L73.2286111,536.695278 L73.2286111,541.303611 L75.2957778,541.303611 L75.2957778,542.304278 Z M80.6019444,545.964611 L80.6019444,543.568278 C78.5084444,543.370778 77.2049444,542.093611 77.2049444,540.421444 C77.2049444,538.591278 78.7586111,537.248278 81.1944444,537.248278 C83.6302778,537.248278 85.1839444,538.591278 85.1839444,540.421444 C85.1839444,542.093611 83.8804444,543.370778 81.7869444,543.568278 L81.7869444,545.964611 L86.7902778,545.964611 L86.7902778,546.925778 L75.5986111,546.925778 L75.5986111,545.964611 L80.6019444,545.964611 Z M84.0252778,540.421444 C84.0252778,539.236444 83.0904444,538.235778 81.1944444,538.235778 C79.2984444,538.235778 78.3636111,539.236444 78.3636111,540.421444 C78.3636111,541.606444 79.2984444,542.633444 81.1944444,542.633444 C83.0904444,542.633444 84.0252778,541.606444 84.0252778,540.421444 Z M97.5474444,548.716444 L96.4151111,548.716444 L96.4151111,536.695278 L97.5474444,536.695278 L97.5474444,548.716444 Z M94.2821111,536.826944 L95.4144444,536.826944 L95.4144444,548.413611 L94.2821111,548.413611 L94.2821111,541.882944 L92.8206111,541.882944 L92.8206111,540.948111 L94.2821111,540.948111 L94.2821111,536.826944 Z M87.4617778,538.683444 L87.4617778,537.735444 L93.0049444,537.735444 L93.0049444,538.683444 L87.4617778,538.683444 Z M88.3966111,544.450444 L88.3044444,539.170611 L89.3709444,539.170611 L89.4631111,544.450444 L90.9641111,544.450444 L91.0299444,539.170611 L92.0964444,539.170611 L92.0306111,544.397778 C92.5704444,544.345111 93.0971111,544.266111 93.5447778,544.147611 L93.5447778,545.082444 C92.6889444,545.358944 91.6224444,545.411611 90.5559444,545.411611 L87.3037778,545.411611 L87.3037778,544.450444 L88.3966111,544.450444 Z M107.962278,536.695278 L109.094611,536.695278 L109.094611,548.716444 L107.962278,548.716444 L107.962278,536.695278 Z M105.684444,541.685444 C105.684444,544.503111 104.328278,545.990944 102.603444,545.990944 C100.891778,545.990944 99.5092778,544.503111 99.5092778,541.685444 C99.5092778,538.867778 100.891778,537.393111 102.603444,537.393111 C104.328278,537.393111 105.684444,538.867778 105.684444,541.685444 Z M104.538944,541.685444 C104.538944,539.723611 103.827944,538.393778 102.603444,538.393778 C101.378944,538.393778 100.667944,539.723611 100.667944,541.685444 C100.667944,543.647278 101.378944,544.990278 102.603444,544.990278 C103.827944,544.990278 104.538944,543.647278 104.538944,541.685444 Z" id="카카오페이" fill="#19243B"></path>
                <path d="M223.991333,400.591444 L222.859,400.591444 L222.859,388.570278 L223.991333,388.570278 L223.991333,400.591444 Z M220.541667,395.430111 L218.5535,395.430111 L218.5535,394.468944 L220.554833,394.468944 L220.554833,392.625611 L218.685167,392.625611 C218.026833,394.811278 216.710167,396.628278 214.656167,397.984444 L213.839833,397.220778 C216.473167,395.561778 217.803,393.191778 217.947833,390.532111 C217.0525,390.571611 216.170333,390.571611 215.275,390.571611 L214.419167,390.571611 L214.419167,389.623611 L216.012333,389.623611 C217.039333,389.623611 218.092667,389.623611 219.146,389.597278 C219.119667,390.308278 219.053833,391.006111 218.922167,391.664444 L220.541667,391.664444 L220.541667,388.701944 L221.674,388.701944 L221.674,400.288611 L220.541667,400.288611 L220.541667,395.430111 Z M230.693167,390.518944 C229.7715,390.558444 229.1,390.558444 228.178333,390.558444 L226.414,390.558444 L226.414,389.597278 L228.9025,389.597278 C229.982167,389.597278 230.824833,389.597278 232.049333,389.570944 C231.970333,390.584778 231.4305,391.559111 230.535167,392.467611 C231.233,393.046944 232.088833,393.547278 233.155333,393.915944 L232.470667,394.811278 C231.2725,394.271444 230.535167,393.797444 229.784667,393.125944 C228.876167,393.863278 227.730667,394.521611 226.414,395.100944 L225.729333,394.231944 C228.810333,393.007444 230.258667,391.638111 230.693167,390.518944 Z M236.973667,394.297778 L235.0645,394.297778 L235.0645,400.591444 L233.971667,400.591444 L233.971667,388.570278 L235.0645,388.570278 L235.0645,393.323444 L236.973667,393.323444 L236.973667,394.297778 Z M230.127,394.942944 L230.127,397.089111 C231.298833,397.036444 232.483833,396.944278 233.4055,396.825778 L233.4055,397.760611 C231.720167,397.997611 229.258,398.129278 227.388333,398.129278 L225.400167,398.129278 L225.400167,397.154944 L227.375167,397.154944 C227.862333,397.154944 228.402167,397.141778 228.9815,397.128611 L228.9815,394.942944 L230.127,394.942944 Z M246.150833,388.570278 L247.283167,388.570278 L247.283167,400.591444 L246.150833,400.591444 L246.150833,388.570278 Z M243.873,393.560444 C243.873,396.378111 242.516833,397.865944 240.792,397.865944 C239.080333,397.865944 237.697833,396.378111 237.697833,393.560444 C237.697833,390.742778 239.080333,389.268111 240.792,389.268111 C242.516833,389.268111 243.873,390.742778 243.873,393.560444 Z M242.7275,393.560444 C242.7275,391.598611 242.0165,390.268778 240.792,390.268778 C239.5675,390.268778 238.8565,391.598611 238.8565,393.560444 C238.8565,395.522278 239.5675,396.865278 240.792,396.865278 C242.0165,396.865278 242.7275,395.522278 242.7275,393.560444 Z M259.225333,400.591444 L258.106167,400.591444 L258.106167,388.570278 L259.225333,388.570278 L259.225333,400.591444 Z M255.696667,388.701944 L256.815833,388.701944 L256.815833,400.288611 L255.696667,400.288611 L255.696667,394.495278 L254.169333,394.495278 L254.169333,393.520944 L255.696667,393.520944 L255.696667,388.701944 Z M250.298333,390.018611 L250.298333,389.044278 L253.484667,389.044278 L253.484667,390.018611 L250.298333,390.018611 Z M252.958,394.468944 C253.5505,395.482778 254.327333,396.299111 255.301667,396.996944 L254.459,397.760611 C253.603167,397.102278 252.9185,396.299111 252.391833,395.403778 C251.6545,396.470278 250.7065,397.418278 249.613667,398.168778 L248.757833,397.418278 C250.917167,396.206944 252.628833,393.626278 252.747333,391.927778 C251.944167,391.967278 251.22,391.967278 250.443167,391.967278 L249.4425,391.967278 L249.4425,391.019278 L250.983,391.019278 C251.904667,391.019278 252.786833,391.019278 254.0245,390.992944 C253.932333,392.164778 253.563667,393.362944 252.958,394.468944 Z" id="계좌이체" fill="#19243B"></path>
                <path d="M137.872556,388.649278 L137.872556,389.597278 L133.343222,389.597278 L133.343222,388.649278 L137.872556,388.649278 Z M140.018722,390.308278 L140.018722,391.243111 L131.183889,391.243111 L131.183889,390.308278 L140.018722,390.308278 Z M139.044389,393.665778 C139.044389,394.626944 137.938389,395.495944 135.607889,395.495944 C133.264222,395.495944 132.184556,394.626944 132.184556,393.665778 C132.184556,392.678278 133.251056,391.835611 135.607889,391.835611 C137.951556,391.835611 139.044389,392.678278 139.044389,393.665778 Z M130.012056,397.207611 L130.012056,396.272778 L141.203722,396.272778 L141.203722,397.207611 L138.386056,397.207611 L138.386056,400.525611 L137.240556,400.525611 L137.240556,397.207611 L134.278056,397.207611 L134.278056,400.525611 L133.132556,400.525611 L133.132556,397.207611 L130.012056,397.207611 Z M137.885722,393.692111 C137.885722,393.270778 137.306389,392.730944 135.594722,392.730944 C133.909389,392.730944 133.330056,393.270778 133.330056,393.692111 C133.330056,394.047611 133.909389,394.600611 135.594722,394.600611 C137.306389,394.600611 137.885722,394.047611 137.885722,393.692111 Z M142.322889,397.457778 L142.322889,389.610444 L146.536222,389.610444 L146.536222,390.584778 L143.468389,390.584778 L143.468389,396.483444 L143.902889,396.483444 C145.377556,396.483444 146.667889,396.220111 147.444722,396.048944 L147.444722,396.983778 C146.588889,397.220778 145.061556,397.457778 143.758056,397.457778 L142.322889,397.457778 Z M151.960889,400.591444 L150.828556,400.591444 L150.828556,394.021278 L149.182722,394.021278 L149.182722,400.288611 L148.076722,400.288611 L148.076722,388.701944 L149.182722,388.701944 L149.182722,393.046944 L150.828556,393.046944 L150.828556,388.570278 L151.960889,388.570278 L151.960889,400.591444 Z M154.949722,389.873778 L154.949722,388.899444 L163.297389,388.899444 L163.297389,389.873778 L154.949722,389.873778 Z M154.804889,393.520944 L154.804889,392.572944 L156.529722,392.572944 L156.450722,390.387278 L157.583056,390.387278 L157.635722,392.572944 L160.571889,392.572944 L160.664056,390.387278 L161.796389,390.387278 L161.704222,392.572944 L163.429056,392.572944 L163.429056,393.520944 L159.663389,393.520944 L159.663389,395.100944 L164.824722,395.100944 L164.824722,396.075278 L153.369722,396.075278 L153.369722,395.100944 L158.491556,395.100944 L158.491556,393.520944 L154.804889,393.520944 Z M163.205222,400.407111 L155.239389,400.407111 L155.239389,397.023278 L156.371722,397.023278 L156.371722,399.419611 L163.205222,399.419611 L163.205222,400.407111 Z M170.565389,390.018611 C169.525222,390.058111 168.537722,390.058111 167.484389,390.058111 L166.273056,390.058111 L166.273056,389.096944 L168.261222,389.096944 C169.485722,389.096944 170.670722,389.096944 171.908389,389.070611 C171.710889,391.624944 169.656889,393.771111 166.352056,394.758611 L165.720056,393.850111 C168.300722,393.125944 170.038722,391.888278 170.565389,390.018611 Z M174.120389,390.334611 L174.120389,388.570278 L175.252722,388.570278 L175.252722,394.719111 L174.120389,394.719111 L174.120389,393.428778 L171.842556,393.428778 L171.842556,392.467611 L174.133556,392.467611 L174.133556,391.282611 L172.171722,391.282611 L172.171722,390.334611 L174.120389,390.334611 Z M175.516056,400.459778 L167.695056,400.459778 L167.695056,397.444611 L174.133556,397.444611 L174.133556,396.351778 L167.695056,396.351778 L167.695056,395.403778 L175.252722,395.403778 L175.252722,398.366278 L168.814222,398.366278 L168.814222,399.485444 L175.516056,399.485444 L175.516056,400.459778 Z M187.194889,400.591444 L186.062556,400.591444 L186.062556,388.570278 L187.194889,388.570278 L187.194889,400.591444 Z M183.679389,388.701944 L184.772222,388.701944 L184.772222,400.288611 L183.679389,400.288611 L183.679389,393.771111 L182.073056,393.771111 L182.073056,392.809944 L183.679389,392.809944 L183.679389,388.701944 Z M180.651056,390.545278 C179.953222,390.597944 179.110556,390.597944 178.333722,390.597944 L177.543722,390.597944 L177.543722,389.636778 L179.018389,389.636778 C179.940056,389.636778 180.848556,389.636778 181.888722,389.610444 C181.783389,390.992944 181.467389,392.322778 180.953889,393.560444 C181.506889,394.732278 182.349556,395.825111 183.297556,396.615111 L182.402222,397.378778 C181.625389,396.641444 180.927556,395.706611 180.414056,394.679611 C179.742556,395.877778 178.886722,396.957444 177.820222,397.839611 L176.911722,397.168111 C179.163222,395.364278 180.348222,393.231278 180.651056,390.545278 Z" id="휴대폰결제" fill="#19243B"></path>
                <path d="M291.180833,397.181278 C294.275,395.640778 295.841833,393.178611 296.197333,390.545278 C295.130833,390.584778 294.0775,390.584778 293.024167,390.584778 L291.668,390.584778 L291.668,389.610444 L293.735167,389.610444 C294.959667,389.610444 296.197333,389.610444 297.435,389.584111 C297.184833,393.204944 295.512667,396.101611 291.9445,398.010778 L291.180833,397.181278 Z M302.583167,394.218778 L300.516,394.218778 L300.516,400.591444 L299.383667,400.591444 L299.383667,388.570278 L300.516,388.570278 L300.516,393.218111 L302.583167,393.218111 L302.583167,394.218778 Z M307.152,388.873111 C307.165167,389.663111 307.073,390.387278 306.901833,391.058778 C307.626,392.441278 308.639833,393.428778 310.101333,394.166111 L309.4035,394.969278 C308.152667,394.324111 307.152,393.362944 306.467333,392.230611 C305.835333,393.560444 304.795167,394.600611 303.491667,395.324778 L302.714833,394.574278 C304.966333,393.297111 306.125,391.493278 305.980167,388.873111 L307.152,388.873111 Z M314.2225,392.651944 L312.3265,392.651944 L312.3265,395.864611 L311.194167,395.864611 L311.194167,388.570278 L312.3265,388.570278 L312.3265,391.651278 L314.2225,391.651278 L314.2225,392.651944 Z M312.458167,398.326778 C312.458167,399.682944 311.1415,400.696778 308.560833,400.696778 C305.980167,400.696778 304.6635,399.682944 304.6635,398.326778 C304.6635,396.957444 305.980167,396.009444 308.560833,396.009444 C311.1415,396.009444 312.458167,396.957444 312.458167,398.326778 Z M311.273167,398.353111 C311.273167,397.589444 310.443667,396.983778 308.560833,396.983778 C306.704333,396.983778 305.835333,397.589444 305.835333,398.353111 C305.835333,399.116778 306.704333,399.722444 308.560833,399.722444 C310.443667,399.722444 311.273167,399.116778 311.273167,398.353111 Z M324.834833,400.591444 L323.7025,400.591444 L323.7025,388.570278 L324.834833,388.570278 L324.834833,400.591444 Z M321.385167,395.430111 L319.397,395.430111 L319.397,394.468944 L321.398333,394.468944 L321.398333,392.625611 L319.528667,392.625611 C318.870333,394.811278 317.553667,396.628278 315.499667,397.984444 L314.683333,397.220778 C317.316667,395.561778 318.6465,393.191778 318.791333,390.532111 C317.896,390.571611 317.013833,390.571611 316.1185,390.571611 L315.262667,390.571611 L315.262667,389.623611 L316.855833,389.623611 C317.882833,389.623611 318.936167,389.623611 319.9895,389.597278 C319.963167,390.308278 319.897333,391.006111 319.765667,391.664444 L321.385167,391.664444 L321.385167,388.701944 L322.5175,388.701944 L322.5175,400.288611 L321.385167,400.288611 L321.385167,395.430111 Z M331.536667,390.518944 C330.615,390.558444 329.9435,390.558444 329.021833,390.558444 L327.2575,390.558444 L327.2575,389.597278 L329.746,389.597278 C330.825667,389.597278 331.668333,389.597278 332.892833,389.570944 C332.813833,390.584778 332.274,391.559111 331.378667,392.467611 C332.0765,393.046944 332.932333,393.547278 333.998833,393.915944 L333.314167,394.811278 C332.116,394.271444 331.378667,393.797444 330.628167,393.125944 C329.719667,393.863278 328.574167,394.521611 327.2575,395.100944 L326.572833,394.231944 C329.653833,393.007444 331.102167,391.638111 331.536667,390.518944 Z M337.817167,394.297778 L335.908,394.297778 L335.908,400.591444 L334.815167,400.591444 L334.815167,388.570278 L335.908,388.570278 L335.908,393.323444 L337.817167,393.323444 L337.817167,394.297778 Z M330.9705,394.942944 L330.9705,397.089111 C332.142333,397.036444 333.327333,396.944278 334.249,396.825778 L334.249,397.760611 C332.563667,397.997611 330.1015,398.129278 328.231833,398.129278 L326.243667,398.129278 L326.243667,397.154944 L328.218667,397.154944 C328.705833,397.154944 329.245667,397.141778 329.825,397.128611 L329.825,394.942944 L330.9705,394.942944 Z" id="가상계좌" fill="#19243B"></path>
                <g id="카드결제" transform="translate(57.055556, 337.395833)">
                    <g id="자산-5">
                        <rect id="Rectangle-path" x="0" y="0" width="48" height="48"></rect>
                        <path d="M33.75,40.5 L14.25,40.5 C10.5220779,40.5 7.5,37.4779221 7.5,33.75 L7.5,14.25 C7.5,10.5220779 10.5220779,7.5 14.25,7.5 L33.75,7.5 C37.4779221,7.5 40.5,10.5220779 40.5,14.25 L40.5,33.75 C40.5,37.4779221 37.4779221,40.5 33.75,40.5 Z M14.25,10.5 C12.1789322,10.5 10.5,12.1789322 10.5,14.25 L10.5,33.75 C10.5,35.8210678 12.1789322,37.5 14.25,37.5 L33.75,37.5 C35.8210678,37.5 37.5,35.8210678 37.5,33.75 L37.5,14.25 C37.5,12.1789322 35.8210678,10.5 33.75,10.5 L14.25,10.5 Z" id="Shape" fill="#2F374D" fill-rule="nonzero"></path>
                        <rect id="Rectangle-path" fill="#2F374D" fill-rule="nonzero" x="9" y="21.6" width="30" height="1.05"></rect>
                        <rect id="Rectangle-path" fill="#2F374D" fill-rule="nonzero" x="15" y="32.1" width="4.5" height="1.05"></rect>
                        <rect id="Rectangle-path" fill="#2F374D" fill-rule="nonzero" x="9" y="16.35" width="30" height="1.05"></rect>
                    </g>
                </g>
                <g id="계좌이체" transform="translate(212.312500, 337.395833)">
                    <g id="자산-6">
                        <rect id="Rectangle-path" x="0" y="0" width="48" height="48"></rect>
                        <path d="M33.75,40.5 L14.25,40.5 C10.5220779,40.5 7.5,37.4779221 7.5,33.75 L7.5,14.25 C7.5,10.5220779 10.5220779,7.5 14.25,7.5 L33.75,7.5 C37.4779221,7.5 40.5,10.5220779 40.5,14.25 L40.5,33.75 C40.5,37.4779221 37.4779221,40.5 33.75,40.5 Z M14.25,10.5 C12.1789322,10.5 10.5,12.1789322 10.5,14.25 L10.5,33.75 C10.5,35.8210678 12.1789322,37.5 14.25,37.5 L33.75,37.5 C35.8210678,37.5 37.5,35.8210678 37.5,33.75 L37.5,14.25 C37.5,12.1789322 35.8210678,10.5 33.75,10.5 L14.25,10.5 Z" id="Shape" fill="#2F374D" fill-rule="nonzero"></path>
                        <rect id="Rectangle-path" fill="#2F374D" fill-rule="nonzero" x="9" y="23.1" width="30" height="1.05"></rect>
                        <path d="M34.5,18.45 L30,18.45 C29.7514719,18.45 29.55,18.2485281 29.55,18 L29.55,13.5 C29.55,13.2514719 29.7514719,13.05 30,13.05 L34.5,13.05 C34.7485281,13.05 34.95,13.2514719 34.95,13.5 L34.95,18 C34.95,18.2485281 34.7485281,18.45 34.5,18.45 L34.5,18.45 Z M30.45,17.55 L34.05,17.55 L34.05,13.95 L30.45,13.95 L30.45,17.55 Z" id="Shape" fill="#2F374D" fill-rule="nonzero"></path>
                        <rect id="Rectangle-path" fill="#2F374D" fill-rule="nonzero" x="15.75" y="27.93" width="16.5" height="1.05"></rect>
                        <rect id="Rectangle-path" fill="#2F374D" fill-rule="nonzero" x="15.75" y="31.68" width="16.5" height="1.05"></rect>
                    </g>
                </g>
                <g id="가상계좌" transform="translate(289.666667, 337.395833)">
                    <g id="자산-7">
                        <rect id="Rectangle-path" x="0" y="0" width="48" height="48"></rect>
                        <path d="M33.75,40.5 L14.25,40.5 C10.5220779,40.5 7.5,37.4779221 7.5,33.75 L7.5,14.25 C7.5,10.5220779 10.5220779,7.5 14.25,7.5 L33.75,7.5 C37.4779221,7.5 40.5,10.5220779 40.5,14.25 L40.5,33.75 C40.5,37.4779221 37.4779221,40.5 33.75,40.5 Z M14.25,10.5 C12.1789322,10.5 10.5,12.1789322 10.5,14.25 L10.5,33.75 C10.5,35.8210678 12.1789322,37.5 14.25,37.5 L33.75,37.5 C35.8210678,37.5 37.5,35.8210678 37.5,33.75 L37.5,14.25 C37.5,12.1789322 35.8210678,10.5 33.75,10.5 L14.25,10.5 Z" id="Shape" fill="#2F374D" fill-rule="nonzero"></path>
                        <rect id="Rectangle-path" fill="#2F374D" fill-rule="nonzero" x="21.18" y="21.5625" width="1" height="4.8825"></rect>
                        <rect id="Rectangle-path" fill="#2F374D" fill-rule="nonzero" transform="translate(21.636137, 23.998099) rotate(-29.990000) translate(-21.636137, -23.998099) " x="19.1948869" y="23.5480989" width="4.8825" height="1"></rect>
                        <rect id="Rectangle-path" fill="#2F374D" fill-rule="nonzero" transform="translate(21.635357, 24.004746) rotate(-60.000000) translate(-21.635357, -24.004746) " x="21.1853573" y="21.5634955" width="1" height="4.8825"></rect>
                        <rect id="Rectangle-path" fill="#2F374D" fill-rule="nonzero" x="27.285" y="21.5625" width="1" height="4.8825"></rect>
                        <rect id="Rectangle-path" fill="#2F374D" fill-rule="nonzero" transform="translate(27.734759, 24.002771) rotate(-29.990000) translate(-27.734759, -24.002771) " x="25.2935088" y="23.5527706" width="4.8825" height="1"></rect>
                        <rect id="Rectangle-path" fill="#2F374D" fill-rule="nonzero" transform="translate(27.740357, 23.997660) rotate(-60.000000) translate(-27.740357, -23.997660) " x="27.2903573" y="21.5564104" width="1" height="4.8825"></rect>
                        <rect id="Rectangle-path" fill="#2F374D" fill-rule="nonzero" x="15.075" y="21.5625" width="1" height="4.8825"></rect>
                        <rect id="Rectangle-path" fill="#2F374D" fill-rule="nonzero" transform="translate(15.531019, 23.997176) rotate(-29.990000) translate(-15.531019, -23.997176) " x="13.0897691" y="23.5471761" width="4.8825" height="1"></rect>
                        <rect id="Rectangle-path" fill="#2F374D" fill-rule="nonzero" transform="translate(15.625762, 23.942625) rotate(-60.113473) translate(-15.625762, -23.942625) " x="15.1742127" y="21.4929672" width="1" height="4.89931567"></rect>
                        <rect id="Rectangle-path" fill="#2F374D" fill-rule="nonzero" x="31.59" y="25.6125" width="3" height="1"></rect>
                    </g>
                </g>
                <g id="휴대폰결제" transform="translate(134.409722, 337.395833)">
                    <g id="자산-8">
                        <rect id="Rectangle-path" x="0" y="0" width="48" height="48"></rect>
                        <path d="M33.75,40.5 L14.25,40.5 C10.5220779,40.5 7.5,37.4779221 7.5,33.75 L7.5,14.25 C7.5,10.5220779 10.5220779,7.5 14.25,7.5 L33.75,7.5 C37.4779221,7.5 40.5,10.5220779 40.5,14.25 L40.5,33.75 C40.5,37.4779221 37.4779221,40.5 33.75,40.5 Z M14.25,10.5 C12.1789322,10.5 10.5,12.1789322 10.5,14.25 L10.5,33.75 C10.5,35.8210678 12.1789322,37.5 14.25,37.5 L33.75,37.5 C35.8210678,37.5 37.5,35.8210678 37.5,33.75 L37.5,14.25 C37.5,12.1789322 35.8210678,10.5 33.75,10.5 L14.25,10.5 Z" id="Shape" fill="#2F374D" fill-rule="nonzero"></path>
                        <path d="M24,36.0525 C23.1202946,36.0525 22.3272107,35.5225783 21.990562,34.7098365 C21.6539133,33.8970947 21.8399971,32.9615884 22.4620428,32.3395428 C23.0840884,31.7174971 24.0195947,31.5314133 24.8323365,31.868062 C25.6450783,32.2047107 26.175,32.9977946 26.175,33.8775 C26.175,35.0787193 25.2012193,36.0525 24,36.0525 Z M24,32.6025 C23.2958369,32.6025 22.725,33.1733369 22.725,33.8775 C22.725,34.5816631 23.2958369,35.1525 24,35.1525 C24.7041631,35.1525 25.275,34.5816631 25.275,33.8775 C25.275,33.539349 25.14067,33.2150477 24.9015611,32.9759389 C24.6624523,32.73683 24.338151,32.6025 24,32.6025 Z" id="Shape" fill="#2F374D" fill-rule="nonzero"></path>
                        <rect id="Rectangle-path" fill="#2F374D" fill-rule="nonzero" x="9" y="29.535" width="30" height="1.05"></rect>
                        <polygon id="Shape" fill="#2F374D" fill-rule="nonzero" points="24.375 17.4225 26.1225 23.1525 26.28 23.7975 26.445 23.1525 28.02 17.4225 28.77 17.4225 26.7675 24.42 25.875 24.42 24.105 18.615 24 18.2025 23.895 18.615 22.125 24.42 21.2625 24.42 19.26 17.4225 20.01 17.4225 21.585 23.1525 21.75 23.7975 21.9075 23.1525 23.655 17.4225"></polygon>
                        <path d="M26.88,24.6075 L25.7325,24.6075 L24,18.915 L22.2675,24.6 L21.12,24.6 L19.005,17.25 L20.1225,17.25 L21.75,23.04 L23.4825,17.25 L24.51,17.25 L26.25,23.04 L27.8775,17.25 L28.995,17.25 L26.88,24.6075 Z M26.355,24.2325 L26.595,24.2325 L28.5,17.61 L28.17,17.61 L26.355,24.2325 Z M26.01,24.2325 L26.1825,24.2325 L25.935,23.1975 L24.2325,17.6175 L24.045,17.6175 L24.285,18.5775 L26.01,24.2325 Z M21.81,24.2325 L21.9825,24.2325 L23.8125,18.1575 L23.9475,17.6175 L23.76,17.6175 L22.0575,23.2125 L21.81,24.2325 Z M21.3975,24.2325 L21.6375,24.2325 L21.3675,23.1975 L19.83,17.61 L19.5,17.61 L21.3975,24.2325 Z" id="Shape" fill="#2F374D" fill-rule="nonzero"></path>
                        <rect id="Rectangle-path" fill="#2F374D" fill-rule="nonzero" x="18.75" y="20.4" width="10.5" height="1.05"></rect>
                    </g>
                </g>
                <path d="M55.47775,451.806486 C54.4891528,451.843792 52.9409722,451.843792 51.3554861,451.843792 L49.7326944,451.843792 L49.7326944,449.903903 L52.4746528,449.903903 C54.2466667,449.903903 56.0559861,449.866597 58.16375,449.829292 C57.8466528,454.567097 55.3471806,457.887292 49.8819167,459.789875 L48.594875,458.073819 C52.8290556,456.730819 55.1046944,454.716319 55.47775,451.806486 Z M64.7854861,456.133931 L62.19275,456.133931 L62.19275,461.449972 L59.8984583,461.449972 L59.8984583,448.915306 L62.19275,448.915306 L62.19275,454.175389 L64.7854861,454.175389 L64.7854861,456.133931 Z M62.5471528,465.870681 L51.5793194,465.870681 L51.5793194,460.647903 L53.9109167,460.647903 L53.9109167,463.912139 L62.5471528,463.912139 L62.5471528,465.870681 Z M74.9139444,453.783681 L74.9139444,452.086278 L77.3015,452.086278 L77.3015,448.915306 L79.6144444,448.915306 L79.6144444,461.916292 L77.3015,461.916292 L77.3015,456.656208 L74.9139444,456.656208 L74.9139444,454.902847 L77.3201528,454.902847 L77.3201528,453.783681 L74.9139444,453.783681 Z M79.9501944,465.870681 L68.7958333,465.870681 L68.7958333,460.685208 L71.1274306,460.685208 L71.1274306,463.912139 L79.9501944,463.912139 L79.9501944,465.870681 Z M65.5875556,451.806486 L65.5875556,449.866597 L75.3802639,449.866597 L75.3802639,451.806486 L65.5875556,451.806486 Z M67.2103472,457.551542 L67.061125,452.366069 L69.3181111,452.366069 L69.4300278,457.551542 L70.3440139,457.551542 C70.754375,457.551542 71.1833889,457.551542 71.59375,457.532889 L71.6870139,452.366069 L73.8134306,452.366069 L73.7015139,457.383667 C74.5968472,457.309056 75.5108333,457.159833 76.4248194,456.954653 L76.4248194,458.782625 C74.6714583,459.267597 72.4144722,459.416819 70.3813194,459.416819 L65.2331528,459.416819 L65.2331528,457.551542 L67.2103472,457.551542 Z M93.9397778,451.582653 L93.9397778,448.915306 L96.2527222,448.915306 L96.2527222,457.514236 L93.9397778,457.514236 L93.9397778,456.171236 L91.06725,456.171236 L91.06725,454.399222 L93.9584306,454.399222 L93.9584306,453.373319 L91.5335694,453.373319 L91.5335694,451.582653 L93.9397778,451.582653 Z M88.6983472,451.489389 C87.8962778,451.526694 86.4600139,451.526694 84.9677917,451.526694 L83.2703889,451.526694 L83.2703889,449.642764 L86.0123472,449.642764 C87.6910972,449.642764 89.3511944,449.642764 91.4216528,449.605458 C91.1045556,453.485236 88.2879861,456.525639 83.5501806,457.94325 L82.33775,456.227194 C86.0683056,455.145333 88.1947222,453.559847 88.6983472,451.489389 Z M96.5884722,466.019903 L85.2102778,466.019903 L85.2102778,461.151528 L93.9584306,461.151528 L93.9584306,460.088319 L85.2102778,460.088319 L85.2102778,458.204389 L96.2527222,458.204389 L96.2527222,462.923542 L87.4672639,462.923542 L87.4672639,464.135972 L96.5884722,464.135972 L96.5884722,466.019903 Z M113.431931,466.206431 L111.249556,466.206431 L111.249556,448.915306 L113.431931,448.915306 L113.431931,466.206431 Z M105.896208,454.940153 L107.873403,454.940153 L107.873403,449.101833 L110.018472,449.101833 L110.018472,465.777417 L107.873403,465.777417 L107.873403,460.498681 L106.399833,461.934944 C105.262014,460.927694 104.273417,459.733917 103.508653,458.372264 C102.669278,459.771222 101.550111,461.114222 100.169806,462.419917 L98.4724028,461.151528 C101.680681,458.390917 103.322125,455.182639 103.564611,452.328764 C102.743889,452.366069 101.941819,452.366069 101.13975,452.366069 L99.5542639,452.366069 L99.5542639,450.407528 L101.923167,450.407528 C103.210208,450.407528 104.49725,450.407528 105.802944,450.370222 C105.802944,452.440681 105.392583,454.473833 104.515903,456.469681 C105.317972,458.036514 106.549056,459.28625 107.873403,460.386764 L107.873403,456.861389 L105.896208,456.861389 L105.896208,454.940153 Z" id="간편결제" fill="#19243B"></path>
                <g id="카카오페이" transform="translate(57.055556, 485.520833)">
                    <g id="자산-7">
                        <rect id="Rectangle-path" x="0" y="0" width="48" height="48"></rect>
                        <path d="M33.75,40.5 L14.25,40.5 C10.5220779,40.5 7.5,37.4779221 7.5,33.75 L7.5,14.25 C7.5,10.5220779 10.5220779,7.5 14.25,7.5 L33.75,7.5 C37.4779221,7.5 40.5,10.5220779 40.5,14.25 L40.5,33.75 C40.5,37.4779221 37.4779221,40.5 33.75,40.5 Z M14.25,10.5 C12.1789322,10.5 10.5,12.1789322 10.5,14.25 L10.5,33.75 C10.5,35.8210678 12.1789322,37.5 14.25,37.5 L33.75,37.5 C35.8210678,37.5 37.5,35.8210678 37.5,33.75 L37.5,14.25 C37.5,12.1789322 35.8210678,10.5 33.75,10.5 L14.25,10.5 Z" id="Shape" fill="#2F374D" fill-rule="nonzero"></path>
                        <path d="M14.25,10.5 C12.1789322,10.5 10.5,12.1789322 10.5,14.25 L10.5,33.75 C10.5,35.8210678 12.1789322,37.5 14.25,37.5 L33.75,37.5 C35.8210678,37.5 37.5,35.8210678 37.5,33.75 L37.5,14.25 C37.5,12.1789322 35.8210678,10.5 33.75,10.5 L14.25,10.5 Z" id="Path" fill="#FBE301"></path>
                        <path d="M24.375,16.5 C20.0265,16.5 16.5,19.28325 16.5,22.718625 C16.5,24.927 17.961,26.86425 20.155125,27.96975 L19.413375,30.74025 C19.3845,30.824625 19.407375,30.91425 19.470375,30.97575 C19.510125,31.0185 19.567125,31.041375 19.630125,31.041375 C19.675875,31.041375 19.72425,31.023 19.767,30.99 L22.957125,28.836 C23.4195,28.901625 23.89275,28.93875 24.375,28.93875 C28.723125,28.93875 32.25,26.1555 32.25,22.718625 C32.25,19.28325 28.723125,16.5 24.375,16.5" id="Fill-1" fill="#3B1F1E"></path>
                    </g>
                </g>
                <path d="M43.8888889,425.173611 L351.111111,425.173611" id="Line" stroke="#D8D9E2" stroke-linecap="square"></path>
                <path d="M49.6822222,39.6536111 L49.6822222,36.5155556 L52.4033333,36.5155556 L52.4033333,46.6319444 L49.6822222,46.6319444 L49.6822222,45.0519444 L46.3027778,45.0519444 L46.3027778,42.9672222 L49.7041667,42.9672222 L49.7041667,41.7602778 L46.8513889,41.7602778 L46.8513889,39.6536111 L49.6822222,39.6536111 Z M43.5158333,39.5438889 C42.5722222,39.5877778 40.8825,39.5877778 39.1269444,39.5877778 L37.13,39.5877778 L37.13,37.3713889 L40.3558333,37.3713889 C42.3308333,37.3713889 44.2838889,37.3713889 46.7197222,37.3275 C46.3466667,41.8919444 43.0330556,45.4688889 37.4591667,47.1366667 L36.0327778,45.1177778 C40.4216667,43.845 42.9233333,41.9797222 43.5158333,39.5438889 Z M52.7983333,56.6386111 L39.4122222,56.6386111 L39.4122222,50.9111111 L49.7041667,50.9111111 L49.7041667,49.6602778 L39.4122222,49.6602778 L39.4122222,47.4438889 L52.4033333,47.4438889 L52.4033333,52.9958333 L42.0675,52.9958333 L42.0675,54.4222222 L52.7983333,54.4222222 L52.7983333,56.6386111 Z M72.6141667,56.8580556 L70.0466667,56.8580556 L70.0466667,36.5155556 L72.6141667,36.5155556 L72.6141667,56.8580556 Z M63.7486111,43.6036111 L66.0747222,43.6036111 L66.0747222,36.735 L68.5983333,36.735 L68.5983333,56.3533333 L66.0747222,56.3533333 L66.0747222,50.1430556 L64.3411111,51.8327778 C63.0025,50.6477778 61.8394444,49.2433333 60.9397222,47.6413889 C59.9522222,49.2872222 58.6355556,50.8672222 57.0116667,52.4033333 L55.0147222,50.9111111 C58.7891667,47.6633333 60.7202778,43.8888889 61.0055556,40.5313889 C60.04,40.5752778 59.0963889,40.5752778 58.1527778,40.5752778 L56.2875,40.5752778 L56.2875,38.2711111 L59.0744444,38.2711111 C60.5886111,38.2711111 62.1027778,38.2711111 63.6388889,38.2272222 C63.6388889,40.6630556 63.1561111,43.055 62.1247222,45.4030556 C63.0683333,47.2463889 64.5166667,48.7166667 66.0747222,50.0113889 L66.0747222,45.8638889 L63.7486111,45.8638889 L63.7486111,43.6036111 Z M85.1444444,43.0769444 L85.1444444,40.8166667 L88.8311111,40.8166667 L88.8311111,36.5155556 L91.5522222,36.5155556 L91.5522222,51.4158333 L88.8311111,51.4158333 L88.8311111,43.0769444 L85.1444444,43.0769444 Z M76.2569444,48.8044444 L74.3916667,47.1147222 C78.4733333,44.7447222 80.1411111,41.5847222 79.8777778,36.9983333 L82.7086111,36.9983333 C82.7305556,38.4686111 82.5769444,39.8291667 82.2477778,41.08 C83.6302778,43.6475 85.2102778,45.0738889 87.7558333,46.4783333 L86.0880556,48.3655556 C83.9594444,47.2244444 82.3136111,45.7322222 81.1286111,43.9547222 C80.0094444,45.9955556 78.3636111,47.6413889 76.2569444,48.8044444 Z M91.9472222,56.4630556 L78.8244444,56.4630556 L78.8244444,50.0113889 L81.5675,50.0113889 L81.5675,54.1588889 L91.9472222,54.1588889 L91.9472222,56.4630556 Z M111.5875,49.0458333 L109.02,49.0458333 L109.02,43.6036111 L107.374167,43.6036111 L107.374167,49.0458333 L104.850556,49.0458333 L104.850556,36.735 L107.374167,36.735 L107.374167,41.4311111 L109.02,41.4311111 L109.02,36.5155556 L111.5875,36.5155556 L111.5875,49.0458333 Z M108.888333,56.9019444 L108.888333,52.1619444 L97.8722222,52.1619444 L97.8722222,49.9236111 L111.5875,49.9236111 L111.5875,56.9019444 L108.888333,56.9019444 Z M95.4802778,47.9705556 L95.4802778,37.5469444 L102.8975,37.5469444 L102.8975,39.6536111 L98.2013889,39.6536111 L98.2013889,41.6944444 L102.743889,41.6944444 L102.743889,43.7133333 L98.2013889,43.7133333 L98.2013889,45.8638889 L98.7938889,45.8638889 C100.659167,45.8638889 102.436667,45.6883333 104.389722,45.2055556 L104.389722,47.2463889 C102.392778,47.795 100.022778,47.9705556 97.3455556,47.9705556 L95.4802778,47.9705556 Z M132.961389,47.005 L129.823333,47.005 L129.823333,56.7922222 L127.102222,56.7922222 L127.102222,36.5155556 L129.823333,36.5155556 L129.823333,44.7227778 L132.961389,44.7227778 L132.961389,47.005 Z M113.781944,43.0111111 L113.781944,40.7508333 L126.378056,40.7508333 L126.378056,43.0111111 L113.781944,43.0111111 Z M116.415278,39.5219444 L116.415278,37.1958333 L123.722778,37.1958333 L123.722778,39.5219444 L116.415278,39.5219444 Z M122.493889,48.3216667 C122.493889,47.1147222 121.638056,45.9955556 120.101944,45.9955556 C118.565833,45.9955556 117.71,47.1147222 117.71,48.3216667 C117.71,49.5286111 118.565833,50.6258333 120.101944,50.6258333 C121.638056,50.6258333 122.493889,49.5286111 122.493889,48.3216667 Z M115.054722,48.3216667 C115.054722,45.9516667 116.876111,43.8230556 120.101944,43.8230556 C123.327778,43.8230556 125.149167,46.0394444 125.149167,48.3216667 C125.127222,50.6477778 123.327778,52.8202778 120.101944,52.8202778 C116.876111,52.8202778 115.054722,50.6038889 115.054722,48.3216667 Z M147.554444,36.5155556 L150.275556,36.5155556 L150.275556,56.8580556 L147.554444,56.8580556 L147.554444,36.5155556 Z M133.400278,50.8013889 C138.886389,48.19 141.190556,44.2838889 141.651389,40.4875 C140.0275,40.5313889 138.403611,40.5533333 136.779722,40.5533333 L134.453611,40.5533333 L134.453611,38.2272222 L137.942778,38.2272222 C140.005556,38.2272222 142.112222,38.2272222 144.591944,38.1833333 C144.196944,44.5252778 141.673333,49.2652778 135.221667,52.7105556 L133.400278,50.8013889 Z" id="결제선택하기" fill="#19243B"></path>
                <polygon id="Shape" fill="#19243B" fill-rule="nonzero" points="359.079688 39.5 353.29184 45.2809896 347.531424 39.5274306 346.722222 40.3366319 352.482639 46.0833333 346.722222 51.8368924 347.531424 52.6392361 353.29184 46.8925347 359.079688 52.6666667 359.888889 51.8643229 354.101042 46.0833333 359.888889 40.3092014"></polygon>
                <rect id="Rectangle" fill="#477BE5" x="21.9444444" y="80.0972222" width="351.111111" height="175.555556" rx="24"></rect>
                <rect id="Rectangle" fill="#2A59B9" x="35.1111111" y="194.208333" width="324.777778" height="48.2777778" rx="20"></rect>
                <path d="M49.5373889,219.071389 L49.0611944,218.318694 C52.31775,217.612083 54.668,215.891639 55.2056389,213.264889 C53.9613889,213.310972 52.59425,213.310972 51.3039167,213.310972 L49.8599722,213.310972 L49.8599722,212.558278 L52.2102222,212.558278 C53.6388056,212.558278 54.80625,212.558278 56.2655556,212.512194 C55.8200833,215.953083 53.3930278,218.165083 49.5373889,219.071389 Z M56.6495833,214.862444 L56.6495833,214.125111 L59.3070556,214.125111 L59.3070556,211.882389 L60.1672778,211.882389 L60.1672778,218.672 L59.3070556,218.672 L59.3070556,217.243417 L56.2501944,217.243417 L56.2501944,216.506083 L59.3070556,216.506083 L59.3070556,214.862444 L56.6495833,214.862444 Z M52.3945556,224.923972 L52.3945556,222.973111 L60.1672778,222.973111 L60.1672778,219.578306 L51.5343333,219.578306 L51.5343333,220.346361 L59.3070556,220.346361 L59.3070556,222.235778 L51.5343333,222.235778 L51.5343333,225.692028 L60.4898611,225.692028 L60.4898611,224.923972 L52.3945556,224.923972 Z M69.599,221.57525 L68.8923889,222.189694 C67.8478333,221.221944 67.0183333,220.0545 66.3424444,218.764167 C65.5436667,220.238833 64.4223056,221.559889 63.0090833,222.665889 L62.3331944,222.112889 C65.5590278,219.747278 66.8186389,216.521444 67.0644167,213.863972 C66.1581111,213.910056 65.2825278,213.910056 64.2379722,213.910056 L63.0858889,213.910056 L63.0858889,213.126639 L64.9292222,213.126639 C65.9123333,213.126639 66.8493611,213.126639 67.9553611,213.080556 C67.8478333,214.754917 67.4945278,216.383194 66.7725556,217.919306 C67.4638056,219.332528 68.4161944,220.592139 69.599,221.57525 Z M68.35475,216.936194 L70.4899444,216.936194 L70.4899444,212.036 L71.3194444,212.036 L71.3194444,225.492333 L70.4899444,225.492333 L70.4899444,217.719611 L68.35475,217.719611 L68.35475,216.936194 Z M73.2549444,211.882389 L73.2549444,225.845639 L74.0998056,225.845639 L74.0998056,211.882389 L73.2549444,211.882389 Z M86.9109722,220.592139 L86.9109722,225.630583 L78.1090556,225.630583 L78.1090556,220.592139 L86.9109722,220.592139 Z M78.9846389,224.847167 L86.0353889,224.847167 L86.0353889,221.360194 L78.9846389,221.360194 L78.9846389,224.847167 Z M75.8663333,218.180444 L89.1536944,218.180444 L89.1536944,217.412389 L86.5269444,217.412389 C86.7573611,215.707306 86.8956111,214.140472 86.9416944,212.281778 L77.9554444,212.281778 L77.9554444,213.080556 L86.0353889,213.080556 C86.0353889,214.539861 85.8817778,215.983806 85.6513611,217.412389 L75.8663333,217.412389 L75.8663333,218.180444 Z M93.1322222,212.358583 C94.9909167,212.358583 96.3734167,213.710361 96.3734167,215.722667 C96.3734167,217.750333 94.9909167,219.071389 93.1322222,219.071389 C91.30425,219.071389 89.9524722,217.750333 89.9524722,215.722667 C89.9524722,213.710361 91.30425,212.358583 93.1322222,212.358583 Z M93.1322222,213.126639 C91.7804444,213.126639 90.8280556,214.155833 90.8280556,215.722667 C90.8280556,217.274139 91.7804444,218.303333 93.1322222,218.303333 C94.5147222,218.303333 95.4978333,217.274139 95.4978333,215.722667 C95.4978333,214.155833 94.5147222,213.126639 93.1322222,213.126639 Z M100.782056,211.882389 L100.782056,215.354 L98.49325,215.354 L98.49325,212.036 L97.66375,212.036 L97.66375,220.0545 L98.49325,220.0545 L98.49325,216.122056 L100.782056,216.122056 L100.782056,220.0545 L101.626917,220.0545 L101.626917,211.882389 L100.782056,211.882389 Z M101.626917,220.991528 L92.5485,220.991528 L92.5485,221.774944 L100.766694,221.774944 L100.766694,225.891722 L101.626917,225.891722 L101.626917,220.991528 Z" id="결제금액" fill="#FFFFFF"></path>
                <path d="M261.906944,213.870556 L261.906944,212.51 C263.091944,211.983333 264.189167,211.193333 265.088889,210.183889 L267.063889,210.183889 L267.063889,226.817778 L265.176667,226.817778 L265.176667,212.246667 L265.154722,212.246667 C264.167222,213.036667 263.135833,213.607222 262.126389,213.980278 C261.972778,214.046111 261.906944,213.980278 261.906944,213.870556 Z M278.431111,209.898611 C281.898333,209.898611 283.829444,212.817222 283.829444,218.654444 C283.829444,224.491667 281.898333,227.081111 278.431111,227.081111 C274.963889,227.081111 273.032778,224.491667 273.032778,218.654444 C273.032778,212.817222 274.963889,209.898611 278.431111,209.898611 Z M278.431111,211.434722 C276.105,211.434722 274.941944,213.870556 274.941944,218.698333 C274.941944,223.526111 276.105,225.566944 278.431111,225.566944 C280.757222,225.566944 281.920278,223.526111 281.920278,218.698333 C281.920278,213.870556 280.757222,211.434722 278.431111,211.434722 Z M286.221389,225.391389 C286.221389,224.601389 286.813889,224.008889 287.7575,224.008889 C288.701111,224.008889 289.359444,224.798889 289.359444,225.830278 C289.359444,227.673611 288.064722,229.143889 286.506667,229.6925 L286.111667,228.858611 C286.9675,228.551389 287.581944,227.915 287.801389,227.146944 C287.889167,226.795833 287.845278,226.664167 287.538056,226.664167 C286.791944,226.664167 286.221389,226.071667 286.221389,225.391389 Z M297.742222,209.898611 C301.209444,209.898611 303.140556,212.817222 303.140556,218.654444 C303.140556,224.491667 301.209444,227.081111 297.742222,227.081111 C294.275,227.081111 292.343889,224.491667 292.343889,218.654444 C292.343889,212.817222 294.275,209.898611 297.742222,209.898611 Z M297.742222,211.434722 C295.416111,211.434722 294.253056,213.870556 294.253056,218.698333 C294.253056,223.526111 295.416111,225.566944 297.742222,225.566944 C300.068333,225.566944 301.231389,223.526111 301.231389,218.698333 C301.231389,213.870556 300.068333,211.434722 297.742222,211.434722 Z M310.535833,209.898611 C314.003056,209.898611 315.934167,212.817222 315.934167,218.654444 C315.934167,224.491667 314.003056,227.081111 310.535833,227.081111 C307.068611,227.081111 305.1375,224.491667 305.1375,218.654444 C305.1375,212.817222 307.068611,209.898611 310.535833,209.898611 Z M310.535833,211.434722 C308.209722,211.434722 307.046667,213.870556 307.046667,218.698333 C307.046667,223.526111 308.209722,225.566944 310.535833,225.566944 C312.861944,225.566944 314.025,223.526111 314.025,218.698333 C314.025,213.870556 312.861944,211.434722 310.535833,211.434722 Z M323.329444,209.898611 C326.796667,209.898611 328.727778,212.817222 328.727778,218.654444 C328.727778,224.491667 326.796667,227.081111 323.329444,227.081111 C319.862222,227.081111 317.931111,224.491667 317.931111,218.654444 C317.931111,212.817222 319.862222,209.898611 323.329444,209.898611 Z M323.329444,211.434722 C321.003333,211.434722 319.840278,213.870556 319.840278,218.698333 C319.840278,223.526111 321.003333,225.566944 323.329444,225.566944 C325.655556,225.566944 326.818611,223.526111 326.818611,218.698333 C326.818611,213.870556 325.655556,211.434722 323.329444,211.434722 Z" id="10,000" fill="#FFFFFF"></path>
                <path d="M343.874931,223.641319 L343.874931,221.814444 L340.435139,221.814444 L340.435139,220.612986 L343.874931,220.612986 L343.874931,211.544444 L345.290347,211.544444 L345.290347,223.641319 L343.874931,223.641319 Z M332.732639,218.605069 L335.448264,218.605069 C337.653681,218.605069 340.879514,218.473403 342.986181,218.193611 L342.986181,219.345694 C341.751806,219.510278 340.204722,219.641944 338.657639,219.724236 L338.657639,223.065278 L337.225764,223.065278 L337.225764,219.773611 C336.616806,219.806528 336.024306,219.806528 335.464722,219.806528 L332.732639,219.806528 L332.732639,218.605069 Z M345.537222,226.274653 L335.086181,226.274653 L335.086181,222.406944 L336.485139,222.406944 L336.485139,225.056736 L345.537222,225.056736 L345.537222,226.274653 Z M341.718889,214.687986 C341.718889,216.399653 340.237639,217.650486 337.884097,217.650486 C335.530556,217.650486 334.049306,216.399653 334.049306,214.687986 C334.049306,212.976319 335.530556,211.725486 337.884097,211.725486 C340.237639,211.725486 341.718889,212.976319 341.718889,214.687986 Z M340.254097,214.671528 C340.254097,213.865069 339.645139,212.877569 337.884097,212.877569 C336.123056,212.877569 335.514097,213.865069 335.514097,214.671528 C335.514097,215.461528 336.123056,216.465486 337.884097,216.465486 C339.645139,216.465486 340.254097,215.461528 340.254097,214.671528 Z" id="원" fill="#FFFFFF"></path>
                <g id="결제정보_1" transform="translate(21.944444, 102.041667)">
                    <rect id="Rectangle" x="0" y="0" width="351.111111" height="39.5"></rect>
                    <path d="M230.921389,20.6014444 L230.921389,21.78425 C230.921389,23.2896389 231.919861,24.2881111 233.240917,24.2881111 C234.746306,24.2881111 235.606528,23.0592222 235.606528,20.8318611 C235.606528,18.881 234.761667,17.6981944 233.409889,17.6981944 C232.012028,17.6981944 230.921389,19.0653333 230.921389,20.6014444 Z M233.532778,16.6536389 C235.929111,16.6536389 236.958306,18.3894444 236.958306,20.8165 C236.958306,23.44325 235.836944,25.37875 233.333083,25.37875 C232.257806,25.37875 231.551194,24.9332778 231.013556,24.2113056 L230.998194,24.2113056 L230.952111,25.2405 L229.569611,25.2405 L229.569611,12.7519167 L230.890667,12.7519167 L230.890667,18.1283056 L230.921389,18.1283056 C231.459028,17.222 232.380694,16.6536389 233.532778,16.6536389 Z M241.873861,25.37875 C239.185667,25.37875 237.972139,23.3971667 237.972139,21.0161944 C237.972139,18.4969722 239.293194,16.6536389 241.873861,16.6536389 C244.454528,16.6536389 245.775583,18.4969722 245.775583,21.0161944 C245.775583,23.3971667 244.562056,25.37875 241.873861,25.37875 Z M241.873861,24.3188333 C243.502139,24.3188333 244.377722,23.1974722 244.377722,21.0161944 C244.377722,18.7734722 243.502139,17.6981944 241.873861,17.6981944 C240.245583,17.6981944 239.37,18.7734722 239.37,21.0161944 C239.37,23.1974722 240.245583,24.3188333 241.873861,24.3188333 Z M250.737222,25.37875 C248.049028,25.37875 246.8355,23.3971667 246.8355,21.0161944 C246.8355,18.4969722 248.156556,16.6536389 250.737222,16.6536389 C253.317889,16.6536389 254.638944,18.4969722 254.638944,21.0161944 C254.638944,23.3971667 253.425417,25.37875 250.737222,25.37875 Z M250.737222,24.3188333 C252.3655,24.3188333 253.241083,23.1974722 253.241083,21.0161944 C253.241083,18.7734722 252.3655,17.6981944 250.737222,17.6981944 C249.108944,17.6981944 248.233361,18.7734722 248.233361,21.0161944 C248.233361,23.1974722 249.108944,24.3188333 250.737222,24.3188333 Z M260.322556,23.9655278 C260.430083,23.8887222 260.491528,23.9348056 260.491528,24.0576944 L260.491528,24.9947222 C260.076778,25.3019444 259.446972,25.4094722 258.893972,25.4094722 C257.327139,25.4248333 256.681972,24.8411111 256.681972,23.2896389 L256.681972,17.8518056 L255.222667,17.8518056 L255.222667,16.8533333 L256.681972,16.8533333 L256.681972,14.7795833 L258.003028,14.7795833 L258.003028,16.8533333 L260.184306,16.8533333 L260.184306,17.8518056 L258.003028,17.8518056 L258.003028,23.0899444 C258.003028,23.99625 258.110556,24.2881111 259.062944,24.2881111 C259.354806,24.2881111 259.923167,24.1805833 260.322556,23.9655278 Z M263.102917,20.6936111 L263.102917,21.9378611 C263.102917,23.2742778 264.101389,24.27275 265.453167,24.27275 C266.973917,24.27275 267.910944,23.0438611 267.910944,20.8165 C267.910944,18.8656389 266.989278,17.6828333 265.606778,17.6828333 C264.039944,17.6828333 263.102917,19.1575 263.102917,20.6936111 Z M263.179722,18.0207778 C263.84025,17.1605556 264.623667,16.6536389 265.760389,16.6536389 C268.095278,16.6536389 269.293444,18.2051111 269.293444,20.8165 C269.293444,23.4739722 268.126,25.37875 265.576056,25.37875 C264.485417,25.37875 263.717361,24.964 263.164361,24.27275 L263.133639,24.27275 L263.133639,29.0039722 L261.812583,29.0039722 L261.812583,16.8533333 L263.133639,16.8533333 L263.164361,18.0207778 L263.179722,18.0207778 Z M275.699028,21.8303333 L275.699028,20.7243333 L273.471667,21.0008333 C272.334944,21.1698056 271.536167,21.7535278 271.536167,22.89025 C271.536167,23.8119167 272.227417,24.3188333 273.210528,24.3188333 C274.531583,24.3188333 275.699028,23.0899444 275.699028,21.8303333 Z M271.1675,18.6505833 C271.059972,18.7581111 270.967806,18.7120278 270.967806,18.5584167 L270.967806,17.4370556 C271.828028,16.8686944 272.934028,16.5153889 274.055389,16.5153889 C276.052333,16.5153889 276.958639,17.3756111 276.958639,19.4800833 L276.958639,25.2405 L275.683667,25.2405 L275.622222,24.0269722 L275.606861,24.0269722 C275.069222,24.9332778 273.947861,25.4248333 272.918667,25.4248333 C271.275028,25.4248333 270.138306,24.5799722 270.138306,22.9977778 C270.138306,21.4463056 271.121417,20.3556667 273.010833,20.0638056 L275.652944,19.6797778 L275.652944,19.5415278 C275.652944,18.0515 275.084583,17.6674722 273.901778,17.6674722 C272.934028,17.6674722 272.089167,17.9900556 271.1675,18.6505833 Z M278.77125,28.9578889 L278.77125,28.0362222 C278.77125,27.9286944 278.817333,27.9133333 278.924861,27.9286944 C279.155278,27.9901389 279.370333,28.0055 279.570028,28.0055 C280.245917,28.0055 280.891083,27.6982778 281.244389,26.7305278 L281.828111,25.2865833 L281.828111,25.2251389 L278.402583,16.8533333 L279.87725,16.8533333 L282.288944,23.2589167 L282.488639,23.9348056 L282.672972,23.2589167 L284.85425,16.8533333 L286.23675,16.8533333 L282.703694,26.2236111 C282.058528,27.9133333 281.321194,29.0654167 279.646833,29.0654167 C279.262806,29.0654167 278.986306,29.0346944 278.77125,28.9578889 Z M293.133889,26.9916667 L286.590056,26.9916667 L286.590056,25.9778333 L293.133889,25.9778333 L293.133889,26.9916667 Z M295.822083,16.8533333 L295.822083,25.2405 L294.485667,25.2405 L294.485667,16.8533333 L295.822083,16.8533333 Z M294.209167,14.1805 C294.209167,13.6275 294.608556,13.21275 295.161556,13.21275 C295.683833,13.21275 296.113944,13.6275 296.113944,14.1805 C296.113944,14.7027778 295.683833,15.1175278 295.161556,15.1175278 C294.608556,15.1175278 294.209167,14.7027778 294.209167,14.1805 Z M302.181583,23.9655278 C302.289111,23.8887222 302.350556,23.9348056 302.350556,24.0576944 L302.350556,24.9947222 C301.935806,25.3019444 301.306,25.4094722 300.753,25.4094722 C299.186167,25.4248333 298.541,24.8411111 298.541,23.2896389 L298.541,17.8518056 L297.081694,17.8518056 L297.081694,16.8533333 L298.541,16.8533333 L298.541,14.7795833 L299.862056,14.7795833 L299.862056,16.8533333 L302.043333,16.8533333 L302.043333,17.8518056 L299.862056,17.8518056 L299.862056,23.0899444 C299.862056,23.99625 299.969583,24.2881111 300.921972,24.2881111 C301.213833,24.2881111 301.782194,24.1805833 302.181583,23.9655278 Z M304.48575,20.2327778 L309.232333,20.2327778 L309.232333,20.1713333 C309.232333,18.5123333 308.372111,17.6521111 307.035694,17.6521111 C305.760722,17.6521111 304.731528,18.6198611 304.48575,20.1559722 L304.48575,20.2327778 Z M307.066417,16.6536389 C309.309139,16.6536389 310.630194,18.0668611 310.630194,20.6014444 L310.630194,21.23125 L304.470389,21.23125 L304.470389,21.3695 C304.516472,23.3357222 305.607111,24.3495556 307.327556,24.3495556 C308.2185,24.3495556 309.109444,24.1191389 310.046472,23.4586111 C310.154,23.3664444 310.215444,23.3818056 310.215444,23.5200556 L310.215444,24.5799722 C309.370583,25.2405 308.35675,25.4248333 307.143222,25.4248333 C304.716167,25.4248333 303.057167,23.8426389 303.057167,21.0776389 C303.057167,18.4201667 304.700806,16.6536389 307.066417,16.6536389 Z M318.464361,18.5430556 L318.479722,18.5430556 C319.109528,17.2988056 320.092639,16.669 321.198639,16.669 C323.210944,16.669 323.856111,17.9439722 323.856111,20.2942222 L323.856111,25.2405 L322.550417,25.2405 L322.550417,20.2481389 C322.550417,18.5430556 322.18175,17.6981944 321.014306,17.6981944 C319.8315,17.6981944 318.694778,18.9424444 318.694778,20.6168056 L318.679417,25.2405 L317.404444,25.2405 L317.404444,20.2481389 C317.404444,18.5430556 317.005056,17.6981944 315.852972,17.6981944 C314.670167,17.6981944 313.502722,18.9424444 313.502722,20.6168056 L313.502722,25.2405 L312.22775,25.2405 L312.22775,16.8533333 L313.518083,16.8533333 L313.564167,18.1129444 L313.579528,18.1129444 C314.055722,17.222 315.069556,16.669 316.037306,16.669 C317.450528,16.669 318.111056,17.2834444 318.464361,18.5430556 Z" id="Rapidos-라피도스개..." fill="#FFFFFF"></path>
                    <path d="M31.6329167,13.0591389 C31.6482778,13.9808056 31.54075,14.8256667 31.3410556,15.6090833 C32.1859167,17.222 33.3687222,18.3740833 35.0738056,19.2343056 L34.2596667,20.1713333 C32.8003611,19.4186389 31.6329167,18.2972778 30.8341389,16.9762222 C30.0968056,18.5276944 28.8832778,19.7412222 27.3625278,20.5860833 L26.4562222,19.7105 C29.0829722,18.2204722 30.43475,16.116 30.2657778,13.0591389 L31.6329167,13.0591389 Z M39.8818333,17.4677778 L37.6698333,17.4677778 L37.6698333,21.2158889 L36.3487778,21.2158889 L36.3487778,12.7058333 L37.6698333,12.7058333 L37.6698333,16.3003333 L39.8818333,16.3003333 L39.8818333,17.4677778 Z M37.8234444,24.0884167 C37.8234444,25.6706111 36.2873333,26.8534167 33.2765556,26.8534167 C30.2657778,26.8534167 28.7296667,25.6706111 28.7296667,24.0884167 C28.7296667,22.4908611 30.2657778,21.3848611 33.2765556,21.3848611 C36.2873333,21.3848611 37.8234444,22.4908611 37.8234444,24.0884167 Z M36.4409444,24.1191389 C36.4409444,23.2281944 35.4731944,22.5215833 33.2765556,22.5215833 C31.1106389,22.5215833 30.0968056,23.2281944 30.0968056,24.1191389 C30.0968056,25.0100833 31.1106389,25.7166944 33.2765556,25.7166944 C35.4731944,25.7166944 36.4409444,25.0100833 36.4409444,24.1191389 Z M42.04775,14.2265833 L42.04775,13.0898611 L51.7866944,13.0898611 L51.7866944,14.2265833 L42.04775,14.2265833 Z M41.8787778,17.9439722 L41.8787778,16.8379722 L43.8296389,16.8379722 L43.7374722,14.7642222 L45.0585278,14.7642222 L45.1199722,16.8379722 L48.6683889,16.8379722 L48.7759167,14.7642222 L50.0969722,14.7642222 L49.9894444,16.8379722 L51.9403056,16.8379722 L51.9403056,17.9439722 L41.8787778,17.9439722 Z M46.1798889,22.199 L46.1798889,20.4171111 L40.2044167,20.4171111 L40.2044167,19.2803889 L53.5685833,19.2803889 L53.5685833,20.4171111 L47.5470278,20.4171111 L47.5470278,22.199 L51.4026667,22.199 L51.4026667,26.5154722 L42.3703333,26.5154722 L42.3703333,22.199 L46.1798889,22.199 Z M50.0816111,23.3357222 L43.6913889,23.3357222 L43.6913889,25.3633889 L50.0816111,25.3633889 L50.0816111,23.3357222 Z M61.3413056,19.8026667 L54.9357222,19.8026667 L54.9357222,13.351 L61.3413056,13.351 L61.3413056,14.7027778 L64.4135278,14.7027778 L64.4135278,12.7058333 L65.7345833,12.7058333 L65.7345833,21.1851667 L64.4135278,21.1851667 L64.4135278,18.4201667 L61.3413056,18.4201667 L61.3413056,19.8026667 Z M61.3413056,15.7934167 L61.3413056,17.3141667 L64.4288889,17.3141667 L64.4288889,15.7934167 L61.3413056,15.7934167 Z M60.0816944,18.6659444 L60.0816944,14.4723611 L56.2721389,14.4723611 L56.2721389,18.6659444 L60.0816944,18.6659444 Z M65.8574722,24.1191389 C65.8574722,25.6859722 64.2906389,26.8534167 61.1876944,26.8534167 C58.1308333,26.8534167 56.5332778,25.6706111 56.5332778,24.1037778 C56.5332778,22.5215833 58.1308333,21.3541389 61.1876944,21.3541389 C64.2906389,21.3541389 65.8574722,22.5369444 65.8574722,24.1191389 Z M64.4749722,24.1191389 C64.4749722,23.2281944 63.4611389,22.4908611 61.1876944,22.4908611 C58.9603333,22.4908611 57.9004167,23.2281944 57.9004167,24.1191389 C57.9004167,24.9793611 58.9603333,25.7166944 61.1876944,25.7166944 C63.4611389,25.7166944 64.4749722,24.9793611 64.4749722,24.1191389 Z" id="상품명" fill="#8AB1FF"></path>
                </g>
                <g id="결제정보_1" transform="translate(21.944444, 141.541667)">
                    <rect id="Rectangle" x="0" y="0" width="351.111111" height="39.5"></rect>
                    <path d="M281.398,19.1421389 L272.427111,19.1421389 L272.427111,13.0284167 L273.748167,13.0284167 L273.748167,15.0407222 L280.076944,15.0407222 L280.076944,13.0284167 L281.398,13.0284167 L281.398,19.1421389 Z M280.107667,18.0361389 L280.107667,16.1313611 L273.717444,16.1313611 L273.717444,18.0361389 L280.107667,18.0361389 Z M270.291917,21.9685833 L270.291917,20.8318611 L283.348861,20.8318611 L283.348861,21.9685833 L277.634528,21.9685833 L277.634528,26.6537222 L276.28275,26.6537222 L276.28275,21.9685833 L270.291917,21.9685833 Z M286.144583,21.2619722 L286.144583,13.7811111 L294.915778,13.7811111 L294.915778,14.9178333 L287.465639,14.9178333 L287.465639,16.8533333 L294.67,16.8533333 L294.67,17.9286111 L287.465639,17.9286111 L287.465639,20.1559722 L295.130833,20.1559722 L295.130833,21.2619722 L286.144583,21.2619722 Z M297.050972,23.5968611 L297.050972,24.7182222 L283.994028,24.7182222 L283.994028,23.5968611 L297.050972,23.5968611 Z M309.601,26.7305278 L308.279944,26.7305278 L308.279944,12.7058333 L309.601,12.7058333 L309.601,26.7305278 Z M305.791444,12.8594444 L307.1125,12.8594444 L307.1125,26.3772222 L305.791444,26.3772222 L305.791444,18.7581111 L304.086361,18.7581111 L304.086361,17.6674722 L305.791444,17.6674722 L305.791444,12.8594444 Z M297.834389,15.0253611 L297.834389,13.9193611 L304.301417,13.9193611 L304.301417,15.0253611 L297.834389,15.0253611 Z M298.925028,21.7535278 L298.8175,15.5937222 L300.06175,15.5937222 L300.169278,21.7535278 L301.920444,21.7535278 L301.99725,15.5937222 L303.2415,15.5937222 L303.164694,21.6920833 C303.7945,21.6306389 304.408944,21.5384722 304.931222,21.4002222 L304.931222,22.4908611 C303.93275,22.8134444 302.6885,22.8748889 301.44425,22.8748889 L297.650056,22.8748889 L297.650056,21.7535278 L298.925028,21.7535278 Z M321.751639,12.7058333 L323.072694,12.7058333 L323.072694,26.7305278 L321.751639,26.7305278 L321.751639,12.7058333 Z M319.094167,18.5276944 C319.094167,21.8149722 317.511972,23.5507778 315.499667,23.5507778 C313.502722,23.5507778 311.889806,21.8149722 311.889806,18.5276944 C311.889806,15.2404167 313.502722,13.5199722 315.499667,13.5199722 C317.511972,13.5199722 319.094167,15.2404167 319.094167,18.5276944 Z M317.75775,18.5276944 C317.75775,16.2388889 316.92825,14.6874167 315.499667,14.6874167 C314.071083,14.6874167 313.241583,16.2388889 313.241583,18.5276944 C313.241583,20.8165 314.071083,22.3833333 315.499667,22.3833333 C316.92825,22.3833333 317.75775,20.8165 317.75775,18.5276944 Z" id="Rapidos-라피도스개..." fill="#FFFFFF"></path>
                    <path d="M26.9631389,14.6413333 L26.9631389,13.5046111 L34.85875,13.5046111 L34.85875,14.6413333 L26.9631389,14.6413333 Z M28.3917222,19.3111111 L28.3149167,15.2096944 L29.5898889,15.2096944 L29.6666944,19.3111111 L30.9416667,19.3111111 C31.3717778,19.3111111 31.8326111,19.29575 32.2934444,19.2803889 L32.3548889,15.2096944 L33.6145,15.2096944 L33.5530556,19.2035833 C34.3211111,19.1421389 35.0738056,19.0346111 35.7189722,18.881 L35.7189722,19.9562778 C34.4747222,20.2942222 32.6006667,20.4171111 30.9570278,20.4171111 L26.6712778,20.4171111 L26.6712778,19.3111111 L28.3917222,19.3111111 Z M39.8818333,17.6828333 L37.6698333,17.6828333 L37.6698333,22.9977778 L36.3487778,22.9977778 L36.3487778,12.7058333 L37.6698333,12.7058333 L37.6698333,16.5153889 L39.8818333,16.5153889 L39.8818333,17.6828333 Z M37.9770556,26.4540278 L29.2212222,26.4540278 L29.2212222,22.2758056 L30.5576389,22.2758056 L30.5576389,25.3019444 L37.9770556,25.3019444 L37.9770556,26.4540278 Z M46.4410278,22.8595278 L41.08,22.8595278 L41.08,13.9193611 L46.4410278,13.9193611 L46.4410278,22.8595278 Z M45.1660556,21.7381667 L45.1660556,15.0253611 L42.3703333,15.0253611 L42.3703333,21.7381667 L45.1660556,21.7381667 Z M52.2628889,26.7305278 L50.9418333,26.7305278 L50.9418333,18.7888333 L49.3442778,18.7888333 L49.3442778,26.3772222 L48.0539444,26.3772222 L48.0539444,12.8594444 L49.3442778,12.8594444 L49.3442778,17.6521111 L50.9418333,17.6521111 L50.9418333,12.7058333 L52.2628889,12.7058333 L52.2628889,26.7305278 Z M67.4089444,19.2803889 L64.99725,19.2803889 L64.99725,26.7305278 L63.6761944,26.7305278 L63.6761944,12.7058333 L64.99725,12.7058333 L64.99725,18.1129444 L67.4089444,18.1129444 L67.4089444,19.2803889 Z M59.5594167,18.74275 C60.435,20.0945278 61.6331667,21.4463056 63.0003056,22.4294167 L62.0171944,23.3818056 C60.7883056,22.4447778 59.7591111,21.2158889 58.8681667,19.8794722 C57.7468056,21.5231111 56.2875,22.9363333 54.7053056,23.8426389 L53.7682778,22.9516944 C57.0401944,21.1851667 59.1600278,17.4524167 59.4211667,15.01 C58.2690833,15.0560833 57.1477222,15.0560833 56.011,15.0560833 L54.5670556,15.0560833 L54.5670556,13.9347222 L56.8865833,13.9347222 C58.1922778,13.9347222 59.5440556,13.9347222 60.988,13.904 C60.9265556,15.5476389 60.4042778,17.222 59.5594167,18.74275 Z" id="상품명" fill="#8AB1FF"></path>
                </g>
            </g>
        </g>
    </g>
</svg>