<svg xmlns="http://www.w3.org/2000/svg" viewBox="0 0 520 328.31" width="463" height="292"><defs><style>.cls-1,.cls-4{fill:#fff;}.cls-11,.cls-14,.cls-2{fill:#e4e4ea;}.cls-14,.cls-16,.cls-3{opacity:0.4;}.cls-11,.cls-13,.cls-4,.cls-5,.cls-8{stroke:#e4e4ea;}.cls-4,.cls-5{stroke-linecap:round;stroke-linejoin:round;}.cls-4,.cls-5,.cls-8{stroke-width:0.82px;}.cls-13,.cls-18,.cls-5,.cls-8{fill:#fafafa;}.cls-6{fill:#acb7c3;opacity:0.6;isolation:isolate;}.cls-7{fill:#d7fff9;}.cls-11,.cls-13,.cls-8{stroke-miterlimit:10;}.cls-9{fill:#3d34b7;}.cls-10{fill:#4529e5;}.cls-11,.cls-13{stroke-width:0.75px;}.cls-12,.cls-15{opacity:0.8;}.cls-15,.cls-16,.cls-17{fill:#d0d0dd;}.cls-17{opacity:0.6;}</style></defs><title>자산 35</title><g id="레이어_2" data-name="레이어 2"><g id="레이어_1-2" data-name="레이어 1"><rect class="cls-1" x="0.5" y="0.5" width="519" height="327.31" rx="5.5" ry="5.5"/><path class="cls-2" d="M514,1a5,5,0,0,1,5,5V322.31a5,5,0,0,1-5,5H6a5,5,0,0,1-5-5V6A5,5,0,0,1,6,1H514m0-1H6A6,6,0,0,0,0,6V322.31a6,6,0,0,0,6,6H514a6,6,0,0,0,6-6V6a6,6,0,0,0-6-6Z"/><g class="cls-3"><circle class="cls-2" cx="203.02" cy="170.27" r="24.85"/><path class="cls-1" d="M192.45,169.84l4.25-3.44.39-.32h-2.53l-.07.06-4.11,3.67.74-3.73h-3.31l.95.85-1.51,7.68,0,.18h2.2l0-.18.8-4,2.24,4.15,0,.07h2.84l-.17-.3Zm11.83-3.54a4,4,0,0,0-1.09-.26,10.19,10.19,0,0,0-1.44-.11,6.85,6.85,0,0,0-4.14,1.26,5.37,5.37,0,0,0-2.15,3.39,4.11,4.11,0,0,0,.09,2.11,3,3,0,0,0,1.12,1.53,4.85,4.85,0,0,0,2.83.74,9.65,9.65,0,0,0,2.76-.38.61.61,0,0,0,.42-.37l.28-.84,0-.1v0a.22.22,0,0,0-.13-.25l-.11-.08a.29.29,0,0,0-.18-.05.35.35,0,0,0-.18.06,5.25,5.25,0,0,1-2.48.67,2,2,0,0,1-1.83-.9,3.18,3.18,0,0,1-.3-2.41,3.91,3.91,0,0,1,1.11-2.19,2.92,2.92,0,0,1,2.07-.74,5,5,0,0,1,2.25.47c.25.13.28.13.33.13l.16,0h0l.15-.08h0a.45.45,0,0,0,.27-.27l.25-.82A.33.33,0,0,0,204.27,166.29Zm7.59.25a4.28,4.28,0,0,0-2.48-.52l-4.4,0,.94.85-1.52,7.7,0,.18h2.2l0-.18.57-2.9h.73a6.07,6.07,0,0,0,2.8-.54,3.37,3.37,0,0,0,1.85-2.38A2.09,2.09,0,0,0,211.86,166.55Zm-1.61,2.35a1.61,1.61,0,0,1-.66,1.08,2.73,2.73,0,0,1-1.49.32l-.63,0,.56-2.86h.64a3.08,3.08,0,0,1,1.08.15C210.22,167.75,210.39,168.19,210.25,168.89Z"/><path class="cls-1" d="M203.49,164.37l5-4a1.23,1.23,0,0,1,1.82.1l6.28,7.46-.05-.07a1.31,1.31,0,0,1-.18,1.81L203.7,180.21h0a1.32,1.32,0,0,1-1.92-.19l.06.07-3.14-3.84h-2.44l4.28,5.23,0,0,0,0a2.92,2.92,0,0,0,4.14.22l0,0,13-10.87a2.88,2.88,0,0,0,.52-4l0,0,0,0L211.5,159l0,0,0,0a2.85,2.85,0,0,0-4.08-.14l0,0-6.73,5.6Z"/><path class="cls-1" d="M187.79,161.8c0-.2,0-.34-.17-.42a.06.06,0,0,0-.07,0,2.57,2.57,0,0,0-.26.25.26.26,0,0,0-.08.21V164a.37.37,0,0,0,.17.37.06.06,0,0,0,.07,0,2.41,2.41,0,0,0,.26-.22.21.21,0,0,0,.08-.19Z"/><path class="cls-1" d="M191.59,161.8c0-.2,0-.34-.17-.42a.06.06,0,0,0-.07,0,2.72,2.72,0,0,0-.26.25.26.26,0,0,0-.08.21V164c0,.18,0,.3.17.37a.06.06,0,0,0,.07,0,2.62,2.62,0,0,0,.26-.22.21.21,0,0,0,.08-.19Z"/><path class="cls-1" d="M190.33,163c.17.09.27.19.27.34a.06.06,0,0,1,0,.06,2.48,2.48,0,0,1-.33.14.23.23,0,0,1-.22,0l-1.51-.77c-.19-.1-.31-.2-.32-.37a.06.06,0,0,1,0-.06,2.57,2.57,0,0,1,.36-.13.27.27,0,0,1,.24,0Z"/><path class="cls-1" d="M195.75,161.8c0-.2,0-.34-.17-.42a.06.06,0,0,0-.07,0,2.55,2.55,0,0,0-.26.25.26.26,0,0,0-.08.21V164a.37.37,0,0,0,.17.37.06.06,0,0,0,.07,0,2.62,2.62,0,0,0,.26-.22.21.21,0,0,0,.08-.19Z"/><path class="cls-1" d="M199.55,161.8c0-.2,0-.34-.17-.42a.06.06,0,0,0-.07,0,2.59,2.59,0,0,0-.26.25.26.26,0,0,0-.08.21V164a.37.37,0,0,0,.17.37.06.06,0,0,0,.07,0,2.62,2.62,0,0,0,.26-.22.21.21,0,0,0,.07-.19Z"/><path class="cls-1" d="M198.29,163c.17.09.27.19.27.34a.07.07,0,0,1,0,.06,2.42,2.42,0,0,1-.33.14.22.22,0,0,1-.22,0l-1.51-.77c-.19-.1-.3-.2-.32-.37a.06.06,0,0,1,0-.06,2.56,2.56,0,0,1,.36-.13.28.28,0,0,1,.24,0Z"/><path class="cls-1" d="M192.58,162.56a.27.27,0,0,0-.23.08,2.63,2.63,0,0,0-.26.28.06.06,0,0,0,0,.07c.08.14.23.18.45.18h1.63a.28.28,0,0,0,.23-.08,2.94,2.94,0,0,0,.26-.28.06.06,0,0,0,0-.07c-.08-.14-.23-.18-.45-.18Z"/></g><g class="cls-3"><circle class="cls-2" cx="352.8" cy="55.5" r="28.84"/><path class="cls-1" d="M361.16,47.68l-5-5.6a.52.52,0,0,0-.74,0L348,48.68h12.84l.3-.26A.52.52,0,0,0,361.16,47.68Zm-4.78-1.61a.17.17,0,0,1-.23,0l-1.46-1.65h0l-.4-.46a.14.14,0,0,1,0-.2l.73-.65a1.63,1.63,0,0,1,.36-.25,1,1,0,0,1,.36-.1.75.75,0,0,1,.35.06v0a.89.89,0,0,1,.31.24.92.92,0,0,1,.25.49.82.82,0,0,1-.07.44,1.4,1.4,0,0,1-.27.39l-.35.34-.07.06.84,1Z"/><path class="cls-1" d="M356,44a.4.4,0,0,0,0-.21.72.72,0,0,0-.33-.39.32.32,0,0,0-.19,0,.52.52,0,0,0-.2.08l-.22.17h0c-.08.07-.1.12-.1.14a.28.28,0,0,0,.07.12l.44.49a.17.17,0,0,0,.24,0h0a1.54,1.54,0,0,0,.18-.18A.56.56,0,0,0,356,44Z"/><polygon class="cls-1" points="347.1 48.7 347.12 48.68 344.23 48.68 344.29 48.71 344.29 48.7 347.1 48.7"/><path class="cls-1" d="M363.75,48.7l-.25,0h-1.86l0,0Z"/><polygon class="cls-1" points="360.82 48.68 347.98 48.68 347.95 48.7 360.8 48.7 360.82 48.68"/><path class="cls-1" d="M361.22,48.7h.4l0,0h-.39Z"/><polygon class="cls-1" points="347.52 48.7 347.55 48.68 347.12 48.68 347.1 48.7 347.52 48.7"/><polygon class="cls-1" points="360.8 48.7 361.22 48.7 361.25 48.68 360.82 48.68 360.8 48.7"/><polygon class="cls-1" points="347.98 48.68 347.55 48.68 347.52 48.7 347.95 48.7 347.98 48.68"/><path class="cls-1" d="M348,48.68,355.46,42a.52.52,0,0,1,.74,0l5,5.6a.52.52,0,0,1,0,.74l-.3.26h.82a1.09,1.09,0,0,0-.06-1.37l-5-5.6a1.09,1.09,0,0,0-1.54-.09l-8,7.06H348Z"/><path class="cls-1" d="M364.31,49l-.09-.08a1,1,0,0,0-.48-.2H344.29v0l.17.11h0a.72.72,0,0,1,.35.47v0h19.74A1.44,1.44,0,0,0,364.31,49Z"/><path class="cls-1" d="M340.54,60.15h3.09l-.33-.81h0a.82.82,0,0,0-.71-.5h-1.51"/><path class="cls-1" d="M359.2,60.15h-3.09l.33-.81h0a.82.82,0,0,1,.71-.5h1.51"/><path class="cls-1" d="M352.36,53.6l-2.27,3.45-1.87-2.9a1.22,1.22,0,0,0-.45-.42,1.53,1.53,0,0,0-.71-.14h-2a2.89,2.89,0,0,1,.75.48,4.7,4.7,0,0,1,.62.86l2.48,3.7v3.74a.51.51,0,0,0,.5.47h1.51V58.62l3.35-5Z"/><path class="cls-1" d="M338,55.07l-.06,0,.06,0a2.25,2.25,0,0,0-.66-.82,2.85,2.85,0,0,0-1-.49A4.84,4.84,0,0,0,335,53.6h-3.89a1,1,0,0,1,.47.48,2.61,2.61,0,0,1,.1.84v7.47a.52.52,0,0,0,.5.44h1.52V59H334q.71,0,1.44-.06a4.15,4.15,0,0,0,1.35-.33,2.42,2.42,0,0,0,1-.84,2.73,2.73,0,0,0,.4-1.58A2.67,2.67,0,0,0,338,55.07ZM336,57a1.18,1.18,0,0,1-.42.47,1.67,1.67,0,0,1-.62.23,4.64,4.64,0,0,1-.75.06h0a.52.52,0,0,1-.53-.49v-2a.81.81,0,0,1,.08-.42c0-.06.19-.12.49-.12h0a5,5,0,0,1,.81.06,1.54,1.54,0,0,1,.59.21,1,1,0,0,1,.36.43,1.8,1.8,0,0,1,.13.73A1.76,1.76,0,0,1,336,57Zm-4.9-3.41h0Z"/><path class="cls-1" d="M369,55.07l-.06,0,.06,0a2.25,2.25,0,0,0-.66-.82,2.85,2.85,0,0,0-1-.49A4.84,4.84,0,0,0,366,53.6h-3.89a1,1,0,0,1,.47.48,2.61,2.61,0,0,1,.1.84v7.47a.52.52,0,0,0,.5.44h1.52V59H365q.71,0,1.44-.06a4.15,4.15,0,0,0,1.35-.33,2.42,2.42,0,0,0,1-.84,2.73,2.73,0,0,0,.4-1.58A2.67,2.67,0,0,0,369,55.07ZM367,57a1.18,1.18,0,0,1-.42.47,1.67,1.67,0,0,1-.62.23,4.64,4.64,0,0,1-.75.06h0a.52.52,0,0,1-.53-.49v-2a.81.81,0,0,1,.08-.42c0-.06.19-.12.49-.12h0a5,5,0,0,1,.81.06,1.54,1.54,0,0,1,.59.21,1,1,0,0,1,.36.43,1.8,1.8,0,0,1,.13.73A1.76,1.76,0,0,1,367,57Zm-4.9-3.41h0Z"/><path class="cls-1" d="M376.91,55.07l-.06,0,.06,0a2.25,2.25,0,0,0-.66-.82,2.85,2.85,0,0,0-1-.49A4.84,4.84,0,0,0,374,53.6h-3.88a1,1,0,0,1,.47.48,2.6,2.6,0,0,1,.1.84v7.47a.52.52,0,0,0,.51.44h1.52V59h.28q.71,0,1.44-.06a4.15,4.15,0,0,0,1.35-.33,2.42,2.42,0,0,0,1-.84,2.73,2.73,0,0,0,.4-1.58A2.67,2.67,0,0,0,376.91,55.07ZM375,57a1.18,1.18,0,0,1-.42.47,1.67,1.67,0,0,1-.62.23,4.64,4.64,0,0,1-.75.06h0a.52.52,0,0,1-.53-.49v-2a.81.81,0,0,1,.08-.42c0-.06.19-.12.49-.12h0a5,5,0,0,1,.81.06,1.54,1.54,0,0,1,.59.21,1,1,0,0,1,.36.43,1.79,1.79,0,0,1,.13.73A1.76,1.76,0,0,1,375,57Zm-4.9-3.41h0Z"/><path class="cls-1" d="M340.92,60.15l-1.07,2.68h-1.16a.34.34,0,0,1-.32-.5l2.79-6.9.07-.19.08-.23a2.39,2.39,0,0,0,.06-.24.92.92,0,0,0,0-.19,2.2,2.2,0,0,0-.06-.46.64.64,0,0,0-.35-.41l-.23-.13h1.76a1.18,1.18,0,0,1,.71.19,1.3,1.3,0,0,1,.41.53l-.06,0,.07,0,3.52,8.51h-1.64a.82.82,0,0,1-.66-.47l-1.46-3.66-1-2.44-1,2.59Z"/><path class="cls-1" d="M358.83,60.15l1.07,2.68h1.16a.34.34,0,0,0,.32-.5l-2.79-6.9-.07-.19-.08-.23a2.4,2.4,0,0,1-.06-.24.92.92,0,0,1,0-.19,2.2,2.2,0,0,1,.06-.46.64.64,0,0,1,.35-.41l.23-.13h-1.76a1.18,1.18,0,0,0-.71.19,1.3,1.3,0,0,0-.41.53l.06,0-.07,0-3.52,8.51h1.64a.82.82,0,0,0,.66-.47l1.46-3.66,1-2.44,1,2.59Z"/><path class="cls-1" d="M343.41,58.68"/></g><g class="cls-3"><circle class="cls-2" cx="61.37" cy="164.78" r="37.03"/><path class="cls-1" d="M57.1,162.29H47.82a.41.41,0,0,1-.41-.41.85.85,0,0,0,.41.65l9.28,5.36c.23.13.41.05.41-.17v-5.45a.56.56,0,0,0,0-.2.41.41,0,0,1-.37.23"/><path class="cls-1" d="M57.1,161.61l-4.25-2.46-5,2.9c-.23.13-.41.05-.41-.17a.41.41,0,0,0,.41.41H57.1a.41.41,0,0,0,.37-.23.9.9,0,0,0-.37-.45"/><path class="cls-1" d="M57.51,150.59c0-.23-.19-.31-.41-.17l-9.28,5.35a.85.85,0,0,0-.41.65.41.41,0,0,1,.41-.41H57.1a.41.41,0,0,1,.37.23.57.57,0,0,0,0-.2Z"/><path class="cls-1" d="M57.1,156H47.82a.41.41,0,0,0-.41.41c0-.23.18-.31.41-.17l5,2.9,4.25-2.46a.91.91,0,0,0,.37-.45.41.41,0,0,0-.37-.23"/><path class="cls-1" d="M47.82,162.05l5-2.9-5-2.9c-.23-.13-.41-.05-.41.17v5.45c0,.23.18.31.41.18"/><polygon class="cls-1" points="32.85 167.93 35.27 167.93 35.27 172.5 39.54 167.93 42.7 167.93 37.81 173.04 43.13 178.93 39.74 178.93 35.27 173.71 35.27 178.93 32.85 178.93 32.85 167.93"/><path class="cls-1" d="M53.11,178.15a9.87,9.87,0,0,1-4.61,1.06,5.78,5.78,0,1,1,0-11.55,6.23,6.23,0,0,1,4.38,1.41l-1.71,1.86a3.37,3.37,0,0,0-2.67-1,3.54,3.54,0,0,0,0,7.08,4.76,4.76,0,0,0,2.28-.54v-1.79h-2v-2.24h4.3Z"/><path class="cls-1" d="M65.94,173.19a2.47,2.47,0,0,1,3.08-.69c1.09.48,1.22,1.45,1.22,2.48s0,2.13,0,3.19c0,.79-.5.54-.89.57s-.81.08-.78-.59c.05-1,0-2.06,0-3.09,0-.78-.25-1.37-1.15-1.34a1.24,1.24,0,0,0-1.35,1.34c0,1-.06,2,0,3,.05.78-.41.67-.9.71s-.76-.15-.75-.74c0-1.65,0-3.29,0-4.94,0-.37-.09-.79.53-.72S66.16,172.16,65.94,173.19Z"/><path class="cls-1" d="M87.08,178.94a3.22,3.22,0,0,1-1.56-.41c-.27-.19-1-.25-.66-.76s.65-1.17,1.4-.42a1.54,1.54,0,0,0,.92.36.88.88,0,0,0,1-.66c.12-.56-.33-.66-.74-.76s-.93-.23-1.38-.37a1.58,1.58,0,0,1-1.22-1.47,1.78,1.78,0,0,1,1-1.8,3.37,3.37,0,0,1,3.22,0c.25.13.78.35.43.72s-.44,1.1-1.15.51a1.08,1.08,0,0,0-.55-.26c-.45,0-1.07-.24-1.23.38s.44.73.9.85.73.14,1.09.25a1.68,1.68,0,0,1,1.35,1.6,1.77,1.77,0,0,1-1.14,1.86A5.3,5.3,0,0,1,87.08,178.94Z"/><path class="cls-1" d="M75.19,175.58c-.25-2.44,2.64-4.08,4.92-3,.32.16.91.36.58.82s-.53,1.13-1.35.56a1.48,1.48,0,0,0-2.09.33,1.82,1.82,0,0,0-.17,2.28,1.73,1.73,0,0,0,2.15.71c.26-.07.45-.52.78-.21s.72.59.76.92-.51.46-.85.6C77.34,179.66,74.9,177.62,75.19,175.58Z"/><path class="cls-1" d="M62.59,174c0,1.3,0,2.61,0,3.91,0,.72-.24.87-.88.83s-1,.07-.95-.77c.06-2.6,0-5.21,0-7.81,0-.75.33-.82.93-.83s.92.17.89.87C62.55,171.5,62.59,172.77,62.59,174Z"/><path class="cls-1" d="M73.65,175.57c0,.75,0,1.51,0,2.25s-.09.95-.86,1-.7-.5-.71-1c0-1.57,0-3.14,0-4.71,0-.58.16-.75.74-.74s.9.06.85.77S73.65,174.75,73.65,175.57Z"/><path class="cls-1" d="M83.43,175.64c0,.82,0,1.64,0,2.46s-.32.68-.81.67-.86,0-.84-.66q.07-2.56,0-5.13c0-.75.46-.59.88-.61s.81-.08.77.6C83.38,173.86,83.43,174.75,83.43,175.64Z"/><path class="cls-1" d="M83.63,170.34c.06.69-.48.85-1,.87a.88.88,0,0,1-1-.9.93.93,0,0,1,1-1C83.18,169.33,83.67,169.58,83.63,170.34Z"/><path class="cls-1" d="M71.84,170.28c0-.7.48-.92,1-1a1,1,0,1,1,0,1.91C72.29,171.25,71.86,171,71.84,170.28Z"/></g><rect class="cls-1" x="52.62" y="193.37" width="124.43" height="85.12" rx="4.1" ry="4.1"/><path class="cls-2" d="M173,193.78a3.69,3.69,0,0,1,3.69,3.69v76.91a3.69,3.69,0,0,1-3.69,3.69H56.72A3.69,3.69,0,0,1,53,274.39V197.47a3.69,3.69,0,0,1,3.69-3.69H173m0-.82H56.72a4.52,4.52,0,0,0-4.51,4.51v76.91a4.52,4.52,0,0,0,4.51,4.51H173a4.52,4.52,0,0,0,4.51-4.51V197.47A4.52,4.52,0,0,0,173,193Z"/><rect class="cls-4" x="36.63" y="275.89" width="156.41" height="1.54" rx="0.25" ry="0.25"/><path class="cls-5" d="M36.77,277.43l5.47,1.9a20.51,20.51,0,0,0,6.44,1.15H49l131.64.12H181a20.51,20.51,0,0,0,6.44-1.14l5.51-2Z"/><circle class="cls-6" cx="114.84" cy="197.24" r="0.36"/><rect class="cls-7" x="57.87" y="200.21" width="113.95" height="71.4" rx="0.6" ry="0.6"/><path class="cls-8" d="M171.21,200.29a.51.51,0,0,1,.51.51V271a.51.51,0,0,1-.51.51H58.46A.51.51,0,0,1,58,271v-70.2a.51.51,0,0,1,.51-.51H171.21"/><path class="cls-9" d="M91.51,218.15h5.83a12.89,12.89,0,0,1,2.74.28,6.11,6.11,0,0,1,2.21.92,4.54,4.54,0,0,1,1.48,1.72,5.85,5.85,0,0,1,.54,2.65,6,6,0,0,1-.54,2.63,5.11,5.11,0,0,1-1.46,1.84,6.19,6.19,0,0,1-2.17,1.07,10,10,0,0,1-2.69.35H95.06v6.31H91.51Zm5.69,8.64q3.62,0,3.62-3.07a2.36,2.36,0,0,0-.95-2.16,5.28,5.28,0,0,0-2.8-.6h-2v5.83Z"/><path class="cls-9" d="M114.55,236.24a9.35,9.35,0,0,1-3.38-.6,7.56,7.56,0,0,1-2.7-1.75,8.07,8.07,0,0,1-1.79-2.86,11,11,0,0,1-.65-3.94,10.74,10.74,0,0,1,.67-3.91,8.74,8.74,0,0,1,1.82-2.93,7.69,7.69,0,0,1,2.7-1.82,8.81,8.81,0,0,1,3.32-.62,7.1,7.1,0,0,1,3.28.7,8.46,8.46,0,0,1,2.22,1.58l-1.9,2.26a6.56,6.56,0,0,0-1.45-1.06,4.26,4.26,0,0,0-2-.43,4.84,4.84,0,0,0-2,.42,4.42,4.42,0,0,0-1.58,1.21,5.79,5.79,0,0,0-1,1.92,8.19,8.19,0,0,0-.37,2.57,7.07,7.07,0,0,0,1.32,4.55,4.74,4.74,0,0,0,3.94,1.64,4.61,4.61,0,0,0,1.25-.17,2.48,2.48,0,0,0,1-.5V229H114v-2.9h6.31v8a7.63,7.63,0,0,1-2.4,1.51A8.61,8.61,0,0,1,114.55,236.24Z"/><path class="cls-9" d="M128.37,218.15h10.9v3h-7.34v4.08h6.24v3h-6.24v4.75h7.61v3H128.37Z"/><path class="cls-10" d="M100.9,244.8a2.06,2.06,0,0,0-.85-.2q-1.08,0-1.08,1.5v1.2h1.61v1H99v6.57H97.7v-6.57h-1v-1l1-.07v-1.22a2.87,2.87,0,0,1,.54-1.84,2,2,0,0,1,1.67-.67,3.14,3.14,0,0,1,.67.07,3.74,3.74,0,0,1,.6.18Z"/><path class="cls-10" d="M104.64,255.09a3.44,3.44,0,0,1-1.34-.27,3.32,3.32,0,0,1-1.13-.78,3.75,3.75,0,0,1-.78-1.25,4.61,4.61,0,0,1-.29-1.69,4.67,4.67,0,0,1,.29-1.69,3.81,3.81,0,0,1,.78-1.26,3.28,3.28,0,0,1,1.13-.78,3.5,3.5,0,0,1,2.67,0,3.29,3.29,0,0,1,1.13.78,3.81,3.81,0,0,1,.78,1.26,4.67,4.67,0,0,1,.29,1.69,4.61,4.61,0,0,1-.29,1.69,3.75,3.75,0,0,1-.78,1.25,3.32,3.32,0,0,1-1.13.78A3.44,3.44,0,0,1,104.64,255.09Zm0-1.08a1.93,1.93,0,0,0,.9-.21,2.1,2.1,0,0,0,.7-.58,2.75,2.75,0,0,0,.46-.91,4.49,4.49,0,0,0,0-2.38,2.91,2.91,0,0,0-.46-.93,2,2,0,0,0-.7-.6,2,2,0,0,0-1.79,0,2,2,0,0,0-.69.6,3,3,0,0,0-.45.93,4.49,4.49,0,0,0,0,2.38,2.82,2.82,0,0,0,.45.91,2,2,0,0,0,.69.58A1.92,1.92,0,0,0,104.64,254Z"/><path class="cls-10" d="M109.82,247.3h1l.11,1.39h0a3.71,3.71,0,0,1,1-1.16,1.92,1.92,0,0,1,1.2-.43,2.48,2.48,0,0,1,.44,0,1.27,1.27,0,0,1,.37.13l-.24,1.12a2.24,2.24,0,0,0-.35-.1,2.27,2.27,0,0,0-.39,0,1.5,1.5,0,0,0-.5.09,1.73,1.73,0,0,0-.51.29,2.66,2.66,0,0,0-.49.54,3.59,3.59,0,0,0-.42.83v4.89h-1.27Z"/><path class="cls-10" d="M117.8,244.64h2.93a7.45,7.45,0,0,1,1.58.15,3.29,3.29,0,0,1,1.21.51,2.42,2.42,0,0,1,.79.93,3.2,3.2,0,0,1,.28,1.41,3.4,3.4,0,0,1-.27,1.41,2.59,2.59,0,0,1-.78,1,3.38,3.38,0,0,1-1.2.58,5.85,5.85,0,0,1-1.54.19h-1.7v4.07h-1.3Zm2.83,5.15a3.22,3.22,0,0,0,2-.51,2,2,0,0,0,.65-1.63,1.68,1.68,0,0,0-.68-1.54,3.86,3.86,0,0,0-2-.43H119.1v4.12Z"/><path class="cls-10" d="M130.17,255.09a4.39,4.39,0,0,1-1.77-.36,4,4,0,0,1-1.42-1A4.9,4.9,0,0,1,126,252a6.9,6.9,0,0,1-.34-2.23,6.78,6.78,0,0,1,.34-2.23,5,5,0,0,1,1-1.68,4.08,4.08,0,0,1,1.44-1.06,4.49,4.49,0,0,1,1.81-.36,3.65,3.65,0,0,1,1.66.39,4,4,0,0,1,.64.41,3.89,3.89,0,0,1,.51.48l-.7.84a3.53,3.53,0,0,0-.92-.71,2.47,2.47,0,0,0-1.18-.27,3,3,0,0,0-1.32.29,2.9,2.9,0,0,0-1,.83,3.88,3.88,0,0,0-.66,1.31,6,6,0,0,0-.23,1.74,6.36,6.36,0,0,0,.22,1.75,4,4,0,0,0,.64,1.33,2.83,2.83,0,0,0,1,.84,2.93,2.93,0,0,0,1.33.29,2.74,2.74,0,0,0,1.32-.31,4.06,4.06,0,0,0,1.06-.84l.71.81a4.41,4.41,0,0,1-1.38,1.09A3.94,3.94,0,0,1,130.17,255.09Z"/><g class="cls-3"><circle class="cls-2" cx="167.53" cy="53.58" r="39.79"/><path class="cls-1" d="M183.15,46.89a1.33,1.33,0,0,0-1.35.95l-2.63,11h2.34c.55,0,.79-.16.9-.65l2.7-11.25Z"/><path class="cls-1" d="M166.1,53.12l-1.34,5.64h1.46A1.79,1.79,0,0,0,168,57.6l1-4.13c.54-2.21-.84-3.34-3.3-3.34h-6.13c-.27,0-.34.31-.06.44.68.3.8.63.66,1.19h0l-1.67,7H160a1.79,1.79,0,0,0,1.8-1.16l1.35-5.48c.09-.31.2-.37.49-.37h1.46A1,1,0,0,1,166.1,53.12Z"/><path class="cls-1" d="M143,48.08h-6.29c-.34,0-.41.39-.07.54.85.38,1,.78.83,1.46h0l-1.81,7.58c-.07.53.12,1.12,1.26,1.12h3.84c4.15,0,7.09-2.2,7.79-5.09C149.21,51,147.76,48.08,143,48.08Zm2.05,5.73c-.72,3.08-3.68,3.52-5.45,3.52h-.28l1.81-7.58h1C145,49.76,145.54,51.86,145.08,53.81Z"/><path class="cls-1" d="M154.73,50c-3.32,0-4.63,1.31-4.94,2.72h2.28a.41.41,0,0,0,.42-.17,2.55,2.55,0,0,1,2.18-1.16c.72,0,1,.39.88.88s-.58.9-1.81,1.21c-2.42.61-4.72,1.29-5.13,3-.3,1.26.33,2.46,2.86,2.46a4.55,4.55,0,0,0,2.86-1.09h0s.08.85,1.45.94h1.05l1.43-6C158.62,51.71,158.77,50,154.73,50Zm-2,7.44c-1.38.25-1.76-1.3-.06-2a23.69,23.69,0,0,1,2.45-.9C155,55.07,154.61,57.1,152.73,57.44Z"/><path class="cls-1" d="M175.52,50c-3.32,0-4.63,1.31-4.94,2.72h2.28a.41.41,0,0,0,.42-.17,2.55,2.55,0,0,1,2.18-1.16c.72,0,1,.39.88.88s-.58.9-1.81,1.21c-2.42.61-4.72,1.29-5.13,3-.3,1.26.33,2.46,2.86,2.46a4.55,4.55,0,0,0,2.86-1.09h0s.08.85,1.45.94h1.05l1.43-6C179.41,51.71,179.57,50,175.52,50Zm-2,7.44c-1.38.25-1.76-1.3-.06-2a23.71,23.71,0,0,1,2.45-.9C175.77,55.07,175.4,57.1,173.52,57.44Z"/><path class="cls-1" d="M180.84,37.66a7,7,0,0,0-.94,0c-.2,0,.83,2,2.46,2.58a5.6,5.6,0,0,0-.75.24,2.51,2.51,0,0,0,2.49,1.57,4.45,4.45,0,0,0-.61.31,2.9,2.9,0,0,0,2.94.87A15,15,0,0,1,188.21,53C198.36,48.63,193.88,37.58,180.84,37.66Z"/><path class="cls-1" d="M191.45,34.59c-.29,0,.25,1.7,1.85,2.77h0c-.41-.1-.86-.19-1.33-.26-.28,0-.07,1.77,1.58,2.89h0a6.41,6.41,0,0,0-1.44-.15c-.13,0,.07,1.11,1.16,2.18-.9,4.19-3.57,8.73-5.05,11C199.75,48.26,204.75,34,191.45,34.59Z"/><path class="cls-1" d="M193,43.18A39.33,39.33,0,0,1,188.21,53C193.54,50.73,194.83,46.58,193,43.18Z"/></g><path class="cls-11" d="M296.68,46.1H200a1,1,0,0,0-1,1v4h98.61v-4A1,1,0,0,0,296.68,46.1Z"/><g class="cls-12"><circle class="cls-1" cx="202.29" cy="48.61" r="0.91"/></g><circle class="cls-1" cx="205.45" cy="48.61" r="0.91"/><circle class="cls-1" cx="208.6" cy="48.61" r="0.91"/><path class="cls-13" d="M276.87,51.11H199v83.76a1.38,1.38,0,0,0,1.24,1.48h96.13a1.38,1.38,0,0,0,1.24-1.48V51.11Z"/><path class="cls-9" d="M223.46,68.26h5.83a12.89,12.89,0,0,1,2.74.28,6.11,6.11,0,0,1,2.21.92,4.54,4.54,0,0,1,1.48,1.72,5.85,5.85,0,0,1,.54,2.65,6,6,0,0,1-.54,2.63,5.11,5.11,0,0,1-1.46,1.84,6.19,6.19,0,0,1-2.17,1.07,10,10,0,0,1-2.69.35H227V86h-3.55Zm5.69,8.64q3.62,0,3.62-3.07a2.36,2.36,0,0,0-.95-2.16,5.28,5.28,0,0,0-2.8-.6h-2V76.9Z"/><path class="cls-9" d="M246.5,86.36a9.35,9.35,0,0,1-3.38-.6,7.56,7.56,0,0,1-2.7-1.75,8.07,8.07,0,0,1-1.79-2.86,11,11,0,0,1-.65-3.94,10.74,10.74,0,0,1,.67-3.91,8.74,8.74,0,0,1,1.82-2.93,7.69,7.69,0,0,1,2.7-1.82,8.81,8.81,0,0,1,3.32-.62,7.1,7.1,0,0,1,3.28.7A8.46,8.46,0,0,1,252,70.2l-1.9,2.26a6.56,6.56,0,0,0-1.45-1.06,4.26,4.26,0,0,0-2-.43,4.84,4.84,0,0,0-2,.42A4.42,4.42,0,0,0,243,72.6a5.79,5.79,0,0,0-1,1.92,8.19,8.19,0,0,0-.37,2.57,7.07,7.07,0,0,0,1.32,4.55,4.74,4.74,0,0,0,3.94,1.64,4.61,4.61,0,0,0,1.25-.17,2.48,2.48,0,0,0,1-.5v-3.5H246V76.2h6.31v8a7.63,7.63,0,0,1-2.4,1.51A8.61,8.61,0,0,1,246.5,86.36Z"/><path class="cls-9" d="M260.33,68.26h4.87a11.78,11.78,0,0,1,3.66.53,7.11,7.11,0,0,1,2.76,1.62,7.19,7.19,0,0,1,1.75,2.75,11.28,11.28,0,0,1,.61,3.91,11.4,11.4,0,0,1-.61,3.91,7.53,7.53,0,0,1-1.73,2.8,7.15,7.15,0,0,1-2.7,1.68,10.54,10.54,0,0,1-3.55.56h-5.06ZM265,83.16a6.77,6.77,0,0,0,2.24-.35,4.22,4.22,0,0,0,1.69-1.08A4.87,4.87,0,0,0,270,79.85a9.18,9.18,0,0,0,.37-2.79,9.06,9.06,0,0,0-.37-2.78,4.66,4.66,0,0,0-1.07-1.85,4.12,4.12,0,0,0-1.69-1,7.23,7.23,0,0,0-2.24-.32h-1.1v12.1Z"/><g class="cls-3"><circle class="cls-14" cx="221.28" cy="111.85" r="11.34"/><path class="cls-9" d="M221.28,111.85V100.52a11.34,11.34,0,0,1,11.14,13.41Z"/><path class="cls-15" d="M221.28,111.85l11.15,2.05a11.34,11.34,0,0,1-5.15,7.57Z"/><path class="cls-16" d="M221.28,111.85l6,9.62a11.34,11.34,0,0,1-3.19,1.36Z"/><circle class="cls-14" cx="247.25" cy="111.85" r="11.34"/><path class="cls-17" d="M247.25,111.85,238,118.43a11.34,11.34,0,1,1,20.5-7.86Z"/><path class="cls-9" d="M247.25,111.85l10.92-3A11.34,11.34,0,0,1,245.37,123Z"/><rect class="cls-16" x="264.18" y="103.26" width="22.53" height="2.16"/><rect class="cls-9" x="264.18" y="103.26" width="12.77" height="2.16"/><rect class="cls-16" x="264.18" y="110.77" width="22.53" height="2.16"/><rect class="cls-9" x="264.18" y="110.77" width="3.36" height="2.16"/><rect class="cls-16" x="264.18" y="114.53" width="22.53" height="2.16"/><rect class="cls-9" x="264.18" y="114.53" width="15.93" height="2.16"/><rect class="cls-14" x="264.18" y="107.02" width="22.53" height="2.16"/><rect class="cls-9" x="264.18" y="107.02" width="8.26" height="2.16"/><rect class="cls-16" x="264.18" y="118.28" width="22.53" height="2.16"/><rect class="cls-9" x="264.18" y="118.28" width="6.48" height="2.16"/></g><path class="cls-11" d="M166.77,65.05H70.07a1,1,0,0,0-1,1v4h98.61V66A1,1,0,0,0,166.77,65.05Z"/><g class="cls-12"><circle class="cls-1" cx="72.38" cy="67.55" r="0.91"/></g><circle class="cls-1" cx="75.54" cy="67.55" r="0.91"/><circle class="cls-1" cx="78.69" cy="67.55" r="0.91"/><path class="cls-13" d="M147,70.05H69.11v83.76a1.38,1.38,0,0,0,1.24,1.48h96.13a1.38,1.38,0,0,0,1.24-1.48V70.05Z"/><path class="cls-9" d="M94.43,87.21h5.83a12.89,12.89,0,0,1,2.74.28,6.11,6.11,0,0,1,2.21.92,4.54,4.54,0,0,1,1.48,1.72,5.85,5.85,0,0,1,.54,2.65,6,6,0,0,1-.54,2.63,5.11,5.11,0,0,1-1.46,1.84A6.19,6.19,0,0,1,103,98.31a10,10,0,0,1-2.69.35H98V105H94.43Zm5.69,8.64q3.62,0,3.62-3.07a2.36,2.36,0,0,0-.95-2.16A5.28,5.28,0,0,0,100,90H98v5.83Z"/><path class="cls-9" d="M117.47,105.3a9.35,9.35,0,0,1-3.38-.6,7.56,7.56,0,0,1-2.7-1.75,8.07,8.07,0,0,1-1.79-2.86,11,11,0,0,1-.65-3.94,10.74,10.74,0,0,1,.67-3.91,8.74,8.74,0,0,1,1.82-2.93,7.69,7.69,0,0,1,2.7-1.82,8.81,8.81,0,0,1,3.32-.62,7.1,7.1,0,0,1,3.28.7A8.46,8.46,0,0,1,123,89.15l-1.9,2.26a6.56,6.56,0,0,0-1.45-1.06,4.26,4.26,0,0,0-2-.43,4.84,4.84,0,0,0-2,.42A4.42,4.42,0,0,0,114,91.55a5.79,5.79,0,0,0-1,1.92,8.19,8.19,0,0,0-.37,2.57,7.07,7.07,0,0,0,1.32,4.55,4.74,4.74,0,0,0,3.94,1.64,4.61,4.61,0,0,0,1.25-.17,2.48,2.48,0,0,0,1-.5v-3.5h-3.14v-2.9h6.31v8a7.63,7.63,0,0,1-2.4,1.51A8.61,8.61,0,0,1,117.47,105.3Z"/><path class="cls-9" d="M139.62,100.41h-5.76L132.61,105H129l5.69-17.76h4.18L144.59,105h-3.72Zm-.77-2.76-.53-1.94q-.41-1.39-.78-2.88t-.78-2.93h-.1q-.34,1.46-.72,2.94t-.79,2.87l-.53,1.94Z"/><g class="cls-3"><circle class="cls-14" cx="91.37" cy="130.8" r="11.34"/><path class="cls-9" d="M91.37,130.8V119.46a11.34,11.34,0,0,1,11.14,13.41Z"/><path class="cls-15" d="M91.37,130.8l11.15,2.05a11.34,11.34,0,0,1-5.15,7.57Z"/><path class="cls-16" d="M91.37,130.8l6,9.62a11.34,11.34,0,0,1-3.19,1.36Z"/><circle class="cls-14" cx="117.34" cy="130.8" r="11.34"/><path class="cls-17" d="M117.34,130.8l-9.23,6.58a11.34,11.34,0,1,1,20.5-7.86Z"/><path class="cls-9" d="M117.34,130.8l10.92-3A11.34,11.34,0,0,1,115.46,142Z"/><rect class="cls-16" x="134.27" y="122.21" width="22.53" height="2.16"/><rect class="cls-9" x="134.27" y="122.21" width="12.77" height="2.16"/><rect class="cls-16" x="134.27" y="129.72" width="22.53" height="2.16"/><rect class="cls-9" x="134.27" y="129.72" width="3.36" height="2.16"/><rect class="cls-16" x="134.27" y="133.48" width="22.53" height="2.16"/><rect class="cls-9" x="134.27" y="133.48" width="15.93" height="2.16"/><rect class="cls-14" x="134.27" y="125.96" width="22.53" height="2.16"/><rect class="cls-9" x="134.27" y="125.96" width="8.26" height="2.16"/><rect class="cls-16" x="134.27" y="137.23" width="22.53" height="2.16"/><rect class="cls-9" x="134.27" y="137.23" width="6.48" height="2.16"/></g><g class="cls-3"><circle class="cls-2" cx="448.59" cy="184.29" r="47.06"/><path class="cls-1" d="M422.58,177.78l-2.2-1.56h0s0,0,0,0a2.34,2.34,0,0,1,.89,2v.3l1.18.6a.48.48,0,0,1,.24.39v.88a.2.2,0,0,1-.26.2l-1.16-.3v1.75a.5.5,0,0,1-.45.49l-.8.06a.4.4,0,0,1-.44-.41V179.9l-2.21-.57v4c0,2.69-1.86,3.81-4.22,3.46l-1.61-.25c-2.23-.34-3.47-1.41-3.47-3.35v-4.63a.54.54,0,0,1,.44-.52l1.15-.18a.37.37,0,0,1,.44.38v4.74a1.47,1.47,0,0,0,1.35,1.67l1.29.12c.9.09,1.72-.21,1.72-1.4v-5.84a.54.54,0,0,1,.44-.52l2.08-.34a1.44,1.44,0,0,1,.76.12l1.85.95v-.23a2.86,2.86,0,0,0-1-2.53,3.55,3.55,0,0,0-2.72-.3l-7.14,1.61a2.34,2.34,0,0,0-1.75,2.18v7a2.34,2.34,0,0,0,1.75,2.18l7.14,1.61a4.58,4.58,0,0,0,3.21-.64l3.54-2.5a2.15,2.15,0,0,0,1.1-2.12v-4.07A2.12,2.12,0,0,0,422.58,177.78Z"/><path class="cls-1" d="M456.67,182.71a3.88,3.88,0,0,1-2.34-2.14,4.12,4.12,0,0,1-2.48,2.35l-.74-1.23a3.46,3.46,0,0,0,2.43-3.36v-.15h-2v-1.23h5.55v1.23h-2v.14a3.31,3.31,0,0,0,2.33,3.18Zm3.36,2.9v1.23h-7v-3.39h1.48v2.16Zm-1.71-6.6v-2.79h1.48v7.89h-1.48v-3.84h-1.61V179Z"/><path class="cls-1" d="M465.27,179.13a4.87,4.87,0,0,0,2.51,4.38l-.82,1.22a5,5,0,0,1-2.41-2.91,5.24,5.24,0,0,1-2.47,3.18l-.83-1.23a5.14,5.14,0,0,0,2.53-4.64v-.6h-2.14v-1.28h5.67v1.28h-2.05Zm5.79,2.49h-1.5V187h-1.48V176.22h1.48v4.12h1.5Z"/><path class="cls-1" d="M476.75,178.74c-.63,1.61-2.08,2.63-4.35,3.15l-.49-1.24c2.34-.48,3.4-1.51,3.57-2.78h-3v-1.23h4.61a6.52,6.52,0,0,1-.07,1h1.89v-1.36h1.48v5.42h-1.48v-.81h-2.29v-1.16h2.29v-.93Zm3.88,7v1.22h-7v-3.05h5.31v-.61h-5.32V182h6.8v3H475.1v.68Z"/><path class="cls-1" d="M485.37,179.08c0,1.81.5,3.63,2,4.54l-.86,1.13a4.42,4.42,0,0,1-1.84-2.64,5,5,0,0,1-1.89,2.9l-.87-1.14c1.5-1,2-2.93,2-4.79v-.53h-1.66V177.3h4.59v1.26h-1.5Zm2.1-2.69h1.38v10.14h-1.38v-5.38h-1.31v-1.26h1.31Zm3.49-.19V187h-1.4V176.21Z"/><path class="cls-1" d="M437.24,179.28c0,1.84,0,3.59,0,5.34V187h2.45v-7.75h-2.45Z"/><path class="cls-1" d="M436.28,183.63c0-3.24.07-2.77-2.95-3.08,0-.86,0-1.74,0-2.62a1.12,1.12,0,0,0-1.21-1.16H427v10.55h8a1.25,1.25,0,0,0,1.25-1.25v-1h0C436.28,184.66,436.28,184.2,436.28,183.63Zm-2.54,1.24a1,1,0,0,1-.2.16h-2l-.87,0h-1.29v-1a12.08,12.08,0,0,1,0-1.6v-1.61c0-.7,0-1.4,0-2.1s.46-.51.84-.52.64,0,.64.48c0,.89,0,1.78,0,2.93h2.85Z"/><path class="cls-1" d="M437.23,177.5h0v.73h2.47v-1.47h-2.47Z"/><path class="cls-1" d="M444.13,185.49l3.67-5.33a.66.66,0,0,0,.13-.63c-.07-.25-.26-.32-.52-.32h-6.76v1.62H445l-4.34,6.2h7.83v-1.54Z"/></g><rect class="cls-1" x="326.12" y="71.19" width="124.43" height="85.12" rx="4.1" ry="4.1"/><path class="cls-2" d="M446.45,71.6a3.69,3.69,0,0,1,3.69,3.69v76.91a3.69,3.69,0,0,1-3.69,3.69H330.22a3.69,3.69,0,0,1-3.69-3.69V75.3a3.69,3.69,0,0,1,3.69-3.69H446.45m0-.82H330.22a4.52,4.52,0,0,0-4.51,4.51v76.91a4.52,4.52,0,0,0,4.51,4.51H446.45a4.52,4.52,0,0,0,4.51-4.51V75.3a4.52,4.52,0,0,0-4.51-4.51Z"/><rect class="cls-4" x="310.13" y="153.71" width="156.41" height="1.54" rx="0.25" ry="0.25"/><path class="cls-5" d="M310.26,155.25l5.47,1.9a20.51,20.51,0,0,0,6.44,1.15h.33l131.64.12h.33a20.51,20.51,0,0,0,6.44-1.14l5.51-2Z"/><circle class="cls-6" cx="388.33" cy="75.06" r="0.36"/><rect class="cls-7" x="331.36" y="78.03" width="113.95" height="71.4" rx="0.6" ry="0.6"/><path class="cls-8" d="M444.71,78.12a.51.51,0,0,1,.51.51v70.2a.51.51,0,0,1-.51.51H332a.51.51,0,0,1-.51-.51V78.63a.51.51,0,0,1,.51-.51H444.71"/><path class="cls-9" d="M364.5,96h5.83a12.89,12.89,0,0,1,2.74.28,6.11,6.11,0,0,1,2.21.92,4.54,4.54,0,0,1,1.48,1.72,5.85,5.85,0,0,1,.54,2.65,6,6,0,0,1-.54,2.63,5.11,5.11,0,0,1-1.46,1.84,6.19,6.19,0,0,1-2.17,1.07,10,10,0,0,1-2.69.35h-2.38v6.31H364.5Zm5.69,8.64q3.62,0,3.62-3.07a2.36,2.36,0,0,0-.95-2.16,5.28,5.28,0,0,0-2.8-.6h-2v5.83Z"/><path class="cls-9" d="M387.54,114.06a9.35,9.35,0,0,1-3.38-.6,7.56,7.56,0,0,1-2.7-1.75,8.07,8.07,0,0,1-1.79-2.86,11,11,0,0,1-.65-3.94,10.74,10.74,0,0,1,.67-3.91,8.74,8.74,0,0,1,1.82-2.93,7.69,7.69,0,0,1,2.7-1.82,8.81,8.81,0,0,1,3.32-.62,7.1,7.1,0,0,1,3.28.7A8.46,8.46,0,0,1,393,97.91l-1.9,2.26a6.56,6.56,0,0,0-1.45-1.06,4.26,4.26,0,0,0-2-.43,4.84,4.84,0,0,0-2,.42,4.42,4.42,0,0,0-1.58,1.21,5.79,5.79,0,0,0-1,1.92,8.19,8.19,0,0,0-.37,2.57,7.07,7.07,0,0,0,1.32,4.55A4.74,4.74,0,0,0,387.9,111a4.61,4.61,0,0,0,1.25-.17,2.48,2.48,0,0,0,1-.5v-3.5H387v-2.9h6.31v8a7.63,7.63,0,0,1-2.4,1.51A8.61,8.61,0,0,1,387.54,114.06Z"/><path class="cls-9" d="M408.61,114.06a8.39,8.39,0,0,1-3.17-.6,7.35,7.35,0,0,1-2.59-1.75,8.22,8.22,0,0,1-1.74-2.86,11.21,11.21,0,0,1-.64-3.94,10.9,10.9,0,0,1,.66-3.91,8.8,8.8,0,0,1,1.79-2.93,7.56,7.56,0,0,1,2.63-1.82,8.2,8.2,0,0,1,3.18-.62,6.48,6.48,0,0,1,3,.68,8.12,8.12,0,0,1,2.18,1.6l-1.87,2.26a6.48,6.48,0,0,0-1.46-1.07,3.78,3.78,0,0,0-1.8-.42,4.18,4.18,0,0,0-3.36,1.63,6,6,0,0,0-1,1.92,8.45,8.45,0,0,0-.36,2.57,9.56,9.56,0,0,0,.32,2.59,5.77,5.77,0,0,0,.94,2,4.11,4.11,0,0,0,1.46,1.22,4.26,4.26,0,0,0,1.91.42,4.21,4.21,0,0,0,2.05-.49,6.44,6.44,0,0,0,1.62-1.26l1.87,2.21a7.13,7.13,0,0,1-5.66,2.62Z"/><path class="cls-10" d="M374.4,122.62a2.06,2.06,0,0,0-.85-.2q-1.08,0-1.08,1.5v1.2h1.61v1h-1.61v6.57h-1.27v-6.57h-1v-1l1-.07V123.9a2.87,2.87,0,0,1,.54-1.84,2,2,0,0,1,1.67-.67,3.14,3.14,0,0,1,.67.07,3.74,3.74,0,0,1,.6.18Z"/><path class="cls-10" d="M378.13,132.91a3.44,3.44,0,0,1-1.34-.27,3.32,3.32,0,0,1-1.13-.78,3.75,3.75,0,0,1-.78-1.25,4.61,4.61,0,0,1-.29-1.69,4.67,4.67,0,0,1,.29-1.69,3.81,3.81,0,0,1,.78-1.26,3.28,3.28,0,0,1,1.13-.78,3.5,3.5,0,0,1,2.67,0,3.29,3.29,0,0,1,1.13.78,3.81,3.81,0,0,1,.78,1.26,4.67,4.67,0,0,1,.29,1.69,4.61,4.61,0,0,1-.29,1.69,3.75,3.75,0,0,1-.78,1.25,3.32,3.32,0,0,1-1.13.78A3.44,3.44,0,0,1,378.13,132.91Zm0-1.08a1.93,1.93,0,0,0,.9-.21,2.1,2.1,0,0,0,.7-.58,2.75,2.75,0,0,0,.46-.91,4.49,4.49,0,0,0,0-2.38,2.91,2.91,0,0,0-.46-.93,2,2,0,0,0-.7-.6,2,2,0,0,0-1.79,0,2,2,0,0,0-.69.6,3,3,0,0,0-.45.93,4.49,4.49,0,0,0,0,2.38,2.82,2.82,0,0,0,.45.91,2,2,0,0,0,.69.58A1.92,1.92,0,0,0,378.13,131.83Z"/><path class="cls-10" d="M383.31,125.13h1l.11,1.39h0a3.71,3.71,0,0,1,1-1.16,1.92,1.92,0,0,1,1.2-.43,2.48,2.48,0,0,1,.44,0,1.27,1.27,0,0,1,.37.13l-.24,1.12a2.24,2.24,0,0,0-.35-.1,2.27,2.27,0,0,0-.39,0,1.5,1.5,0,0,0-.5.09,1.73,1.73,0,0,0-.51.29,2.66,2.66,0,0,0-.49.54,3.59,3.59,0,0,0-.42.83v4.89h-1.27Z"/><path class="cls-10" d="M391.29,122.47h2.93a7.45,7.45,0,0,1,1.58.15,3.29,3.29,0,0,1,1.21.51,2.42,2.42,0,0,1,.79.93,3.2,3.2,0,0,1,.28,1.41,3.4,3.4,0,0,1-.27,1.41,2.59,2.59,0,0,1-.78,1,3.38,3.38,0,0,1-1.2.58,5.85,5.85,0,0,1-1.54.19h-1.7v4.07h-1.3Zm2.83,5.15a3.22,3.22,0,0,0,2-.51,2,2,0,0,0,.65-1.63,1.68,1.68,0,0,0-.68-1.54,3.86,3.86,0,0,0-2-.43H392.6v4.12Z"/><path class="cls-10" d="M403.67,132.91a4.39,4.39,0,0,1-1.77-.36,4,4,0,0,1-1.42-1,4.9,4.9,0,0,1-.94-1.67,6.9,6.9,0,0,1-.34-2.23,6.78,6.78,0,0,1,.34-2.23,5,5,0,0,1,1-1.68,4.08,4.08,0,0,1,1.44-1.06,4.49,4.49,0,0,1,1.81-.36,3.65,3.65,0,0,1,1.66.39,4,4,0,0,1,.64.41,3.89,3.89,0,0,1,.51.48l-.7.84a3.53,3.53,0,0,0-.92-.71,2.47,2.47,0,0,0-1.18-.27,3,3,0,0,0-1.32.29,2.9,2.9,0,0,0-1,.83,3.88,3.88,0,0,0-.66,1.31,6,6,0,0,0-.23,1.74,6.36,6.36,0,0,0,.22,1.75,4,4,0,0,0,.64,1.33,2.83,2.83,0,0,0,1,.84,2.93,2.93,0,0,0,1.33.29,2.74,2.74,0,0,0,1.32-.31,4.06,4.06,0,0,0,1.06-.84l.71.81a4.41,4.41,0,0,1-1.38,1.09A3.94,3.94,0,0,1,403.67,132.91Z"/><g class="cls-3"><circle class="cls-2" cx="315.34" cy="267.74" r="46.79"/><path class="cls-1" d="M284,273.55h0v-1.72a.38.38,0,0,0-.4-.43h-.1v-.14l.64,0,.56,0v.14h-.07c-.19,0-.41,0-.41.58v2.09a3,3,0,0,0,0,.46h-.17l-2.36-2.63v1.89c0,.4.08.54.43.54h.08v.14l-.59,0-.62,0v-.14h.06c.32,0,.41-.22.41-.58v-1.93a.41.41,0,0,0-.42-.41H281v-.14l.53,0,.41,0Z"/><path class="cls-1" d="M284.84,274.32h.06c.17,0,.34,0,.34-.26v-2.4c0-.24-.17-.26-.34-.26h-.06v-.14l.68,0,.72,0v.14h-.06c-.17,0-.34,0-.34.26v2.4c0,.24.17.26.34.26h.06v.14l-.72,0-.67,0Z"/><path class="cls-1" d="M289.3,272.2a1,1,0,0,0-1-.81c-.75,0-1.15.59-1.15,1.39s.39,1.54,1.26,1.54a.94.94,0,0,0,.93-.77l.13,0a5.19,5.19,0,0,0-.12.74,2.68,2.68,0,0,1-1,.21,1.62,1.62,0,0,1-1.8-1.71,1.64,1.64,0,0,1,1.77-1.62,5.4,5.4,0,0,1,1.14.23,5.37,5.37,0,0,0,0,.77Z"/><path class="cls-1" d="M289.7,274.32h.06c.17,0,.34,0,.34-.26v-2.4c0-.24-.17-.26-.34-.26h-.06v-.14l1.14,0,1.17,0c0,.2,0,.5,0,.7l-.14,0c0-.3-.08-.54-.56-.54h-.64v1.2h.55c.27,0,.33-.16.36-.4h.14q0,.27,0,.54t0,.52l-.14,0c0-.27,0-.45-.36-.45h-.55V274c0,.3.27.3.56.3.55,0,.79,0,.93-.56l.13,0c-.06.24-.11.49-.16.73l-1.23,0-1.22,0Z"/><path class="cls-1" d="M293.94,274.32H294c.17,0,.34,0,.34-.26v-2.4c0-.24-.17-.26-.34-.26h-.06v-.14l.68,0,.72,0v.14h-.06c-.16,0-.34,0-.34.26v2.4c0,.24.17.26.34.26h.06v.14l-.72,0-.67,0Z"/><path class="cls-1" d="M295.51,274.32h0c.13,0,.24,0,.24-.14v-1.3c0-.07,0-.1-.11-.13l-.16,0v-.11l.42-.13.32-.14.05,0v.29a1.35,1.35,0,0,1,.72-.33.52.52,0,0,1,.57.59v1.27c0,.13.11.13.23.13h.05v.14l-.52,0-.55,0v-.14h0c.09,0,.22,0,.22-.12v-1.15c0-.28-.14-.38-.35-.38a.88.88,0,0,0-.42.16v1.38c0,.11.11.11.22.11h.07v.14l-.52,0-.55,0Z"/><path class="cls-1" d="M298.93,274.14c0,.16.08.18.33.18h.09v.14l-.68,0-.57,0v-.14h.11c.14,0,.22,0,.22-.17v-1.49h-.33v-.08a2.91,2.91,0,0,0,.33-.18v-.32a1.09,1.09,0,0,1,.36-.8c.21-.21.37-.31.54-.31s.32.07.32.29a.23.23,0,0,1-.22.25c-.14,0-.14-.23-.31-.23s-.17.15-.17.31v.82h.51v.26h-.51Z"/><path class="cls-1" d="M300.74,272.49c.44,0,.56.68.56,1s-.09.85-.52.85-.56-.54-.56-.92S300.26,272.49,300.74,272.49Zm-1.09.93a1.06,1.06,0,0,0,1.1,1.1,1.11,1.11,0,0,0,1.1-1.13,1,1,0,0,0-1.1-1.07A1.06,1.06,0,0,0,299.66,273.43Z"/><path class="cls-1" d="M302.92,274.21c0,.11.12.11.34.11h.07v.14l-.65,0-.57,0v-.14h0c.16,0,.25,0,.25-.12V273c0-.15,0-.2-.14-.22l-.15,0v-.11a3.41,3.41,0,0,0,.75-.27l.05,0v.32h0a.7.7,0,0,1,.53-.34.26.26,0,0,1,.29.27.25.25,0,0,1-.26.27c-.18,0-.18-.17-.32-.17s-.25.09-.25.31Z"/><path class="cls-1" d="M303.92,274.32h0c.13,0,.24,0,.24-.14v-1.3c0-.07,0-.1-.11-.13l-.16,0v-.11l.42-.13.32-.14.05,0v.29a1.52,1.52,0,0,1,.71-.33.53.53,0,0,1,.54.34,1.64,1.64,0,0,1,.74-.34.54.54,0,0,1,.57.59v1.26c0,.12.08.14.21.14h.06v.13l-.51,0-.54,0v-.14h.06c.12,0,.21,0,.21-.13V273c0-.27-.12-.38-.35-.38a1,1,0,0,0-.42.14v1.37c0,.12.09.14.21.14h.06v.14l-.51,0-.55,0v-.14h.05c.12,0,.22,0,.22-.14V273c0-.27-.12-.38-.35-.38a.75.75,0,0,0-.42.17v1.34c0,.14.12.14.23.14H305v.14l-.53,0-.54,0Z"/><path class="cls-1" d="M309,274a.52.52,0,0,1-.39.24.26.26,0,0,1-.28-.3c0-.32.42-.41.67-.49Zm0-.7-.57.2c-.32.12-.62.23-.62.59a.46.46,0,0,0,.5.47,1,1,0,0,0,.7-.36c0,.21.13.36.35.36a.59.59,0,0,0,.48-.29l-.06-.08a.22.22,0,0,1-.13.06c-.13,0-.14-.14-.14-.34v-.94a.55.55,0,0,0-.62-.61.48.48,0,0,0-.27.06l-.5.27a.43.43,0,0,0-.25.39c0,.07,0,.11.09.11s.32-.06.32-.18.09-.33.35-.33a.33.33,0,0,1,.36.37Z"/><path class="cls-1" d="M311.36,272.65h-.55v1.26a.22.22,0,0,0,.24.25.45.45,0,0,0,.27-.08l.06.08a.79.79,0,0,1-.62.37.42.42,0,0,1-.46-.47v-1.4H310v-.11a2.65,2.65,0,0,0,.73-.66l.05,0v.48h.55Z"/><path class="cls-1" d="M312.34,274.21c0,.11.11.11.22.11h.07v.14l-.52,0-.55,0v-.14h0c.13,0,.24,0,.24-.14v-1.3c0-.07,0-.1-.11-.13l-.16,0v-.11l.42-.13.32-.14.05,0Zm-.26-2.52a.28.28,0,0,1-.28-.28.28.28,0,1,1,.28.28Z"/><path class="cls-1" d="M314,272.49c.44,0,.56.68.56,1s-.09.85-.52.85-.56-.54-.56-.92S313.5,272.49,314,272.49Zm-1.09.93a1.06,1.06,0,0,0,1.1,1.1,1.11,1.11,0,0,0,1.1-1.13,1,1,0,0,0-1.1-1.07A1.06,1.06,0,0,0,312.9,273.43Z"/><path class="cls-1" d="M315.38,274.32h0c.13,0,.24,0,.24-.14v-1.3c0-.07,0-.1-.11-.13l-.16,0v-.11l.42-.13.32-.14.05,0v.29a1.35,1.35,0,0,1,.71-.33.52.52,0,0,1,.57.59v1.27c0,.13.12.13.22.13h.05v.14l-.52,0-.55,0v-.14h0c.09,0,.22,0,.22-.12v-1.15c0-.28-.14-.38-.35-.38a.88.88,0,0,0-.42.16v1.38c0,.11.11.11.22.11h.07v.14l-.52,0-.55,0Z"/><path class="cls-1" d="M320.67,271.95a.59.59,0,0,0-.54-.58.52.52,0,0,0-.56.58c0,.76,1.38.53,1.38,1.63a1,1,0,0,1-1.11,1,1.63,1.63,0,0,1-.73-.21c0-.23-.06-.46-.08-.7l.13,0c.05.39.28.73.71.73a.52.52,0,0,0,.56-.52c0-.81-1.35-.56-1.35-1.66a.92.92,0,0,1,1-.95c.13,0,.52.05.66.07a5.44,5.44,0,0,0,0,.66Z"/><path class="cls-1" d="M321.76,273.06c.05-.28.21-.55.49-.55a.36.36,0,0,1,.32.38c0,.17,0,.17-.28.17Zm1.25.82a.7.7,0,0,1-.55.25c-.5,0-.71-.46-.71-.93H323l.06-.05a.71.71,0,0,0-.72-.8,1.07,1.07,0,0,0-1,1.14,1,1,0,0,0,.89,1.05,1,1,0,0,0,.88-.57Z"/><path class="cls-1" d="M324.05,274.23c0,.11.12.11.34.11h.07v.14l-.65,0-.57,0v-.14h0c.16,0,.25,0,.25-.12V273c0-.15,0-.2-.14-.22l-.15,0v-.11a3.36,3.36,0,0,0,.75-.27l.05,0v.32h0a.71.71,0,0,1,.53-.34.26.26,0,0,1,.29.27.25.25,0,0,1-.26.27c-.18,0-.18-.17-.32-.17s-.25.09-.25.31Z"/><path class="cls-1" d="M325.28,272.72c-.05-.16-.09-.17-.22-.17h0v-.14l.53,0,.52,0v.14h-.14c-.05,0-.09,0-.09.06a.87.87,0,0,0,0,.16l.39,1h0c.05-.17.44-1,.44-1.1s-.1-.14-.22-.14h-.05v-.14l.43,0,.31,0v.14h0c-.13,0-.19.12-.23.22l-.71,1.6-.07.16H326Z"/><path class="cls-1" d="M328.13,274.22c0,.11.11.11.22.11h.07v.14l-.52,0-.55,0v-.14h0c.13,0,.24,0,.24-.14v-1.3c0-.07,0-.1-.11-.13l-.16,0v-.11l.42-.13.32-.14.05,0Zm-.26-2.52a.28.28,0,0,1-.28-.28.28.28,0,1,1,.56,0A.28.28,0,0,1,327.87,271.7Z"/><path class="cls-1" d="M330.52,274a1,1,0,0,1-.87.55.92.92,0,0,1-1-1,1.17,1.17,0,0,1,1.16-1.17c.31,0,.6.07.6.34a.24.24,0,0,1-.25.24c-.24,0-.2-.38-.54-.38s-.49.27-.49.65.2,1,.71,1a.71.71,0,0,0,.55-.28Z"/><path class="cls-1" d="M331.18,273.06c.05-.28.21-.55.49-.55a.36.36,0,0,1,.32.38c0,.17,0,.17-.28.17Zm1.25.82a.7.7,0,0,1-.55.25c-.5,0-.71-.46-.71-.93h1.24l.05-.05a.71.71,0,0,0-.72-.8,1.07,1.07,0,0,0-1,1.14,1,1,0,0,0,.89,1.05,1,1,0,0,0,.88-.57Z"/><path class="cls-1" d="M341.21,255.46v22.05h22.05V255.46Zm15.32,8.42h.11c.28,0,.58,0,.58-.45v-4.11c0-.41-.3-.45-.58-.45h-.11v-.23h2.39v.23h-.11c-.28,0-.58,0-.58.45v4.11c0,.41.3.45.58.45h.11v.23h-2.39Zm-11.74,0h.11c.54,0,.71-.37.71-1v-3.3a.7.7,0,0,0-.71-.71h-.1v-.23h1.6l3.49,3.93,0,0v-2.94a.65.65,0,0,0-.69-.74H349v-.23h2.06v.23H351c-.33,0-.7.07-.7,1v3.57a5.41,5.41,0,0,0,0,.79H350l-4-4.5V263c0,.68.13.92.74.92h.13v.23h-2.08Zm5.2,10.39a4.52,4.52,0,0,1-1.8.35,2.77,2.77,0,0,1-3.07-2.93,2.81,2.81,0,0,1,3-2.78,9.31,9.31,0,0,1,2,.39l.06,1.31-.24,0a1.61,1.61,0,0,0-1.76-1.39c-1.28,0-2,1-2,2.38s.67,2.63,2.15,2.63A1.6,1.6,0,0,0,350,273l.22,0Zm2.82-1.94h0l-.24-5.5-5.35-.23h0l5.35-.25.24-5.2h0l.24,5.2,5.35.25h0l-5.35.23Zm6.78,2.18h-4.2v-.24h.11c.28,0,.58,0,.58-.45v-4.11c0-.41-.3-.45-.58-.45h-.11V269h4a11.74,11.74,0,0,0,0,1.2l-.24.06c0-.51-.13-.92-1-.92h-1.09v2.06H358c.47,0,.57-.27.62-.69h.23v1.81l-.23.05c0-.47-.07-.78-.61-.78h-.94v1.83c0,.51.45.51,1,.51.94,0,1.36-.06,1.59-1l.22.06C359.75,273.67,359.66,274.09,359.59,274.51Z"/><path class="cls-1" d="M306.41,265.72a3.23,3.23,0,0,0-3.26,0,1.43,1.43,0,0,0-.7,1.27,1.41,1.41,0,0,0,.7,1.26,3.27,3.27,0,0,0,3.26,0,1.41,1.41,0,0,0,.7-1.26A1.43,1.43,0,0,0,306.41,265.72Zm-.67,2a2.32,2.32,0,0,1-1,.2,2.24,2.24,0,0,1-1-.21.73.73,0,0,1-.43-.73.76.76,0,0,1,.43-.75,2.16,2.16,0,0,1,1-.22,2.11,2.11,0,0,1,1,.23.76.76,0,0,1,.43.74A.74.74,0,0,1,305.74,267.73Z"/><path class="cls-1" d="M305.75,260.29h0v.56h.49v.84h-1.1v.73h1.1v.42h-1.1v.74h1.1v1.75h.49c.25,0,.44-.49.44-1.11h0v-3.93h-1.38Z"/><path class="cls-1" d="M304.92,264.59v-.81H304v-2.16h.76v-.81h-4.32v.81h.79v2.16h-.91v.81h4.6Zm-1.85-.83h-.9v-2.16h.9Z"/><path class="cls-1" d="M309.28,261h0v.8h2.93a3.93,3.93,0,0,1-1,2.2,4,4,0,0,1-2.44,1.38h-.06l0,0,.42.73,0,0h0a5.4,5.4,0,0,0,3-2,5.33,5.33,0,0,0,.94-2.69V261h-3.82Z"/><path class="cls-1" d="M316,263.51h-1v-3.22h-1.43v.56h.49v7.74h.49c.25,0,.44-.49.44-1.11h0v-3.15h1v-.81Z"/><path class="cls-1" d="M333.45,266.47h-3.24v-1.25h2.19v-4.38h-1.48v.51h.57v1h-3.44v-1.55h-1.43v.51h.52v3.87h2.16v1.25H326v.79h7.46v-.79Zm-2-2h-3.44V263.2h3.44Z"/><path class="cls-1" d="M320.56,263.62a7.55,7.55,0,0,0,1.23.9l0,0,0,0,.45-.7,0,0h0a3.16,3.16,0,0,1-1.43-.91,2.06,2.06,0,0,1-.57-1.27h1.67v-.81H317.6v.81h1.67a3.12,3.12,0,0,1-.58,1.39,2.66,2.66,0,0,1-1.42,1l0,0,0,0,.43.71,0,0,0,0a4.73,4.73,0,0,0,1.33-1,4,4,0,0,0,.72-1.06A3.57,3.57,0,0,0,320.56,263.62Z"/><path class="cls-1" d="M323.56,265.51a2.5,2.5,0,0,0-1.62-.51,2.46,2.46,0,0,0-1.62.51,1.62,1.62,0,0,0-.62,1.29,1.59,1.59,0,0,0,.61,1.28,2.84,2.84,0,0,0,3.24,0,1.56,1.56,0,0,0,.63-1.28A1.6,1.6,0,0,0,323.56,265.51ZM321,266a1.61,1.61,0,0,1,.91-.26,1.55,1.55,0,0,1,.91.27.85.85,0,0,1,.39.74.82.82,0,0,1-.39.73,1.78,1.78,0,0,1-1.81,0,.82.82,0,0,1-.39-.73A.84.84,0,0,1,321,266Z"/><path class="cls-1" d="M324.15,260.29h-1.38v.55h.49v1.35h-1.33V263h1.33v2.11h.49c.27,0,.44-.33.44-.88v-3.94Z"/><path class="cls-1" d="M280.37,265.84l0,0V262a.83.83,0,0,0-.88-1h-.22v-.3c.48,0,.94,0,1.42,0s.83,0,1.25,0v.3h-.15c-.43,0-.9.08-.9,1.29V267a6.57,6.57,0,0,0,.06,1h-.39l-5.21-5.81v4.17c0,.88.17,1.18,1,1.18h.17v.3c-.44,0-.87,0-1.31,0s-.92,0-1.38,0v-.3h.14c.7,0,.91-.48.91-1.29V262a.91.91,0,0,0-.92-.91h-.13v-.3c.39,0,.78,0,1.16,0s.6,0,.9,0Z"/><path class="cls-1" d="M282.23,267.53h.14c.36,0,.75-.05.75-.58v-5.3c0-.53-.38-.58-.75-.58h-.14v-.3c.39,0,1,0,1.5,0s1.11,0,1.59,0v.3h-.14c-.36,0-.75.05-.75.58V267c0,.53.38.58.75.58h.14v.3c-.49,0-1.09,0-1.6,0s-1.09,0-1.49,0Z"/><path class="cls-1" d="M292.09,262.86a2.09,2.09,0,0,0-2.27-1.79c-1.66,0-2.53,1.3-2.53,3.08s.86,3.4,2.77,3.4a2.07,2.07,0,0,0,2.07-1.69l.28,0a11.51,11.51,0,0,0-.25,1.64,5.92,5.92,0,0,1-2.32.46c-2.28,0-4-1.24-4-3.78a3.63,3.63,0,0,1,3.92-3.58,12,12,0,0,1,2.52.51,11.83,11.83,0,0,0,.08,1.69Z"/><path class="cls-1" d="M293,267.53h.14c.36,0,.75-.05.75-.58v-5.3c0-.53-.38-.58-.75-.58H293v-.3c.62,0,1.67,0,2.52,0s1.9,0,2.59,0c0,.43,0,1.1,0,1.55l-.3.08c-.05-.66-.17-1.18-1.23-1.18h-1.41v2.65h1.2c.61,0,.74-.34.8-.89h.3q0,.59,0,1.18t0,1.15l-.3.06c-.06-.61-.09-1-.79-1h-1.21v2.36c0,.66.59.66,1.24.66,1.21,0,1.75-.08,2.05-1.23l.28.07c-.13.54-.25,1.07-.34,1.61-.65,0-1.81,0-2.72,0s-2.12,0-2.69,0Z"/></g><path class="cls-11" d="M446.52,198.67h-96.7a1,1,0,0,0-1,1v4h98.61v-4A1,1,0,0,0,446.52,198.67Z"/><g class="cls-12"><circle class="cls-1" cx="352.13" cy="201.17" r="0.91"/></g><circle class="cls-1" cx="355.29" cy="201.17" r="0.91"/><circle class="cls-1" cx="358.44" cy="201.17" r="0.91"/><path class="cls-13" d="M426.71,203.67H348.86v83.76a1.38,1.38,0,0,0,1.24,1.48h96.13a1.38,1.38,0,0,0,1.24-1.48V203.67Z"/><path class="cls-9" d="M373.7,220.82h5.83a12.89,12.89,0,0,1,2.74.28,6.11,6.11,0,0,1,2.21.92,4.54,4.54,0,0,1,1.48,1.72,5.85,5.85,0,0,1,.54,2.65A6,6,0,0,1,386,229a5.11,5.11,0,0,1-1.46,1.84,6.19,6.19,0,0,1-2.17,1.07,10,10,0,0,1-2.69.35h-2.38v6.31H373.7Zm5.69,8.64q3.62,0,3.62-3.07a2.36,2.36,0,0,0-.95-2.16,5.28,5.28,0,0,0-2.8-.6h-2v5.83Z"/><path class="cls-9" d="M396.74,238.92a9.35,9.35,0,0,1-3.38-.6,7.56,7.56,0,0,1-2.7-1.75,8.07,8.07,0,0,1-1.79-2.86,11,11,0,0,1-.65-3.94,10.74,10.74,0,0,1,.67-3.91,8.74,8.74,0,0,1,1.82-2.93,7.69,7.69,0,0,1,2.7-1.82,8.81,8.81,0,0,1,3.32-.62,7.1,7.1,0,0,1,3.28.7,8.46,8.46,0,0,1,2.22,1.58l-1.9,2.26a6.56,6.56,0,0,0-1.45-1.06,4.26,4.26,0,0,0-2-.43,4.84,4.84,0,0,0-2,.42,4.42,4.42,0,0,0-1.58,1.21,5.79,5.79,0,0,0-1,1.92,8.19,8.19,0,0,0-.37,2.57,7.07,7.07,0,0,0,1.32,4.55,4.74,4.74,0,0,0,3.94,1.64,4.61,4.61,0,0,0,1.25-.17,2.48,2.48,0,0,0,1-.5v-3.5h-3.14v-2.9h6.31v8a7.63,7.63,0,0,1-2.4,1.51A8.61,8.61,0,0,1,396.74,238.92Z"/><path class="cls-9" d="M410.56,220.82h5.88A14.09,14.09,0,0,1,419,221a6.27,6.27,0,0,1,2,.72,3.71,3.71,0,0,1,1.36,1.34,4.08,4.08,0,0,1,.49,2.09,4.56,4.56,0,0,1-.65,2.34,4,4,0,0,1-.76.91,2.88,2.88,0,0,1-1,.59v.12a4.57,4.57,0,0,1,2.39,1.37,4,4,0,0,1,.95,2.83,4.86,4.86,0,0,1-.53,2.33,4.66,4.66,0,0,1-1.45,1.63,6.47,6.47,0,0,1-2.18,1,11.32,11.32,0,0,1-2.72.31h-6.34Zm5.62,7.22a3.92,3.92,0,0,0,2.47-.62,2.08,2.08,0,0,0,.77-1.7,1.84,1.84,0,0,0-.79-1.68,4.54,4.54,0,0,0-2.4-.5h-2.11V228Zm.41,7.8a4.9,4.9,0,0,0,2.78-.66,2.32,2.32,0,0,0,1-2.05,2,2,0,0,0-.95-1.87,5.46,5.46,0,0,0-2.8-.58h-2.47v5.16Z"/><g class="cls-3"><circle class="cls-14" cx="371.12" cy="264.41" r="11.34"/><path class="cls-9" d="M371.12,264.41V253.08a11.34,11.34,0,0,1,11.14,13.41Z"/><path class="cls-15" d="M371.12,264.41l11.15,2.05a11.34,11.34,0,0,1-5.15,7.57Z"/><path class="cls-16" d="M371.12,264.41l6,9.62a11.34,11.34,0,0,1-3.19,1.36Z"/><circle class="cls-14" cx="397.09" cy="264.41" r="11.34"/><path class="cls-17" d="M397.09,264.41,387.86,271a11.34,11.34,0,1,1,20.5-7.86Z"/><path class="cls-9" d="M397.09,264.41l10.92-3a11.34,11.34,0,0,1-12.8,14.23Z"/><rect class="cls-16" x="414.02" y="255.82" width="22.53" height="2.16"/><rect class="cls-9" x="414.02" y="255.82" width="12.77" height="2.16"/><rect class="cls-16" x="414.02" y="263.33" width="22.53" height="2.16"/><rect class="cls-9" x="414.02" y="263.33" width="3.36" height="2.16"/><rect class="cls-16" x="414.02" y="267.09" width="22.53" height="2.16"/><rect class="cls-9" x="414.02" y="267.09" width="15.93" height="2.16"/><rect class="cls-14" x="414.02" y="259.58" width="22.53" height="2.16"/><rect class="cls-9" x="414.02" y="259.58" width="8.26" height="2.16"/><rect class="cls-16" x="414.02" y="270.84" width="22.53" height="2.16"/><rect class="cls-9" x="414.02" y="270.84" width="6.48" height="2.16"/></g><rect class="cls-1" x="201.51" y="176.21" width="122.15" height="71.33" rx="7.09" ry="7.09"/><path class="cls-2" d="M316.57,176.62a6.68,6.68,0,0,1,6.68,6.68v57.14a6.68,6.68,0,0,1-6.68,6.68h-108a6.68,6.68,0,0,1-6.68-6.68V183.3a6.68,6.68,0,0,1,6.68-6.68h108m0-.82h-108a7.51,7.51,0,0,0-7.5,7.5v57.14a7.51,7.51,0,0,0,7.5,7.5h108a7.51,7.51,0,0,0,7.5-7.5V183.3a7.51,7.51,0,0,0-7.5-7.5Z"/><path class="cls-18" d="M272.94,247.54l-.2,0h-64a7.2,7.2,0,0,1-7.19-7.19V183.39a7.2,7.2,0,0,1,7.19-7.19h68.41l.2,0h30.49a7.07,7.07,0,0,1,7.06,7.06v57.21a7.07,7.07,0,0,1-7.06,7.06Z"/><path class="cls-2" d="M277.12,176.6l.24,0h30.46a6.65,6.65,0,0,1,6.65,6.65v57.21a6.65,6.65,0,0,1-6.65,6.65H272.94l-.24,0h-64a6.78,6.78,0,0,1-6.78-6.78V183.39a6.78,6.78,0,0,1,6.78-6.79h68.41m0-.82H208.71a7.61,7.61,0,0,0-7.6,7.6v56.94a7.61,7.61,0,0,0,7.6,7.6h64l.29,0h34.87a7.48,7.48,0,0,0,7.47-7.47V183.28a7.48,7.48,0,0,0-7.47-7.47H277.4l-.28,0Z"/><rect class="cls-2" x="317.59" y="208.72" width="0.81" height="6.98"/><circle class="cls-2" cx="318" cy="207.15" r="0.53"/><path class="cls-9" d="M235.58,193.28h5.83a12.89,12.89,0,0,1,2.74.28,6.11,6.11,0,0,1,2.21.92,4.54,4.54,0,0,1,1.48,1.72,5.85,5.85,0,0,1,.54,2.65,6,6,0,0,1-.54,2.63,5.11,5.11,0,0,1-1.46,1.84,6.19,6.19,0,0,1-2.17,1.07,10,10,0,0,1-2.69.35h-2.38V211h-3.55Zm5.69,8.64q3.62,0,3.62-3.07a2.36,2.36,0,0,0-.95-2.16,5.28,5.28,0,0,0-2.8-.6h-2v5.83Z"/><path class="cls-9" d="M258.62,211.38a9.35,9.35,0,0,1-3.38-.6,7.56,7.56,0,0,1-2.7-1.75,8.07,8.07,0,0,1-1.79-2.86,11,11,0,0,1-.65-3.94,10.74,10.74,0,0,1,.67-3.91,8.74,8.74,0,0,1,1.82-2.93,7.69,7.69,0,0,1,2.7-1.82,8.81,8.81,0,0,1,3.32-.62,7.1,7.1,0,0,1,3.28.7,8.46,8.46,0,0,1,2.22,1.58l-1.9,2.26a6.56,6.56,0,0,0-1.45-1.06,4.26,4.26,0,0,0-2-.43,4.84,4.84,0,0,0-2,.42,4.42,4.42,0,0,0-1.58,1.21,5.79,5.79,0,0,0-1,1.92,8.19,8.19,0,0,0-.37,2.57,7.07,7.07,0,0,0,1.32,4.55,4.74,4.74,0,0,0,3.94,1.64,4.61,4.61,0,0,0,1.25-.17,2.48,2.48,0,0,0,1-.5v-3.5h-3.14v-2.9h6.31v8a7.63,7.63,0,0,1-2.4,1.51A8.61,8.61,0,0,1,258.62,211.38Z"/><path class="cls-9" d="M279.69,211.38a8.39,8.39,0,0,1-3.17-.6,7.35,7.35,0,0,1-2.59-1.75,8.22,8.22,0,0,1-1.74-2.86,11.21,11.21,0,0,1-.64-3.94,10.9,10.9,0,0,1,.66-3.91,8.8,8.8,0,0,1,1.79-2.93,7.56,7.56,0,0,1,2.63-1.82,8.2,8.2,0,0,1,3.18-.62,6.48,6.48,0,0,1,3,.68,8.12,8.12,0,0,1,2.18,1.6l-1.87,2.26a6.48,6.48,0,0,0-1.46-1.07,3.78,3.78,0,0,0-1.8-.42,4.18,4.18,0,0,0-3.36,1.63,6,6,0,0,0-1,1.92,8.45,8.45,0,0,0-.36,2.57,9.56,9.56,0,0,0,.32,2.59,5.77,5.77,0,0,0,.94,2,4.11,4.11,0,0,0,1.46,1.22,4.26,4.26,0,0,0,1.91.42,4.21,4.21,0,0,0,2.05-.49,6.44,6.44,0,0,0,1.62-1.26l1.87,2.21a7.13,7.13,0,0,1-5.66,2.62Z"/><path class="cls-10" d="M233.1,219.93a2.06,2.06,0,0,0-.85-.2q-1.08,0-1.08,1.5v1.2h1.61v1h-1.61V230H229.9v-6.57h-1v-1l1-.07v-1.22a2.87,2.87,0,0,1,.54-1.84,2,2,0,0,1,1.67-.67,3.14,3.14,0,0,1,.67.07,3.74,3.74,0,0,1,.6.18Z"/><path class="cls-10" d="M236.84,230.22a3.44,3.44,0,0,1-1.34-.27,3.32,3.32,0,0,1-1.13-.78,3.75,3.75,0,0,1-.78-1.25,4.61,4.61,0,0,1-.29-1.69,4.67,4.67,0,0,1,.29-1.69,3.81,3.81,0,0,1,.78-1.26,3.28,3.28,0,0,1,1.13-.78,3.5,3.5,0,0,1,2.67,0,3.29,3.29,0,0,1,1.13.78,3.81,3.81,0,0,1,.78,1.26,4.67,4.67,0,0,1,.29,1.69,4.61,4.61,0,0,1-.29,1.69,3.75,3.75,0,0,1-.78,1.25,3.32,3.32,0,0,1-1.13.78A3.44,3.44,0,0,1,236.84,230.22Zm0-1.08a1.93,1.93,0,0,0,.9-.21,2.1,2.1,0,0,0,.7-.58,2.75,2.75,0,0,0,.46-.91,4.49,4.49,0,0,0,0-2.38,2.91,2.91,0,0,0-.46-.93,2,2,0,0,0-.7-.6,2,2,0,0,0-1.79,0,2,2,0,0,0-.69.6,3,3,0,0,0-.45.93,4.49,4.49,0,0,0,0,2.38,2.82,2.82,0,0,0,.45.91,2,2,0,0,0,.69.58A1.92,1.92,0,0,0,236.84,229.15Z"/><path class="cls-10" d="M242,222.44h1l.11,1.39h0a3.71,3.71,0,0,1,1-1.16,1.92,1.92,0,0,1,1.2-.43,2.48,2.48,0,0,1,.44,0,1.27,1.27,0,0,1,.37.13l-.24,1.12a2.24,2.24,0,0,0-.35-.1,2.27,2.27,0,0,0-.39,0,1.5,1.5,0,0,0-.5.09,1.73,1.73,0,0,0-.51.29,2.66,2.66,0,0,0-.49.54,3.59,3.59,0,0,0-.42.83V230H242Z"/><path class="cls-10" d="M250,219.78h1.57l2,5.49.36,1.07q.18.54.37,1.07h.07q.18-.53.35-1.07t.35-1.07l2-5.49h1.57V230h-1.22v-5.68c0-.22,0-.46,0-.72s0-.52,0-.78l.06-.79q0-.39.06-.73h-.06l-.81,2.34L254.71,229h-.87l-1.94-5.33-.81-2.34H251q0,.34,0,.73l.06.79q0,.4,0,.78c0,.26,0,.5,0,.72V230H250Z"/><path class="cls-10" d="M263.86,230.22a3.44,3.44,0,0,1-1.34-.27,3.32,3.32,0,0,1-1.13-.78,3.75,3.75,0,0,1-.78-1.25,4.61,4.61,0,0,1-.29-1.69,4.67,4.67,0,0,1,.29-1.69,3.81,3.81,0,0,1,.78-1.26,3.28,3.28,0,0,1,1.13-.78,3.5,3.5,0,0,1,2.67,0,3.29,3.29,0,0,1,1.13.78,3.81,3.81,0,0,1,.78,1.26,4.67,4.67,0,0,1,.29,1.69,4.61,4.61,0,0,1-.29,1.69,3.75,3.75,0,0,1-.78,1.25,3.32,3.32,0,0,1-1.13.78A3.44,3.44,0,0,1,263.86,230.22Zm0-1.08a1.93,1.93,0,0,0,.9-.21,2.1,2.1,0,0,0,.7-.58,2.75,2.75,0,0,0,.46-.91,4.49,4.49,0,0,0,0-2.38,2.91,2.91,0,0,0-.46-.93,2,2,0,0,0-.7-.6,2,2,0,0,0-1.79,0,2,2,0,0,0-.69.6,3,3,0,0,0-.45.93,4.49,4.49,0,0,0,0,2.38,2.82,2.82,0,0,0,.45.91,2,2,0,0,0,.69.58A1.92,1.92,0,0,0,263.86,229.15Z"/><path class="cls-10" d="M272.39,230.22a2.67,2.67,0,0,1-1.1-.26,4,4,0,0,1-1.07-.72h0l-.11.8h-1V218.9h1.27v3.05l0,1.37a5.69,5.69,0,0,1,1.13-.76,2.71,2.71,0,0,1,1.25-.31,2.92,2.92,0,0,1,1.31.28,2.68,2.68,0,0,1,1,.78,3.52,3.52,0,0,1,.58,1.22,6,6,0,0,1,.2,1.58,5.21,5.21,0,0,1-.27,1.75,4,4,0,0,1-.73,1.29,3.08,3.08,0,0,1-1,.8A3,3,0,0,1,272.39,230.22Zm-.21-1.08a1.85,1.85,0,0,0,.88-.21,2.1,2.1,0,0,0,.69-.59,2.82,2.82,0,0,0,.45-.94,4.59,4.59,0,0,0,.16-1.27,5.42,5.42,0,0,0-.11-1.15,2.67,2.67,0,0,0-.35-.89,1.65,1.65,0,0,0-.62-.57,1.94,1.94,0,0,0-.92-.2,2.13,2.13,0,0,0-1,.27,4.85,4.85,0,0,0-1,.78v4a3.08,3.08,0,0,0,1,.62A2.62,2.62,0,0,0,272.18,229.15Z"/><path class="cls-10" d="M278,220.87a.9.9,0,0,1-.63-.23.77.77,0,0,1-.25-.6.76.76,0,0,1,.25-.61,1,1,0,0,1,1.26,0,.76.76,0,0,1,.25.61.77.77,0,0,1-.25.6A.9.9,0,0,1,278,220.87Zm-.64,1.57h1.27V230h-1.27Z"/><path class="cls-10" d="M280.84,230V218.9h1.27V230Z"/><path class="cls-10" d="M287.38,230.22A3.79,3.79,0,0,1,286,230a3.25,3.25,0,0,1-1.16-.78,3.73,3.73,0,0,1-.78-1.25,4.63,4.63,0,0,1-.29-1.68,4.57,4.57,0,0,1,.29-1.67,4,4,0,0,1,.76-1.26,3.36,3.36,0,0,1,1.1-.8,3.25,3.25,0,0,1,2.57,0,2.58,2.58,0,0,1,.95.72,3.28,3.28,0,0,1,.59,1.13,5,5,0,0,1,.2,1.47q0,.21,0,.4a2.74,2.74,0,0,1,0,.33H285a2.94,2.94,0,0,0,.75,1.94,2.34,2.34,0,0,0,1.77.71,3.08,3.08,0,0,0,1-.16,3.87,3.87,0,0,0,.88-.44l.46.84a5.9,5.9,0,0,1-1.12.56A3.92,3.92,0,0,1,287.38,230.22Zm1.69-4.58a2.71,2.71,0,0,0-.5-1.76,1.71,1.71,0,0,0-1.39-.6,1.94,1.94,0,0,0-.78.16,2.1,2.1,0,0,0-.67.46,2.51,2.51,0,0,0-.49.74,3.24,3.24,0,0,0-.25,1Z"/></g></g></svg>