<svg xmlns="http://www.w3.org/2000/svg" viewBox="0 0 80 80"><defs><style>.cls-1{fill:#b8f4ee;}.cls-2{fill:#6999f9;}.cls-3{fill:#2c1f7c;}.cls-4{fill:#fff;}</style></defs><title>자산 16</title><g id="레이어_2" data-name="레이어 2"><g id="레이어_1-2" data-name="레이어 1"><rect class="cls-1" width="80" height="80" rx="4.8" ry="4.8"/><path class="cls-2" d="M54.48,21H26.94V55.45H20.36V63h31.8c3.4,0,6.16-3.36,6.16-7.51V21Z"/><path class="cls-3" d="M20.58,63c3.51,0,6.36-3.36,6.36-7.51H14.23C14.23,59.6,17.07,63,20.58,63Z"/><path class="cls-3" d="M43.84,36.61l-3.11,3.11L64.14,63.12,67.24,60Zm1.88,6,1-1L65.18,60l-1,1Z"/><polygon class="cls-3" points="33.94 31.44 38.27 35.77 39.78 34.25 35.44 29.91 33.94 31.44"/><polygon class="cls-3" points="34.57 47.21 36.05 48.76 39.78 45.03 38.27 43.51 34.57 47.21"/><polygon class="cls-3" points="51.8 29.98 47.52 34.25 49.04 35.77 53.27 31.54 51.8 29.98"/><rect class="cls-3" x="31.52" y="38.56" width="5.59" height="2.15"/><rect class="cls-3" x="42.58" y="27.19" width="2.15" height="5.9"/><rect class="cls-3" x="42.58" y="46.18" width="2.15" height="5.59"/><rect class="cls-3" x="50.2" y="38.56" width="5.9" height="2.15"/><rect class="cls-4" x="54.71" y="38.31" width="1.48" height="26.04" transform="translate(-20.05 54.24) rotate(-45)"/></g></g></svg>