<svg xmlns="http://www.w3.org/2000/svg" xmlns:xlink="http://www.w3.org/1999/xlink" viewBox="0 0 731.8 516.22" width="742" height="523"><defs><style>.cls-1,.cls-12,.cls-17,.cls-18,.cls-19,.cls-26,.cls-28,.cls-29,.cls-30,.cls-42,.cls-43,.cls-44,.cls-45,.cls-47{fill:none;}.cls-2{fill:#f0f4f7;}.cls-3{fill:#fdfdfd;}.cls-4{fill:#fff;}.cls-5{fill:#e8e8e8;}.cls-6{fill:#a6a6a6;}.cls-7{fill:#d9dbdd;}.cls-8{fill:#f9f9f9;}.cls-9{clip-path:url(#clip-path);}.cls-10{fill:#f7f9fc;}.cls-11,.cls-14{fill:#acb7c3;}.cls-12{stroke:#acb7c3;stroke-width:0.37px;}.cls-12,.cls-17,.cls-18,.cls-19,.cls-26,.cls-28,.cls-29,.cls-30,.cls-42,.cls-43,.cls-44,.cls-45,.cls-47{stroke-miterlimit:10;}.cls-13{fill:#e7ebf0;}.cls-14,.cls-32,.cls-33,.cls-35,.cls-36,.cls-37{opacity:0.6;}.cls-15{fill:#f6f7fb;}.cls-16{fill:#e4e9f2;}.cls-17,.cls-26,.cls-29,.cls-30{stroke:#e4e9f2;}.cls-17{stroke-width:0.44px;}.cls-18,.cls-19,.cls-28{stroke:#8a92a5;}.cls-18{stroke-width:0.09px;}.cls-19{stroke-width:0.09px;}.cls-20{font-size:3.54px;fill:#8a92a5;font-family:SpoqaHanSans-Regular, SpoqaHanSans;}.cls-21,.cls-33,.cls-34{fill:#716fe9;}.cls-22{fill:#e1e1ff;}.cls-23{fill:#736bf1;}.cls-24{fill:#edf0f4;}.cls-25{fill:#c8cfd6;}.cls-26{stroke-width:0.45px;}.cls-27,.cls-31{fill:#dbe0eb;}.cls-28{stroke-width:0.09px;}.cls-29{stroke-width:0.5px;}.cls-30{stroke-width:0.4px;}.cls-31{opacity:0.3;}.cls-32{fill:#ffb173;}.cls-34,.cls-38,.cls-39,.cls-40,.cls-46{opacity:0.5;}.cls-35{fill:#8fd285;}.cls-37,.cls-46{fill:#f48786;}.cls-38{fill:#aca6ff;}.cls-39{fill:#f6da78;}.cls-40{fill:#6999f9;}.cls-41{fill:#dae0e5;}.cls-42{stroke:#716fe9;}.cls-42,.cls-43{stroke-width:0.82px;}.cls-43{stroke:#ffb173;}.cls-44{stroke:#6999f9;}.cls-44,.cls-45,.cls-47{stroke-width:0.85px;}.cls-45{stroke:#f6da78;}.cls-47{stroke:#f48786;}</style><clipPath id="clip-path"><rect class="cls-1" x="63.9" y="31.23" width="604" height="453.76" rx="4.09" ry="4.09"/></clipPath></defs><title>자산 38</title><g id="레이어_2" data-name="레이어 2"><g id="레이어_1-2" data-name="레이어 1"><rect class="cls-2" x="0.09" y="0.13" width="731.62" height="515.95" rx="30.01" ry="30.01"/><rect class="cls-3" x="4.85" y="4.7" width="722.09" height="506.83" rx="27.25" ry="27.25"/><path class="cls-4" d="M68.08,486.2A5.18,5.18,0,0,1,62.9,481L62.73,35.44a5.17,5.17,0,0,1,5.17-5.18L663.72,30a5.18,5.18,0,0,1,5.18,5.17l.18,445.58A5.17,5.17,0,0,1,663.9,486l-595.82.24Z"/><path class="cls-5" d="M663.72,31.11a4.09,4.09,0,0,1,4.09,4.09L668,480.78a4.09,4.09,0,0,1-4.09,4.09l-595.82.24h0A4.09,4.09,0,0,1,64,481L63.81,35.44a4.09,4.09,0,0,1,4.09-4.09l595.82-.24h0m0-2.17h0L67.9,29.18a6.26,6.26,0,0,0-6.26,6.26L61.82,481a6.27,6.27,0,0,0,6.26,6.26L663.9,487a6.26,6.26,0,0,0,6.26-6.26L670,35.2a6.27,6.27,0,0,0-6.26-6.26Z"/><path class="cls-6" d="M32.33,261.17a2.92,2.92,0,1,1,2.07-.86,2.93,2.93,0,0,1-2.07.86Z"/><path class="cls-7" d="M32.33,256a2.24,2.24,0,1,1-2.24,2.24A2.25,2.25,0,0,1,32.33,256h0m0-1.36h0a3.61,3.61,0,0,0,0,7.22h0a3.61,3.61,0,0,0,0-7.22Z"/><path class="cls-8" d="M700.7,273.17a15.2,15.2,0,1,1,10.75-4.46,15.21,15.21,0,0,1-10.75,4.46Z"/><path class="cls-2" d="M700.7,243.73a14.25,14.25,0,0,1,0,28.49h0a14.25,14.25,0,0,1,0-28.49h0m0-1.9h0A16.15,16.15,0,1,0,716.85,258a16.16,16.16,0,0,0-16.15-16.14Z"/><g class="cls-9"><rect class="cls-10" x="63.7" y="31.26" width="604.53" height="26.98"/><polygon class="cls-11" points="135 40.5 134.64 40.86 138.4 44.52 134.63 48.18 135 48.53 139.13 44.52 135 40.5"/><polygon class="cls-11" points="111.44 40.5 111.81 40.86 108.05 44.51 111.81 48.17 111.44 48.53 107.31 44.51 111.44 40.5"/><rect class="cls-12" x="158.96" y="40.18" width="10.5" height="8.7"/><line class="cls-12" x1="162.36" y1="40.18" x2="162.36" y2="48.88"/><line class="cls-12" x1="159.79" y1="41.36" x2="161.48" y2="41.36"/><line class="cls-12" x1="159.79" y1="42.82" x2="161.48" y2="42.82"/><line class="cls-12" x1="159.79" y1="44.28" x2="161.48" y2="44.29"/><path class="cls-11" d="M627.36,41.7v8.39h8.06V41.71ZM635,49.65h-7.21V42.15H635Z"/><polygon class="cls-11" points="637.54 39.5 629.48 39.5 629.48 41.26 629.9 41.26 629.9 39.94 637.12 39.94 637.12 47.45 635.84 47.45 635.84 47.89 637.54 47.89 637.54 39.5"/><polygon class="cls-11" points="605.35 42.9 605.35 43.26 607.78 43.27 607.78 49.41 601.53 49.41 601.53 43.26 603.96 43.26 603.96 42.9 601.18 42.9 601.18 49.77 608.13 49.77 608.13 42.9 605.35 42.9"/><polygon class="cls-11" points="606.02 41.75 606.27 41.49 604.66 39.8 603.04 41.48 603.29 41.75 604.48 40.51 604.48 46 604.83 46 604.84 40.51 606.02 41.75"/><ellipse class="cls-11" cx="576.86" cy="44.78" rx="5.1" ry="5.31"/><polygon class="cls-10" points="576.86 47.58 579.23 45.12 577.85 45.12 577.85 42.66 575.88 42.66 575.88 45.12 574.5 45.12 576.86 47.58"/><rect class="cls-13" x="185.88" y="37.86" width="361.49" height="12.73" rx="2.21" ry="2.21"/><rect class="cls-14" x="305.97" y="42.34" width="134.51" height="4.84" rx="0.68" ry="0.68"/><path class="cls-14" d="M296.84,43.14h-.29v-.61a1.46,1.46,0,1,0-2.91,0h.55a.9.9,0,1,1,1.8,0h0v.61h-2.65a.6.6,0,0,0-.58.61v3a.6.6,0,0,0,.58.61h3.49a.6.6,0,0,0,.58-.61v-3A.6.6,0,0,0,296.84,43.14ZM295.1,45.9a.61.61,0,1,1,.58-.61A.6.6,0,0,1,295.1,45.9Z"/><rect class="cls-15" x="146.02" y="58.27" width="522.08" height="426.98"/><rect class="cls-4" x="145.99" y="58.27" width="522.18" height="22.12"/><rect class="cls-16" x="145.97" y="79.95" width="522.19" height="0.44"/><rect class="cls-11" x="154.08" y="63.92" width="44.24" height="11.5" rx="5.75" ry="5.75"/><rect class="cls-4" x="63.73" y="58.18" width="82.29" height="426.98"/><polygon class="cls-11" points="102.98 73.52 102.09 73.52 100.88 73.52 100.88 74.28 102.09 74.28 102.98 74.28 104.94 74.28 104.94 73.52 102.98 73.52"/><path class="cls-11" d="M85,74.18a2.42,2.42,0,0,0-.89-.59,3.13,3.13,0,0,0-1.15-.2,2.62,2.62,0,0,0-1.24.29,2.16,2.16,0,0,0-.88.83V70.66h-.89V80.6h.88v-.84h0a2.43,2.43,0,0,0,.83.66,2.74,2.74,0,0,0,1.29.28A3.05,3.05,0,0,0,84,80.5a2.49,2.49,0,0,0,.89-.59,2.71,2.71,0,0,0,.58-1,3.68,3.68,0,0,0,.21-1.29V76.42a3.79,3.79,0,0,0-.2-1.29A2.69,2.69,0,0,0,85,74.18Zm-.12,3.36a2.62,2.62,0,0,1-.53,1.75,1.79,1.79,0,0,1-1.44.62,2.3,2.3,0,0,1-.83-.14,2.21,2.21,0,0,1-.65-.38,1.75,1.75,0,0,1-.43-.53,1.33,1.33,0,0,1-.15-.61V76.17a1.81,1.81,0,0,1,.18-.83,2,2,0,0,1,.48-.62,2.07,2.07,0,0,1,.66-.39,2.19,2.19,0,0,1,.74-.13,1.82,1.82,0,0,1,1.44.6,2.56,2.56,0,0,1,.53,1.75Z"/><path class="cls-11" d="M89.88,73.39a2.91,2.91,0,0,0-2.22.83,3.34,3.34,0,0,0-.79,2.38v.88a3.34,3.34,0,0,0,.79,2.38,3.35,3.35,0,0,0,4.44,0,3.34,3.34,0,0,0,.79-2.38v-.88a3.34,3.34,0,0,0-.79-2.38A2.9,2.9,0,0,0,89.88,73.39Zm2.1,4a2.7,2.7,0,0,1-.56,1.87,2.26,2.26,0,0,1-3.09,0,2.7,2.7,0,0,1-.56-1.87v-.78a2.7,2.7,0,0,1,.56-1.87,2.26,2.26,0,0,1,3.09,0A2.7,2.7,0,0,1,92,76.66Z"/><path class="cls-11" d="M97,73.39a2.91,2.91,0,0,0-2.22.83A3.34,3.34,0,0,0,94,76.61v.88a3.34,3.34,0,0,0,.79,2.38,3.35,3.35,0,0,0,4.44,0,3.34,3.34,0,0,0,.79-2.38v-.88a3.34,3.34,0,0,0-.79-2.38A2.9,2.9,0,0,0,97,73.39Zm2.1,4a2.7,2.7,0,0,1-.56,1.87,2.26,2.26,0,0,1-3.09,0,2.7,2.7,0,0,1-.56-1.87v-.78a2.7,2.7,0,0,1,.56-1.87,2.26,2.26,0,0,1,3.09,0,2.7,2.7,0,0,1,.56,1.87Z"/><rect class="cls-11" x="102.09" y="71.69" width="0.89" height="1.83"/><path class="cls-11" d="M104,79.89a.92.92,0,0,1-.77-.29,1.67,1.67,0,0,1-.23-1V74.28h-.89v4.35a3.54,3.54,0,0,0,.11,1,1.49,1.49,0,0,0,.33.62,1.27,1.27,0,0,0,.57.34,2.8,2.8,0,0,0,.81.11,5,5,0,0,0,.64,0,2.64,2.64,0,0,0,.56-.12l-.13-.74A3.73,3.73,0,0,1,104,79.89Z"/><path class="cls-11" d="M112.06,74.05a2.42,2.42,0,0,0-.89-.62,3.18,3.18,0,0,0-1.24-.22,3.36,3.36,0,0,0-.53,0,2.73,2.73,0,0,0-.55.15,2.27,2.27,0,0,0-.52.29,1.82,1.82,0,0,0-.43.46v-.79H106.3V83.42H108V79.87a2.07,2.07,0,0,0,.76.61,2.56,2.56,0,0,0,1.13.23,3.21,3.21,0,0,0,1.21-.22,2.53,2.53,0,0,0,.92-.62,2.77,2.77,0,0,0,.59-1,3.94,3.94,0,0,0,.2-1.31V76.3a4.27,4.27,0,0,0-.18-1.27A2.62,2.62,0,0,0,112.06,74.05Zm-.93,3.33a2.34,2.34,0,0,1-.37,1.41,1.28,1.28,0,0,1-1.1.51,1.79,1.79,0,0,1-.7-.13,1.83,1.83,0,0,1-.54-.34,1.62,1.62,0,0,1-.35-.46,1.1,1.1,0,0,1-.13-.51V76.33a1.78,1.78,0,0,1,.43-1.23,1.59,1.59,0,0,1,1.26-.48,1.31,1.31,0,0,1,1.16.51,2.46,2.46,0,0,1,.35,1.43Z"/><path class="cls-11" d="M119.76,75.52a2.13,2.13,0,0,0-.22-1,2.09,2.09,0,0,0-.6-.72,2.8,2.8,0,0,0-.93-.45,4.54,4.54,0,0,0-2.8.14,7,7,0,0,0-1.25.68l.81,1.21a3.24,3.24,0,0,1,2.05-.72,1.38,1.38,0,0,1,1,.3,1.29,1.29,0,0,1,.31,1v.28h-1.66a4.52,4.52,0,0,0-1.29.16,2.29,2.29,0,0,0-.85.43,1.56,1.56,0,0,0-.46.65,2.36,2.36,0,0,0-.14.82v.42a1.83,1.83,0,0,0,.64,1.49,2.77,2.77,0,0,0,1.81.53,3,3,0,0,0,.6-.07,3.14,3.14,0,0,0,.6-.19,2.13,2.13,0,0,0,.52-.32,1.18,1.18,0,0,0,.34-.43l0,.89h1.48V77.49h1V76.21h-1Zm-1.64,2.17a4.52,4.52,0,0,1,0,.66.86.86,0,0,1-.26.48,2,2,0,0,1-1.5.49,1.17,1.17,0,0,1-.74-.2.66.66,0,0,1-.25-.55v-.16a.89.89,0,0,1,.26-.67,1.3,1.3,0,0,1,.91-.25h1.62Z"/><polygon class="cls-11" points="124.11 78.72 124.06 78.72 122.42 73.37 120.58 73.37 123.15 80.7 122.22 83.08 123.77 83.62 127.53 73.37 125.77 73.37 124.11 78.72"/><path class="cls-11" d="M130.25,80.07a1,1,0,0,0-.71-.29,1,1,0,0,0-.72.29,1,1,0,0,0-.3.71,1,1,0,0,0,1,1,1,1,0,0,0,.71-.3,1,1,0,0,0,.29-.72A1,1,0,0,0,130.25,80.07Z"/><rect class="cls-11" x="71.72" y="91.25" width="66.43" height="14.34" rx="0.48" ry="0.48"/><polygon class="cls-4" points="128.44 96.53 131.06 100.32 133.68 96.53 128.44 96.53"/><rect class="cls-4" x="156.13" y="110.66" width="200.87" height="122.33"/><rect class="cls-17" x="156.13" y="110.66" width="200.87" height="122.33"/><line class="cls-18" x1="179.62" y1="212.27" x2="349.83" y2="212.32"/><line class="cls-18" x1="179.62" y1="196.29" x2="349.84" y2="196.34"/><line class="cls-18" x1="179.63" y1="180.32" x2="349.84" y2="180.37"/><line class="cls-18" x1="179.63" y1="164.35" x2="349.85" y2="164.4"/><line class="cls-18" x1="179.64" y1="148.38" x2="349.85" y2="148.43"/><line class="cls-18" x1="179.64" y1="132.41" x2="349.86" y2="132.46"/><rect class="cls-4" x="364.95" y="110.72" width="200.87" height="122.33"/><rect class="cls-17" x="364.95" y="110.72" width="200.87" height="122.33"/><line class="cls-19" x1="388.45" y1="212.33" x2="558.26" y2="212.38"/><line class="cls-19" x1="388.45" y1="196.36" x2="558.26" y2="196.41"/><line class="cls-19" x1="388.46" y1="180.38" x2="558.26" y2="180.43"/><line class="cls-19" x1="388.46" y1="164.41" x2="558.27" y2="164.46"/><line class="cls-19" x1="388.47" y1="148.44" x2="558.27" y2="148.49"/><line class="cls-19" x1="388.47" y1="132.47" x2="558.28" y2="132.52"/><text class="cls-20" transform="translate(449.56 122.71) rotate(0.02)">총방문</text><rect class="cls-21" x="443.34" y="120.52" width="4.87" height="1.43"/><text class="cls-20" transform="translate(482.31 122.72) rotate(0.02)">매출</text><rect class="cls-22" x="476.08" y="120.52" width="4.87" height="1.43"/><rect class="cls-22" x="399.99" y="190.18" width="3.54" height="21.95"/><rect class="cls-22" x="421.59" y="185.46" width="3.54" height="26.67"/><rect class="cls-22" x="443.19" y="200.84" width="3.54" height="11.3"/><rect class="cls-22" x="475.6" y="183.31" width="3.54" height="28.84"/><rect class="cls-22" x="497.2" y="176.87" width="3.54" height="35.29"/><rect class="cls-22" x="540.41" y="190.22" width="3.54" height="21.96"/><rect class="cls-22" x="518.8" y="186.33" width="3.54" height="25.84"/><rect class="cls-22" x="410.79" y="183.29" width="3.54" height="28.84"/><rect class="cls-22" x="432.39" y="190.19" width="3.54" height="21.95"/><rect class="cls-22" x="464.79" y="195.48" width="3.54" height="16.67"/><rect class="cls-22" x="486.4" y="190.2" width="3.54" height="21.95"/><rect class="cls-22" x="508" y="196.42" width="3.54" height="15.75"/><rect class="cls-22" x="551.21" y="195.38" width="3.54" height="16.79"/><rect class="cls-22" x="529.6" y="201.01" width="3.54" height="11.16"/><rect class="cls-22" x="453.99" y="196.4" width="3.54" height="15.75"/><rect class="cls-23" x="396.36" y="178.7" width="3.54" height="33.43" transform="translate(796.2 390.95) rotate(-179.98)"/><rect class="cls-23" x="407.16" y="154.26" width="3.54" height="57.87" transform="translate(817.81 366.52) rotate(-179.98)"/><rect class="cls-23" x="417.96" y="158.01" width="3.54" height="54.13" transform="translate(839.41 370.27) rotate(-179.98)"/><rect class="cls-23" x="428.77" y="138.5" width="3.54" height="73.63" transform="translate(861.03 350.77) rotate(-179.98)"/><rect class="cls-23" x="439.57" y="132.48" width="3.54" height="79.66" transform="translate(882.63 344.76) rotate(-179.98)"/><rect class="cls-23" x="461.17" y="171.29" width="3.54" height="40.86" transform="translate(925.82 383.58) rotate(-179.98)"/><rect class="cls-23" x="482.77" y="161.79" width="3.54" height="50.37" transform="translate(969.03 374.08) rotate(-179.98)"/><rect class="cls-23" x="504.38" y="147.58" width="3.54" height="64.58" transform="translate(1012.24 359.89) rotate(-179.98)"/><rect class="cls-23" x="525.98" y="175.98" width="3.54" height="36.19" transform="translate(1055.44 388.3) rotate(-179.98)"/><rect class="cls-23" x="547.58" y="149.73" width="3.54" height="62.45" transform="translate(1098.66 362.06) rotate(-179.98)"/><rect class="cls-23" x="450.37" y="161.94" width="3.54" height="50.2" transform="translate(904.22 374.22) rotate(-179.98)"/><rect class="cls-23" x="471.97" y="151.97" width="3.54" height="60.18" transform="translate(947.43 364.26) rotate(-179.98)"/><rect class="cls-23" x="493.58" y="140.63" width="3.54" height="71.53" transform="translate(990.64 352.93) rotate(-179.98)"/><rect class="cls-23" x="515.18" y="163.47" width="3.54" height="48.7" transform="translate(1033.84 375.78) rotate(-179.98)"/><rect class="cls-23" x="536.78" y="147.59" width="3.54" height="64.58" transform="translate(1077.05 359.92) rotate(-179.98)"/><rect class="cls-4" x="574.22" y="110.77" width="83.21" height="122.33"/><rect class="cls-17" x="574.22" y="110.77" width="83.21" height="122.33"/><rect class="cls-24" x="574.25" y="90.24" width="83.24" height="21.24"/><rect class="cls-17" x="574.25" y="90.24" width="83.24" height="21.24"/><path class="cls-13" d="M591,123.36h-4.87a5.75,5.75,0,1,0,0,11.5H591a5.75,5.75,0,0,0,0-11.5Z"/><path class="cls-13" d="M633.11,123.38h-4.87a5.75,5.75,0,1,0,0,11.5h4.87a5.75,5.75,0,0,0,0-11.5Z"/><rect class="cls-25" x="580.4" y="98.78" width="19.42" height="4.05" rx="2.02" ry="2.02"/><rect class="cls-4" x="156.07" y="241.87" width="76.16" height="50.61"/><rect class="cls-26" x="156.07" y="241.87" width="76.16" height="50.61"/><rect class="cls-4" x="156.1" y="301.6" width="76.16" height="50.61"/><rect class="cls-26" x="156.1" y="301.6" width="76.16" height="50.61"/><rect class="cls-25" x="166.96" y="250.98" width="40.46" height="4.05" rx="2.02" ry="2.02"/><rect class="cls-4" x="240.15" y="262.43" width="165.49" height="89.81"/><rect class="cls-17" x="240.15" y="262.43" width="165.49" height="89.81"/><rect class="cls-24" x="240.16" y="241.91" width="165.53" height="21.24"/><rect class="cls-17" x="240.16" y="241.91" width="165.53" height="21.24"/><rect class="cls-15" x="240.43" y="281.35" width="164.73" height="17.7"/><rect class="cls-15" x="240.5" y="316.63" width="164.73" height="17.7"/><rect class="cls-27" x="246.4" y="287.96" width="37.16" height="4.42" rx="2.21" ry="2.21"/><rect class="cls-23" x="246.4" y="287.96" width="36" height="4.42" rx="2.21" ry="2.21"/><rect class="cls-27" x="246.4" y="305.92" width="37.16" height="4.42" rx="2.21" ry="2.21"/><rect class="cls-23" x="246.4" y="305.92" width="18.58" height="4.42" rx="2.21" ry="2.21"/><rect class="cls-27" x="246.39" y="323.6" width="37.16" height="4.42" rx="2.21" ry="2.21"/><rect class="cls-23" x="246.39" y="323.6" width="25.55" height="4.42" rx="2.21" ry="2.21"/><rect class="cls-27" x="246.39" y="340.84" width="37.16" height="4.42" rx="2.21" ry="2.21"/><rect class="cls-23" x="246.39" y="340.84" width="29.73" height="4.42" rx="2.21" ry="2.21"/><rect class="cls-4" x="413.58" y="262.48" width="118.6" height="89.81"/><rect class="cls-17" x="413.58" y="262.48" width="118.6" height="89.81"/><rect class="cls-24" x="413.6" y="241.95" width="118.63" height="21.24"/><rect class="cls-17" x="413.6" y="241.95" width="118.63" height="21.24"/><line class="cls-28" x1="437.08" y1="336.13" x2="522.47" y2="336.15"/><line class="cls-28" x1="437.08" y1="325.4" x2="522.47" y2="325.42"/><line class="cls-28" x1="437.09" y1="314.66" x2="522.48" y2="314.69"/><line class="cls-28" x1="437.09" y1="303.93" x2="522.48" y2="303.96"/><line class="cls-28" x1="437.09" y1="293.2" x2="522.48" y2="293.22"/><line class="cls-28" x1="437.1" y1="282.47" x2="522.48" y2="282.49"/><rect class="cls-4" x="452.09" y="382.36" width="204.67" height="94.67"/><rect class="cls-29" x="452.09" y="382.36" width="204.67" height="94.67"/><rect class="cls-24" x="452.11" y="361.13" width="204.67" height="21.24"/><rect class="cls-30" x="452.11" y="361.13" width="204.67" height="21.24"/><rect class="cls-31" x="457.37" y="396.78" width="193.33" height="14.16"/><rect class="cls-31" x="457.37" y="425.09" width="193.33" height="14.16"/><rect class="cls-4" x="457.37" y="410.93" width="193.33" height="14.16"/><rect class="cls-4" x="156.11" y="382.29" width="288.02" height="95.31"/><rect class="cls-29" x="156.11" y="382.29" width="288.02" height="95.31"/><rect class="cls-24" x="156.12" y="361.05" width="288.02" height="21.24"/><rect class="cls-17" x="156.12" y="361.05" width="288.02" height="21.24"/><rect class="cls-31" x="161.39" y="396.7" width="277.44" height="14.16"/><rect class="cls-31" x="161.38" y="425.02" width="277.44" height="14.16"/><rect class="cls-4" x="161.38" y="410.85" width="193.33" height="14.16"/><rect class="cls-24" x="156.15" y="90.13" width="200.92" height="21.24"/><rect class="cls-17" x="156.15" y="90.13" width="200.92" height="21.24"/><rect class="cls-25" x="338.54" y="99.51" width="11.33" height="2.43" rx="1.21" ry="1.21"/><rect class="cls-25" x="167" y="98.15" width="40.46" height="4.05" rx="2.02" ry="2.02"/><rect class="cls-24" x="364.95" y="90.2" width="200.92" height="21.24"/><rect class="cls-17" x="364.95" y="90.2" width="200.92" height="21.24"/><rect class="cls-25" x="546.96" y="99.58" width="11.33" height="2.43" rx="1.21" ry="1.21"/><rect class="cls-25" x="375.81" y="98.21" width="40.46" height="4.05" rx="2.02" ry="2.02"/><rect class="cls-25" x="640.07" y="99.6" width="11.33" height="2.43" rx="1.21" ry="1.21"/><rect class="cls-32" x="241.46" y="117.27" width="11.33" height="2.43" rx="1.21" ry="1.21"/><rect class="cls-33" x="265.24" y="117.28" width="11.33" height="2.43" rx="1.21" ry="1.21"/><rect class="cls-13" x="163.24" y="130.6" width="14.57" height="3.61" rx="1.81" ry="1.81"/><rect class="cls-13" x="163.23" y="146.57" width="14.57" height="3.61" rx="1.81" ry="1.81"/><rect class="cls-13" x="163.23" y="162.54" width="14.57" height="3.61" rx="1.81" ry="1.81"/><rect class="cls-13" x="163.22" y="178.95" width="14.57" height="3.61" rx="1.81" ry="1.81"/><rect class="cls-13" x="163.22" y="194.2" width="14.57" height="3.61" rx="1.81" ry="1.81"/><rect class="cls-13" x="163.21" y="210.36" width="14.57" height="3.61" rx="1.81" ry="1.81"/><rect class="cls-25" x="187.99" y="216.42" width="12.14" height="4.05" rx="2.02" ry="2.02"/><rect class="cls-25" x="192.03" y="222.03" width="4.05" height="4.05" rx="2.02" ry="2.02"/><rect class="cls-25" x="215.48" y="216.43" width="12.14" height="4.05" rx="2.02" ry="2.02"/><rect class="cls-25" x="219.53" y="222.04" width="4.05" height="4.05" rx="2.02" ry="2.02"/><rect class="cls-25" x="242.98" y="216.44" width="12.14" height="4.05" rx="2.02" ry="2.02"/><rect class="cls-25" x="247.02" y="222.04" width="4.05" height="4.05" rx="2.02" ry="2.02"/><rect class="cls-25" x="270.48" y="216.44" width="12.14" height="4.05" rx="2.02" ry="2.02"/><rect class="cls-25" x="274.52" y="222.05" width="4.05" height="4.05" rx="2.02" ry="2.02"/><rect class="cls-25" x="297.97" y="216.45" width="12.14" height="4.05" rx="2.02" ry="2.02"/><rect class="cls-25" x="302.02" y="222.06" width="4.05" height="4.05" rx="2.02" ry="2.02"/><rect class="cls-25" x="325.47" y="216.46" width="12.14" height="4.05" rx="2.02" ry="2.02"/><rect class="cls-25" x="329.51" y="222.07" width="4.05" height="4.05" rx="2.02" ry="2.02"/><rect class="cls-13" x="372.58" y="130.66" width="14.57" height="3.61" rx="1.81" ry="1.81"/><rect class="cls-13" x="372.58" y="146.63" width="14.57" height="3.61" rx="1.81" ry="1.81"/><rect class="cls-13" x="372.57" y="162.6" width="14.57" height="3.61" rx="1.81" ry="1.81"/><rect class="cls-13" x="372.57" y="179.01" width="14.57" height="3.61" rx="1.81" ry="1.81"/><rect class="cls-13" x="372.57" y="194.26" width="14.57" height="3.61" rx="1.81" ry="1.81"/><rect class="cls-13" x="372.56" y="210.32" width="14.57" height="3.61" rx="1.81" ry="1.81"/><rect class="cls-25" x="391.12" y="216.47" width="12.14" height="4.05" rx="2.02" ry="2.02"/><rect class="cls-25" x="395.16" y="222.08" width="4.05" height="4.05" rx="2.02" ry="2.02"/><rect class="cls-25" x="418.61" y="216.48" width="12.14" height="4.05" rx="2.02" ry="2.02"/><rect class="cls-25" x="422.66" y="222.09" width="4.05" height="4.05" rx="2.02" ry="2.02"/><rect class="cls-25" x="446.11" y="216.49" width="12.14" height="4.05" rx="2.02" ry="2.02"/><rect class="cls-25" x="450.15" y="222.1" width="4.05" height="4.05" rx="2.02" ry="2.02"/><rect class="cls-25" x="473.6" y="216.5" width="12.14" height="4.05" rx="2.02" ry="2.02"/><rect class="cls-25" x="477.65" y="222.1" width="4.05" height="4.05" rx="2.02" ry="2.02"/><rect class="cls-25" x="501.1" y="216.5" width="12.14" height="4.05" rx="2.02" ry="2.02"/><rect class="cls-25" x="505.14" y="222.11" width="4.05" height="4.05" rx="2.02" ry="2.02"/><rect class="cls-25" x="528.6" y="216.51" width="12.14" height="4.05" rx="2.02" ry="2.02"/><rect class="cls-25" x="532.64" y="222.12" width="4.05" height="4.05" rx="2.02" ry="2.02"/><rect class="cls-13" x="581.22" y="148.5" width="10.52" height="4.05" rx="2.02" ry="2.02"/><rect class="cls-13" x="623.64" y="148.51" width="10.52" height="4.05" rx="2.02" ry="2.02"/><rect class="cls-34" x="581.22" y="155.32" width="24.7" height="5.57" rx="2.78" ry="2.78"/><rect class="cls-34" x="623.25" y="155.33" width="24.7" height="5.57" rx="2.78" ry="2.78"/><rect class="cls-13" x="581.21" y="177.9" width="10.52" height="4.05" rx="2.02" ry="2.02"/><rect class="cls-13" x="623.64" y="177.91" width="10.52" height="4.05" rx="2.02" ry="2.02"/><rect class="cls-35" x="581.21" y="184.72" width="24.7" height="5.57" rx="2.78" ry="2.78"/><rect class="cls-35" x="623.24" y="184.73" width="24.7" height="5.57" rx="2.78" ry="2.78"/><rect class="cls-13" x="581.21" y="206.19" width="10.52" height="4.05" rx="2.02" ry="2.02"/><rect class="cls-13" x="623.63" y="206.21" width="10.52" height="4.05" rx="2.02" ry="2.02"/><g class="cls-36"><rect class="cls-37" x="581.2" y="213.01" width="24.7" height="5.57" rx="2.78" ry="2.78"/><rect class="cls-37" x="623.23" y="213.03" width="24.7" height="5.57" rx="2.78" ry="2.78"/></g><rect class="cls-25" x="166.94" y="311.79" width="40.46" height="4.05" rx="2.02" ry="2.02"/><rect class="cls-37" x="187.57" y="268.9" width="35.59" height="16.94" rx="8.47" ry="8.47"/><rect class="cls-35" x="187.56" y="327.59" width="35.59" height="16.94" rx="8.47" ry="8.47"/><rect class="cls-25" x="250.24" y="250.49" width="40.46" height="4.05" rx="2.02" ry="2.02"/><rect class="cls-38" x="246.85" y="271.3" width="19.42" height="3.61" rx="1.81" ry="1.81"/><rect class="cls-38" x="295.94" y="271.32" width="14.57" height="3.61" rx="1.81" ry="1.81"/><rect class="cls-38" x="332.45" y="271.33" width="21.04" height="3.61" rx="1.81" ry="1.81"/><rect class="cls-38" x="372.71" y="271.34" width="14.57" height="3.61" rx="1.81" ry="1.81"/><rect class="cls-25" x="295.94" y="288.16" width="13.76" height="4.05" rx="1.91" ry="1.91"/><rect class="cls-25" x="295.93" y="305.81" width="22.18" height="4.05" rx="2.02" ry="2.02"/><rect class="cls-25" x="295.92" y="323.45" width="26.86" height="4.05" rx="2.02" ry="2.02"/><rect class="cls-25" x="295.92" y="341.04" width="13.76" height="4.05" rx="1.91" ry="1.91"/><rect class="cls-25" x="333.17" y="341.05" width="8.09" height="4.05" rx="2.02" ry="2.02"/><rect class="cls-25" x="333.17" y="323.46" width="8.09" height="4.05" rx="2.02" ry="2.02"/><rect class="cls-25" x="333.18" y="305.82" width="8.09" height="4.05" rx="2.02" ry="2.02"/><rect class="cls-25" x="333.18" y="288.17" width="8.09" height="4.05" rx="2.02" ry="2.02"/><rect class="cls-38" x="369.88" y="288.18" width="20.23" height="4.05" rx="2.02" ry="2.02"/><rect class="cls-38" x="369.87" y="305.83" width="20.23" height="4.05" rx="2.02" ry="2.02"/><rect class="cls-38" x="369.87" y="323.47" width="20.23" height="4.05" rx="2.02" ry="2.02"/><rect class="cls-38" x="369.86" y="341.07" width="20.23" height="4.05" rx="2.02" ry="2.02"/><rect class="cls-13" x="420.2" y="281.12" width="14.57" height="3.61" rx="1.81" ry="1.81"/><rect class="cls-13" x="420.19" y="302.12" width="14.57" height="3.61" rx="1.81" ry="1.81"/><rect class="cls-13" x="420.19" y="323.7" width="14.57" height="3.61" rx="1.81" ry="1.81"/><rect class="cls-39" x="455.87" y="269.11" width="11.33" height="2.43" rx="1.21" ry="1.21"/><rect class="cls-40" x="479.65" y="269.12" width="11.33" height="2.43" rx="1.21" ry="1.21"/><rect class="cls-25" x="445.53" y="339.06" width="12.14" height="4.05" rx="2.02" ry="2.02"/><rect class="cls-25" x="449.58" y="344.67" width="4.05" height="4.05" rx="2.02" ry="2.02"/><rect class="cls-25" x="473.03" y="339.07" width="12.14" height="4.05" rx="2.02" ry="2.02"/><rect class="cls-25" x="477.07" y="344.68" width="4.05" height="4.05" rx="2.02" ry="2.02"/><rect class="cls-25" x="500.52" y="339.08" width="12.14" height="4.05" rx="2.02" ry="2.02"/><rect class="cls-25" x="504.57" y="344.69" width="4.05" height="4.05" rx="2.02" ry="2.02"/><rect class="cls-25" x="570.8" y="339.1" width="12.14" height="4.05" rx="2.02" ry="2.02"/><rect class="cls-25" x="574.84" y="344.71" width="4.05" height="4.05" rx="2.02" ry="2.02"/><rect class="cls-25" x="598.29" y="339.11" width="12.14" height="4.05" rx="2.02" ry="2.02"/><rect class="cls-25" x="602.34" y="344.72" width="4.05" height="4.05" rx="2.02" ry="2.02"/><rect class="cls-25" x="625.79" y="339.12" width="12.14" height="4.05" rx="2.02" ry="2.02"/><rect class="cls-25" x="629.83" y="344.72" width="4.05" height="4.05" rx="2.02" ry="2.02"/><rect class="cls-25" x="419.58" y="250.54" width="40.46" height="4.05" rx="2.02" ry="2.02"/><rect class="cls-25" x="166.51" y="369.61" width="40.46" height="4.05" rx="2.02" ry="2.02"/><rect class="cls-25" x="419.54" y="370.49" width="11.33" height="2.43" rx="1.21" ry="1.21"/><rect class="cls-25" x="459.93" y="369.7" width="27.51" height="4.05" rx="1.67" ry="1.67"/><rect class="cls-25" x="634.1" y="370.56" width="11.33" height="2.43" rx="1.21" ry="1.21"/><rect class="cls-38" x="188.46" y="389.42" width="14.57" height="3.61" rx="1.81" ry="1.81"/><rect class="cls-38" x="166.29" y="389.41" width="9.71" height="3.61" rx="1.81" ry="1.81"/><rect class="cls-38" x="407.89" y="389.49" width="11.33" height="3.61" rx="1.81" ry="1.81"/><rect class="cls-25" x="167.1" y="401.88" width="8.09" height="4.05" rx="2.02" ry="2.02"/><rect class="cls-25" x="188.45" y="401.9" width="97.9" height="4.05" rx="2.02" ry="2.02"/><rect class="cls-25" x="408.46" y="401.95" width="15.99" height="4.05" rx="2.02" ry="2.02"/><rect class="cls-13" x="167.1" y="415.88" width="8.09" height="4.05" rx="2.02" ry="2.02"/><rect class="cls-13" x="188.45" y="415.9" width="97.9" height="4.05" rx="2.02" ry="2.02"/><rect class="cls-13" x="408.46" y="415.95" width="15.99" height="4.05" rx="2.02" ry="2.02"/><rect class="cls-25" x="167.09" y="430.11" width="8.09" height="4.05" rx="2.02" ry="2.02"/><rect class="cls-25" x="188.45" y="430.13" width="97.9" height="4.05" rx="2.02" ry="2.02"/><rect class="cls-25" x="408.45" y="430.19" width="15.99" height="4.05" rx="2.02" ry="2.02"/><rect class="cls-38" x="486.58" y="389.51" width="14.57" height="3.61" rx="1.81" ry="1.81"/><rect class="cls-38" x="464.42" y="389.5" width="9.71" height="3.61" rx="1.81" ry="1.81"/><rect class="cls-38" x="627.53" y="389.55" width="11.33" height="3.61" rx="1.81" ry="1.81"/><rect class="cls-25" x="465.22" y="401.97" width="8.09" height="4.05" rx="2.02" ry="2.02"/><rect class="cls-25" x="486.58" y="401.98" width="76.57" height="4.05" rx="2.02" ry="2.02"/><rect class="cls-25" x="627.53" y="402.02" width="15.99" height="4.05" rx="2.02" ry="2.02"/><rect class="cls-13" x="465.22" y="415.97" width="8.09" height="4.05" rx="2.02" ry="2.02"/><rect class="cls-13" x="486.57" y="415.98" width="76.57" height="4.05" rx="2.02" ry="2.02"/><rect class="cls-13" x="627.52" y="416.01" width="15.99" height="4.05" rx="2.02" ry="2.02"/><rect class="cls-25" x="465.22" y="430.2" width="8.09" height="4.05" rx="2.02" ry="2.02"/><rect class="cls-25" x="486.57" y="430.22" width="76.57" height="4.05" rx="2.02" ry="2.02"/><rect class="cls-25" x="627.52" y="430.25" width="15.99" height="4.05" rx="2.02" ry="2.02"/><rect class="cls-38" x="84.65" y="258.32" width="40.46" height="8.09" rx="4.05" ry="4.05"/><rect class="cls-25" x="167" y="98.15" width="40.46" height="4.05" rx="2.02" ry="2.02"/><rect class="cls-15" x="71.88" y="112.49" width="66.25" height="36.17"/><rect class="cls-11" x="76.45" y="117.19" width="20.28" height="4.27" rx="2.13" ry="2.13"/><rect class="cls-25" x="76.45" y="126.06" width="7.94" height="4.27" rx="2.13" ry="2.13"/><rect class="cls-25" x="96.63" y="126.07" width="32.68" height="4.27" rx="2.13" ry="2.13"/><rect class="cls-38" x="76.45" y="132.87" width="15.66" height="4.27" rx="2.13" ry="2.13"/><rect class="cls-25" x="96.63" y="132.88" width="27.98" height="4.27" rx="1.98" ry="1.98"/><rect class="cls-38" x="76.44" y="139.68" width="13.41" height="4.27" rx="1.98" ry="1.98"/><rect class="cls-25" x="96.63" y="139.69" width="13.99" height="4.27" rx="2.13" ry="2.13"/><circle class="cls-11" cx="83.12" cy="164.66" r="4.54"/><rect class="cls-11" x="92.01" y="161.77" width="22.66" height="5.66" rx="2.83" ry="2.83"/><circle class="cls-13" cx="83.12" cy="181.22" r="4.54"/><rect class="cls-13" x="92" y="178.33" width="22.66" height="5.66" rx="2.83" ry="2.83"/><circle class="cls-13" cx="83.11" cy="197.79" r="4.54"/><rect class="cls-13" x="92" y="194.9" width="22.66" height="5.66" rx="2.83" ry="2.83"/><circle class="cls-13" cx="83.11" cy="214.35" r="4.54"/><rect class="cls-13" x="91.99" y="211.46" width="22.66" height="5.66" rx="2.83" ry="2.83"/><circle class="cls-13" cx="83.1" cy="230.92" r="4.54"/><rect class="cls-13" x="91.99" y="228.02" width="22.66" height="5.66" rx="2.83" ry="2.83"/><rect class="cls-41" x="532.65" y="68.09" width="22.17" height="2.43" rx="1.06" ry="1.06"/><rect class="cls-41" x="561.81" y="68.09" width="22.17" height="2.43" rx="1.06" ry="1.06"/><rect class="cls-41" x="590.96" y="68.1" width="14.78" height="2.43" rx="1.06" ry="1.06"/><rect class="cls-41" x="613.15" y="67.02" width="27.71" height="4.62" rx="2.31" ry="2.31"/><circle class="cls-41" cx="649.11" cy="69.4" r="5.26"/><circle class="cls-11" cx="649.11" cy="67.35" r="1.96"/><path class="cls-11" d="M649.11,74.66a5.23,5.23,0,0,0,4-1.94,4.13,4.13,0,0,0-8.1,0A5.23,5.23,0,0,0,649.11,74.66Z"/><rect class="cls-24" x="165.28" y="68.46" width="21.85" height="2.43" rx="0.97" ry="0.97"/><rect class="cls-41" x="210.96" y="68.47" width="21.85" height="2.43" rx="0.97" ry="0.97"/><polygon class="cls-16" points="146.04 58.2 145.93 485.16 146.37 485.14 146.48 58.2 146.04 58.2"/><polyline class="cls-42" points="186.34 182.4 209.31 175.2 222.87 183.73 239.01 208.4 255.79 184.05 272.82 189.46 297.21 179.91 312.53 157.74 328.89 151.31 343.57 138.89"/><polyline class="cls-43" points="186.57 194.84 209.39 179.81 222.99 190.27 238.88 201.63 255.92 190.69 272.99 198.3 297.43 191.37 312.68 165.93 328.99 156.92 343.7 145.46"/><polyline class="cls-44" points="436.57 336.21 457.51 335.06 466.01 315.3 473.03 298.15 485.63 293.85 498.59 294.97 507.07 298.98 518.05 290.19"/><polyline class="cls-45" points="436.57 336.21 459.85 336.21 474.11 307.6 486.53 305.92 498.93 301.83 507.23 308.6 518.05 297.64"/><rect class="cls-4" x="538.79" y="262.52" width="118.6" height="89.81"/><rect class="cls-17" x="538.79" y="262.52" width="118.6" height="89.81"/><rect class="cls-24" x="538.81" y="241.99" width="118.63" height="21.24"/><rect class="cls-17" x="538.81" y="241.99" width="118.63" height="21.24"/><line class="cls-28" x1="563.17" y1="336.17" x2="648.56" y2="336.19"/><line class="cls-28" x1="563.18" y1="325.43" x2="648.57" y2="325.46"/><line class="cls-28" x1="563.18" y1="314.7" x2="648.57" y2="314.73"/><line class="cls-28" x1="563.18" y1="303.97" x2="648.57" y2="303.99"/><line class="cls-28" x1="563.19" y1="293.24" x2="648.58" y2="293.26"/><line class="cls-28" x1="563.19" y1="282.5" x2="648.58" y2="282.53"/><rect class="cls-13" x="545.46" y="281.15" width="14.57" height="3.61" rx="1.81" ry="1.81"/><rect class="cls-13" x="545.46" y="302.16" width="14.57" height="3.61" rx="1.81" ry="1.81"/><rect class="cls-13" x="545.45" y="323.74" width="14.57" height="3.61" rx="1.81" ry="1.81"/><rect class="cls-46" x="581.13" y="269.15" width="11.33" height="2.43" rx="1.21" ry="1.21"/><rect class="cls-40" x="604.91" y="269.15" width="11.33" height="2.43" rx="1.21" ry="1.21"/><rect class="cls-25" x="545.47" y="250.57" width="22.66" height="4.05" rx="2.02" ry="2.02"/><polyline class="cls-44" points="564.67 336.23 585.62 335.09 594.12 315.32 601.13 298.17 613.74 290.78 626.69 294.99 635.17 299 646.15 293.64"/><polyline class="cls-47" points="564.67 336.23 587.96 336.24 602.22 311.64 614.63 305.94 627.03 301.86 635.34 308.63 646.15 297.66"/><rect class="cls-31" x="457.37" y="455.62" width="193.33" height="14.16"/><rect class="cls-31" x="161.38" y="455.55" width="277.44" height="14.16"/><rect class="cls-13" x="167.1" y="445.2" width="8.09" height="4.05" rx="2.02" ry="2.02"/><rect class="cls-13" x="188.45" y="445.22" width="97.9" height="4.05" rx="2.02" ry="2.02"/><rect class="cls-13" x="408.46" y="445.28" width="15.99" height="4.05" rx="2.02" ry="2.02"/><rect class="cls-25" x="167.09" y="460.64" width="8.09" height="4.05" rx="2.02" ry="2.02"/><rect class="cls-25" x="188.45" y="460.66" width="97.9" height="4.05" rx="2.02" ry="2.02"/><rect class="cls-25" x="408.45" y="460.72" width="15.99" height="4.05" rx="2.02" ry="2.02"/><rect class="cls-13" x="465.22" y="445.29" width="8.09" height="4.05" rx="2.02" ry="2.02"/><rect class="cls-13" x="486.57" y="445.31" width="76.57" height="4.05" rx="2.02" ry="2.02"/><rect class="cls-13" x="627.52" y="445.34" width="15.99" height="4.05" rx="2.02" ry="2.02"/><rect class="cls-25" x="465.22" y="460.73" width="8.09" height="4.05" rx="2.02" ry="2.02"/><rect class="cls-25" x="486.57" y="460.75" width="76.57" height="4.05" rx="2.02" ry="2.02"/><rect class="cls-25" x="627.52" y="460.78" width="15.99" height="4.05" rx="2.02" ry="2.02"/></g></g></g></svg>