<svg xmlns="http://www.w3.org/2000/svg" xmlns:xlink="http://www.w3.org/1999/xlink" viewBox="0 0 350.36 252.23" width="325" height="233"><defs><style>.cls-1,.cls-12,.cls-17,.cls-18,.cls-19,.cls-26,.cls-28,.cls-29,.cls-30,.cls-42,.cls-43,.cls-44,.cls-45,.cls-47,.cls-48{fill:none;}.cls-2{fill:#3d34b7;}.cls-3,.cls-5{fill:#fff;}.cls-4,.cls-49{fill:#e4e4ea;}.cls-48,.cls-5,.cls-6{stroke:#e4e4ea;}.cls-5,.cls-6{stroke-linecap:round;stroke-linejoin:round;}.cls-6{fill:#fafafa;}.cls-11,.cls-14,.cls-7{fill:#acb7c3;}.cls-7{opacity:0.6;isolation:isolate;}.cls-8{opacity:0.7;}.cls-9{clip-path:url(#clip-path);}.cls-10{fill:#f7f9fc;}.cls-12{stroke:#acb7c3;stroke-width:0.15px;}.cls-12,.cls-17,.cls-18,.cls-19,.cls-26,.cls-28,.cls-29,.cls-30,.cls-42,.cls-43,.cls-44,.cls-45,.cls-47,.cls-48{stroke-miterlimit:10;}.cls-13{fill:#e7ebf0;}.cls-14,.cls-32,.cls-33,.cls-35,.cls-36,.cls-37{opacity:0.6;}.cls-15{fill:#f6f7fb;}.cls-16{fill:#e4e9f2;}.cls-17,.cls-26,.cls-29,.cls-30{stroke:#e4e9f2;}.cls-17{stroke-width:0.19px;}.cls-18,.cls-19,.cls-28{stroke:#8a92a5;}.cls-18{stroke-width:0.04px;}.cls-19{stroke-width:0.04px;}.cls-20{font-size:1.49px;fill:#8a92a5;font-family:SpoqaHanSans-Regular, SpoqaHanSans;}.cls-21,.cls-33,.cls-34{fill:#716fe9;}.cls-22{fill:#e1e1ff;}.cls-23{fill:#736bf1;}.cls-24{fill:#edf0f4;}.cls-25{fill:#c8cfd6;}.cls-26{stroke-width:0.19px;}.cls-27,.cls-31{fill:#dbe0eb;}.cls-28{stroke-width:0.04px;}.cls-29{stroke-width:0.21px;}.cls-30{stroke-width:0.17px;}.cls-31{opacity:0.3;}.cls-32{fill:#ffb173;}.cls-34,.cls-38,.cls-39,.cls-40,.cls-46{opacity:0.5;}.cls-35{fill:#8fd285;}.cls-37,.cls-46{fill:#f48786;}.cls-38{fill:#aca6ff;}.cls-39{fill:#f6da78;}.cls-40{fill:#6999f9;}.cls-41{fill:#dae0e5;}.cls-42{stroke:#716fe9;}.cls-42,.cls-43{stroke-width:0.34px;}.cls-43{stroke:#ffb173;}.cls-44{stroke:#6999f9;}.cls-44,.cls-45,.cls-47{stroke-width:0.36px;}.cls-45{stroke:#f6da78;}.cls-47{stroke:#f48786;}.cls-49{opacity:0.2;}</style><clipPath id="clip-path"><path class="cls-1" d="M301.09,62.68a1.15,1.15,0,0,1,1.15,1.15V220.62a1.15,1.15,0,0,1-1.15,1.15H49.26a1.15,1.15,0,0,1-1.15-1.15V63.83a1.15,1.15,0,0,1,1.15-1.15H301.09"/></clipPath></defs><title>자산 36</title><g id="레이어_2" data-name="레이어 2"><g id="레이어_1-2" data-name="레이어 1"><polygon class="cls-2" points="170.89 6.76 168.77 6.76 165.91 6.76 165.91 8.57 168.77 8.57 170.89 8.57 175.53 8.57 175.53 6.76 170.89 6.76"/><path class="cls-2" d="M128.18,8.33a5.75,5.75,0,0,0-2.1-1.4,7.41,7.41,0,0,0-2.73-.48,6.21,6.21,0,0,0-2.93.7,5.11,5.11,0,0,0-2.09,2V0h-2.12V23.55h2.09v-2h0a5.77,5.77,0,0,0,2,1.57,6.49,6.49,0,0,0,3.05.67,7.23,7.23,0,0,0,2.66-.48,5.91,5.91,0,0,0,2.12-1.4,6.41,6.41,0,0,0,1.39-2.26,8.72,8.72,0,0,0,.5-3.05v-3a9,9,0,0,0-.48-3.05A6.38,6.38,0,0,0,128.18,8.33Zm-.28,8a6.22,6.22,0,0,1-1.26,4.16,4.25,4.25,0,0,1-3.41,1.48,5.44,5.44,0,0,1-2-.34,5.25,5.25,0,0,1-1.54-.9,4.14,4.14,0,0,1-1-1.26,3.15,3.15,0,0,1-.36-1.45V13.05a4.29,4.29,0,0,1,.44-2,4.79,4.79,0,0,1,1.14-1.47,4.91,4.91,0,0,1,1.57-.92,5.19,5.19,0,0,1,1.74-.31,4.31,4.31,0,0,1,3.41,1.43A6.08,6.08,0,0,1,127.9,14Z"/><path class="cls-2" d="M139.83,6.45a6.89,6.89,0,0,0-5.26,2,7.92,7.92,0,0,0-1.87,5.65v2.09a7.93,7.93,0,0,0,1.87,5.64,7.94,7.94,0,0,0,10.53,0A7.93,7.93,0,0,0,147,16.17V14.08a7.93,7.93,0,0,0-1.87-5.64A6.87,6.87,0,0,0,139.83,6.45Zm5,9.59a6.41,6.41,0,0,1-1.32,4.44,5.35,5.35,0,0,1-7.32,0A6.4,6.4,0,0,1,134.85,16V14.21a6.4,6.4,0,0,1,1.32-4.44,5.35,5.35,0,0,1,7.32,0,6.41,6.41,0,0,1,1.32,4.44Z"/><path class="cls-2" d="M156.75,6.45a6.89,6.89,0,0,0-5.26,2,7.92,7.92,0,0,0-1.87,5.65v2.09a7.93,7.93,0,0,0,1.87,5.64,7.94,7.94,0,0,0,10.53,0,7.93,7.93,0,0,0,1.87-5.64V14.08A7.93,7.93,0,0,0,162,8.44,6.86,6.86,0,0,0,156.75,6.45Zm5,9.59a6.41,6.41,0,0,1-1.32,4.44,5.35,5.35,0,0,1-7.32,0A6.4,6.4,0,0,1,151.77,16V14.21a6.4,6.4,0,0,1,1.32-4.44,5.35,5.35,0,0,1,7.32,0,6.41,6.41,0,0,1,1.32,4.44Z"/><rect class="cls-2" x="168.77" y="2.43" width="2.12" height="4.33"/><path class="cls-2" d="M173.26,21.87a2.19,2.19,0,0,1-1.82-.69,4,4,0,0,1-.55-2.4V8.57h-2.12V18.88a8.38,8.38,0,0,0,.27,2.29,3.54,3.54,0,0,0,.79,1.48,3,3,0,0,0,1.36.81,6.64,6.64,0,0,0,1.92.25,11.74,11.74,0,0,0,1.51-.11,6.25,6.25,0,0,0,1.32-.3l-.31-1.74A8.85,8.85,0,0,1,173.26,21.87Z"/><path class="cls-2" d="M192.42,8a5.74,5.74,0,0,0-2.1-1.48A7.55,7.55,0,0,0,187.37,6a8,8,0,0,0-1.26.11,6.46,6.46,0,0,0-1.31.36,5.38,5.38,0,0,0-1.23.69,4.32,4.32,0,0,0-1,1.09V6.39h-3.77V30.22h3.93V21.81a4.91,4.91,0,0,0,1.81,1.45,6.08,6.08,0,0,0,2.68.55,7.62,7.62,0,0,0,2.87-.52,6,6,0,0,0,2.18-1.48,6.57,6.57,0,0,0,1.39-2.34,9.34,9.34,0,0,0,.48-3.11v-3a10.12,10.12,0,0,0-.42-3A6.2,6.2,0,0,0,192.42,8Zm-2.21,7.9a5.54,5.54,0,0,1-.89,3.35,3,3,0,0,1-2.6,1.2,4.24,4.24,0,0,1-1.65-.31,4.35,4.35,0,0,1-1.28-.79,3.83,3.83,0,0,1-.84-1.09,2.6,2.6,0,0,1-.31-1.2V13.43a4.21,4.21,0,0,1,1-2.91,3.77,3.77,0,0,1,3-1.14,3.11,3.11,0,0,1,2.74,1.2,5.83,5.83,0,0,1,.84,3.38Z"/><path class="cls-2" d="M210.67,11.5a5.06,5.06,0,0,0-.51-2.32,5,5,0,0,0-1.43-1.71,6.64,6.64,0,0,0-2.2-1.07,10.76,10.76,0,0,0-6.64.33,16.68,16.68,0,0,0-3,1.6l1.93,2.87a7.68,7.68,0,0,1,4.86-1.71,3.26,3.26,0,0,1,2.32.7,3.06,3.06,0,0,1,.73,2.29v.65h-3.92a10.73,10.73,0,0,0-3.05.37,5.43,5.43,0,0,0-2,1,3.69,3.69,0,0,0-1.09,1.54,5.6,5.6,0,0,0-.33,1.95v1a4.33,4.33,0,0,0,1.53,3.54,6.57,6.57,0,0,0,4.3,1.26,7,7,0,0,0,1.43-.16,7.45,7.45,0,0,0,1.43-.45,5,5,0,0,0,1.23-.75,2.8,2.8,0,0,0,.79-1l.06,2.12h3.52V16.17h2.43V13.11h-2.43Zm-3.89,5.14a10.71,10.71,0,0,1-.09,1.57,2,2,0,0,1-.62,1.14,4.84,4.84,0,0,1-3.55,1.15,2.77,2.77,0,0,1-1.75-.47,1.57,1.57,0,0,1-.59-1.31v-.37a2.12,2.12,0,0,1,.61-1.59,3.09,3.09,0,0,1,2.16-.59h3.83Z"/><polygon class="cls-2" points="220.99 19.07 220.86 19.07 216.97 6.39 212.61 6.39 218.71 23.77 216.5 29.41 220.18 30.69 229.09 6.39 224.91 6.39 220.99 19.07"/><path class="cls-2" d="M235.53,22.27a2.29,2.29,0,0,0-1.68-.69,2.34,2.34,0,0,0-1.7.69,2.27,2.27,0,0,0-.7,1.68,2.39,2.39,0,0,0,2.4,2.4,2.26,2.26,0,0,0,1.68-.7,2.34,2.34,0,0,0,.69-1.7A2.29,2.29,0,0,0,235.53,22.27Z"/><rect class="cls-3" x="36.63" y="47.64" width="277.1" height="189.29" rx="8.75" ry="8.75"/><path class="cls-4" d="M305,48.14a8.25,8.25,0,0,1,8.25,8.25V228.18a8.25,8.25,0,0,1-8.25,8.25H45.38a8.25,8.25,0,0,1-8.25-8.25V56.38a8.25,8.25,0,0,1,8.25-8.25H305m0-1H45.38a9.26,9.26,0,0,0-9.25,9.25V228.18a9.26,9.26,0,0,0,9.25,9.25H305a9.26,9.26,0,0,0,9.25-9.25V56.38A9.26,9.26,0,0,0,305,47.14Z"/><rect class="cls-5" x="0.5" y="231.53" width="349.36" height="3.44" rx="0.55" ry="0.55"/><path class="cls-6" d="M.8,235,13,239.2a45.81,45.81,0,0,0,14.38,2.58h.73l294,.26h.73a45.81,45.81,0,0,0,14.38-2.55l12.3-4.53Z"/><circle class="cls-7" cx="175.18" cy="55.86" r="0.81"/><g class="cls-8"><g class="cls-9"><rect class="cls-10" x="48.25" y="61.39" width="254.08" height="11.34"/><polygon class="cls-11" points="78.22 65.27 78.06 65.42 79.64 66.96 78.06 68.5 78.22 68.65 79.95 66.96 78.22 65.27"/><polygon class="cls-11" points="68.31 65.27 68.47 65.42 66.89 66.95 68.47 68.49 68.31 68.64 66.58 66.95 68.31 65.27"/><rect class="cls-12" x="88.29" y="65.14" width="4.41" height="3.65"/><line class="cls-12" x1="89.71" y1="65.13" x2="89.71" y2="68.79"/><line class="cls-12" x1="88.64" y1="65.63" x2="89.34" y2="65.63"/><line class="cls-12" x1="88.64" y1="66.24" x2="89.34" y2="66.24"/><line class="cls-12" x1="88.64" y1="66.86" x2="89.34" y2="66.86"/><path class="cls-11" d="M285.15,65.78V69.3h3.39V65.78Zm3.21,3.34h-3V66h3Z"/><polygon class="cls-11" points="289.43 64.85 286.05 64.85 286.05 65.59 286.22 65.59 286.22 65.03 289.25 65.03 289.25 68.19 288.72 68.19 288.72 68.37 289.43 68.37 289.43 64.85"/><polygon class="cls-11" points="275.9 66.28 275.9 66.43 276.93 66.43 276.93 69.01 274.3 69.01 274.3 66.43 275.32 66.43 275.32 66.28 274.15 66.28 274.15 69.17 277.07 69.17 277.07 66.28 275.9 66.28"/><polygon class="cls-11" points="276.19 65.79 276.29 65.68 275.61 64.97 274.93 65.68 275.04 65.79 275.54 65.27 275.54 67.58 275.69 67.58 275.69 65.27 276.19 65.79"/><ellipse class="cls-11" cx="263.93" cy="67.07" rx="2.15" ry="2.23"/><polygon class="cls-10" points="263.93 68.24 264.92 67.21 264.34 67.21 264.34 66.18 263.52 66.18 263.52 67.21 262.94 67.21 263.93 68.24"/><rect class="cls-13" x="99.6" y="64.16" width="151.93" height="5.35" rx="0.93" ry="0.93"/><rect class="cls-14" x="150.08" y="66.04" width="56.53" height="2.04" rx="0.29" ry="0.29"/><path class="cls-14" d="M146.24,66.38h-.12v-.25a.61.61,0,1,0-1.22,0h.23a.38.38,0,1,1,.76,0h0v.25h-1.11a.25.25,0,0,0-.24.25v1.27a.25.25,0,0,0,.24.25h1.47a.25.25,0,0,0,.24-.25V66.63A.25.25,0,0,0,146.24,66.38Zm-.73,1.16a.25.25,0,1,1,.24-.25A.25.25,0,0,1,145.5,67.54Z"/><rect class="cls-15" x="82.85" y="72.74" width="219.43" height="179.46"/><rect class="cls-3" x="82.83" y="72.74" width="219.47" height="9.3"/><rect class="cls-16" x="82.83" y="81.85" width="219.48" height="0.19"/><rect class="cls-11" x="86.24" y="75.11" width="18.6" height="4.83" rx="2.42" ry="2.42"/><rect class="cls-3" x="48.26" y="72.7" width="34.59" height="179.46"/><polygon class="cls-11" points="64.76 79.15 64.38 79.15 63.87 79.15 63.87 79.47 64.38 79.47 64.76 79.47 65.58 79.47 65.58 79.15 64.76 79.15"/><path class="cls-11" d="M57.19,79.42a1,1,0,0,0-.37-.25,1.31,1.31,0,0,0-.48-.09,1.1,1.1,0,0,0-.52.12.91.91,0,0,0-.37.35V77.95h-.38v4.18h.37v-.35h0a1,1,0,0,0,.35.28,1.15,1.15,0,0,0,.54.12,1.28,1.28,0,0,0,.47-.09,1,1,0,0,0,.38-.25,1.14,1.14,0,0,0,.25-.4,1.55,1.55,0,0,0,.09-.54v-.52a1.59,1.59,0,0,0-.09-.54A1.13,1.13,0,0,0,57.19,79.42Zm-.05,1.41a1.1,1.1,0,0,1-.22.74.75.75,0,0,1-.6.26,1,1,0,0,1-.35-.06.93.93,0,0,1-.27-.16.73.73,0,0,1-.18-.22.56.56,0,0,1-.06-.26v-.87a.76.76,0,0,1,.08-.35.85.85,0,0,1,.2-.26.87.87,0,0,1,.28-.16.92.92,0,0,1,.31-.05.76.76,0,0,1,.6.25,1.08,1.08,0,0,1,.22.73Z"/><path class="cls-11" d="M59.25,79.09a1.22,1.22,0,0,0-.93.35,1.4,1.4,0,0,0-.33,1v.37a1.41,1.41,0,0,0,.33,1,1.41,1.41,0,0,0,1.87,0,1.41,1.41,0,0,0,.33-1v-.37a1.41,1.41,0,0,0-.33-1A1.22,1.22,0,0,0,59.25,79.09Zm.88,1.7a1.14,1.14,0,0,1-.23.79.95.95,0,0,1-1.3,0,1.14,1.14,0,0,1-.23-.79v-.33a1.14,1.14,0,0,1,.23-.79.95.95,0,0,1,1.3,0,1.14,1.14,0,0,1,.23.79Z"/><path class="cls-11" d="M62.25,79.09a1.22,1.22,0,0,0-.93.35,1.4,1.4,0,0,0-.33,1v.37a1.41,1.41,0,0,0,.33,1,1.41,1.41,0,0,0,1.87,0,1.41,1.41,0,0,0,.33-1v-.37a1.41,1.41,0,0,0-.33-1A1.22,1.22,0,0,0,62.25,79.09Zm.88,1.7a1.14,1.14,0,0,1-.24.79.95.95,0,0,1-1.3,0,1.14,1.14,0,0,1-.23-.79v-.33a1.14,1.14,0,0,1,.23-.79.95.95,0,0,1,1.3,0,1.14,1.14,0,0,1,.23.79Z"/><rect class="cls-11" x="64.38" y="78.38" width="0.38" height="0.77"/><path class="cls-11" d="M65.18,81.83a.39.39,0,0,1-.32-.12.7.7,0,0,1-.1-.43V79.47h-.38V81.3a1.49,1.49,0,0,0,0,.41.63.63,0,0,0,.14.26.53.53,0,0,0,.24.14,1.18,1.18,0,0,0,.34,0l.27,0,.23-.05-.06-.31A1.57,1.57,0,0,1,65.18,81.83Z"/><path class="cls-11" d="M68.57,79.37a1,1,0,0,0-.37-.26,1.34,1.34,0,0,0-.52-.09l-.22,0-.23.06a1,1,0,0,0-.22.12.77.77,0,0,0-.18.19v-.33h-.67v4.23h.7V81.82a.87.87,0,0,0,.32.26,1.08,1.08,0,0,0,.48.1,1.35,1.35,0,0,0,.51-.09,1.06,1.06,0,0,0,.39-.26,1.16,1.16,0,0,0,.25-.41,1.66,1.66,0,0,0,.09-.55v-.54a1.79,1.79,0,0,0-.07-.53A1.1,1.1,0,0,0,68.57,79.37Zm-.39,1.4a1,1,0,0,1-.16.59.54.54,0,0,1-.46.21.75.75,0,0,1-.29-.06.77.77,0,0,1-.23-.14.68.68,0,0,1-.15-.19.46.46,0,0,1-.06-.21v-.65a.75.75,0,0,1,.18-.52.67.67,0,0,1,.53-.2.55.55,0,0,1,.49.21,1,1,0,0,1,.15.6Z"/><path class="cls-11" d="M71.81,80a.9.9,0,0,0-.09-.41.88.88,0,0,0-.25-.3,1.18,1.18,0,0,0-.39-.19,1.91,1.91,0,0,0-1.18.06,3,3,0,0,0-.52.28l.34.51a1.36,1.36,0,0,1,.86-.3.58.58,0,0,1,.41.12.54.54,0,0,1,.13.41v.12h-.7a1.9,1.9,0,0,0-.54.07,1,1,0,0,0-.36.18.65.65,0,0,0-.19.27,1,1,0,0,0-.06.35v.18a.77.77,0,0,0,.27.63,1.16,1.16,0,0,0,.76.22l.25,0,.25-.08a.89.89,0,0,0,.22-.13.5.5,0,0,0,.14-.18v.38h.62V80.82h.43v-.54h-.43Zm-.69.91a1.9,1.9,0,0,1,0,.28.36.36,0,0,1-.11.2.86.86,0,0,1-.63.2.49.49,0,0,1-.31-.08.28.28,0,0,1-.1-.23V81.2a.38.38,0,0,1,.11-.28.55.55,0,0,1,.38-.1h.68Z"/><polygon class="cls-11" points="73.64 81.33 73.62 81.33 72.93 79.08 72.15 79.08 73.23 82.17 72.84 83.17 73.49 83.39 75.08 79.08 74.33 79.08 73.64 81.33"/><path class="cls-11" d="M76.22,81.9a.41.41,0,0,0-.3-.12.42.42,0,0,0-.3.12.4.4,0,0,0-.12.3.42.42,0,0,0,.43.43.4.4,0,0,0,.3-.12.41.41,0,0,0,.12-.3A.41.41,0,0,0,76.22,81.9Z"/><rect class="cls-11" x="51.62" y="86.6" width="27.92" height="6.03" rx="0.2" ry="0.2"/><polygon class="cls-3" points="75.46 88.82 76.56 90.41 77.66 88.82 75.46 88.82"/><rect class="cls-3" x="87.09" y="94.76" width="84.43" height="51.41"/><rect class="cls-17" x="87.09" y="94.76" width="84.43" height="51.41"/><line class="cls-18" x1="96.97" y1="137.46" x2="168.51" y2="137.48"/><line class="cls-18" x1="96.97" y1="130.75" x2="168.51" y2="130.77"/><line class="cls-18" x1="96.97" y1="124.04" x2="168.51" y2="124.06"/><line class="cls-18" x1="96.98" y1="117.32" x2="168.52" y2="117.34"/><line class="cls-18" x1="96.98" y1="110.61" x2="168.52" y2="110.63"/><line class="cls-18" x1="96.98" y1="103.9" x2="168.52" y2="103.92"/><rect class="cls-3" x="174.87" y="94.78" width="84.43" height="51.41"/><rect class="cls-17" x="174.87" y="94.78" width="84.43" height="51.41"/><line class="cls-19" x1="184.74" y1="137.49" x2="256.11" y2="137.51"/><line class="cls-19" x1="184.74" y1="130.77" x2="256.11" y2="130.8"/><line class="cls-19" x1="184.74" y1="124.06" x2="256.11" y2="124.08"/><line class="cls-19" x1="184.75" y1="117.35" x2="256.12" y2="117.37"/><line class="cls-19" x1="184.75" y1="110.64" x2="256.12" y2="110.66"/><line class="cls-19" x1="184.75" y1="103.92" x2="256.12" y2="103.94"/><text class="cls-20" transform="translate(210.43 99.82) rotate(0.02)">총방문</text><rect class="cls-21" x="207.81" y="98.9" width="2.05" height="0.6"/><text class="cls-20" transform="translate(224.19 99.83) rotate(0.02)">매출</text><rect class="cls-22" x="221.57" y="98.9" width="2.05" height="0.6"/><rect class="cls-22" x="189.59" y="128.18" width="1.49" height="9.23"/><rect class="cls-22" x="198.67" y="126.2" width="1.49" height="11.21"/><rect class="cls-22" x="207.75" y="132.66" width="1.49" height="4.75"/><rect class="cls-22" x="221.37" y="125.29" width="1.49" height="12.12"/><rect class="cls-22" x="230.45" y="122.58" width="1.49" height="14.83"/><rect class="cls-22" x="248.61" y="128.19" width="1.49" height="9.23"/><rect class="cls-22" x="239.53" y="126.56" width="1.49" height="10.86"/><rect class="cls-22" x="194.13" y="125.28" width="1.49" height="12.12"/><rect class="cls-22" x="203.21" y="128.18" width="1.49" height="9.23"/><rect class="cls-22" x="216.83" y="130.41" width="1.49" height="7"/><rect class="cls-22" x="225.91" y="128.19" width="1.49" height="9.23"/><rect class="cls-22" x="234.99" y="130.8" width="1.49" height="6.62"/><rect class="cls-22" x="253.15" y="130.37" width="1.49" height="7.06"/><rect class="cls-22" x="244.07" y="132.73" width="1.49" height="4.69"/><rect class="cls-22" x="212.29" y="130.79" width="1.49" height="6.62"/><rect class="cls-23" x="188.06" y="123.35" width="1.49" height="14.05" transform="translate(377.58 260.81) rotate(-179.98)"/><rect class="cls-23" x="192.61" y="113.08" width="1.49" height="24.32" transform="translate(386.66 250.55) rotate(-179.98)"/><rect class="cls-23" x="197.15" y="114.66" width="1.49" height="22.75" transform="matrix(-1, 0, 0, -1, 395.74, 252.12)"/><rect class="cls-23" x="201.69" y="106.46" width="1.49" height="30.95" transform="translate(404.83 243.93) rotate(-179.98)"/><rect class="cls-23" x="206.23" y="103.93" width="1.49" height="33.48" transform="translate(413.91 241.4) rotate(-179.98)"/><rect class="cls-23" x="215.3" y="120.24" width="1.49" height="17.17" transform="translate(432.06 257.72) rotate(-179.98)"/><rect class="cls-23" x="224.38" y="116.24" width="1.49" height="21.17" transform="translate(450.22 253.73) rotate(-179.98)"/><rect class="cls-23" x="233.47" y="110.27" width="1.49" height="27.14" transform="matrix(-1, 0, 0, -1, 468.38, 247.76)"/><rect class="cls-23" x="242.54" y="122.21" width="1.49" height="15.21" transform="translate(486.54 259.7) rotate(-179.98)"/><rect class="cls-23" x="251.62" y="111.18" width="1.49" height="26.25" transform="translate(504.7 248.67) rotate(-179.98)"/><rect class="cls-23" x="210.76" y="116.31" width="1.49" height="21.1" transform="translate(422.98 253.78) rotate(-179.98)"/><rect class="cls-23" x="219.85" y="112.12" width="1.49" height="25.29" transform="translate(441.14 249.6) rotate(-179.98)"/><rect class="cls-23" x="228.93" y="107.35" width="1.49" height="30.06" transform="matrix(-1, 0, 0, -1, 459.3, 244.84)"/><rect class="cls-23" x="238" y="116.95" width="1.49" height="20.47" transform="translate(477.46 254.44) rotate(-179.98)"/><rect class="cls-23" x="247.08" y="110.28" width="1.49" height="27.14" transform="matrix(-1, 0, 0, -1, 495.62, 247.77)"/><rect class="cls-3" x="262.82" y="94.8" width="34.97" height="51.41"/><rect class="cls-17" x="262.82" y="94.8" width="34.97" height="51.41"/><rect class="cls-24" x="262.83" y="86.17" width="34.98" height="8.93"/><rect class="cls-17" x="262.83" y="86.17" width="34.98" height="8.93"/><path class="cls-13" d="M269.88,100.1h-2a2.42,2.42,0,1,0,0,4.83h2a2.42,2.42,0,1,0,0-4.83Z"/><path class="cls-13" d="M287.57,100.1h-2a2.42,2.42,0,1,0,0,4.83h2a2.42,2.42,0,1,0,0-4.83Z"/><rect class="cls-25" x="265.42" y="89.76" width="8.16" height="1.7" rx="0.85" ry="0.85"/><rect class="cls-3" x="87.07" y="149.9" width="32.01" height="21.27"/><rect class="cls-26" x="87.07" y="149.9" width="32.01" height="21.27"/><rect class="cls-3" x="87.09" y="175.01" width="32.01" height="21.27"/><rect class="cls-26" x="87.09" y="175.01" width="32.01" height="21.27"/><rect class="cls-25" x="91.65" y="153.73" width="17" height="1.7" rx="0.85" ry="0.85"/><rect class="cls-3" x="122.41" y="158.55" width="69.55" height="37.75"/><rect class="cls-17" x="122.41" y="158.55" width="69.55" height="37.75"/><rect class="cls-24" x="122.42" y="149.92" width="69.57" height="8.93"/><rect class="cls-17" x="122.42" y="149.92" width="69.57" height="8.93"/><rect class="cls-15" x="122.53" y="166.5" width="69.24" height="7.44"/><rect class="cls-15" x="122.56" y="181.33" width="69.24" height="7.44"/><rect class="cls-27" x="125.04" y="169.28" width="15.62" height="1.86" rx="0.93" ry="0.93"/><rect class="cls-23" x="125.04" y="169.28" width="15.13" height="1.86" rx="0.93" ry="0.93"/><rect class="cls-27" x="125.04" y="176.82" width="15.62" height="1.86" rx="0.93" ry="0.93"/><rect class="cls-23" x="125.04" y="176.82" width="7.81" height="1.86" rx="0.93" ry="0.93"/><rect class="cls-27" x="125.03" y="184.25" width="15.62" height="1.86" rx="0.93" ry="0.93"/><rect class="cls-23" x="125.03" y="184.25" width="10.74" height="1.86" rx="0.93" ry="0.93"/><rect class="cls-27" x="125.03" y="191.5" width="15.62" height="1.86" rx="0.93" ry="0.93"/><rect class="cls-23" x="125.03" y="191.5" width="12.49" height="1.86" rx="0.93" ry="0.93"/><rect class="cls-3" x="195.3" y="158.57" width="49.85" height="37.75"/><rect class="cls-17" x="195.3" y="158.57" width="49.85" height="37.75"/><rect class="cls-24" x="195.31" y="149.94" width="49.86" height="8.93"/><rect class="cls-17" x="195.31" y="149.94" width="49.86" height="8.93"/><line class="cls-28" x1="205.18" y1="189.52" x2="241.07" y2="189.53"/><line class="cls-28" x1="205.18" y1="185.01" x2="241.07" y2="185.02"/><line class="cls-28" x1="205.18" y1="180.5" x2="241.07" y2="180.51"/><line class="cls-28" x1="205.18" y1="175.99" x2="241.07" y2="176"/><line class="cls-28" x1="205.18" y1="171.48" x2="241.07" y2="171.49"/><line class="cls-28" x1="205.19" y1="166.97" x2="241.08" y2="166.98"/><rect class="cls-3" x="211.49" y="208.95" width="86.02" height="39.79"/><rect class="cls-29" x="211.49" y="208.95" width="86.02" height="39.79"/><rect class="cls-24" x="211.5" y="200.03" width="86.02" height="8.93"/><rect class="cls-30" x="211.5" y="200.03" width="86.02" height="8.93"/><rect class="cls-31" x="213.71" y="215.01" width="81.25" height="5.95"/><rect class="cls-31" x="213.71" y="226.91" width="81.25" height="5.95"/><rect class="cls-3" x="213.71" y="220.96" width="81.25" height="5.95"/><rect class="cls-3" x="87.09" y="208.92" width="121.06" height="40.06"/><rect class="cls-29" x="87.09" y="208.92" width="121.06" height="40.06"/><rect class="cls-24" x="87.09" y="200" width="121.06" height="8.93"/><rect class="cls-17" x="87.09" y="200" width="121.06" height="8.93"/><rect class="cls-31" x="89.31" y="214.98" width="116.61" height="5.95"/><rect class="cls-31" x="89.3" y="226.88" width="116.61" height="5.95"/><rect class="cls-3" x="89.3" y="220.93" width="81.25" height="5.95"/><rect class="cls-24" x="87.1" y="86.13" width="84.45" height="8.93"/><rect class="cls-17" x="87.1" y="86.13" width="84.45" height="8.93"/><rect class="cls-25" x="163.76" y="90.07" width="4.76" height="1.02" rx="0.51" ry="0.51"/><rect class="cls-25" x="91.67" y="89.5" width="17" height="1.7" rx="0.85" ry="0.85"/><rect class="cls-24" x="174.86" y="86.16" width="84.45" height="8.93"/><rect class="cls-17" x="174.86" y="86.16" width="84.45" height="8.93"/><rect class="cls-25" x="251.36" y="90.1" width="4.76" height="1.02" rx="0.51" ry="0.51"/><rect class="cls-25" x="179.43" y="89.52" width="17" height="1.7" rx="0.85" ry="0.85"/><rect class="cls-25" x="290.5" y="90.11" width="4.76" height="1.02" rx="0.51" ry="0.51"/><rect class="cls-32" x="122.96" y="97.54" width="4.76" height="1.02" rx="0.51" ry="0.51"/><rect class="cls-33" x="132.96" y="97.54" width="4.76" height="1.02" rx="0.51" ry="0.51"/><rect class="cls-13" x="90.08" y="103.14" width="6.12" height="1.52" rx="0.76" ry="0.76"/><rect class="cls-13" x="90.08" y="109.85" width="6.12" height="1.52" rx="0.76" ry="0.76"/><rect class="cls-13" x="90.08" y="116.56" width="6.12" height="1.52" rx="0.76" ry="0.76"/><rect class="cls-13" x="90.08" y="123.46" width="6.12" height="1.52" rx="0.76" ry="0.76"/><rect class="cls-13" x="90.08" y="129.87" width="6.12" height="1.52" rx="0.76" ry="0.76"/><rect class="cls-13" x="90.07" y="136.66" width="6.12" height="1.52" rx="0.76" ry="0.76"/><rect class="cls-25" x="100.49" y="139.21" width="5.1" height="1.7" rx="0.85" ry="0.85"/><rect class="cls-25" x="102.19" y="141.56" width="1.7" height="1.7" rx="0.85" ry="0.85"/><rect class="cls-25" x="112.04" y="139.21" width="5.1" height="1.7" rx="0.85" ry="0.85"/><rect class="cls-25" x="113.74" y="141.57" width="1.7" height="1.7" rx="0.85" ry="0.85"/><rect class="cls-25" x="123.6" y="139.21" width="5.1" height="1.7" rx="0.85" ry="0.85"/><rect class="cls-25" x="125.3" y="141.57" width="1.7" height="1.7" rx="0.85" ry="0.85"/><rect class="cls-25" x="135.16" y="139.22" width="5.1" height="1.7" rx="0.85" ry="0.85"/><rect class="cls-25" x="136.86" y="141.58" width="1.7" height="1.7" rx="0.85" ry="0.85"/><rect class="cls-25" x="146.71" y="139.22" width="5.1" height="1.7" rx="0.85" ry="0.85"/><rect class="cls-25" x="148.41" y="141.58" width="1.7" height="1.7" rx="0.85" ry="0.85"/><rect class="cls-25" x="158.27" y="139.22" width="5.1" height="1.7" rx="0.85" ry="0.85"/><rect class="cls-25" x="159.97" y="141.58" width="1.7" height="1.7" rx="0.85" ry="0.85"/><rect class="cls-13" x="178.07" y="103.16" width="6.12" height="1.52" rx="0.76" ry="0.76"/><rect class="cls-13" x="178.07" y="109.88" width="6.12" height="1.52" rx="0.76" ry="0.76"/><rect class="cls-13" x="178.07" y="116.59" width="6.12" height="1.52" rx="0.76" ry="0.76"/><rect class="cls-13" x="178.07" y="123.49" width="6.12" height="1.52" rx="0.76" ry="0.76"/><rect class="cls-13" x="178.06" y="129.9" width="6.12" height="1.52" rx="0.76" ry="0.76"/><rect class="cls-13" x="178.06" y="136.64" width="6.12" height="1.52" rx="0.76" ry="0.76"/><rect class="cls-25" x="185.86" y="139.23" width="5.1" height="1.7" rx="0.85" ry="0.85"/><rect class="cls-25" x="187.56" y="141.59" width="1.7" height="1.7" rx="0.85" ry="0.85"/><rect class="cls-25" x="197.42" y="139.23" width="5.1" height="1.7" rx="0.85" ry="0.85"/><rect class="cls-25" x="199.12" y="141.59" width="1.7" height="1.7" rx="0.85" ry="0.85"/><rect class="cls-25" x="208.97" y="139.24" width="5.1" height="1.7" rx="0.85" ry="0.85"/><rect class="cls-25" x="210.67" y="141.59" width="1.7" height="1.7" rx="0.85" ry="0.85"/><rect class="cls-25" x="220.53" y="139.24" width="5.1" height="1.7" rx="0.85" ry="0.85"/><rect class="cls-25" x="222.23" y="141.6" width="1.7" height="1.7" rx="0.85" ry="0.85"/><rect class="cls-25" x="232.09" y="139.24" width="5.1" height="1.7" rx="0.85" ry="0.85"/><rect class="cls-25" x="233.79" y="141.6" width="1.7" height="1.7" rx="0.85" ry="0.85"/><rect class="cls-25" x="243.64" y="139.25" width="5.1" height="1.7" rx="0.85" ry="0.85"/><rect class="cls-25" x="245.34" y="141.6" width="1.7" height="1.7" rx="0.85" ry="0.85"/><rect class="cls-13" x="265.76" y="110.66" width="4.42" height="1.7" rx="0.85" ry="0.85"/><rect class="cls-13" x="283.59" y="110.67" width="4.42" height="1.7" rx="0.85" ry="0.85"/><rect class="cls-34" x="265.76" y="113.53" width="10.38" height="2.34" rx="1.17" ry="1.17"/><rect class="cls-34" x="283.43" y="113.53" width="10.38" height="2.34" rx="1.17" ry="1.17"/><rect class="cls-13" x="265.76" y="123.02" width="4.42" height="1.7" rx="0.85" ry="0.85"/><rect class="cls-13" x="283.59" y="123.02" width="4.42" height="1.7" rx="0.85" ry="0.85"/><rect class="cls-35" x="265.76" y="125.88" width="10.38" height="2.34" rx="1.17" ry="1.17"/><rect class="cls-35" x="283.42" y="125.89" width="10.38" height="2.34" rx="1.17" ry="1.17"/><rect class="cls-13" x="265.76" y="134.91" width="4.42" height="1.7" rx="0.85" ry="0.85"/><rect class="cls-13" x="283.59" y="134.91" width="4.42" height="1.7" rx="0.85" ry="0.85"/><g class="cls-36"><rect class="cls-37" x="265.75" y="137.78" width="10.38" height="2.34" rx="1.17" ry="1.17"/><rect class="cls-37" x="283.42" y="137.78" width="10.38" height="2.34" rx="1.17" ry="1.17"/></g><rect class="cls-25" x="91.64" y="179.29" width="17" height="1.7" rx="0.85" ry="0.85"/><rect class="cls-37" x="100.31" y="161.27" width="14.96" height="7.12" rx="3.56" ry="3.56"/><rect class="cls-35" x="100.31" y="185.93" width="14.96" height="7.12" rx="3.56" ry="3.56"/><rect class="cls-25" x="126.65" y="153.53" width="17" height="1.7" rx="0.85" ry="0.85"/><rect class="cls-38" x="125.22" y="162.27" width="8.16" height="1.52" rx="0.76" ry="0.76"/><rect class="cls-38" x="145.86" y="162.28" width="6.12" height="1.52" rx="0.76" ry="0.76"/><rect class="cls-38" x="161.2" y="162.29" width="8.84" height="1.52" rx="0.76" ry="0.76"/><rect class="cls-38" x="178.13" y="162.29" width="6.12" height="1.52" rx="0.76" ry="0.76"/><rect class="cls-25" x="145.86" y="169.36" width="5.78" height="1.7" rx="0.8" ry="0.8"/><rect class="cls-25" x="145.85" y="176.78" width="9.32" height="1.7" rx="0.85" ry="0.85"/><rect class="cls-25" x="145.85" y="184.19" width="11.29" height="1.7" rx="0.85" ry="0.85"/><rect class="cls-25" x="145.85" y="191.59" width="5.78" height="1.7" rx="0.8" ry="0.8"/><rect class="cls-25" x="161.51" y="191.59" width="3.4" height="1.7" rx="0.85" ry="0.85"/><rect class="cls-25" x="161.51" y="184.2" width="3.4" height="1.7" rx="0.85" ry="0.85"/><rect class="cls-25" x="161.51" y="176.78" width="3.4" height="1.7" rx="0.85" ry="0.85"/><rect class="cls-25" x="161.51" y="169.36" width="3.4" height="1.7" rx="0.85" ry="0.85"/><rect class="cls-38" x="176.93" y="169.37" width="8.5" height="1.7" rx="0.85" ry="0.85"/><rect class="cls-38" x="176.93" y="176.79" width="8.5" height="1.7" rx="0.85" ry="0.85"/><rect class="cls-38" x="176.93" y="184.2" width="8.5" height="1.7" rx="0.85" ry="0.85"/><rect class="cls-38" x="176.93" y="191.6" width="8.5" height="1.7" rx="0.85" ry="0.85"/><rect class="cls-13" x="198.09" y="166.4" width="6.12" height="1.52" rx="0.76" ry="0.76"/><rect class="cls-13" x="198.08" y="175.23" width="6.12" height="1.52" rx="0.76" ry="0.76"/><rect class="cls-13" x="198.08" y="184.3" width="6.12" height="1.52" rx="0.76" ry="0.76"/><rect class="cls-39" x="213.08" y="161.35" width="4.76" height="1.02" rx="0.51" ry="0.51"/><rect class="cls-40" x="223.07" y="161.36" width="4.76" height="1.02" rx="0.51" ry="0.51"/><rect class="cls-25" x="208.73" y="190.75" width="5.1" height="1.7" rx="0.85" ry="0.85"/><rect class="cls-25" x="210.43" y="193.11" width="1.7" height="1.7" rx="0.85" ry="0.85"/><rect class="cls-25" x="220.29" y="190.76" width="5.1" height="1.7" rx="0.85" ry="0.85"/><rect class="cls-25" x="221.99" y="193.12" width="1.7" height="1.7" rx="0.85" ry="0.85"/><rect class="cls-25" x="231.85" y="190.76" width="5.1" height="1.7" rx="0.85" ry="0.85"/><rect class="cls-25" x="233.55" y="193.12" width="1.7" height="1.7" rx="0.85" ry="0.85"/><rect class="cls-25" x="261.38" y="190.77" width="5.1" height="1.7" rx="0.85" ry="0.85"/><rect class="cls-25" x="263.08" y="193.13" width="1.7" height="1.7" rx="0.85" ry="0.85"/><rect class="cls-25" x="272.94" y="190.77" width="5.1" height="1.7" rx="0.85" ry="0.85"/><rect class="cls-25" x="274.64" y="193.13" width="1.7" height="1.7" rx="0.85" ry="0.85"/><rect class="cls-25" x="284.49" y="190.78" width="5.1" height="1.7" rx="0.85" ry="0.85"/><rect class="cls-25" x="286.19" y="193.13" width="1.7" height="1.7" rx="0.85" ry="0.85"/><rect class="cls-25" x="197.82" y="153.55" width="17" height="1.7" rx="0.85" ry="0.85"/><rect class="cls-25" x="91.46" y="203.59" width="17" height="1.7" rx="0.85" ry="0.85"/><rect class="cls-25" x="197.81" y="203.96" width="4.76" height="1.02" rx="0.51" ry="0.51"/><rect class="cls-25" x="214.78" y="203.63" width="11.56" height="1.7" rx="0.7" ry="0.7"/><rect class="cls-25" x="287.99" y="203.99" width="4.76" height="1.02" rx="0.51" ry="0.51"/><rect class="cls-38" x="100.68" y="211.92" width="6.12" height="1.52" rx="0.76" ry="0.76"/><rect class="cls-38" x="91.37" y="211.92" width="4.08" height="1.52" rx="0.76" ry="0.76"/><rect class="cls-38" x="192.91" y="211.95" width="4.76" height="1.52" rx="0.76" ry="0.76"/><rect class="cls-25" x="91.71" y="217.16" width="3.4" height="1.7" rx="0.85" ry="0.85"/><rect class="cls-25" x="100.68" y="217.16" width="41.15" height="1.7" rx="0.85" ry="0.85"/><rect class="cls-25" x="193.15" y="217.19" width="6.72" height="1.7" rx="0.85" ry="0.85"/><rect class="cls-13" x="91.71" y="223.04" width="3.4" height="1.7" rx="0.85" ry="0.85"/><rect class="cls-13" x="100.68" y="223.05" width="41.15" height="1.7" rx="0.85" ry="0.85"/><rect class="cls-13" x="193.15" y="223.07" width="6.72" height="1.7" rx="0.85" ry="0.85"/><rect class="cls-25" x="91.7" y="229.02" width="3.4" height="1.7" rx="0.85" ry="0.85"/><rect class="cls-25" x="100.68" y="229.03" width="41.15" height="1.7" rx="0.85" ry="0.85"/><rect class="cls-25" x="193.15" y="229.05" width="6.72" height="1.7" rx="0.85" ry="0.85"/><rect class="cls-38" x="225.99" y="211.96" width="6.12" height="1.52" rx="0.76" ry="0.76"/><rect class="cls-38" x="216.67" y="211.95" width="4.08" height="1.52" rx="0.76" ry="0.76"/><rect class="cls-38" x="285.23" y="211.97" width="4.76" height="1.52" rx="0.76" ry="0.76"/><rect class="cls-25" x="217.01" y="217.19" width="3.4" height="1.7" rx="0.85" ry="0.85"/><rect class="cls-25" x="225.98" y="217.2" width="32.18" height="1.7" rx="0.85" ry="0.85"/><rect class="cls-25" x="285.23" y="217.21" width="6.72" height="1.7" rx="0.85" ry="0.85"/><rect class="cls-13" x="217.01" y="223.08" width="3.4" height="1.7" rx="0.85" ry="0.85"/><rect class="cls-13" x="225.98" y="223.08" width="32.18" height="1.7" rx="0.85" ry="0.85"/><rect class="cls-13" x="285.22" y="223.1" width="6.72" height="1.7" rx="0.85" ry="0.85"/><rect class="cls-25" x="217.01" y="229.06" width="3.4" height="1.7" rx="0.85" ry="0.85"/><rect class="cls-25" x="225.98" y="229.07" width="32.18" height="1.7" rx="0.85" ry="0.85"/><rect class="cls-25" x="285.22" y="229.08" width="6.72" height="1.7" rx="0.85" ry="0.85"/><rect class="cls-38" x="57.05" y="156.82" width="17" height="3.4" rx="1.7" ry="1.7"/><rect class="cls-25" x="91.67" y="89.5" width="17" height="1.7" rx="0.85" ry="0.85"/><rect class="cls-15" x="51.69" y="95.53" width="27.84" height="15.2"/><rect class="cls-11" x="53.61" y="97.5" width="8.52" height="1.79" rx="0.9" ry="0.9"/><rect class="cls-25" x="53.61" y="101.23" width="3.34" height="1.79" rx="0.9" ry="0.9"/><rect class="cls-25" x="62.09" y="101.24" width="13.74" height="1.79" rx="0.9" ry="0.9"/><rect class="cls-38" x="53.61" y="104.09" width="6.58" height="1.79" rx="0.9" ry="0.9"/><rect class="cls-25" x="62.09" y="104.1" width="11.76" height="1.79" rx="0.83" ry="0.83"/><rect class="cls-38" x="53.61" y="106.95" width="5.64" height="1.79" rx="0.83" ry="0.83"/><rect class="cls-25" x="62.09" y="106.96" width="5.88" height="1.79" rx="0.9" ry="0.9"/><circle class="cls-11" cx="56.41" cy="117.45" r="1.91"/><rect class="cls-11" x="60.15" y="116.24" width="9.52" height="2.38" rx="1.19" ry="1.19"/><circle class="cls-13" cx="56.41" cy="124.41" r="1.91"/><rect class="cls-13" x="60.14" y="123.2" width="9.52" height="2.38" rx="1.19" ry="1.19"/><circle class="cls-13" cx="56.41" cy="131.38" r="1.91"/><rect class="cls-13" x="60.14" y="130.16" width="9.52" height="2.38" rx="1.19" ry="1.19"/><circle class="cls-13" cx="56.41" cy="138.34" r="1.91"/><rect class="cls-13" x="60.14" y="137.12" width="9.52" height="2.38" rx="1.19" ry="1.19"/><circle class="cls-13" cx="56.4" cy="145.3" r="1.91"/><rect class="cls-13" x="60.14" y="144.09" width="9.52" height="2.38" rx="1.19" ry="1.19"/><rect class="cls-41" x="245.35" y="76.86" width="9.32" height="1.02" rx="0.45" ry="0.45"/><rect class="cls-41" x="257.6" y="76.87" width="9.32" height="1.02" rx="0.45" ry="0.45"/><rect class="cls-41" x="269.86" y="76.87" width="6.21" height="1.02" rx="0.45" ry="0.45"/><rect class="cls-41" x="279.18" y="76.41" width="11.65" height="1.94" rx="0.97" ry="0.97"/><circle class="cls-41" cx="294.29" cy="77.42" r="2.21"/><circle class="cls-11" cx="294.29" cy="76.55" r="0.82"/><path class="cls-11" d="M294.29,79.63a2.2,2.2,0,0,0,1.7-.82,1.74,1.74,0,0,0-3.4,0A2.2,2.2,0,0,0,294.29,79.63Z"/><rect class="cls-24" x="90.94" y="77.02" width="9.18" height="1.02" rx="0.41" ry="0.41"/><rect class="cls-41" x="110.14" y="77.03" width="9.18" height="1.02" rx="0.41" ry="0.41"/><polygon class="cls-16" points="82.86 72.71 82.81 252.16 82.99 252.15 83.04 72.71 82.86 72.71"/><polyline class="cls-42" points="99.79 124.91 109.45 121.88 115.14 125.47 121.93 135.84 128.99 125.6 136.14 127.88 146.39 123.86 152.83 114.55 159.71 111.84 165.88 106.62"/><polyline class="cls-43" points="99.89 130.14 109.48 123.82 115.2 128.22 121.88 132.99 129.04 128.39 136.21 131.59 146.49 128.68 152.9 117.99 159.75 114.2 165.93 109.39"/><polyline class="cls-44" points="204.96 189.56 213.77 189.07 217.34 180.76 220.29 173.56 225.59 171.75 231.03 172.22 234.6 173.91 239.21 170.21"/><polyline class="cls-45" points="204.96 189.56 214.75 189.56 220.74 177.53 225.96 176.82 231.17 175.11 234.66 177.95 239.21 173.34"/><rect class="cls-3" x="247.93" y="158.58" width="49.85" height="37.75"/><rect class="cls-17" x="247.93" y="158.58" width="49.85" height="37.75"/><rect class="cls-24" x="247.94" y="149.95" width="49.86" height="8.93"/><rect class="cls-17" x="247.94" y="149.95" width="49.86" height="8.93"/><line class="cls-28" x1="258.18" y1="189.54" x2="294.07" y2="189.55"/><line class="cls-28" x1="258.18" y1="185.03" x2="294.07" y2="185.04"/><line class="cls-28" x1="258.18" y1="180.52" x2="294.07" y2="180.53"/><line class="cls-28" x1="258.18" y1="176" x2="294.07" y2="176.02"/><line class="cls-28" x1="258.18" y1="171.49" x2="294.07" y2="171.5"/><line class="cls-28" x1="258.18" y1="166.98" x2="294.07" y2="166.99"/><rect class="cls-13" x="250.73" y="166.41" width="6.12" height="1.52" rx="0.76" ry="0.76"/><rect class="cls-13" x="250.73" y="175.24" width="6.12" height="1.52" rx="0.76" ry="0.76"/><rect class="cls-13" x="250.73" y="184.31" width="6.12" height="1.52" rx="0.76" ry="0.76"/><rect class="cls-46" x="265.72" y="161.37" width="4.76" height="1.02" rx="0.51" ry="0.51"/><rect class="cls-40" x="275.72" y="161.37" width="4.76" height="1.02" rx="0.51" ry="0.51"/><rect class="cls-25" x="250.74" y="153.56" width="9.52" height="1.7" rx="0.85" ry="0.85"/><polyline class="cls-44" points="258.81 189.56 267.61 189.08 271.18 180.78 274.13 173.57 279.43 170.46 284.87 172.23 288.44 173.91 293.05 171.66"/><polyline class="cls-47" points="258.81 189.56 268.59 189.57 274.59 179.23 279.81 176.83 285.01 175.12 288.51 177.96 293.05 173.35"/><rect class="cls-31" x="213.71" y="239.74" width="81.25" height="5.95"/><rect class="cls-31" x="89.3" y="239.71" width="116.61" height="5.95"/><rect class="cls-13" x="91.71" y="235.37" width="3.4" height="1.7" rx="0.85" ry="0.85"/><rect class="cls-13" x="100.68" y="235.37" width="41.15" height="1.7" rx="0.85" ry="0.85"/><rect class="cls-13" x="193.15" y="235.4" width="6.72" height="1.7" rx="0.85" ry="0.85"/><rect class="cls-25" x="91.7" y="241.85" width="3.4" height="1.7" rx="0.85" ry="0.85"/><rect class="cls-25" x="100.68" y="241.86" width="41.15" height="1.7" rx="0.85" ry="0.85"/><rect class="cls-25" x="193.15" y="241.88" width="6.72" height="1.7" rx="0.85" ry="0.85"/><rect class="cls-13" x="217.01" y="235.4" width="3.4" height="1.7" rx="0.85" ry="0.85"/><rect class="cls-13" x="225.98" y="235.41" width="32.18" height="1.7" rx="0.85" ry="0.85"/><rect class="cls-13" x="285.22" y="235.42" width="6.72" height="1.7" rx="0.85" ry="0.85"/><rect class="cls-25" x="217.01" y="241.89" width="3.4" height="1.7" rx="0.85" ry="0.85"/><rect class="cls-25" x="225.98" y="241.9" width="32.18" height="1.7" rx="0.85" ry="0.85"/><rect class="cls-25" x="285.22" y="241.91" width="6.72" height="1.7" rx="0.85" ry="0.85"/></g></g><path class="cls-48" d="M301.09,62.68a1.15,1.15,0,0,1,1.15,1.15V220.62a1.15,1.15,0,0,1-1.15,1.15H49.26a1.15,1.15,0,0,1-1.15-1.15V63.83a1.15,1.15,0,0,1,1.15-1.15H301.09"/><path class="cls-49" d="M301.09,62.68a1.15,1.15,0,0,1,1.15,1.15V220.62a1.15,1.15,0,0,1-1.15,1.15H49.26a1.15,1.15,0,0,1-1.15-1.15V63.83a1.15,1.15,0,0,1,1.15-1.15H301.09"/></g></g></svg>