<svg xmlns="http://www.w3.org/2000/svg" width="150" height="150" viewBox="0 0 80 80"><defs><style>.cls-1{fill:#b8f4ee;}.cls-2{fill:#6999f9;}.cls-3{fill:#3d34b7;}.cls-4{fill:#fff;}.cls-5{fill:#2c1f7c;}</style></defs><title>자산 4</title><g id="레이어_2" data-name="레이어 2"><g id="레이어_1-2" data-name="레이어 1"><rect class="cls-1" width="80" height="80" rx="4.8" ry="4.8"/><rect class="cls-2" x="14.55" y="21.77" width="47.55" height="34.83" rx="2.65" ry="2.65"/><rect class="cls-3" x="17.68" y="25.37" width="41.29" height="30.24" rx="2.3" ry="2.3"/><path class="cls-2" d="M8,53.51H68.64a0,0,0,0,1,0,0v2.75a2,2,0,0,1-2,2H10a2,2,0,0,1-2-2V53.51a0,0,0,0,1,0,0Z"/><rect class="cls-4" x="23.63" y="31.46" width="35.33" height="22.04"/><path class="cls-2" d="M59,29.11H26a2.33,2.33,0,0,0-2.33,2.33v1.15H59Z"/><path class="cls-3" d="M30.14,53.51H46.5a0,0,0,0,1,0,0v1.75a1.29,1.29,0,0,1-1.29,1.29H31.44a1.29,1.29,0,0,1-1.29-1.29V53.51A0,0,0,0,1,30.14,53.51Z"/><path class="cls-5" d="M69,23.83H34.35a3,3,0,0,0-3,3V43.72c-.25,3-2.06,5.42-4.3,5.53a4.68,4.68,0,0,0,3.41.89,4.23,4.23,0,0,0,1.9-.91,2.21,2.21,0,0,0,2,1H69a3,3,0,0,0,3-3V26.84A3,3,0,0,0,69,23.83Z"/><polygon class="cls-2" points="38.82 37.44 46.32 42.5 46.32 40.05 41.2 36.7 46.32 33.14 46.32 30.69 38.82 35.92 38.82 37.44"/><polygon class="cls-2" points="58.6 30.69 58.6 33.14 63.72 36.7 58.6 40.05 58.6 42.5 66.1 37.44 66.1 35.92 58.6 30.69"/><polygon class="cls-2" points="49.79 42.17 51.7 42.17 55.13 31.04 53.23 31.04 49.79 42.17"/></g></g></svg>