<svg xmlns="http://www.w3.org/2000/svg" viewBox="0 0 93.86 24"><defs><style>.cls-1{fill:#2f374d;}</style></defs><title>자산 48</title><g id="레이어_2" data-name="레이어 2"><g id="레이어_1-2" data-name="레이어 1"><polygon class="cls-1" points="42.76 5.29 41.1 5.29 38.86 5.29 38.86 6.7 41.1 6.7 42.76 6.7 46.39 6.7 46.39 5.29 42.76 5.29"/><path class="cls-1" d="M9.36,6.52a4.5,4.5,0,0,0-1.64-1.1A5.8,5.8,0,0,0,5.58,5a4.86,4.86,0,0,0-2.29.55A4,4,0,0,0,1.66,7.14V0H0V18.42H1.63V16.86h0a4.51,4.51,0,0,0,1.53,1.23,5.08,5.08,0,0,0,2.39.52,5.66,5.66,0,0,0,2.08-.38,4.62,4.62,0,0,0,1.66-1.1,5,5,0,0,0,1.08-1.77A6.82,6.82,0,0,0,10.79,13V10.67a7,7,0,0,0-.38-2.39A5,5,0,0,0,9.36,6.52Zm-.22,6.23a4.86,4.86,0,0,1-1,3.25,3.33,3.33,0,0,1-2.67,1.16,4.26,4.26,0,0,1-1.55-.27,4.1,4.1,0,0,1-1.21-.71,3.24,3.24,0,0,1-.79-1,2.46,2.46,0,0,1-.28-1.13V10.21A3.36,3.36,0,0,1,2,8.66a3.74,3.74,0,0,1,.89-1.15A3.84,3.84,0,0,1,4.12,6.8a4.06,4.06,0,0,1,1.36-.24A3.37,3.37,0,0,1,8.15,7.68a4.76,4.76,0,0,1,1,3.24Z"/><path class="cls-1" d="M18.47,5a5.39,5.39,0,0,0-4.12,1.55A6.19,6.19,0,0,0,12.89,11v1.63a6.2,6.2,0,0,0,1.46,4.41,5.37,5.37,0,0,0,4.12,1.56,5.37,5.37,0,0,0,4.12-1.56A6.2,6.2,0,0,0,24,12.65V11A6.2,6.2,0,0,0,22.59,6.6,5.37,5.37,0,0,0,18.47,5Zm3.9,7.5a5,5,0,0,1-1,3.47,3.68,3.68,0,0,1-2.86,1.13A3.68,3.68,0,0,1,15.61,16a5,5,0,0,1-1-3.47V11.11a5,5,0,0,1,1-3.47,3.68,3.68,0,0,1,2.86-1.13,3.68,3.68,0,0,1,2.86,1.13,5,5,0,0,1,1,3.47Z"/><path class="cls-1" d="M31.7,5a5.39,5.39,0,0,0-4.12,1.55A6.19,6.19,0,0,0,26.12,11v1.63a6.2,6.2,0,0,0,1.46,4.41,5.37,5.37,0,0,0,4.12,1.56,5.37,5.37,0,0,0,4.12-1.56,6.2,6.2,0,0,0,1.46-4.41V11A6.2,6.2,0,0,0,35.82,6.6,5.37,5.37,0,0,0,31.7,5Zm3.9,7.5a5,5,0,0,1-1,3.47,3.68,3.68,0,0,1-2.86,1.13A3.68,3.68,0,0,1,28.84,16a5,5,0,0,1-1-3.47V11.11a5,5,0,0,1,1-3.47A3.68,3.68,0,0,1,31.7,6.51a3.68,3.68,0,0,1,2.86,1.13,5,5,0,0,1,1,3.47Z"/><rect class="cls-1" x="41.1" y="1.9" width="1.66" height="3.39"/><path class="cls-1" d="M44.61,17.1a1.72,1.72,0,0,1-1.43-.54,3.09,3.09,0,0,1-.43-1.88v-8H41.1v8.06a6.55,6.55,0,0,0,.21,1.79,2.77,2.77,0,0,0,.62,1.16,2.36,2.36,0,0,0,1.06.63,5.19,5.19,0,0,0,1.5.2,9.18,9.18,0,0,0,1.18-.09,4.89,4.89,0,0,0,1-.23l-.24-1.36A6.93,6.93,0,0,1,44.61,17.1Z"/><path class="cls-1" d="M59.6,6.27A4.49,4.49,0,0,0,58,5.12a5.9,5.9,0,0,0-2.3-.41,6.22,6.22,0,0,0-1,.09,5.05,5.05,0,0,0-1,.28,4.21,4.21,0,0,0-1,.54,3.38,3.38,0,0,0-.8.85V5H48.93V23.63H52V17.06a3.84,3.84,0,0,0,1.41,1.13,4.75,4.75,0,0,0,2.1.43,6,6,0,0,0,2.24-.4,4.69,4.69,0,0,0,1.71-1.16,5.14,5.14,0,0,0,1.08-1.83,7.31,7.31,0,0,0,.38-2.44V10.43a7.92,7.92,0,0,0-.33-2.35A4.85,4.85,0,0,0,59.6,6.27Zm-1.73,6.18a4.33,4.33,0,0,1-.69,2.62,2.37,2.37,0,0,1-2,.94,3.32,3.32,0,0,1-1.29-.24,3.4,3.4,0,0,1-1-.62,3,3,0,0,1-.66-.85,2,2,0,0,1-.24-.94V10.5a3.3,3.3,0,0,1,.79-2.28,3,3,0,0,1,2.33-.89,2.43,2.43,0,0,1,2.14.94,4.56,4.56,0,0,1,.66,2.64Z"/><path class="cls-1" d="M73.88,9a4,4,0,0,0-.4-1.81,3.88,3.88,0,0,0-1.12-1.34A5.19,5.19,0,0,0,70.64,5a8.41,8.41,0,0,0-5.19.26,13,13,0,0,0-2.31,1.25l1.51,2.24a6,6,0,0,1,3.8-1.34A2.55,2.55,0,0,1,70.26,8a2.39,2.39,0,0,1,.57,1.79v.51H67.76a8.39,8.39,0,0,0-2.39.29,4.25,4.25,0,0,0-1.57.8,2.88,2.88,0,0,0-.85,1.21,4.38,4.38,0,0,0-.26,1.52v.78a3.39,3.39,0,0,0,1.19,2.77,5.14,5.14,0,0,0,3.36,1,5.48,5.48,0,0,0,1.12-.12,5.83,5.83,0,0,0,1.12-.35,3.94,3.94,0,0,0,1-.58,2.19,2.19,0,0,0,.62-.79l0,1.66h2.75V12.65h1.9V10.26h-1.9Zm-3,4a8.37,8.37,0,0,1-.07,1.23,1.6,1.6,0,0,1-.49.89,3.78,3.78,0,0,1-2.78.9,2.17,2.17,0,0,1-1.36-.37,1.23,1.23,0,0,1-.46-1v-.29a1.66,1.66,0,0,1,.48-1.24,2.42,2.42,0,0,1,1.69-.46h3Z"/><polygon class="cls-1" points="81.94 14.91 81.84 14.91 78.8 5 75.39 5 80.16 18.59 78.43 23 81.31 24 88.28 5 85.01 5 81.94 14.91"/><path class="cls-1" d="M93.32,17.42A1.79,1.79,0,0,0,92,16.89a1.83,1.83,0,0,0-1.33.54,1.77,1.77,0,0,0-.55,1.32A1.87,1.87,0,0,0,92,20.61a1.77,1.77,0,0,0,1.32-.55,1.83,1.83,0,0,0,.54-1.33A1.79,1.79,0,0,0,93.32,17.42Z"/></g></g></svg>